<svg xmlns="http://www.w3.org/2000/svg" version="1.0" width="594.498801pt" height="868.155195pt" viewBox="0 0 594.498801 868.155195" preserveAspectRatio="xMidYMid meet">

<g transform="translate(-211.168023,942.606871) scale(0.100000,-0.100000)" fill="#000000" stroke="none">
<path fill="rgb(228, 171, 0)" d="M3920 9416 c-20 -7 -61 -27 -91 -44 -81 -46 -128 -60 -260 -76 -130 -16 -185 -36 -242 -86 -67 -59 -127 -192 -127 -282 0 -36 2 -39 23 -32 109 34 116 40 267 182 83 79 168 151 188 159 58 26 196 23 248 -4 58 -31 128 -112 171 -201 37 -73 38 -80 37 -177 -1 -154 -29 -209 -222 -440 -137 -162 -192 -216 -262 -254 -32 -18 -49 -32 -40 -34 8 -2 35 -9 60 -15 25 -6 93 -25 153 -41 l107 -29 78 51 c188 126 245 234 258 482 6 120 9 107 -96 390 -40 110 -13 195 75 231 27 12 45 25 45 35 0 24 -129 142 -183 168 -57 28 -140 35 -187 17z"/>
<path fill="rgb(228, 171, 0)"  d="M4652 9395 c-58 -18 -100 -52 -171 -139 l-60 -75 83 -60 c162 -117 248 -241 281 -406 17 -80 15 -177 -5 -245 -5 -16 -7 -30 -5 -30 2 0 23 30 48 68 40 61 87 162 132 284 20 53 75 124 105 133 23 7 26 37 9 117 -15 71 -33 96 -84 119 -54 24 -80 56 -89 110 -10 64 -33 99 -79 120 -49 22 -104 23 -165 4z"/>
<path fill="rgb(228, 171, 0)"  d="M3692 9158 c-22 -13 -93 -74 -159 -136 -65 -63 -107 -107 -93 -98 60 37 227 58 287 35 124 -46 184 -179 136 -301 -23 -61 -64 -109 -266 -314 l-178 -182 41 -7 c34 -6 48 -3 69 13 15 10 46 29 69 41 60 31 107 76 237 226 183 213 229 299 228 433 0 49 -7 76 -32 126 -35 71 -100 150 -142 171 -45 24 -148 19 -197 -7z"/>
<path fill="rgb(228, 171, 0)"  d="M4290 9139 c-76 -31 -78 -76 -11 -242 62 -156 76 -237 61 -380 -6 -58 -18 -129 -26 -158 -36 -122 -118 -231 -225 -300 -125 -82 8 -55 203 41 132 65 231 132 309 210 88 87 114 158 113 305 -2 197 -82 326 -298 479 -83 59 -87 60 -126 45z"/>
<path fill="rgb(228, 171, 0)"  d="M2978 8954 c-81 -19 -172 -68 -202 -107 -14 -18 -33 -53 -41 -77 -26 -75 -60 -122 -143 -201 -72 -68 -81 -81 -92 -131 -31 -140 77 -297 240 -348 126 -40 284 -34 379 15 23 12 22 12 -24 24 -99 25 -160 73 -207 164 -33 63 -37 203 -9 277 35 92 107 171 243 265 10 7 13 26 10 73 l-4 62 -46 -1 c-26 0 -73 -7 -104 -15z"/>
<path fill="rgb(228, 171, 0)"  d="M5205 8906 c-57 -18 -117 -50 -139 -75 -10 -11 -41 -76 -68 -143 -72 -183 -113 -245 -257 -388 -109 -110 -132 -139 -189 -239 -86 -154 -141 -230 -242 -332 -130 -131 -358 -292 -529 -372 -47 -22 -59 -32 -48 -38 8 -5 70 -23 138 -40 175 -43 342 -50 454 -20 118 32 250 100 322 166 69 62 149 177 212 302 23 46 51 89 63 97 13 8 77 35 143 61 188 72 267 132 326 245 21 41 23 58 24 195 0 145 1 152 28 200 61 111 71 139 71 200 -1 70 -20 114 -66 148 -64 47 -158 60 -243 33z"/>
<path fill="rgb(228, 171, 0)"  d="M3565 8896 c-111 -35 -213 -114 -256 -197 -23 -45 -49 -142 -49 -181 0 -17 7 -31 19 -37 30 -17 150 -24 247 -16 l88 7 77 78 c78 80 119 146 119 193 0 62 -40 118 -105 148 -46 21 -84 23 -140 5z m90 -110 c43 -18 59 -48 52 -100 -9 -75 -23 -95 -83 -123 -46 -21 -66 -25 -110 -20 -62 6 -128 40 -157 79 -20 27 -20 28 -2 67 20 45 46 72 90 95 38 20 163 21 210 2z"/>
<path fill="rgb(228, 171, 0)"  d="M3479 8724 c-38 -16 -66 -54 -54 -74 12 -20 72 -40 118 -40 57 0 97 29 97 71 l0 30 -34 -35 c-33 -35 -63 -44 -100 -30 -26 10 -18 31 19 53 64 37 29 56 -46 25z"/>
<path fill="rgb(228, 171, 0)"  d="M3206 8800 c-215 -126 -295 -245 -267 -402 23 -130 96 -189 284 -228 46 -9 61 -9 84 4 33 17 223 193 223 207 0 5 -44 9 -98 9 -117 0 -188 19 -238 62 -47 42 -64 77 -64 138 0 70 19 104 103 182 40 37 65 67 57 68 -8 0 -46 -18 -84 -40z"/>
<path fill="rgb(228, 171, 0)"  d="M4435 8085 c-45 -28 -453 -210 -560 -250 -109 -41 -236 -107 -251 -131 -8 -11 -32 -74 -54 -138 -21 -64 -53 -142 -69 -173 l-31 -56 44 6 c100 14 292 107 477 231 197 132 325 256 440 430 77 116 77 126 4 81z"/>
<path fill="rgb(228, 171, 0)"  d="M3150 8034 c-125 -42 -142 -45 -235 -45 -118 0 -203 20 -297 69 -18 9 -6 -35 27 -105 65 -133 212 -254 343 -282 73 -15 175 -14 252 4 104 25 330 104 390 138 30 17 113 52 185 78 71 25 130 50 132 55 4 11 -310 98 -427 119 -151 26 -217 21 -370 -31z"/>
<path fill="rgb(228, 171, 0)"  d="M2485 7917 c-77 -41 -168 -126 -194 -181 -48 -97 -18 -186 92 -271 94 -74 106 -93 116 -202 10 -115 37 -167 101 -200 54 -27 164 -31 250 -8 90 24 195 81 235 128 l36 42 -92 3 c-51 1 -106 -2 -122 -8 -36 -12 -87 -13 -87 -1 0 20 43 60 81 75 33 13 72 16 193 15 89 -1 176 3 213 11 61 12 63 14 102 74 47 74 126 286 106 286 -2 0 -26 -9 -53 -19 -80 -32 -232 -69 -308 -76 -97 -9 -215 9 -289 45 -84 41 -196 139 -248 218 -24 37 -47 75 -50 85 -8 23 -12 22 -82 -16z"/>
<path fill="rgb(228, 171, 0)"  d="M5025 7786 l-60 -21 -60 -116 c-118 -227 -262 -364 -448 -428 -76 -26 -81 -30 -66 -47 29 -35 195 -8 314 51 167 84 308 268 365 479 29 106 28 108 -45 82z"/>
<path fill="rgb(228, 171, 0)"  d="M5409 7610 c-58 -10 -105 -33 -147 -74 -25 -23 -40 -53 -63 -126 -36 -119 -62 -149 -172 -200 -121 -56 -157 -101 -157 -195 0 -72 29 -132 68 -141 96 -21 142 -41 229 -100 52 -36 96 -64 98 -62 1 2 7 34 14 72 22 126 72 221 204 383 66 83 111 113 166 113 36 0 49 -6 78 -35 39 -39 43 -41 43 -20 0 18 71 169 99 211 l22 32 -128 62 c-167 81 -245 98 -354 80z"/>
<path fill="rgb(228, 171, 0)"  d="M6179 7592 c-124 -41 -216 -134 -290 -291 -28 -58 -58 -123 -69 -143 -17 -35 -17 -41 -3 -85 12 -36 17 -99 18 -258 2 -190 4 -219 27 -306 14 -52 42 -127 61 -165 67 -134 130 -194 286 -274 l63 -33 112 17 c61 10 133 23 161 28 l49 11 -44 22 c-25 13 -80 49 -122 82 -343 261 -392 306 -434 398 -59 129 -54 244 17 392 81 168 202 243 394 243 150 0 296 -59 416 -167 36 -33 40 -34 111 -31 l73 3 3 39 c5 56 -15 159 -43 229 -54 132 -146 197 -309 218 -49 6 -134 27 -190 46 -127 43 -210 50 -287 25z"/>
<path fill="rgb(228, 171, 0)"  d="M7072 7302 c-10 -7 -9 -27 4 -103 9 -52 14 -112 11 -135 -4 -41 -4 -41 48 -67 147 -72 219 -200 255 -454 39 -275 27 -337 -84 -448 -95 -95 -161 -127 -277 -133 -67 -3 -102 0 -165 18 -97 27 -218 36 -304 22 -387 -62 -530 -89 -530 -101 0 -4 46 -23 103 -41 56 -18 162 -62 235 -97 226 -108 374 -148 520 -141 107 5 139 21 260 131 108 97 152 119 306 156 71 17 159 46 195 63 84 41 169 124 205 202 34 72 59 204 51 266 -16 122 -58 185 -179 268 -93 63 -128 117 -156 234 -26 112 -55 179 -103 234 -42 48 -130 97 -212 119 -64 16 -162 20 -183 7z"/>
<path fill="rgb(228, 171, 0)"  d="M3460 7259 c-52 -5 -129 -17 -170 -26 -71 -15 -78 -19 -142 -83 -73 -73 -98 -130 -98 -225 0 -104 76 -192 187 -215 78 -17 122 -8 266 50 69 27 174 63 234 78 59 16 128 39 153 52 61 31 158 132 197 206 l32 60 -92 12 c-90 11 -281 57 -366 87 -47 16 -60 17 -201 4z"/>
<path fill="rgb(228, 171, 0)"  d="M5587 7168 c-58 -58 -151 -193 -187 -271 -34 -72 -60 -192 -60 -275 1 -205 122 -412 323 -550 110 -75 221 -134 233 -122 14 14 128 46 193 55 l53 7 -59 35 c-79 47 -136 104 -190 191 -56 89 -85 161 -115 278 -19 78 -22 112 -20 268 2 201 -11 290 -53 362 -22 38 -51 64 -70 64 -3 0 -25 -19 -48 -42z"/>
<path fill="#3a793f"  d="M4190 7142 c0 -4 7 -17 15 -28 22 -32 98 -225 140 -354 77 -239 157 -563 219 -885 61 -315 177 -1137 163 -1151 -9 -9 -334 192 -395 244 -29 24 -78 77 -109 116 -31 39 -75 91 -99 116 -49 51 -89 139 -152 330 -46 141 -85 290 -78 297 7 8 154 -286 227 -453 46 -107 88 -175 104 -171 18 6 74 162 90 251 19 110 19 191 0 281 -32 148 -103 249 -287 408 -73 63 -170 151 -216 196 -80 78 -112 95 -129 69 -4 -7 -10 -67 -14 -133 -6 -100 -14 -144 -49 -260 -39 -130 -43 -149 -43 -260 -1 -135 17 -207 76 -300 73 -115 199 -215 317 -251 58 -18 65 -24 125 -101 83 -107 85 -119 20 -115 -82 4 -151 21 -325 78 -150 50 -168 58 -208 99 -52 53 -166 126 -250 160 -87 36 -231 59 -317 51 -180 -17 -314 -81 -500 -241 -89 -77 -188 -145 -303 -209 -86 -48 -103 -61 -100 -79 3 -23 13 -28 193 -93 55 -20 179 -74 275 -120 237 -112 298 -129 470 -128 119 1 144 4 214 28 154 53 304 165 392 293 29 42 48 60 70 64 56 12 242 9 326 -6 283 -49 585 -223 667 -384 30 -57 46 -129 75 -321 35 -227 88 -483 143 -683 25 -92 43 -170 39 -174 -3 -3 -74 61 -158 143 -84 82 -181 174 -216 204 -34 30 -126 123 -202 206 -183 198 -209 228 -205 232 6 6 117 -73 222 -156 132 -106 215 -184 260 -245 l38 -51 8 49 c4 28 5 84 2 125 -15 186 -63 298 -176 413 -96 97 -172 134 -349 172 -167 35 -209 48 -312 97 -73 34 -90 39 -103 28 -20 -17 -19 -52 6 -130 11 -36 43 -150 70 -255 30 -118 63 -218 85 -264 94 -192 309 -311 559 -311 l73 0 79 -87 c123 -137 144 -164 138 -174 -4 -5 -28 -9 -55 -9 -160 0 -417 -104 -721 -291 -72 -44 -133 -78 -135 -76 -7 7 162 168 235 223 92 69 181 114 296 150 l90 28 -70 33 c-98 46 -175 63 -280 63 -165 0 -295 -51 -405 -160 -79 -78 -122 -157 -183 -335 -54 -157 -60 -171 -114 -260 -48 -78 -51 -90 -24 -105 28 -14 71 -12 197 9 61 11 165 25 230 31 66 6 151 18 189 25 87 18 216 81 278 136 93 81 172 216 198 338 11 54 19 59 118 82 75 16 222 7 292 -20 111 -42 148 -91 264 -355 85 -193 135 -384 166 -631 16 -129 16 -512 0 -637 -29 -229 -84 -434 -166 -620 l-43 -98 67 -44 c83 -53 104 -61 120 -42 33 39 122 330 161 522 63 316 68 826 10 1021 -27 90 -43 282 -30 370 41 289 217 423 722 548 224 56 505 106 483 87 -13 -11 -196 -77 -485 -174 -210 -70 -279 -91 -372 -112 -40 -9 -35 -26 25 -77 173 -150 315 -209 500 -209 113 0 199 20 302 71 147 72 246 169 408 399 45 63 114 160 155 214 54 74 72 105 70 125 -3 25 -6 26 -88 33 -164 14 -251 29 -382 64 -169 45 -317 55 -430 30 -200 -44 -395 -200 -488 -390 -29 -58 -35 -64 -88 -86 -31 -12 -90 -41 -130 -62 -40 -22 -75 -38 -78 -35 -11 11 83 305 107 333 5 7 25 15 44 18 19 4 81 30 137 58 131 66 227 157 281 268 63 128 68 165 71 455 2 152 8 284 15 317 14 69 4 98 -36 98 -17 0 -69 -28 -137 -74 -61 -41 -171 -109 -244 -152 -209 -122 -309 -243 -357 -429 -19 -75 -19 -231 0 -315 20 -86 58 -210 65 -210 3 0 16 29 29 65 32 91 99 226 161 326 77 125 214 313 218 300 2 -7 -1 -17 -7 -24 -6 -7 -33 -64 -61 -127 -91 -204 -133 -293 -213 -450 -102 -202 -197 -442 -222 -560 -13 -65 -57 -92 -75 -46 -16 43 -39 227 -46 366 -18 381 62 794 238 1245 92 234 279 567 362 644 30 28 32 43 10 61 -12 11 -26 10 -77 -8 -34 -12 -81 -24 -104 -28 l-41 -6 -85 -167 c-266 -519 -410 -1028 -435 -1531 -4 -82 -11 -152 -15 -156 -35 -35 -124 259 -206 676 -33 167 -53 302 -131 875 -112 822 -232 1413 -391 1932 -32 106 -59 199 -59 206 0 7 -16 21 -35 30 -20 9 -41 28 -47 42 -10 23 -17 25 -70 25 -32 0 -58 -3 -58 -8z m-520 -2096 c54 -20 86 -43 76 -53 -4 -5 -175 -11 -379 -14 -205 -4 -417 -10 -472 -14 -55 -4 -97 -5 -94 -1 9 10 163 53 254 71 151 30 201 34 385 31 144 -2 195 -7 230 -20z"/>
<path fill="rgb(228, 171, 0)"  d="M6290 7141 c-120 -37 -214 -147 -251 -295 -23 -91 10 -219 78 -300 30 -36 352 -290 468 -370 39 -26 77 -56 85 -65 9 -11 38 -20 70 -24 30 -4 69 -9 85 -13 50 -9 -146 175 -290 273 -171 116 -235 171 -273 233 -32 52 -33 59 -30 136 3 69 7 87 33 130 39 62 119 119 207 145 90 28 223 24 285 -7 38 -19 41 -19 33 -3 -29 53 -152 124 -265 154 -61 16 -191 19 -235 6z"/>
<path fill="rgb(228, 171, 0)"  d="M6910 6957 c0 -3 27 -22 61 -43 74 -45 114 -98 130 -172 27 -130 -11 -254 -102 -342 -62 -60 -119 -80 -225 -80 l-73 0 142 -140 c129 -126 145 -139 178 -140 65 0 136 28 200 81 114 96 128 140 104 334 -9 77 -26 172 -37 210 -41 146 -119 247 -210 274 -47 15 -168 27 -168 18z"/>
<path fill="rgb(228, 171, 0)"  d="M6555 6930 c-36 -6 -37 -7 -9 -9 93 -4 200 -64 235 -132 42 -83 33 -192 -21 -267 -31 -43 -100 -81 -155 -84 -39 -3 -41 -16 -4 -36 34 -19 221 -10 274 12 94 40 156 136 157 246 1 88 -21 133 -86 177 -27 18 -51 32 -53 30 -2 -2 10 -33 27 -69 51 -109 53 -265 5 -314 -13 -13 -28 -24 -33 -24 -5 0 -8 55 -8 123 1 104 -2 128 -20 167 -68 144 -174 206 -309 180z"/>
<path fill="rgb(228, 171, 0)"  d="M6407 6881 c-140 -89 -138 -249 4 -352 l26 -18 -15 42 c-41 115 53 212 186 192 60 -9 92 -42 92 -94 0 -80 -80 -126 -135 -78 -39 33 -29 57 25 57 34 0 41 3 38 17 -8 40 -90 41 -129 2 -28 -28 -19 -75 22 -113 28 -25 38 -28 77 -23 82 9 136 73 136 163 0 85 -32 123 -156 184 -57 27 -108 50 -113 50 -6 0 -32 -13 -58 -29z"/>
<path fill="rgb(228, 171, 0)"  d="M4846 6775 c-61 -23 -104 -62 -133 -118 -22 -43 -27 -65 -27 -132 -1 -97 16 -133 110 -241 101 -116 115 -170 89 -338 -10 -66 -14 -126 -10 -154 14 -101 85 -207 170 -257 22 -14 97 -42 165 -64 84 -27 156 -58 217 -95 51 -30 108 -60 129 -66 59 -20 216 -8 299 22 85 31 185 76 185 83 0 2 -37 23 -82 46 -46 22 -110 60 -143 84 -63 45 -186 165 -254 249 -77 95 -141 245 -141 330 0 35 -8 58 -34 98 -76 120 -126 258 -126 350 0 36 -4 41 -87 103 -49 36 -107 75 -131 86 -55 27 -145 33 -196 14z"/>
<path fill="rgb(228, 171, 0)"  d="M5510 6071 c0 -6 9 -35 20 -65 63 -167 270 -376 475 -478 80 -40 192 -80 280 -98 66 -14 279 -19 291 -7 4 4 -19 33 -52 65 -32 32 -69 81 -82 108 -22 47 -30 53 -110 93 -48 24 -172 72 -276 108 -104 35 -217 78 -250 95 -81 41 -230 134 -246 153 -18 22 -50 38 -50 26z"/>
<path fill="rgb(228, 171, 0)"  d="M7628 5879 c-10 -5 -79 -25 -155 -44 -151 -38 -178 -53 -280 -148 -89 -82 -120 -104 -190 -128 -105 -36 -294 -22 -417 31 -27 11 -53 19 -57 18 -26 -9 111 -127 199 -172 95 -48 372 -68 482 -34 82 26 174 84 261 166 92 86 139 154 168 241 28 87 27 93 -11 70z"/>
<path fill="rgb(228, 171, 0)"  d="M7704 5752 c-51 -137 -215 -307 -373 -386 -155 -79 -379 -85 -602 -17 -58 18 -69 19 -110 7 -109 -33 -263 -29 -419 10 l-65 17 -38 -26 c-21 -14 -47 -29 -58 -32 -17 -6 -19 -12 -13 -43 26 -144 137 -312 244 -367 17 -9 64 -23 103 -31 102 -21 128 -30 262 -92 116 -54 123 -56 205 -56 72 0 93 4 135 26 122 63 155 138 121 281 -7 32 -11 57 -7 55 4 -2 41 -22 82 -45 109 -61 203 -94 286 -100 142 -11 218 35 267 163 34 92 62 119 171 169 100 47 138 82 155 147 35 128 -76 261 -291 351 l-37 15 -18 -46z"/>
</g>
</svg>