<svg xmlns="http://www.w3.org/2000/svg" xmlns:v="https://svgstorm.com"
viewBox = "0 0 326 342"
width="326"
height="342">
<g fill="None" fill-opacity="0.0" stroke="#FEFEFE" stroke-opacity="1.00" stroke-width="0.3"><path d="
M 0.00 342.00 
L 326.00 342.00
L 326.00 0.00
L 0.00 0.00
L 0.00 342.00
M 231.00 127.00 
C 231.22 129.26 231.27 131.77 231.00 134.00
C 230.82 144.18 226.53 154.20 219.00 161.00
C 223.95 169.36 229.23 178.43 228.00 189.00
C 242.41 179.85 258.37 196.41 258.00 211.00
C 258.52 214.21 258.71 216.80 258.00 220.00
C 255.69 230.42 264.10 242.53 262.00 254.00 C 259.90 265.47 256.60 274.90 249.70 283.70 C 242.80 292.50 231.50 298.48 220.33 295.67 C 209.16 292.86 199.61 288.98 187.98 286.02 C 176.34 283.07 162.77 281.00 150.00 281.00
C 147.33 281.00 144.67 281.00 142.00 281.00
C 130.28 281.00 114.15 281.45 104.26 287.26 C 94.37 293.06 81.99 298.94 70.78 294.22 C 59.57 289.50 53.90 282.03 49.23 271.77 C 44.56 261.51 40.34 245.67 45.93 234.93 C 51.51 224.19 45.04 212.32 49.93 200.93 C 54.81 189.53 64.88 181.73 77.00 187.00
C 77.50 178.70 80.44 170.90 85.00 164.00
C 62.85 147.80 68.54 117.35 75.00 95.00
C 58.86 86.19 57.96 61.94 70.25 49.25 C 82.54 36.55 105.53 36.74 116.00 52.00
C 137.65 43.57 164.36 43.61 186.00 52.00
C 192.17 43.17 205.24 37.76 215.67 40.33 C 226.10 42.90 235.21 49.59 238.77 60.23 C 242.33 70.87 240.20 84.20 231.25 92.25 C 222.29 100.30 233.67 115.93 231.00 127.00 Z"/>
</g>
<g fill="None" fill-opacity="0.0" stroke="#040404" stroke-opacity="1.00" stroke-width="0.3"><path d="
M 142.00 281.00 
C 144.51 280.76 147.55 280.76 150.00 281.00
C 162.77 281.00 176.34 283.07 187.98 286.02 C 199.61 288.98 209.16 292.86 220.33 295.67 C 231.50 298.48 242.80 292.50 249.70 283.70 C 256.60 274.90 259.90 265.47 262.00 254.00 C 264.10 242.53 255.69 230.42 258.00 220.00
C 258.29 217.13 258.16 213.88 258.00 211.00
C 258.37 196.41 242.41 179.85 228.00 189.00
C 229.23 178.43 223.95 169.36 219.00 161.00
C 226.53 154.20 230.82 144.18 231.00 134.00
C 231.04 131.67 231.00 129.33 231.00 127.00
C 233.67 115.93 222.29 100.30 231.25 92.25 C 240.20 84.20 242.33 70.87 238.77 60.23 C 235.21 49.59 226.10 42.90 215.67 40.33 C 205.24 37.76 192.17 43.17 186.00 52.00
C 164.36 43.61 137.65 43.57 116.00 52.00
C 105.53 36.74 82.54 36.55 70.25 49.25 C 57.96 61.94 58.86 86.19 75.00 95.00
C 68.54 117.35 62.85 147.80 85.00 164.00
C 80.44 170.90 77.50 178.70 77.00 187.00
C 64.88 181.73 54.81 189.53 49.93 200.93 C 45.04 212.32 51.51 224.19 45.93 234.93 C 40.34 245.67 44.56 261.51 49.23 271.77 C 53.90 282.03 59.57 289.50 70.78 294.22 C 81.99 298.94 94.37 293.06 104.26 287.26 C 114.15 281.45 130.28 281.00 142.00 281.00
M 112.00 54.00 
C 103.90 62.10 94.58 53.30 85.32 57.32 C 76.07 61.34 74.68 74.99 82.00 81.00
C 80.42 84.73 77.87 88.04 77.00 92.00
C 63.10 84.00 62.50 64.06 72.75 52.75 C 83.00 41.44 103.61 40.56 112.00 54.00
M 224.00 92.00 
C 218.14 84.65 223.22 78.99 224.98 71.98 C 226.73 64.96 219.29 55.72 211.98 56.02 C 204.66 56.33 196.38 61.01 190.00 54.00
C 199.23 39.99 219.89 41.72 229.92 53.08 C 239.95 64.44 238.90 85.84 224.00 92.00
M 227.00 126.00 
C 227.32 129.28 227.54 132.70 227.00 136.00
C 226.52 144.85 222.48 153.69 215.00 159.00
C 211.89 154.85 206.77 152.53 202.00 151.00
C 201.91 126.23 177.51 111.45 157.00 106.00
C 154.08 105.84 150.92 105.80 148.00 106.00
C 127.44 107.40 101.82 128.50 102.00 151.00
C 97.03 153.75 91.39 156.20 88.00 161.00
C 63.90 138.97 71.16 100.53 90.30 75.30 C 109.44 50.08 150.62 44.49 180.07 53.93 C 209.53 63.37 228.48 95.16 227.00 126.00
M 83.00 77.00 
C 79.91 71.41 80.60 66.12 85.75 61.75 C 90.91 57.38 101.36 61.02 94.25 65.25 C 87.14 69.49 89.92 74.38 83.00 77.00
M 218.00 78.00 
C 217.57 72.37 198.61 63.82 207.03 60.03 C 215.45 56.23 227.09 71.18 218.00 78.00
M 157.00 110.00 
C 170.73 110.93 162.18 121.94 152.98 121.98 C 143.77 122.01 135.29 110.93 149.00 110.00
C 151.92 109.48 154.14 109.49 157.00 110.00
M 137.00 115.00 
C 136.75 122.93 147.14 122.72 150.74 126.26 C 154.35 129.79 145.40 144.49 139.33 138.67 C 133.26 132.85 128.52 136.25 135.70 141.30 C 142.88 146.36 148.33 140.92 153.00 137.00
C 157.15 140.82 163.83 147.07 170.22 141.22 C 176.62 135.38 173.75 133.73 166.77 138.77 C 159.79 143.81 152.15 130.11 155.00 125.00
C 160.25 124.74 167.23 121.92 168.00 116.00
C 184.64 117.73 196.81 134.04 198.00 150.00
C 190.73 148.37 181.61 148.80 175.31 153.31 C 169.00 157.81 164.69 158.31 159.75 165.75 C 154.82 173.20 150.57 172.57 145.75 165.25 C 140.93 157.93 136.31 157.45 129.92 153.08 C 123.54 148.70 113.42 148.25 106.00 150.00
C 106.28 132.59 120.99 119.10 137.00 115.00
M 224.00 186.00 
C 224.38 188.67 225.11 190.19 224.00 193.00
C 220.31 202.28 216.10 212.32 213.74 221.74 C 211.39 231.17 201.00 235.85 194.92 242.92 C 188.83 249.99 179.69 254.48 171.92 259.92 C 164.15 265.36 153.28 271.15 144.31 265.69 C 135.33 260.24 128.77 256.92 120.25 250.75 C 111.73 244.58 107.85 239.02 99.25 231.75 C 90.65 224.48 92.65 212.27 88.02 202.98 C 83.40 193.68 78.35 183.34 84.31 173.31 C 90.26 163.28 95.13 158.30 105.22 154.22 C 115.31 150.15 127.97 155.67 135.23 160.77 C 142.49 165.87 149.54 181.58 157.75 173.75 C 165.96 165.93 169.26 160.00 179.69 155.69 C 190.13 151.39 201.54 152.72 210.25 159.75 C 218.96 166.78 223.62 174.73 224.00 186.00
M 81.00 199.00 
C 76.94 200.08 72.93 201.40 69.00 203.00
C 70.94 209.26 79.35 201.98 84.00 202.00
C 85.10 208.28 87.74 214.22 87.00 221.00
C 75.88 216.07 62.83 215.67 53.00 224.00
C 41.42 206.48 69.19 173.56 81.00 199.00
M 253.00 224.00 
C 243.32 216.44 229.67 215.06 219.00 222.00
C 218.77 215.27 219.87 208.80 223.00 203.00
C 226.87 204.44 230.62 206.38 235.00 206.00
C 235.29 201.07 228.32 201.59 225.00 200.00
C 235.93 174.86 264.65 206.71 253.00 224.00
M 49.00 237.00 
C 54.88 237.54 57.91 247.92 64.00 245.00
C 60.48 240.68 56.30 236.44 52.00 233.00
C 54.52 226.94 61.42 222.21 68.00 222.00
C 71.00 226.68 72.27 239.12 79.00 237.00
C 77.33 231.39 73.57 226.61 72.00 221.00
C 97.63 225.62 129.15 262.72 100.25 285.25 C 71.35 307.78 37.83 266.43 49.00 237.00
M 258.00 244.00 
C 258.57 247.19 258.51 249.89 258.00 253.00
C 256.41 282.35 223.27 305.98 200.75 281.25 C 178.23 256.52 212.45 224.76 235.00 221.00
C 234.20 225.86 225.79 234.57 232.00 237.00
C 234.20 232.05 237.08 227.34 238.00 222.00
C 244.64 221.69 249.27 227.10 254.00 231.00
C 252.56 236.30 245.60 238.65 244.00 244.00
C 249.67 247.54 251.86 237.30 257.00 237.00
C 256.71 239.49 258.64 241.39 258.00 244.00
M 150.00 277.00 
C 147.33 277.00 144.67 277.00 142.00 277.00
C 130.95 277.00 120.40 278.40 110.00 281.00
C 112.98 276.90 114.74 272.09 115.00 267.00
C 115.18 264.42 115.18 261.58 115.00 259.00
C 114.78 255.73 113.91 253.08 113.00 250.00
C 125.15 257.27 137.80 272.23 153.00 272.00 C 168.20 271.76 180.73 257.21 193.00 250.00
C 187.99 261.63 190.22 275.62 199.00 285.00
C 183.19 280.48 167.25 276.07 150.00 277.00 Z"/>
</g>
<g fill="None" fill-opacity="0.0" stroke="#F7F7F7" stroke-opacity="1.00" stroke-width="0.3"><path d="
M 112.00 54.00 
C 103.61 40.56 83.00 41.44 72.75 52.75 C 62.50 64.06 63.10 84.00 77.00 92.00
C 77.87 88.04 80.42 84.73 82.00 81.00
C 74.68 74.99 76.07 61.34 85.32 57.32 C 94.58 53.30 103.90 62.10 112.00 54.00 Z"/>
</g>
<g fill="None" fill-opacity="0.0" stroke="#F6F6F6" stroke-opacity="1.00" stroke-width="0.3"><path d="
M 224.00 92.00 
C 238.90 85.84 239.95 64.44 229.92 53.08 C 219.89 41.72 199.23 39.99 190.00 54.00
C 196.38 61.01 204.66 56.33 211.98 56.02 C 219.29 55.72 226.73 64.96 224.98 71.98 C 223.22 78.99 218.14 84.65 224.00 92.00 Z"/>
</g>
<g fill="None" fill-opacity="0.0" stroke="#FCFCFC" stroke-opacity="1.00" stroke-width="0.3"><path d="
M 148.00 106.00 
C 151.19 105.43 153.89 105.49 157.00 106.00
C 177.51 111.45 201.91 126.23 202.00 151.00
C 206.77 152.53 211.89 154.85 215.00 159.00
C 222.48 153.69 226.52 144.85 227.00 136.00
C 227.18 132.69 227.00 129.32 227.00 126.00
C 228.48 95.16 209.53 63.37 180.07 53.93 C 150.62 44.49 109.44 50.08 90.30 75.30 C 71.16 100.53 63.90 138.97 88.00 161.00
C 91.39 156.20 97.03 153.75 102.00 151.00
C 101.82 128.50 127.44 107.40 148.00 106.00
M 124.00 96.00 
C 122.04 100.99 123.95 102.93 129.00 101.00
C 129.49 106.74 122.29 111.97 117.75 107.25 C 113.22 102.52 117.69 95.05 124.00 96.00
M 185.00 96.00 
C 183.56 101.22 184.71 102.82 190.00 101.00
C 191.53 107.48 183.24 111.96 178.75 107.25 C 174.27 102.53 179.17 95.55 185.00 96.00 Z"/>
</g>
<g fill="None" fill-opacity="0.0" stroke="#F3F3F3" stroke-opacity="1.00" stroke-width="0.3"><path d="
M 83.00 77.00 
C 89.92 74.38 87.14 69.49 94.25 65.25 C 101.36 61.02 90.91 57.38 85.75 61.75 C 80.60 66.12 79.91 71.41 83.00 77.00 Z"/>
</g>
<g fill="None" fill-opacity="0.0" stroke="#F5F5F5" stroke-opacity="1.00" stroke-width="0.3"><path d="
M 218.00 78.00 
C 227.09 71.18 215.45 56.23 207.03 60.03 C 198.61 63.82 217.57 72.37 218.00 78.00 Z"/>
</g>
<g fill="None" fill-opacity="0.0" stroke="#030303" stroke-opacity="1.00" stroke-width="0.3"><path d="
M 124.00 96.00 
C 117.69 95.05 113.22 102.52 117.75 107.25 C 122.29 111.97 129.49 106.74 129.00 101.00
C 123.95 102.93 122.04 100.99 124.00 96.00 Z"/>
</g>
<g fill="None" fill-opacity="0.0" stroke="#030303" stroke-opacity="1.00" stroke-width="0.3"><path d="
M 185.00 96.00 
C 179.17 95.55 174.27 102.53 178.75 107.25 C 183.24 111.96 191.53 107.48 190.00 101.00
C 184.71 102.82 183.56 101.22 185.00 96.00 Z"/>
</g>
<g fill="None" fill-opacity="0.0" stroke="#858585" stroke-opacity="1.00" stroke-width="0.3"><path d="
M 148.00 106.00 
C 150.92 105.80 154.08 105.84 157.00 106.00
C 153.89 105.49 151.19 105.43 148.00 106.00 Z"/>
</g>
<g fill="None" fill-opacity="0.0" stroke="#797979" stroke-opacity="1.00" stroke-width="0.3"><path d="
M 149.00 110.00 
C 151.58 109.82 154.42 109.82 157.00 110.00
C 154.14 109.49 151.92 109.48 149.00 110.00 Z"/>
</g>
<g fill="None" fill-opacity="0.0" stroke="#F6F6F6" stroke-opacity="1.00" stroke-width="0.3"><path d="
M 157.00 110.00 
C 154.42 109.82 151.58 109.82 149.00 110.00
C 135.29 110.93 143.77 122.01 152.98 121.98 C 162.18 121.94 170.73 110.93 157.00 110.00 Z"/>
</g>
<g fill="None" fill-opacity="0.0" stroke="#FAFAFA" stroke-opacity="1.00" stroke-width="0.3"><path d="
M 137.00 115.00 
C 120.99 119.10 106.28 132.59 106.00 150.00
C 113.42 148.25 123.54 148.70 129.92 153.08 C 136.31 157.45 140.93 157.93 145.75 165.25 C 150.57 172.57 154.82 173.20 159.75 165.75 C 164.69 158.31 169.00 157.81 175.31 153.31 C 181.61 148.80 190.73 148.37 198.00 150.00
C 196.81 134.04 184.64 117.73 168.00 116.00
C 167.23 121.92 160.25 124.74 155.00 125.00
C 152.15 130.11 159.79 143.81 166.77 138.77 C 173.75 133.73 176.62 135.38 170.22 141.22 C 163.83 147.07 157.15 140.82 153.00 137.00
C 148.33 140.92 142.88 146.36 135.70 141.30 C 128.52 136.25 133.26 132.85 139.33 138.67 C 145.40 144.49 154.35 129.79 150.74 126.26 C 147.14 122.72 136.75 122.93 137.00 115.00 Z"/>
</g>
<g fill="None" fill-opacity="0.0" stroke="#7E7E7E" stroke-opacity="1.00" stroke-width="0.3"><path d="
M 227.00 136.00 
C 227.54 132.70 227.32 129.28 227.00 126.00
C 227.00 129.32 227.18 132.69 227.00 136.00 Z"/>
</g>
<g fill="None" fill-opacity="0.0" stroke="#929292" stroke-opacity="1.00" stroke-width="0.3"><path d="
M 231.00 134.00 
C 231.27 131.77 231.22 129.26 231.00 127.00
C 231.00 129.33 231.04 131.67 231.00 134.00 Z"/>
</g>
<g fill="None" fill-opacity="0.0" stroke="#FCFCFC" stroke-opacity="1.00" stroke-width="0.3"><path d="
M 224.00 193.00 
C 224.47 190.97 224.07 188.09 224.00 186.00
C 223.62 174.73 218.96 166.78 210.25 159.75 C 201.54 152.72 190.13 151.39 179.69 155.69 C 169.26 160.00 165.96 165.93 157.75 173.75 C 149.54 181.58 142.49 165.87 135.23 160.77 C 127.97 155.67 115.31 150.15 105.22 154.22 C 95.13 158.30 90.26 163.28 84.31 173.31 C 78.35 183.34 83.40 193.68 88.02 202.98 C 92.65 212.27 90.65 224.48 99.25 231.75 C 107.85 239.02 111.73 244.58 120.25 250.75 C 128.77 256.92 135.33 260.24 144.31 265.69 C 153.28 271.15 164.15 265.36 171.92 259.92 C 179.69 254.48 188.83 249.99 194.92 242.92 C 201.00 235.85 211.39 231.17 213.74 221.74 C 216.10 212.32 220.31 202.28 224.00 193.00
M 104.00 213.00 
C 108.67 213.00 113.33 213.00 118.00 213.00
C 119.24 218.21 100.88 220.49 100.03 213.97 C 99.18 207.45 100.61 195.97 100.00 189.00
C 108.13 191.80 102.17 205.68 104.00 213.00
M 141.00 189.00 
C 158.04 192.96 150.47 222.23 133.33 216.67 C 116.19 211.11 123.67 184.97 141.00 189.00
M 167.00 209.00 
C 171.85 205.01 173.40 196.22 176.00 190.00
C 183.03 190.41 177.05 198.87 175.08 203.08 C 173.10 207.28 171.75 216.66 166.00 217.00
C 163.55 207.39 157.87 198.80 156.00 189.00
C 163.48 190.37 163.64 202.64 167.00 209.00
M 192.00 193.00 
C 187.19 205.05 202.53 197.03 203.00 205.00
C 199.33 205.00 195.67 205.00 192.00 205.00
C 187.29 216.41 200.31 210.87 204.67 213.33 C 209.03 215.79 192.44 220.92 189.33 216.67 C 186.22 212.42 189.19 203.89 188.00 197.00 C 186.81 190.11 193.39 186.17 202.00 189.00 C 210.61 191.83 197.44 194.57 192.00 193.00 Z"/>
</g>
<g fill="None" fill-opacity="0.0" stroke="#636363" stroke-opacity="1.00" stroke-width="0.3"><path d="
M 224.00 193.00 
C 225.11 190.19 224.38 188.67 224.00 186.00
C 224.07 188.09 224.47 190.97 224.00 193.00 Z"/>
</g>
<g fill="None" fill-opacity="0.0" stroke="#F8F8F8" stroke-opacity="1.00" stroke-width="0.3"><path d="
M 81.00 199.00 
C 69.19 173.56 41.42 206.48 53.00 224.00
C 62.83 215.67 75.88 216.07 87.00 221.00
C 87.74 214.22 85.10 208.28 84.00 202.00
C 79.35 201.98 70.94 209.26 69.00 203.00
C 72.93 201.40 76.94 200.08 81.00 199.00 Z"/>
</g>
<g fill="None" fill-opacity="0.0" stroke="#020202" stroke-opacity="1.00" stroke-width="0.3"><path d="
M 104.00 213.00 
C 102.17 205.68 108.13 191.80 100.00 189.00
C 100.61 195.97 99.18 207.45 100.03 213.97 C 100.88 220.49 119.24 218.21 118.00 213.00
C 113.33 213.00 108.67 213.00 104.00 213.00 Z"/>
</g>
<g fill="None" fill-opacity="0.0" stroke="#040404" stroke-opacity="1.00" stroke-width="0.3"><path d="
M 141.00 189.00 
C 123.67 184.97 116.19 211.11 133.33 216.67 C 150.47 222.23 158.04 192.96 141.00 189.00
M 141.00 193.00 
C 152.65 196.54 145.86 218.14 133.98 213.02 C 122.09 207.91 127.66 188.95 141.00 193.00 Z"/>
</g>
<g fill="None" fill-opacity="0.0" stroke="#050505" stroke-opacity="1.00" stroke-width="0.3"><path d="
M 167.00 209.00 
C 163.64 202.64 163.48 190.37 156.00 189.00
C 157.87 198.80 163.55 207.39 166.00 217.00
C 171.75 216.66 173.10 207.28 175.08 203.08 C 177.05 198.87 183.03 190.41 176.00 190.00
C 173.40 196.22 171.85 205.01 167.00 209.00 Z"/>
</g>
<g fill="None" fill-opacity="0.0" stroke="#030303" stroke-opacity="1.00" stroke-width="0.3"><path d="
M 192.00 193.00 
C 197.44 194.57 210.61 191.83 202.00 189.00 C 193.39 186.17 186.81 190.11 188.00 197.00 C 189.19 203.89 186.22 212.42 189.33 216.67 C 192.44 220.92 209.03 215.79 204.67 213.33 C 200.31 210.87 187.29 216.41 192.00 205.00
C 195.67 205.00 199.33 205.00 203.00 205.00
C 202.53 197.03 187.19 205.05 192.00 193.00 Z"/>
</g>
<g fill="None" fill-opacity="0.0" stroke="#F6F6F6" stroke-opacity="1.00" stroke-width="0.3"><path d="
M 253.00 224.00 
C 264.65 206.71 235.93 174.86 225.00 200.00
C 228.32 201.59 235.29 201.07 235.00 206.00
C 230.62 206.38 226.87 204.44 223.00 203.00
C 219.87 208.80 218.77 215.27 219.00 222.00
C 229.67 215.06 243.32 216.44 253.00 224.00 Z"/>
</g>
<g fill="None" fill-opacity="0.0" stroke="#F6F6F6" stroke-opacity="1.00" stroke-width="0.3"><path d="
M 141.00 193.00 
C 127.66 188.95 122.09 207.91 133.98 213.02 C 145.86 218.14 152.65 196.54 141.00 193.00 Z"/>
</g>
<g fill="None" fill-opacity="0.0" stroke="#7D7D7D" stroke-opacity="1.00" stroke-width="0.3"><path d="
M 258.00 220.00 
C 258.71 216.80 258.52 214.21 258.00 211.00
C 258.16 213.88 258.29 217.13 258.00 220.00 Z"/>
</g>
<g fill="None" fill-opacity="0.0" stroke="#F8F8F8" stroke-opacity="1.00" stroke-width="0.3"><path d="
M 49.00 237.00 
C 37.83 266.43 71.35 307.78 100.25 285.25 C 129.15 262.72 97.63 225.62 72.00 221.00
C 73.57 226.61 77.33 231.39 79.00 237.00
C 72.27 239.12 71.00 226.68 68.00 222.00
C 61.42 222.21 54.52 226.94 52.00 233.00
C 56.30 236.44 60.48 240.68 64.00 245.00
C 57.91 247.92 54.88 237.54 49.00 237.00
M 80.00 258.00 
C 83.12 243.60 100.86 249.16 99.67 263.67 C 98.47 278.19 88.30 284.47 74.93 278.07 C 61.56 271.68 65.37 253.46 80.00 258.00 Z"/>
</g>
<g fill="None" fill-opacity="0.0" stroke="#F9F9F9" stroke-opacity="1.00" stroke-width="0.3"><path d="
M 258.00 253.00 
C 258.16 250.08 258.20 246.92 258.00 244.00
C 258.64 241.39 256.71 239.49 257.00 237.00
C 251.86 237.30 249.67 247.54 244.00 244.00
C 245.60 238.65 252.56 236.30 254.00 231.00
C 249.27 227.10 244.64 221.69 238.00 222.00
C 237.08 227.34 234.20 232.05 232.00 237.00
C 225.79 234.57 234.20 225.86 235.00 221.00
C 212.45 224.76 178.23 256.52 200.75 281.25 C 223.27 305.98 256.41 282.35 258.00 253.00
M 226.00 258.00 
C 239.88 253.42 245.02 270.99 231.77 277.77 C 218.52 284.55 208.11 278.89 206.67 264.33 C 205.23 249.77 221.90 243.30 226.00 258.00 Z"/>
</g>
<g fill="None" fill-opacity="0.0" stroke="#818181" stroke-opacity="1.00" stroke-width="0.3"><path d="
M 258.00 253.00 
C 258.51 249.89 258.57 247.19 258.00 244.00
C 258.20 246.92 258.16 250.08 258.00 253.00 Z"/>
</g>
<g fill="None" fill-opacity="0.0" stroke="#040404" stroke-opacity="1.00" stroke-width="0.3"><path d="
M 80.00 258.00 
C 65.37 253.46 61.56 271.68 74.93 278.07 C 88.30 284.47 98.47 278.19 99.67 263.67 C 100.86 249.16 83.12 243.60 80.00 258.00
M 91.00 253.00 
C 96.59 254.29 95.97 262.76 95.02 267.02 C 94.08 271.29 91.20 279.40 85.00 277.00 C 78.80 274.60 74.68 276.14 71.23 269.77 C 67.78 263.40 72.70 260.24 79.07 261.93 C 85.45 263.61 83.14 251.19 91.00 253.00 Z"/>
</g>
<g fill="None" fill-opacity="0.0" stroke="#040404" stroke-opacity="1.00" stroke-width="0.3"><path d="
M 226.00 258.00 
C 221.90 243.30 205.23 249.77 206.67 264.33 C 208.11 278.89 218.52 284.55 231.77 277.77 C 245.02 270.99 239.88 253.42 226.00 258.00
M 219.00 253.00 
C 222.64 254.14 222.75 264.96 229.07 261.07 C 235.40 257.19 239.47 268.50 233.70 271.70 C 227.92 274.89 227.19 276.87 218.00 277.00 C 208.81 277.12 206.30 249.03 219.00 253.00 Z"/>
</g>
<g fill="None" fill-opacity="0.0" stroke="#F6F6F6" stroke-opacity="1.00" stroke-width="0.3"><path d="
M 115.00 259.00 
C 115.52 261.92 115.51 264.14 115.00 267.00
C 114.74 272.09 112.98 276.90 110.00 281.00
C 120.40 278.40 130.95 277.00 142.00 277.00
C 144.51 276.76 147.55 276.76 150.00 277.00
C 167.25 276.07 183.19 280.48 199.00 285.00
C 190.22 275.62 187.99 261.63 193.00 250.00
C 180.73 257.21 168.20 271.76 153.00 272.00 C 137.80 272.23 125.15 257.27 113.00 250.00
C 113.91 253.08 114.78 255.73 115.00 259.00 Z"/>
</g>
<g fill="None" fill-opacity="0.0" stroke="#F5F5F5" stroke-opacity="1.00" stroke-width="0.3"><path d="
M 91.00 253.00 
C 83.14 251.19 85.45 263.61 79.07 261.93 C 72.70 260.24 67.78 263.40 71.23 269.77 C 74.68 276.14 78.80 274.60 85.00 277.00 C 91.20 279.40 94.08 271.29 95.02 267.02 C 95.97 262.76 96.59 254.29 91.00 253.00 Z"/>
</g>
<g fill="None" fill-opacity="0.0" stroke="#F5F5F5" stroke-opacity="1.00" stroke-width="0.3"><path d="
M 219.00 253.00 
C 206.30 249.03 208.81 277.12 218.00 277.00 C 227.19 276.87 227.92 274.89 233.70 271.70 C 239.47 268.50 235.40 257.19 229.07 261.07 C 222.75 264.96 222.64 254.14 219.00 253.00 Z"/>
</g>
<g fill="None" fill-opacity="0.0" stroke="#767676" stroke-opacity="1.00" stroke-width="0.3"><path d="
M 115.00 267.00 
C 115.51 264.14 115.52 261.92 115.00 259.00
C 115.18 261.58 115.18 264.42 115.00 267.00 Z"/>
</g>
<g fill="None" fill-opacity="0.0" stroke="#8E8E8E" stroke-opacity="1.00" stroke-width="0.3"><path d="
M 142.00 277.00 
C 144.67 277.00 147.33 277.00 150.00 277.00
C 147.55 276.76 144.51 276.76 142.00 277.00 Z"/>
</g>
<g fill="None" fill-opacity="0.0" stroke="#6D6D6D" stroke-opacity="1.00" stroke-width="0.3"><path d="
M 142.00 281.00 
C 144.67 281.00 147.33 281.00 150.00 281.00
C 147.55 280.76 144.51 280.76 142.00 281.00 Z"/>
</g>
<g fill="#FEFEFE" fill-opacity="1.00" stroke="None">
<path d="
M 0.00 342.00 
L 326.00 342.00
L 326.00 0.00
L 0.00 0.00
L 0.00 342.00
M 231.00 127.00 
C 231.22 129.26 231.27 131.77 231.00 134.00
C 230.82 144.18 226.53 154.20 219.00 161.00
C 223.95 169.36 229.23 178.43 228.00 189.00
C 242.41 179.85 258.37 196.41 258.00 211.00
C 258.52 214.21 258.71 216.80 258.00 220.00
C 255.69 230.42 264.10 242.53 262.00 254.00 C 259.90 265.47 256.60 274.90 249.70 283.70 C 242.80 292.50 231.50 298.48 220.33 295.67 C 209.16 292.86 199.61 288.98 187.98 286.02 C 176.34 283.07 162.77 281.00 150.00 281.00
C 147.33 281.00 144.67 281.00 142.00 281.00
C 130.28 281.00 114.15 281.45 104.26 287.26 C 94.37 293.06 81.99 298.94 70.78 294.22 C 59.57 289.50 53.90 282.03 49.23 271.77 C 44.56 261.51 40.34 245.67 45.93 234.93 C 51.51 224.19 45.04 212.32 49.93 200.93 C 54.81 189.53 64.88 181.73 77.00 187.00
C 77.50 178.70 80.44 170.90 85.00 164.00
C 62.85 147.80 68.54 117.35 75.00 95.00
C 58.86 86.19 57.96 61.94 70.25 49.25 C 82.54 36.55 105.53 36.74 116.00 52.00
C 137.65 43.57 164.36 43.61 186.00 52.00
C 192.17 43.17 205.24 37.76 215.67 40.33 C 226.10 42.90 235.21 49.59 238.77 60.23 C 242.33 70.87 240.20 84.20 231.25 92.25 C 222.29 100.30 233.67 115.93 231.00 127.00 Z"/>
</g>
<g fill="#040404" fill-opacity="1.00" stroke="None">
<path d="
M 142.00 281.00 
C 144.51 280.76 147.55 280.76 150.00 281.00
C 162.77 281.00 176.34 283.07 187.98 286.02 C 199.61 288.98 209.16 292.86 220.33 295.67 C 231.50 298.48 242.80 292.50 249.70 283.70 C 256.60 274.90 259.90 265.47 262.00 254.00 C 264.10 242.53 255.69 230.42 258.00 220.00
C 258.29 217.13 258.16 213.88 258.00 211.00
C 258.37 196.41 242.41 179.85 228.00 189.00
C 229.23 178.43 223.95 169.36 219.00 161.00
C 226.53 154.20 230.82 144.18 231.00 134.00
C 231.04 131.67 231.00 129.33 231.00 127.00
C 233.67 115.93 222.29 100.30 231.25 92.25 C 240.20 84.20 242.33 70.87 238.77 60.23 C 235.21 49.59 226.10 42.90 215.67 40.33 C 205.24 37.76 192.17 43.17 186.00 52.00
C 164.36 43.61 137.65 43.57 116.00 52.00
C 105.53 36.74 82.54 36.55 70.25 49.25 C 57.96 61.94 58.86 86.19 75.00 95.00
C 68.54 117.35 62.85 147.80 85.00 164.00
C 80.44 170.90 77.50 178.70 77.00 187.00
C 64.88 181.73 54.81 189.53 49.93 200.93 C 45.04 212.32 51.51 224.19 45.93 234.93 C 40.34 245.67 44.56 261.51 49.23 271.77 C 53.90 282.03 59.57 289.50 70.78 294.22 C 81.99 298.94 94.37 293.06 104.26 287.26 C 114.15 281.45 130.28 281.00 142.00 281.00
M 112.00 54.00 
C 103.90 62.10 94.58 53.30 85.32 57.32 C 76.07 61.34 74.68 74.99 82.00 81.00
C 80.42 84.73 77.87 88.04 77.00 92.00
C 63.10 84.00 62.50 64.06 72.75 52.75 C 83.00 41.44 103.61 40.56 112.00 54.00
M 224.00 92.00 
C 218.14 84.65 223.22 78.99 224.98 71.98 C 226.73 64.96 219.29 55.72 211.98 56.02 C 204.66 56.33 196.38 61.01 190.00 54.00
C 199.23 39.99 219.89 41.72 229.92 53.08 C 239.95 64.44 238.90 85.84 224.00 92.00
M 227.00 126.00 
C 227.32 129.28 227.54 132.70 227.00 136.00
C 226.52 144.85 222.48 153.69 215.00 159.00
C 211.89 154.85 206.77 152.53 202.00 151.00
C 201.91 126.23 177.51 111.45 157.00 106.00
C 154.08 105.84 150.92 105.80 148.00 106.00
C 127.44 107.40 101.82 128.50 102.00 151.00
C 97.03 153.75 91.39 156.20 88.00 161.00
C 63.90 138.97 71.16 100.53 90.30 75.30 C 109.44 50.08 150.62 44.49 180.07 53.93 C 209.53 63.37 228.48 95.16 227.00 126.00
M 83.00 77.00 
C 79.91 71.41 80.60 66.12 85.75 61.75 C 90.91 57.38 101.36 61.02 94.25 65.25 C 87.14 69.49 89.92 74.38 83.00 77.00
M 218.00 78.00 
C 217.57 72.37 198.61 63.82 207.03 60.03 C 215.45 56.23 227.09 71.18 218.00 78.00
M 157.00 110.00 
C 170.73 110.93 162.18 121.94 152.98 121.98 C 143.77 122.01 135.29 110.93 149.00 110.00
C 151.92 109.48 154.14 109.49 157.00 110.00
M 137.00 115.00 
C 136.75 122.93 147.14 122.72 150.74 126.26 C 154.35 129.79 145.40 144.49 139.33 138.67 C 133.26 132.85 128.52 136.25 135.70 141.30 C 142.88 146.36 148.33 140.92 153.00 137.00
C 157.15 140.82 163.83 147.07 170.22 141.22 C 176.62 135.38 173.75 133.73 166.77 138.77 C 159.79 143.81 152.15 130.11 155.00 125.00
C 160.25 124.74 167.23 121.92 168.00 116.00
C 184.64 117.73 196.81 134.04 198.00 150.00
C 190.73 148.37 181.61 148.80 175.31 153.31 C 169.00 157.81 164.69 158.31 159.75 165.75 C 154.82 173.20 150.57 172.57 145.75 165.25 C 140.93 157.93 136.31 157.45 129.92 153.08 C 123.54 148.70 113.42 148.25 106.00 150.00
C 106.28 132.59 120.99 119.10 137.00 115.00
M 224.00 186.00 
C 224.38 188.67 225.11 190.19 224.00 193.00
C 220.31 202.28 216.10 212.32 213.74 221.74 C 211.39 231.17 201.00 235.85 194.92 242.92 C 188.83 249.99 179.69 254.48 171.92 259.92 C 164.15 265.36 153.28 271.15 144.31 265.69 C 135.33 260.24 128.77 256.92 120.25 250.75 C 111.73 244.58 107.85 239.02 99.25 231.75 C 90.65 224.48 92.65 212.27 88.02 202.98 C 83.40 193.68 78.35 183.34 84.31 173.31 C 90.26 163.28 95.13 158.30 105.22 154.22 C 115.31 150.15 127.97 155.67 135.23 160.77 C 142.49 165.87 149.54 181.58 157.75 173.75 C 165.96 165.93 169.26 160.00 179.69 155.69 C 190.13 151.39 201.54 152.72 210.25 159.75 C 218.96 166.78 223.62 174.73 224.00 186.00
M 81.00 199.00 
C 76.94 200.08 72.93 201.40 69.00 203.00
C 70.94 209.26 79.35 201.98 84.00 202.00
C 85.10 208.28 87.74 214.22 87.00 221.00
C 75.88 216.07 62.83 215.67 53.00 224.00
C 41.42 206.48 69.19 173.56 81.00 199.00
M 253.00 224.00 
C 243.32 216.44 229.67 215.06 219.00 222.00
C 218.77 215.27 219.87 208.80 223.00 203.00
C 226.87 204.44 230.62 206.38 235.00 206.00
C 235.29 201.07 228.32 201.59 225.00 200.00
C 235.93 174.86 264.65 206.71 253.00 224.00
M 49.00 237.00 
C 54.88 237.54 57.91 247.92 64.00 245.00
C 60.48 240.68 56.30 236.44 52.00 233.00
C 54.52 226.94 61.42 222.21 68.00 222.00
C 71.00 226.68 72.27 239.12 79.00 237.00
C 77.33 231.39 73.57 226.61 72.00 221.00
C 97.63 225.62 129.15 262.72 100.25 285.25 C 71.35 307.78 37.83 266.43 49.00 237.00
M 258.00 244.00 
C 258.57 247.19 258.51 249.89 258.00 253.00
C 256.41 282.35 223.27 305.98 200.75 281.25 C 178.23 256.52 212.45 224.76 235.00 221.00
C 234.20 225.86 225.79 234.57 232.00 237.00
C 234.20 232.05 237.08 227.34 238.00 222.00
C 244.64 221.69 249.27 227.10 254.00 231.00
C 252.56 236.30 245.60 238.65 244.00 244.00
C 249.67 247.54 251.86 237.30 257.00 237.00
C 256.71 239.49 258.64 241.39 258.00 244.00
M 150.00 277.00 
C 147.33 277.00 144.67 277.00 142.00 277.00
C 130.95 277.00 120.40 278.40 110.00 281.00
C 112.98 276.90 114.74 272.09 115.00 267.00
C 115.18 264.42 115.18 261.58 115.00 259.00
C 114.78 255.73 113.91 253.08 113.00 250.00
C 125.15 257.27 137.80 272.23 153.00 272.00 C 168.20 271.76 180.73 257.21 193.00 250.00
C 187.99 261.63 190.22 275.62 199.00 285.00
C 183.19 280.48 167.25 276.07 150.00 277.00 Z"/>
</g>
<g fill="#F7F7F7" fill-opacity="1.00" stroke="None">
<path d="
M 112.00 54.00 
C 103.61 40.56 83.00 41.44 72.75 52.75 C 62.50 64.06 63.10 84.00 77.00 92.00
C 77.87 88.04 80.42 84.73 82.00 81.00
C 74.68 74.99 76.07 61.34 85.32 57.32 C 94.58 53.30 103.90 62.10 112.00 54.00 Z"/>
</g>
<g fill="#F6F6F6" fill-opacity="1.00" stroke="None">
<path d="
M 224.00 92.00 
C 238.90 85.84 239.95 64.44 229.92 53.08 C 219.89 41.72 199.23 39.99 190.00 54.00
C 196.38 61.01 204.66 56.33 211.98 56.02 C 219.29 55.72 226.73 64.96 224.98 71.98 C 223.22 78.99 218.14 84.65 224.00 92.00 Z"/>
</g>
<g fill="#FCFCFC" fill-opacity="1.00" stroke="None">
<path d="
M 148.00 106.00 
C 151.19 105.43 153.89 105.49 157.00 106.00
C 177.51 111.45 201.91 126.23 202.00 151.00
C 206.77 152.53 211.89 154.85 215.00 159.00
C 222.48 153.69 226.52 144.85 227.00 136.00
C 227.18 132.69 227.00 129.32 227.00 126.00
C 228.48 95.16 209.53 63.37 180.07 53.93 C 150.62 44.49 109.44 50.08 90.30 75.30 C 71.16 100.53 63.90 138.97 88.00 161.00
C 91.39 156.20 97.03 153.75 102.00 151.00
C 101.82 128.50 127.44 107.40 148.00 106.00
M 124.00 96.00 
C 122.04 100.99 123.95 102.93 129.00 101.00
C 129.49 106.74 122.29 111.97 117.75 107.25 C 113.22 102.52 117.69 95.05 124.00 96.00
M 185.00 96.00 
C 183.56 101.22 184.71 102.82 190.00 101.00
C 191.53 107.48 183.24 111.96 178.75 107.25 C 174.27 102.53 179.17 95.55 185.00 96.00 Z"/>
</g>
<g fill="#F3F3F3" fill-opacity="1.00" stroke="None">
<path d="
M 83.00 77.00 
C 89.92 74.38 87.14 69.49 94.25 65.25 C 101.36 61.02 90.91 57.38 85.75 61.75 C 80.60 66.12 79.91 71.41 83.00 77.00 Z"/>
</g>
<g fill="#F5F5F5" fill-opacity="1.00" stroke="None">
<path d="
M 218.00 78.00 
C 227.09 71.18 215.45 56.23 207.03 60.03 C 198.61 63.82 217.57 72.37 218.00 78.00 Z"/>
</g>
<g fill="#030303" fill-opacity="1.00" stroke="None">
<path d="
M 124.00 96.00 
C 117.69 95.05 113.22 102.52 117.75 107.25 C 122.29 111.97 129.49 106.74 129.00 101.00
C 123.95 102.93 122.04 100.99 124.00 96.00 Z"/>
</g>
<g fill="#030303" fill-opacity="1.00" stroke="None">
<path d="
M 185.00 96.00 
C 179.17 95.55 174.27 102.53 178.75 107.25 C 183.24 111.96 191.53 107.48 190.00 101.00
C 184.71 102.82 183.56 101.22 185.00 96.00 Z"/>
</g>
<g fill="#858585" fill-opacity="1.00" stroke="None">
<path d="
M 148.00 106.00 
C 150.92 105.80 154.08 105.84 157.00 106.00
C 153.89 105.49 151.19 105.43 148.00 106.00 Z"/>
</g>
<g fill="#797979" fill-opacity="1.00" stroke="None">
<path d="
M 149.00 110.00 
C 151.58 109.82 154.42 109.82 157.00 110.00
C 154.14 109.49 151.92 109.48 149.00 110.00 Z"/>
</g>
<g fill="#F6F6F6" fill-opacity="1.00" stroke="None">
<path d="
M 157.00 110.00 
C 154.42 109.82 151.58 109.82 149.00 110.00
C 135.29 110.93 143.77 122.01 152.98 121.98 C 162.18 121.94 170.73 110.93 157.00 110.00 Z"/>
</g>
<g fill="#FAFAFA" fill-opacity="1.00" stroke="None">
<path d="
M 137.00 115.00 
C 120.99 119.10 106.28 132.59 106.00 150.00
C 113.42 148.25 123.54 148.70 129.92 153.08 C 136.31 157.45 140.93 157.93 145.75 165.25 C 150.57 172.57 154.82 173.20 159.75 165.75 C 164.69 158.31 169.00 157.81 175.31 153.31 C 181.61 148.80 190.73 148.37 198.00 150.00
C 196.81 134.04 184.64 117.73 168.00 116.00
C 167.23 121.92 160.25 124.74 155.00 125.00
C 152.15 130.11 159.79 143.81 166.77 138.77 C 173.75 133.73 176.62 135.38 170.22 141.22 C 163.83 147.07 157.15 140.82 153.00 137.00
C 148.33 140.92 142.88 146.36 135.70 141.30 C 128.52 136.25 133.26 132.85 139.33 138.67 C 145.40 144.49 154.35 129.79 150.74 126.26 C 147.14 122.72 136.75 122.93 137.00 115.00 Z"/>
</g>
<g fill="#7E7E7E" fill-opacity="1.00" stroke="None">
<path d="
M 227.00 136.00 
C 227.54 132.70 227.32 129.28 227.00 126.00
C 227.00 129.32 227.18 132.69 227.00 136.00 Z"/>
</g>
<g fill="#929292" fill-opacity="1.00" stroke="None">
<path d="
M 231.00 134.00 
C 231.27 131.77 231.22 129.26 231.00 127.00
C 231.00 129.33 231.04 131.67 231.00 134.00 Z"/>
</g>
<g fill="#FCFCFC" fill-opacity="1.00" stroke="None">
<path d="
M 224.00 193.00 
C 224.47 190.97 224.07 188.09 224.00 186.00
C 223.62 174.73 218.96 166.78 210.25 159.75 C 201.54 152.72 190.13 151.39 179.69 155.69 C 169.26 160.00 165.96 165.93 157.75 173.75 C 149.54 181.58 142.49 165.87 135.23 160.77 C 127.97 155.67 115.31 150.15 105.22 154.22 C 95.13 158.30 90.26 163.28 84.31 173.31 C 78.35 183.34 83.40 193.68 88.02 202.98 C 92.65 212.27 90.65 224.48 99.25 231.75 C 107.85 239.02 111.73 244.58 120.25 250.75 C 128.77 256.92 135.33 260.24 144.31 265.69 C 153.28 271.15 164.15 265.36 171.92 259.92 C 179.69 254.48 188.83 249.99 194.92 242.92 C 201.00 235.85 211.39 231.17 213.74 221.74 C 216.10 212.32 220.31 202.28 224.00 193.00
M 104.00 213.00 
C 108.67 213.00 113.33 213.00 118.00 213.00
C 119.24 218.21 100.88 220.49 100.03 213.97 C 99.18 207.45 100.61 195.97 100.00 189.00
C 108.13 191.80 102.17 205.68 104.00 213.00
M 141.00 189.00 
C 158.04 192.96 150.47 222.23 133.33 216.67 C 116.19 211.11 123.67 184.97 141.00 189.00
M 167.00 209.00 
C 171.85 205.01 173.40 196.22 176.00 190.00
C 183.03 190.41 177.05 198.87 175.08 203.08 C 173.10 207.28 171.75 216.66 166.00 217.00
C 163.55 207.39 157.87 198.80 156.00 189.00
C 163.48 190.37 163.64 202.64 167.00 209.00
M 192.00 193.00 
C 187.19 205.05 202.53 197.03 203.00 205.00
C 199.33 205.00 195.67 205.00 192.00 205.00
C 187.29 216.41 200.31 210.87 204.67 213.33 C 209.03 215.79 192.44 220.92 189.33 216.67 C 186.22 212.42 189.19 203.89 188.00 197.00 C 186.81 190.11 193.39 186.17 202.00 189.00 C 210.61 191.83 197.44 194.57 192.00 193.00 Z"/>
</g>
<g fill="#636363" fill-opacity="1.00" stroke="None">
<path d="
M 224.00 193.00 
C 225.11 190.19 224.38 188.67 224.00 186.00
C 224.07 188.09 224.47 190.97 224.00 193.00 Z"/>
</g>
<g fill="#F8F8F8" fill-opacity="1.00" stroke="None">
<path d="
M 81.00 199.00 
C 69.19 173.56 41.42 206.48 53.00 224.00
C 62.83 215.67 75.88 216.07 87.00 221.00
C 87.74 214.22 85.10 208.28 84.00 202.00
C 79.35 201.98 70.94 209.26 69.00 203.00
C 72.93 201.40 76.94 200.08 81.00 199.00 Z"/>
</g>
<g fill="#020202" fill-opacity="1.00" stroke="None">
<path d="
M 104.00 213.00 
C 102.17 205.68 108.13 191.80 100.00 189.00
C 100.61 195.97 99.18 207.45 100.03 213.97 C 100.88 220.49 119.24 218.21 118.00 213.00
C 113.33 213.00 108.67 213.00 104.00 213.00 Z"/>
</g>
<g fill="#040404" fill-opacity="1.00" stroke="None">
<path d="
M 141.00 189.00 
C 123.67 184.97 116.19 211.11 133.33 216.67 C 150.47 222.23 158.04 192.96 141.00 189.00
M 141.00 193.00 
C 152.65 196.54 145.86 218.14 133.98 213.02 C 122.09 207.91 127.66 188.95 141.00 193.00 Z"/>
</g>
<g fill="#050505" fill-opacity="1.00" stroke="None">
<path d="
M 167.00 209.00 
C 163.64 202.64 163.48 190.37 156.00 189.00
C 157.87 198.80 163.55 207.39 166.00 217.00
C 171.75 216.66 173.10 207.28 175.08 203.08 C 177.05 198.87 183.03 190.41 176.00 190.00
C 173.40 196.22 171.85 205.01 167.00 209.00 Z"/>
</g>
<g fill="#030303" fill-opacity="1.00" stroke="None">
<path d="
M 192.00 193.00 
C 197.44 194.57 210.61 191.83 202.00 189.00 C 193.39 186.17 186.81 190.11 188.00 197.00 C 189.19 203.89 186.22 212.42 189.33 216.67 C 192.44 220.92 209.03 215.79 204.67 213.33 C 200.31 210.87 187.29 216.41 192.00 205.00
C 195.67 205.00 199.33 205.00 203.00 205.00
C 202.53 197.03 187.19 205.05 192.00 193.00 Z"/>
</g>
<g fill="#F6F6F6" fill-opacity="1.00" stroke="None">
<path d="
M 253.00 224.00 
C 264.65 206.71 235.93 174.86 225.00 200.00
C 228.32 201.59 235.29 201.07 235.00 206.00
C 230.62 206.38 226.87 204.44 223.00 203.00
C 219.87 208.80 218.77 215.27 219.00 222.00
C 229.67 215.06 243.32 216.44 253.00 224.00 Z"/>
</g>
<g fill="#F6F6F6" fill-opacity="1.00" stroke="None">
<path d="
M 141.00 193.00 
C 127.66 188.95 122.09 207.91 133.98 213.02 C 145.86 218.14 152.65 196.54 141.00 193.00 Z"/>
</g>
<g fill="#7D7D7D" fill-opacity="1.00" stroke="None">
<path d="
M 258.00 220.00 
C 258.71 216.80 258.52 214.21 258.00 211.00
C 258.16 213.88 258.29 217.13 258.00 220.00 Z"/>
</g>
<g fill="#F8F8F8" fill-opacity="1.00" stroke="None">
<path d="
M 49.00 237.00 
C 37.83 266.43 71.35 307.78 100.25 285.25 C 129.15 262.72 97.63 225.62 72.00 221.00
C 73.57 226.61 77.33 231.39 79.00 237.00
C 72.27 239.12 71.00 226.68 68.00 222.00
C 61.42 222.21 54.52 226.94 52.00 233.00
C 56.30 236.44 60.48 240.68 64.00 245.00
C 57.91 247.92 54.88 237.54 49.00 237.00
M 80.00 258.00 
C 83.12 243.60 100.86 249.16 99.67 263.67 C 98.47 278.19 88.30 284.47 74.93 278.07 C 61.56 271.68 65.37 253.46 80.00 258.00 Z"/>
</g>
<g fill="#F9F9F9" fill-opacity="1.00" stroke="None">
<path d="
M 258.00 253.00 
C 258.16 250.08 258.20 246.92 258.00 244.00
C 258.64 241.39 256.71 239.49 257.00 237.00
C 251.86 237.30 249.67 247.54 244.00 244.00
C 245.60 238.65 252.56 236.30 254.00 231.00
C 249.27 227.10 244.64 221.69 238.00 222.00
C 237.08 227.34 234.20 232.05 232.00 237.00
C 225.79 234.57 234.20 225.86 235.00 221.00
C 212.45 224.76 178.23 256.52 200.75 281.25 C 223.27 305.98 256.41 282.35 258.00 253.00
M 226.00 258.00 
C 239.88 253.42 245.02 270.99 231.77 277.77 C 218.52 284.55 208.11 278.89 206.67 264.33 C 205.23 249.77 221.90 243.30 226.00 258.00 Z"/>
</g>
<g fill="#818181" fill-opacity="1.00" stroke="None">
<path d="
M 258.00 253.00 
C 258.51 249.89 258.57 247.19 258.00 244.00
C 258.20 246.92 258.16 250.08 258.00 253.00 Z"/>
</g>
<g fill="#040404" fill-opacity="1.00" stroke="None">
<path d="
M 80.00 258.00 
C 65.37 253.46 61.56 271.68 74.93 278.07 C 88.30 284.47 98.47 278.19 99.67 263.67 C 100.86 249.16 83.12 243.60 80.00 258.00
M 91.00 253.00 
C 96.59 254.29 95.97 262.76 95.02 267.02 C 94.08 271.29 91.20 279.40 85.00 277.00 C 78.80 274.60 74.68 276.14 71.23 269.77 C 67.78 263.40 72.70 260.24 79.07 261.93 C 85.45 263.61 83.14 251.19 91.00 253.00 Z"/>
</g>
<g fill="#040404" fill-opacity="1.00" stroke="None">
<path d="
M 226.00 258.00 
C 221.90 243.30 205.23 249.77 206.67 264.33 C 208.11 278.89 218.52 284.55 231.77 277.77 C 245.02 270.99 239.88 253.42 226.00 258.00
M 219.00 253.00 
C 222.64 254.14 222.75 264.96 229.07 261.07 C 235.40 257.19 239.47 268.50 233.70 271.70 C 227.92 274.89 227.19 276.87 218.00 277.00 C 208.81 277.12 206.30 249.03 219.00 253.00 Z"/>
</g>
<g fill="#F6F6F6" fill-opacity="1.00" stroke="None">
<path d="
M 115.00 259.00 
C 115.52 261.92 115.51 264.14 115.00 267.00
C 114.74 272.09 112.98 276.90 110.00 281.00
C 120.40 278.40 130.95 277.00 142.00 277.00
C 144.51 276.76 147.55 276.76 150.00 277.00
C 167.25 276.07 183.19 280.48 199.00 285.00
C 190.22 275.62 187.99 261.63 193.00 250.00
C 180.73 257.21 168.20 271.76 153.00 272.00 C 137.80 272.23 125.15 257.27 113.00 250.00
C 113.91 253.08 114.78 255.73 115.00 259.00 Z"/>
</g>
<g fill="#F5F5F5" fill-opacity="1.00" stroke="None">
<path d="
M 91.00 253.00 
C 83.14 251.19 85.45 263.61 79.07 261.93 C 72.70 260.24 67.78 263.40 71.23 269.77 C 74.68 276.14 78.80 274.60 85.00 277.00 C 91.20 279.40 94.08 271.29 95.02 267.02 C 95.97 262.76 96.59 254.29 91.00 253.00 Z"/>
</g>
<g fill="#F5F5F5" fill-opacity="1.00" stroke="None">
<path d="
M 219.00 253.00 
C 206.30 249.03 208.81 277.12 218.00 277.00 C 227.19 276.87 227.92 274.89 233.70 271.70 C 239.47 268.50 235.40 257.19 229.07 261.07 C 222.75 264.96 222.64 254.14 219.00 253.00 Z"/>
</g>
<g fill="#767676" fill-opacity="1.00" stroke="None">
<path d="
M 115.00 267.00 
C 115.51 264.14 115.52 261.92 115.00 259.00
C 115.18 261.58 115.18 264.42 115.00 267.00 Z"/>
</g>
<g fill="#8E8E8E" fill-opacity="1.00" stroke="None">
<path d="
M 142.00 277.00 
C 144.67 277.00 147.33 277.00 150.00 277.00
C 147.55 276.76 144.51 276.76 142.00 277.00 Z"/>
</g>
<g fill="#6D6D6D" fill-opacity="1.00" stroke="None">
<path d="
M 142.00 281.00 
C 144.67 281.00 147.33 281.00 150.00 281.00
C 147.55 280.76 144.51 280.76 142.00 281.00 Z"/>
</g>
</svg>