<svg xmlns="http://www.w3.org/2000/svg" xmlns:xlink="http://www.w3.org/1999/xlink" viewBox="0 0 430 430" width="130"
    height="130" preserveAspectRatio="xMidYMid meet"
    style="width: 130px; height: 130px; transform: translate3d(0px, 0px, 0px); content-visibility: visible;">

    <style>
        .corazon {
            animation: flotar 2s infinite linear;
        }

        /* Tiempos de retraso para que salgan uno después del otro */
        .c1 {
            animation-delay: 0s;
        }

        .c2 {
            animation-delay: 1s;
        }

        .c3 {
            animation-delay: 2s;
        }

        @keyframes flotar {
            0% {
                transform: translateY(40px);
                /* Empieza un poco más abajo (dentro de la caja) */
                opacity: 0;
            }

            15% {
                opacity: 1;
                /* Aparece suavemente */
            }

            85% {
                opacity: 1;
            }

            100% {
                transform: translateY(-40px);
                /* Sube hasta desaparecer */
                opacity: 0;
            }
        }
    </style>

    <defs>
        <clipPath id="__lottie_element_16">
            <rect width="430" height="430" x="0" y="0"></rect>
        </clipPath>
        <clipPath id="__lottie_element_18">
            <path d="M0,0 L430,0 L430,430 L0,430z"></path>
        </clipPath>
        <clipPath id="__lottie_element_23">
            <path d="M0,0 L430,0 L430,430 L0,430z"></path>
        </clipPath>
        <g id="__lottie_element_26">
            <g transform="matrix(1,0,0,1,0,0)" opacity="1" style="display: block;">
                <g opacity="1" transform="matrix(1,0,0,1,0,0)">
                    <path fill="rgb(255,0,0)" fill-opacity="1"
                        d=" M255,380 C255,380 255,185 255,185 M205,380 C205,380 205,185 205,185 M104.91,185.8 C104.91,185.8 105,380 105,380 C105,380 355,380 355,380 C355,380 355,185 355,185 C355,185 104.94,185.1 104.94,185.1">
                    </path>



                    <g opacity="1" transform="matrix(1,0,0,1,230,282.50201416015625)">


                        <g opacity="1" transform="matrix(1,0,0,1,0,0)">
                            <path stroke-linecap="round" stroke-linejoin="round" fill-opacity="0" class="secondary"
                                stroke="rgb(255,255,255)" stroke-opacity="1" stroke-width="2"
                                d=" M25,97.5 C25,97.5 25,-97.5 25,-97.5 M-25,97.5 C-25,97.5 -25,-97.5 -25,-97.5">
                            </path>
                        </g>
                    </g>
                    <g opacity="1" transform="matrix(1,0,0,1,229.99899291992188,282.50299072265625)">
                        <g opacity="1" transform="matrix(1,0,0,1,0,0)">
                            <path stroke-linecap="round" stroke-linejoin="round" fill-opacity="0" class="primary"
                                stroke="rgb(255,255,255)" stroke-opacity="1" stroke-width="2"
                                d=" M-125.09200286865234,-96.69999694824219 C-125.09200286865234,-96.69999694824219 -125,97.5 -125,97.5 C-125,97.5 125,97.5 125,97.5 C125,97.5 125,-97.5 125,-97.5 C125,-97.5 -125.05400085449219,-97.40699768066406 -125.05400085449219,-97.40699768066406">
                            </path>
                        </g>
                    </g>
                </g>
                <g opacity="1" transform="matrix(1,0,0,1,0,0)">
                    <path fill="rgb(255,0,0)" fill-opacity="1"
                        d=" M152.42,201.14 C152.42,201.14 104.12,188.2 104.12,188.2 M134.3,268.76 C134.3,268.76 86.01,255.82 86.01,255.82 M133.89,77.12 C133.89,77.12 56.24,366.9 56.24,366.9 C56.24,366.9 104.54,379.84 104.54,379.84 C104.54,379.84 182.18,90.06 182.18,90.06 C182.18,90.06 133.89,77.12 133.89,77.12z">
                    </path>
                    <g opacity="1"
                        transform="matrix(0.258819043636322,-0.9659258127212524,0.9659258127212524,0.258819043636322,119.21399688720703,228.4810028076172)">
                        <g opacity="1" transform="matrix(1,0,0,1,0,0)">
                            <path stroke-linecap="round" stroke-linejoin="round" fill-opacity="0"
                                stroke="rgb(8,168,138)" stroke-opacity="1" stroke-width="2"
                                d=" M35,25 C35,25 35,-25 35,-25 M-35,25 C-35,25 -35,-25 -35,-25"></path>
                        </g>
                    </g>



                    <g opacity="1" transform="matrix(1,0,0,1,119.21399688720703,228.48199462890625)">
                        <g opacity="1"
                            transform="matrix(0.258819043636322,-0.9659258127212524,0.9659258127212524,0.258819043636322,0,0)">
                        </g>
                    </g>
                </g>
            </g>
        </g>
        <g id="__lottie_element_32">
            <g transform="matrix(1,0,0,1,0,0)" opacity="1" style="display: block;">
                <path fill="rgb(255,0,0)" fill-opacity="1"
                    d=" M152.42,201.14 C152.42,201.14 104.12,188.2 104.12,188.2 M134.3,268.76 C134.3,268.76 86.01,255.82 86.01,255.82 M133.89,77.12 C133.89,77.12 56.24,366.9 56.24,366.9 C56.24,366.9 104.54,379.84 104.54,379.84 C104.54,379.84 182.18,90.06 182.18,90.06 C182.18,90.06 133.89,77.12 133.89,77.12z">
                </path>
                <g opacity="1"
                    transform="matrix(0.258819043636322,-0.9659258127212524,0.9659258127212524,0.258819043636322,119.21399688720703,228.4810028076172)">
                    <g opacity="1" transform="matrix(1,0,0,1,0,0)">
                        <path stroke-linecap="round" stroke-linejoin="round" fill-opacity="0" stroke="rgb(8,168,138)"
                            stroke-opacity="1" stroke-width="0"
                            d=" M35,25 C35,25 35,-25 35,-25 M-35,25 C-35,25 -35,-25 -35,-25"></path>
                    </g>
                </g>
                <g opacity="1" transform="matrix(1,0,0,1,119.21399688720703,228.48199462890625)">



                    <g opacity="1"
                        transform="matrix(0.258819043636322,-0.9659258127212524,0.9659258127212524,0.258819043636322,0,0)">
                    </g>
                </g>
            </g>
        </g>
        <filter id="__lottie_element_38" filterUnits="objectBoundingBox" x="0%" y="0%" width="100%" height="100%">
            <feComponentTransfer in="SourceGraphic">
                <feFuncA type="table" tableValues="1.0 0.0"></feFuncA>
            </feComponentTransfer>
        </filter>
        <mask id="__lottie_element_32_2" mask-type="alpha" maskUnits="userSpaceOnUse">
            <g filter="url(#__lottie_element_38)">
                <rect width="430" height="430" x="0" y="0" fill="#ffffff" opacity="0"></rect>
                <use xlink:href="#__lottie_element_32"></use>
            </g>
        </mask>
        <filter id="__lottie_element_39" filterUnits="objectBoundingBox" x="0%" y="0%" width="100%" height="100%">
            <feComponentTransfer in="SourceGraphic">
                <feFuncA type="table" tableValues="1.0 0.0"></feFuncA>
            </feComponentTransfer>
        </filter>
        <mask id="__lottie_element_26_2" mask-type="alpha" maskUnits="userSpaceOnUse">
            <g filter="url(#__lottie_element_39)">
                <rect width="430" height="430" x="0" y="0" fill="#ffffff" opacity="0"></rect>
                <use xlink:href="#__lottie_element_26"></use>
            </g>
        </mask>
    </defs>









    <g clip-path="url(#__lottie_element_16)">
        <g clip-path="url(#__lottie_element_18)" transform="matrix(1,0,0,1,0,0)" opacity="1" style="display: block;">

            <g mask="url(#__lottie_element_26_2)" style="display: block;">
                <g clip-path="url(#__lottie_element_23)" transform="matrix(1,0,0,1,0,0)" opacity="1">

                    <g class="corazon c1">



                        <g transform="matrix(1,0,0,1,195.14100646972656,77.36599731445312)" opacity="1"
                            style="display: block;">
                            <g opacity="1"
                                transform="matrix(0.9659258127212524,-0.258819043636322,0.258819043636322,0.9659258127212524,0,0)">
                                <path stroke-linecap="butt" stroke-linejoin="round" fill-opacity="0" class="secondary"
                                    stroke="rgb(237,102,170)" stroke-opacity="1" stroke-width="12"
                                    d=" M38.25199890136719,-32.875999450683594 C47.694000244140625,-23.378000259399414 47.694000244140625,-7.978000164031982 38.25199890136719,1.5199999809265137 C38.25199890136719,1.5199999809265137 0,40 0,40 C0,40 -38.25199890136719,1.5199999809265137 -38.25199890136719,1.5199999809265137 C-47.694000244140625,-7.978000164031982 -47.694000244140625,-23.378000259399414 -38.25199890136719,-32.875999450683594 C-28.809999465942383,-42.374000549316406 -13.50100040435791,-42.374000549316406 -4.059000015258789,-32.875999450683594 C-2.421999931335449,-31.229000091552734 -1.069000005722046,-29.4060001373291 0,-27.465999603271484 C1.069000005722046,-29.4060001373291 2.421999931335449,-31.229000091552734 4.059000015258789,-32.875999450683594 C13.50100040435791,-42.374000549316406 28.809999465942383,-42.374000549316406 38.25199890136719,-32.875999450683594z">
                                </path>
                            </g>
                        </g>
                    </g>

                    <g class="corazon c2">



                        <g transform="matrix(1,0,0,1,307.6940002441406,66.6259994506836)" opacity="1"
                            style="display: block;">
                            <g opacity="1"
                                transform="matrix(0.9659258127212524,0.258819043636322,-0.258819043636322,0.9659258127212524,0,0)">
                                <path stroke-linecap="butt" stroke-linejoin="round" fill-opacity="0" class="secondary"
                                    stroke="rgb(237,102,170)" stroke-opacity="1" stroke-width="12"
                                    d=" M26.29800033569336,-22.601999282836914 C32.78900146484375,-16.07200050354004 32.78900146484375,-5.485000133514404 26.29800033569336,1.0449999570846558 C26.29800033569336,1.0449999570846558 0,27.5 0,27.5 C0,27.5 -26.29800033569336,1.0449999570846558 -26.29800033569336,1.0449999570846558 C-32.78900146484375,-5.485000133514404 -32.78900146484375,-16.07200050354004 -26.29800033569336,-22.601999282836914 C-19.80699920654297,-29.131999969482422 -9.281999588012695,-29.131999969482422 -2.7909998893737793,-22.601999282836914 C-1.6660000085830688,-21.469999313354492 -0.7350000143051147,-20.216999053955078 0,-18.882999420166016 C0.7350000143051147,-20.216999053955078 1.6660000085830688,-21.469999313354492 2.7909998893737793,-22.601999282836914 C9.281999588012695,-29.131999969482422 19.80699920654297,-29.131999969482422 26.29800033569336,-22.601999282836914z">
                                </path>
                            </g>
                        </g>
                    </g>

                    <g class="corazon c3">


                        <g transform="matrix(1,0,0,1,273.14300537109375,161.36599731445312)" opacity="1"
                            style="display: block;">


                            <g opacity="1"
                                transform="matrix(0.9659258127212524,0.258819043636322,-0.258819043636322,0.9659258127212524,0,0)">
                                <path stroke-linecap="butt" stroke-linejoin="round" fill-opacity="0" class="secondary"
                                    stroke="rgb(237,102,170)" stroke-opacity="1" stroke-width="12"
                                    d=" M38.25199890136719,-32.875999450683594 C47.694000244140625,-23.378000259399414 47.694000244140625,-7.978000164031982 38.25199890136719,1.5199999809265137 C38.25199890136719,1.5199999809265137 0,40 0,40 C0,40 -38.25199890136719,1.5199999809265137 -38.25199890136719,1.5199999809265137 C-47.694000244140625,-7.978000164031982 -47.694000244140625,-23.378000259399414 -38.25199890136719,-32.875999450683594 C-28.809999465942383,-42.374000549316406 -13.50100040435791,-42.374000549316406 -4.059000015258789,-32.875999450683594 C-2.421999931335449,-31.229000091552734 -1.069000005722046,-29.4060001373291 0,-27.465999603271484 C1.069000005722046,-29.4060001373291 2.421999931335449,-31.229000091552734 4.059000015258789,-32.875999450683594 C13.50100040435791,-42.374000549316406 28.809999465942383,-42.374000549316406 38.25199890136719,-32.875999450683594z">
                                </path>
                            </g>
                        </g>
                    </g>




                    <g transform="matrix(1,0,0,1,195.14100646972656,77.36599731445312)" opacity="1"
                        style="display: none;">
                        <g opacity="1"
                            transform="matrix(0.9659258127212524,-0.258819043636322,0.258819043636322,0.9659258127212524,0,0)">
                            <path stroke-linecap="butt" stroke-linejoin="round" fill-opacity="0" class="secondary"
                                stroke="rgb(237,102,170)" stroke-opacity="1" stroke-width="12"
                                d=" M38.25199890136719,-32.875999450683594 C47.694000244140625,-23.378000259399414 47.694000244140625,-7.978000164031982 38.25199890136719,1.5199999809265137 C38.25199890136719,1.5199999809265137 0,40 0,40 C0,40 -38.25199890136719,1.5199999809265137 -38.25199890136719,1.5199999809265137 C-47.694000244140625,-7.978000164031982 -47.694000244140625,-23.378000259399414 -38.25199890136719,-32.875999450683594 C-28.809999465942383,-42.374000549316406 -13.50100040435791,-42.374000549316406 -4.059000015258789,-32.875999450683594 C-2.421999931335449,-31.229000091552734 -1.069000005722046,-29.4060001373291 0,-27.465999603271484 C1.069000005722046,-29.4060001373291 2.421999931335449,-31.229000091552734 4.059000015258789,-32.875999450683594 C13.50100040435791,-42.374000549316406 28.809999465942383,-42.374000549316406 38.25199890136719,-32.875999450683594z">
                            </path>
                        </g>
                    </g>



                    <g transform="matrix(1,0,0,1,307.6940002441406,66.6259994506836)" opacity="1"
                        style="display: none;">
                        <g opacity="1"
                            transform="matrix(0.9659258127212524,0.258819043636322,-0.258819043636322,0.9659258127212524,0,0)">
                            <path stroke-linecap="butt" stroke-linejoin="round" fill-opacity="0" class="secondary"
                                stroke="rgb(237,102,170)" stroke-opacity="1" stroke-width="12"
                                d=" M26.29800033569336,-22.601999282836914 C32.78900146484375,-16.07200050354004 32.78900146484375,-5.485000133514404 26.29800033569336,1.0449999570846558 C26.29800033569336,1.0449999570846558 0,27.5 0,27.5 C0,27.5 -26.29800033569336,1.0449999570846558 -26.29800033569336,1.0449999570846558 C-32.78900146484375,-5.485000133514404 -32.78900146484375,-16.07200050354004 -26.29800033569336,-22.601999282836914 C-19.80699920654297,-29.131999969482422 -9.281999588012695,-29.131999969482422 -2.7909998893737793,-22.601999282836914 C-1.6660000085830688,-21.469999313354492 -0.7350000143051147,-20.216999053955078 0,-18.882999420166016 C0.7350000143051147,-20.216999053955078 1.6660000085830688,-21.469999313354492 2.7909998893737793,-22.601999282836914 C9.281999588012695,-29.131999969482422 19.80699920654297,-29.131999969482422 26.29800033569336,-22.601999282836914z">
                            </path>
                        </g>
                    </g>




                    <g transform="matrix(1,0,0,1,273.14300537109375,161.36599731445312)" opacity="1"
                        style="display: none;">
                        <g opacity="1"
                            transform="matrix(0.9659258127212524,0.258819043636322,-0.258819043636322,0.9659258127212524,0,0)">
                            <path stroke-linecap="butt" stroke-linejoin="round" fill-opacity="0" class="secondary"
                                stroke="rgb(237,102,170)" stroke-opacity="1" stroke-width="12"
                                d=" M38.25199890136719,-32.875999450683594 C47.694000244140625,-23.378000259399414 47.694000244140625,-7.978000164031982 38.25199890136719,1.5199999809265137 C38.25199890136719,1.5199999809265137 0,40 0,40 C0,40 -38.25199890136719,1.5199999809265137 -38.25199890136719,1.5199999809265137 C-47.694000244140625,-7.978000164031982 -47.694000244140625,-23.378000259399414 -38.25199890136719,-32.875999450683594 C-28.809999465942383,-42.374000549316406 -13.50100040435791,-42.374000549316406 -4.059000015258789,-32.875999450683594 C-2.421999931335449,-31.229000091552734 -1.069000005722046,-29.4060001373291 0,-27.465999603271484 C1.069000005722046,-29.4060001373291 2.421999931335449,-31.229000091552734 4.059000015258789,-32.875999450683594 C13.50100040435791,-42.374000549316406 28.809999465942383,-42.374000549316406 38.25199890136719,-32.875999450683594z">
                            </path>
                        </g>
                    </g>
                </g>
            </g>




            <g mask="url(#__lottie_element_32_2)" style="display: block;">
                <g transform="matrix(1,0,0,1,0,0)" opacity="1">



                    <g opacity="1" transform="matrix(1,0,0,1,230,282.50201416015625)">
                        <g opacity="1" transform="matrix(1,0,0,1,0,0)">
                            <path stroke-linecap="round" stroke-linejoin="round" fill-opacity="0" class="secondary"
                                stroke="rgb(237,102,170)" stroke-opacity="1" stroke-width="12"
                                d=" M25,97.5 C25,97.5 25,-97.5 25,-97.5 M-25,97.5 C-25,97.5 -25,-97.5 -25,-97.5">
                            </path>
                        </g>
                    </g>



                    <g opacity="1" transform="matrix(1,0,0,1,229.99899291992188,282.50299072265625)">
                        <g opacity="1" transform="matrix(1,0,0,1,0,0)">
                            <path stroke-linecap="round" stroke-linejoin="round" fill-opacity="0" class="primary"
                                stroke="rgb(21,198,158)" stroke-opacity="1" stroke-width="12"
                                d=" M-125.09200286865234,-96.69999694824219 C-125.09200286865234,-96.69999694824219 -125,97.5 -125,97.5 C-125,97.5 125,97.5 125,97.5 C125,97.5 125,-97.5 125,-97.5 C125,-97.5 -125.05400085449219,-97.40699768066406 -125.05400085449219,-97.40699768066406">
                            </path>
                        </g>
                    </g>
                </g>
            </g>
            <g transform="matrix(1,0,0,1,0,0)" opacity="1" style="display: block;">
                <g opacity="1"
                    transform="matrix(0.258819043636322,-0.9659258127212524,0.9659258127212524,0.258819043636322,119.21399688720703,228.4810028076172)">
                    <g opacity="1" transform="matrix(1,0,0,1,0,0)">
                        <path stroke-linecap="round" stroke-linejoin="round" fill-opacity="0" class="secondary"
                            stroke="rgb(237,102,170)" stroke-opacity="1" stroke-width="12"
                            d=" M35,25 C35,25 35,-25 35,-25 M-35,25 C-35,25 -35,-25 -35,-25"></path>
                    </g>
                </g>
                <g opacity="1" transform="matrix(1,0,0,1,75.74700164794922,216.8350067138672)">
                    <g opacity="1"
                        transform="matrix(0.258819043636322,-0.9659258127212524,0.9659258127212524,0.258819043636322,0,0)">




                        <path stroke-linecap="round" stroke-linejoin="round" fill-opacity="0" class="secondary"
                            stroke="rgb(237,102,170)" stroke-opacity="1" stroke-width="12"
                            d=" M-30,20 C-30,20 -30,0 -30,0 C-30,-11.045999526977539 -21.04599952697754,-20 -10,-20 C-10,-20 10,-20 10,-20 C21.04599952697754,-20 30,-11.045999526977539 30,0 C30,0 30,20 30,20">
                        </path>
                    </g>
                </g>



                <g opacity="1" transform="matrix(1,0,0,1,88.19300079345703,157.1959991455078)">
                    <g opacity="1"
                        transform="matrix(0.258819043636322,-0.9659258127212524,0.9659258127212524,0.258819043636322,0,0)">




                        <path stroke-linecap="round" stroke-linejoin="round" fill-opacity="0" class="secondary"
                            stroke="rgb(237,102,170)" stroke-opacity="1" stroke-width="12"
                            d=" M-34.17300033569336,-7.664999961853027 C-34.17300033569336,-7.664999961853027 7.565999984741211,-22.27400016784668 7.565999984741211,-22.27400016784668 C20.56999969482422,-26.825000762939453 34.17300033569336,-17.173999786376953 34.17300033569336,-3.3970000743865967 C34.17300033569336,-3.3970000743865967 34.17300033569336,23.413000106811523 34.17300033569336,23.413000106811523">
                        </path>
                    </g>
                </g>



                <g opacity="1" transform="matrix(1,0,0,1,56.707000732421875,274.7049865722656)">



                    <g opacity="1"
                        transform="matrix(0.258819043636322,-0.9659258127212524,0.9659258127212524,0.258819043636322,0,0)">
                        <path stroke-linecap="round" stroke-linejoin="round" fill-opacity="0" class="secondary"
                            stroke="rgb(237,102,170)" stroke-opacity="1" stroke-width="12"
                            d=" M34.17300033569336,-7.664999961853027 C34.17300033569336,-7.664999961853027 -7.565999984741211,-22.27400016784668 -7.565999984741211,-22.27400016784668 C-20.56999969482422,-26.825000762939453 -34.17300033569336,-17.173999786376953 -34.17300033569336,-3.3970000743865967 C-34.17300033569336,-3.3970000743865967 -34.17300033569336,23.413000106811523 -34.17300033569336,23.413000106811523">
                        </path>
                    </g>
                </g>


                <g opacity="1" transform="matrix(1,0,0,1,119.21399688720703,228.48199462890625)">
                    <g opacity="1"
                        transform="matrix(0.258819043636322,-0.9659258127212524,0.9659258127212524,0.258819043636322,0,0)">
                        <path stroke-linecap="round" stroke-linejoin="round" fill-opacity="0" class="primary"
                            stroke="rgb(21,198,158)" stroke-opacity="1" stroke-width="12"
                            d=" M150,-25 C150,-25 -150,-25 -150,-25 C-150,-25 -150,25 -150,25 C-150,25 150,25 150,25 C150,25 150,-25 150,-25z">
                        </path>
                    </g>
                </g>
            </g>
        </g>
    </g>
</svg>