<svg xmlns="http://www.w3.org/2000/svg" enable-background="new 0 0 512 512" viewBox="0 0 512 512" id="plane">
  <path fill="#8c8c8c" d="M180.353 72.358l-27.568 27.568c-7.755 7.755-20.328 7.755-28.083 0l0 0c-7.755-7.755-7.755-20.328 0-28.083l27.568-27.568c3.875-3.875 10.156-3.875 14.031 0l14.052 14.052C184.228 62.201 184.228 68.483 180.353 72.358zM257.081 89.3l-27.568 27.568c-7.755 7.755-20.328 7.755-28.083 0l0 0c-7.755-7.755-7.755-20.328 0-28.083l27.568-27.568c3.875-3.875 10.156-3.875 14.031 0l14.052 14.052C260.956 79.143 260.956 85.425 257.081 89.3zM438.945 330.95l-27.568 27.568c-7.755 7.755-7.755 20.328 0 28.083l0 0c7.755 7.755 20.328 7.755 28.083 0l27.568-27.568c3.875-3.875 3.875-10.156 0-14.031l-14.052-14.052C449.101 327.075 442.819 327.075 438.945 330.95zM422.003 254.221l-27.568 27.568c-7.755 7.755-7.755 20.328 0 28.083h0c7.755 7.755 20.328 7.755 28.083 0l27.568-27.568c3.875-3.875 3.875-10.156 0-14.031l-14.052-14.052C432.16 250.347 425.878 250.347 422.003 254.221z"></path>
  <path fill="#70c6ec" d="M55.374 74.815l318.036 49.052L256.473 240.804 10.287 106.216c-5.885-3.217-7.028-11.185-2.286-15.927l0 0C20.41 77.88 38.002 72.114 55.374 74.815zM421.003 503.29L421.003 503.29c-4.743 4.743-12.71 3.599-15.927-2.285L270.452 254.782l116.937-116.937 49.088 318.072C439.141 473.253 433.411 490.882 421.003 503.29zM187.194 479.493l-6.138 6.138c-4.016 4.016-10.79 2.89-13.291-2.209l-46.037-93.851-93.874-46.06c-5.098-2.501-6.223-9.275-2.208-13.29l6.139-6.139c8.582-8.582 20.492-12.977 32.592-12.025l123.165 9.684 1.703-1.703.157 1.86 1.838.134-1.703 1.703 9.683 123.166C200.171 459.001 195.777 470.911 187.194 479.493z"></path>
  <path fill="#f2f2f2" d="M212.403,357.491c-22.52,20.416-61.984,47.599-85.075,54.406l-11.122,3.303c-4.342,1.289-10.248-0.879-14.737-5.368l0,0c-4.489-4.489-6.657-10.395-5.368-14.737l3.303-11.122c6.807-23.091,33.991-62.555,54.406-85.075L382.827,50.959c30.22-33.492,86.717-61.91,113.072-35.554s-2.064,82.852-35.556,113.072L212.403,357.491z"></path>
  <path d="M456.589,327.53c-5.949-5.938-15.618-5.941-21.556-0.003l-11.438,11.407l-3.158-20.731c2.101-1.139,4.06-2.544,5.752-4.237l27.627-27.52c5.912-5.912,6.033-15.528,0.008-21.553l-14.004-14.058c-5.894-5.977-15.568-6.022-21.582-0.086l-7.013,6.987l-10.182-66.842l63.103-58.066c22.415-20.148,46.936-56.275,47.811-87.984c0.745-27.172-17.321-45.325-44.536-44.703c-31.709,0.752-67.927,25.138-88.119,47.434l-58.312,62.892l-66.799-10.437l6.991-6.967c5.933-5.928,5.967-15.594,0.008-21.553l-14.004-14.058c-5.891-5.975-15.563-6.014-21.582-0.086l-27.622,27.518c-1.723,1.722-3.116,3.642-4.241,5.703l-20.669-3.229l11.385-11.353c5.959-5.959,5.985-15.633,0.07-21.548l-14.066-14.17c-5.988-5.91-15.675-5.891-21.579,0.018l-27.627,27.52c-2.923,2.924-4.984,6.544-6.182,10.473l-58.569-9.151c-18.76-2.83-38.501,3.52-51.963,16.912c-7.233,7.244-5.57,19.384,3.444,24.386l207.408,113.913l-65.607,70.76c-4.546,4.997-9.368,10.769-14.207,16.945l-70.861-5.699c-13.743-1.096-27.13,3.853-36.804,13.527l-6.201,6.149c-6.557,6.551-4.758,17.693,3.598,21.827l68.856,33.951c-0.033,0.107-0.08,0.226-0.112,0.333l-3.325,11.116c-1.453,4.862-0.151,10.705,3.284,15.862l-9.235,9.2c-2.088,2.077-2.093,5.454-0.016,7.539c2.075,2.086,5.454,2.095,7.539,0.016l9.24-9.206c4.624,3.111,10.509,4.958,15.87,3.369c3.046-0.901,9.668-2.841,11.487-3.4l33.651,68.911c4.076,8.501,15.221,10.253,21.855,3.705l6.131-6.131c9.698-9.698,14.673-23.089,13.65-36.754l-5.448-70.831c6.214-4.829,12.022-9.642,17.049-14.182c0.01-0.01,0.023-0.023,0.036-0.034l70.982-65.317l113.123,207.798c4.949,9.155,17.341,10.741,24.404,3.58c13.569-13.569,19.929-32.98,17.016-51.917l-8.921-58.564c3.967-1.175,7.619-3.231,10.559-6.169l27.624-27.518c5.959-5.959,5.959-15.657,0.008-21.608L456.589,327.53z M425.747,258.322c1.812-1.786,4.72-1.783,6.501,0.018l14.03,14.084c1.817,1.817,1.817,4.665,0.008,6.475l-27.63,27.523c-0.004,0.004-0.008,0.005-0.011,0.009l-5.426-35.623L425.747,258.322z M233.11,64.94c1.809-1.783,4.72-1.786,6.503,0.018l14.03,14.084c1.814,1.82,1.749,4.736,0.005,6.475L241.129,97.99l-35.611-5.563L233.11,64.94z M128.787,75.372l27.627-27.52c1.794-1.783,4.736-1.778,6.519-0.013l14.04,14.144c1.784,1.784,1.724,4.699-0.049,6.477l-16.906,16.859l-34.291-5.358C126.441,78.263,127.453,76.706,128.787,75.372z M13.14,101.109c-2.781-1.542-3.281-5.281-1.067-7.5C23.168,82.573,39.595,77.4,54.89,79.686l257.361,40.207l-89.385,96.406L13.14,101.109z M30.033,338.305c-1.787-0.882-2.201-3.305-0.797-4.71l6.201-6.149c7.48-7.479,17.841-11.288,28.431-10.453l64.073,5.152c-12.134,16.585-23.504,34.838-29.991,49.646L30.033,338.305z M193.554,447.186c0.789,10.554-3.059,20.908-10.557,28.408l-6.105,6.105c-1.403,1.385-3.825,1.133-4.743-0.784l-33.213-68.015c14.826-6.429,33.094-17.712,49.705-29.766L193.554,447.186z M208.622,353.467c-53.78,48.562-93.523,56.003-94.227,56.355c-1.162,0.344-3.015,0-5.019-0.946l31.446-31.328c2.088-2.077,2.093-5.454,0.016-7.539c-2.077-2.088-5.457-2.093-7.539-0.016l-31.442,31.324c-0.927-1.99-1.258-3.83-0.91-4.996c0.27-0.533,7.927-40.394,56.694-93.992l229.524-247.55c19.348-21.363,53.216-43.328,80.512-43.976c20.917-0.54,34.204,12.641,33.62,33.748c-0.75,27.294-22.845,61.08-44.325,80.39L208.622,353.467z M416.76,499.832c-2.146,2.126-5.892,1.791-7.456-1.104L294.895,288.572l96.687-88.97l39.226,257.486C433.108,472.037,428.48,488.112,416.76,499.832z M463.079,355.678l-27.624,27.515c-1.33,1.33-2.92,2.343-4.652,3.054l-5.216-34.241l16.981-16.934c1.791-1.781,4.699-1.783,6.475-0.008l14.03,14.084C464.907,350.984,464.85,353.907,463.079,355.678z"></path>
  <path d="M454.92,57.151c-8.992-9.034-23.54-13.035-33.922-3.187c-2.137,2.025-2.226,5.399-0.2,7.537c2.025,2.143,5.405,2.228,7.537,0.2c6.521-6.193,15.034-1.041,19.031,2.973c3.996,4.012,9.099,12.533,2.892,19.025c-2.033,2.13-1.958,5.504,0.172,7.539c2.135,2.039,5.507,1.951,7.539-0.172C467.848,80.73,463.915,66.179,454.92,57.151z"></path>
</svg>
