<svg xmlns="http://www.w3.org/2000/svg" xmlns:xlink="http://www.w3.org/1999/xlink" id="icono" class="highlight" version="1.1" width="1em" height="1em" viewBox="0 0 128 128" xml:space="preserve" style="margin-left: -2px; opacity: 0.9; width: 44px; height: 44px; /* color: #ffc7c7; / background-image: radial-gradient(white, transparent); border-radius: 8px; / color: #ff6a6a; */ padding: 1px;">
                    <defs>
                    </defs>

                    <path fill="#2ba52e" d="M82.09 96.56c4.06.57 10.51 3.54 12.74 6.9c.27.42.83 1.04.84 1.5c.02.76-.67 1.28-1.18 1.74c-7.35 6.64-20.37 8.48-27.26 1.91c-.96-.92-.14-2.17.27-3.25c1.67-4.31 5.83-7.81 10.37-8.7c1.42-.28 2.84-.29 4.22-.1m-34.56 3.37c-4.08-.39-11.05 1-14 3.75c-.36.34-1.05.82-1.17 1.27c-.2.73.35 1.4.75 1.97c5.61 8.16 17.84 12.99 26.07 8.19c1.15-.67.65-2.08.49-3.23c-.62-4.58-3.86-8.96-8.06-10.87c-1.32-.6-2.69-.95-4.08-1.08" stroke-linecap="round">
                    </path>

                    <path fill="#2ba52e" d="M65.93 121.18c-.14.49-.31.98-.5 1.45c-.35.87-.69 1.75-1.06 2.62c-.31.72-.63 1.6-1.44 1.91c-1.02.39-2.31.21-3.32-.08c-4.24-1.24-3.12-5.32-2.06-8.29c2.14-6.06 2.95-19.19 3.39-25.53c.46-6.55-.26-13.43-.26-19.99c0-.13.01-2.79-.09-2.79h8.36v3.07c0 4.75.01 9.5-.09 14.24c-.21 8.77-.4 24.87-2.93 33.39" stroke-linecap="round">
                    </path>

                    <path fill="transparent" d="M47.31 44.34c-1.13-1.01-17.87-13.21-17.87-13.21l-.25-7.42s-4.1-7.75.62-13.52c4.1-5.01 9.57-3.59 9.57-3.59s2.74-3.45 7.52-3.69c6.11-.31 9.09 4.83 9.09 4.83l27.55 4.53l15.47 10.06s2.29-.74 4.19.6c1.98 1.39 1.33 4.31 1.11 5.62c-.21 1.25-20.65 17.56-20.65 17.56l2.14 31.96l-7.14 7.97s-1 .98-3.05 1.24c-1.19.15-2.72-.33-2.72-.33l-4.45-12.78z">
                    </path>

                    <path style="stroke: rgb(255, 0, 0);stroke-width: 0;stroke-dasharray: none;stroke-linecap: butt;stroke-dashoffset: 0;stroke-linejoin: miter;stroke-miterlimit: 4;fill: rgb(255 0 0);fill-rule: nonzero;opacity: 1;" vector-effect="non-scaling-stroke" d="m83.15 6.86l-3.72.28l-2.61 2.19l.93 4.21s.12 3.15-2.36 4.66s-7.35 3.99-7.35 3.99l-3.36 5.56s-2.16-.71-5.68-2.52c-3.29-1.7-7.5-5.58-7.5-5.58l-7.53-.51s-1.44-.13-2.65 1.15c-1.74 1.86-1.12 5.8 2.29 9.41c3.28 3.47 10.38 7.7 11.96 8.87s3.99 2.67 5.36 3.44c1.32.74 2.9 1.8 3.59 1.67c.69-.14 1.71-2.49 4.94-4.76s6.39-4.19 11.55-5.98s10.11-3.85 11.62-4.81s-.55-7.49-2.41-11.48s-6.94-10.2-7.07-9.79" stroke-linecap="round">
                    </path>

                    <path style="stroke: rgb(255, 0, 0);stroke-width: 0;stroke-dasharray: none;stroke-linecap: butt;stroke-dashoffset: 0;stroke-linejoin: miter;stroke-miterlimit: 4;fill: rgb(255 0 0);fill-rule: nonzero;opacity: 1;" vector-effect="non-scaling-stroke" d="M65.07 23.98c-1.27 1.68-1.03 3.64-1.03 3.64s2.77 1.66 5.5 2.61c4.95 1.72 16.09 1.24 21.45-1.17s7.98-4.49 8.8-7.01c.96-2.96 1.76-8.94-4-13.55c-6.6-5.29-16.56-2.4-16.56-1.02s3.99.28 3.99 5.29s-4.4 8.04-8.87 8.66s-7.36 0-9.28 2.55" stroke-linecap="round">
                    </path>

                    <path style="stroke: rgb(255, 0, 0);stroke-width: 0;stroke-dasharray: none;stroke-linecap: butt;stroke-dashoffset: 0;stroke-linejoin: miter;stroke-miterlimit: 4;fill: rgb(255 0 0);fill-rule: nonzero;opacity: 1;" vector-effect="non-scaling-stroke" d="M42.24 19.65s-.51-2.02 1.17-3.64c2.54-2.48 5.78-3.78 7.63-5.78s4.48-5.79 10.93-6.67c9.56-1.31 15.74 2.27 17.12 6.67s-1.24 5.91-3.92 5.98s-4.17-1.19-9.08-.34c-8.32 1.44-11.21 5.91-11.96 6.33c-.76.41-3.23-1.03-6.6-1.93c-2.43-.65-4.19-.49-5.29-.62" stroke-linecap="round">
                    </path>

                    <path style="stroke: rgb(255, 0, 0);stroke-width: 0;stroke-dasharray: none;stroke-linecap: butt;stroke-dashoffset: 0;stroke-linejoin: miter;stroke-miterlimit: 4;fill: rgb(255 0 0);fill-rule: nonzero;opacity: 1;" vector-effect="non-scaling-stroke" d="M69.62 48.38s1.7-5.65 7.25-9.23c5.56-3.58 9.61-3.67 16.68-6.88s9.51-5.32 10.64-6.06c1.16-.76 2.21-1.45 3.02-.12c.52.86-.38 4.38-2.77 7.8c-2.44 3.49-4.84 5.41-6.66 11.42c-2.41 7.93 2.22 15.14-2.72 27.88c-1.6 4.12-5.35 7.89-8.84 10.34s-8.52 3-8.52 3s1.79-1.25 2.77-5.85c.48-2.26 1.2-6.27.65-10.54c-1.57-12.21-11.5-21.76-11.5-21.76" stroke-linecap="round">
                    </path>

                    <path style="stroke: #ff0707;stroke-width: 0;stroke-dasharray: none;stroke-linecap: butt;stroke-dashoffset: 0;stroke-linejoin: miter;stroke-miterlimit: 4;fill: rgb(255 0 0);fill-rule: nonzero;opacity: 1;" vector-effect="non-scaling-stroke" d="M31.74 46.68c.12 2.68-1.14 12.43.49 20.26c1.28 6.16 7.62 17.05 19.49 20.25c10.92 2.95 22.61-.09 22.61-.09s4.41-7.45 2.18-18.31c-2.43-11.84-14.26-20.64-27.9-27.38c-16.39-8.1-19.36-17.86-19.36-17.86s-5.39-1.41-6.74 3.44c-2.07 7.44 9.05 15.64 9.23 19.69" stroke-linecap="round">
                    </path>
                </svg>