<svg version="1.0" xmlns="http://www.w3.org/2000/svg"
 width="628.397268pt" height="799.135726pt" viewBox="0 0 628.397268 799.135726"
 preserveAspectRatio="xMidYMid meet">
<g transform="translate(0.000000,799.981587) scale(0.100000,-0.100000)"
fill="#ffffff" stroke="none">
<path d="M3500 7943 c-88 -66 -265 -245 -354 -355 -110 -137 -208 -333 -251
-503 -13 -49 -28 -151 -34 -225 -12 -155 -26 -203 -80 -275 -52 -69 -243 -246
-372 -346 -57 -44 -119 -96 -138 -116 -31 -33 -33 -39 -29 -89 5 -62 28 -91
145 -186 35 -28 65 -60 69 -70 10 -34 -17 -77 -81 -127 -69 -54 -83 -86 -62
-143 18 -50 39 -74 86 -101 44 -26 39 -37 -16 -37 -15 0 -38 -13 -59 -34 -28
-28 -34 -41 -34 -78 0 -45 31 -101 73 -136 9 -8 21 -28 27 -46 9 -28 5 -49
-25 -145 -55 -177 -47 -243 40 -319 77 -68 152 -85 515 -117 264 -23 384 -55
530 -141 115 -68 207 -173 256 -295 91 -223 125 -454 106 -715 -13 -176 -30
-250 -82 -360 -103 -215 -258 -347 -674 -573 -200 -109 -285 -166 -388 -261
-132 -121 -210 -242 -261 -405 -37 -120 -60 -241 -49 -262 11 -18 10 -21 51
137 70 268 220 468 476 634 44 29 152 91 241 138 354 189 483 292 613 493 100
155 132 289 133 560 0 430 -101 719 -317 903 -86 74 -289 162 -373 162 -14 0
-22 5 -20 13 3 8 36 14 94 19 101 7 408 82 525 127 159 61 328 158 408 234 88
84 218 274 199 292 -8 8 -25 -12 -85 -95 -68 -94 -163 -190 -236 -239 -120
-81 -340 -166 -557 -216 -333 -77 -355 -80 -605 -79 -178 1 -245 5 -298 17
-195 48 -250 112 -215 251 8 34 26 96 38 138 29 95 21 133 -45 201 -55 58 -61
103 -19 136 25 20 35 21 168 14 125 -5 140 -5 129 9 -7 8 -30 20 -52 26 -21 7
-76 33 -122 58 -160 88 -165 110 -54 219 73 71 75 74 75 121 0 47 -2 50 -67
109 -142 127 -153 140 -153 178 0 30 6 41 38 64 293 218 479 399 544 531 28
57 33 79 44 215 16 187 43 289 123 452 86 175 162 277 344 458 87 86 163 157
169 157 7 0 8 -14 4 -37 -11 -64 -26 -263 -26 -359 0 -199 81 -527 179 -722
47 -93 161 -268 246 -377 34 -44 119 -166 187 -270 139 -211 222 -325 391
-537 392 -492 557 -753 645 -1020 108 -326 105 -678 -7 -961 -148 -371 -375
-627 -746 -840 -44 -25 -177 -89 -295 -142 -431 -192 -811 -398 -1018 -552
-105 -77 -344 -318 -425 -428 -218 -294 -350 -748 -334 -1140 8 -190 50 -367
115 -488 40 -75 44 -36 7 74 -61 180 -70 242 -69 469 0 193 2 214 32 349 106
477 277 757 653 1066 240 198 378 278 881 511 579 269 699 343 918 571 197
204 333 457 395 734 22 99 31 378 16 493 -16 114 -52 253 -91 345 -28 66 -33
99 -11 75 17 -18 198 -352 239 -441 91 -197 152 -427 152 -570 0 -101 -20
-253 -42 -318 -50 -150 -132 -292 -240 -416 -112 -129 -324 -283 -525 -381
-68 -33 -125 -64 -128 -69 -31 -49 321 117 465 220 173 124 339 313 417 479
51 106 97 279 107 399 13 149 -46 420 -138 635 -68 159 -205 395 -355 613 -90
132 -405 550 -602 800 -210 268 -379 492 -379 504 0 20 16 11 55 -30 68 -70
299 -237 463 -335 700 -416 939 -581 1157 -799 128 -128 222 -253 285 -380 67
-136 91 -224 97 -365 10 -221 -60 -427 -201 -595 -40 -47 -62 -85 -50 -85 31
0 135 123 199 235 27 47 56 120 76 193 31 105 34 129 33 237 -1 147 -28 246
-109 410 -173 349 -466 602 -1230 1058 -347 208 -451 277 -630 419 -182 146
-363 346 -464 513 -140 231 -219 454 -257 721 -19 140 -15 338 11 478 18 98
14 136 -13 136 -9 0 -51 -26 -92 -57z"/>
<path d="M3060 6856 c-19 -7 -36 -20 -38 -29 -3 -15 8 -17 86 -17 163 0 293
-68 464 -242 62 -63 88 -81 88 -59 0 21 -71 100 -172 192 -137 124 -207 161
-316 166 -47 1 -91 -2 -112 -11z"/>
<path d="M3036 6628 c-2 -7 -7 -33 -10 -56 -11 -77 -66 -155 -142 -198 -16 -9
-17 -14 -6 -26 23 -29 111 -59 217 -74 96 -14 114 -14 212 1 116 18 153 29
153 45 0 6 -44 10 -118 10 -65 0 -144 5 -175 10 -69 13 -147 46 -147 63 0 7 9
35 19 62 23 62 32 166 14 172 -7 3 -15 -1 -17 -9z"/>
<path d="M1506 6345 c-85 -15 -123 -35 -144 -79 -10 -20 -18 -25 -30 -20 -81
34 -97 37 -126 23 -53 -26 -71 -62 -68 -138 1 -46 -3 -78 -13 -97 -21 -40 -19
-54 14 -106 17 -26 39 -78 51 -117 28 -96 71 -150 140 -178 51 -20 56 -25 67
-65 20 -74 15 -93 -51 -220 -82 -156 -121 -254 -148 -370 -11 -51 -25 -97 -29
-103 -5 -5 -9 19 -9 56 0 36 -10 101 -21 145 -35 129 -35 147 -1 201 78 123
68 254 -28 378 -68 88 -85 83 -125 -31 -29 -83 -33 -184 -9 -244 20 -50 13
-60 -24 -33 -49 36 -89 53 -144 59 -61 7 -187 -11 -213 -30 -16 -11 -16 -15
-2 -43 24 -45 104 -120 156 -145 57 -28 155 -35 229 -17 55 13 55 13 77 -15
50 -63 72 -204 58 -371 l-8 -90 -170 -12 c-93 -7 -209 -10 -256 -7 -73 5 -94
3 -130 -13 -24 -11 -49 -26 -56 -34 -7 -9 -51 -89 -99 -180 -99 -188 -147
-260 -274 -414 -92 -112 -120 -167 -120 -239 0 -17 58 -204 130 -414 137 -405
246 -751 304 -969 60 -225 238 -653 654 -1573 63 -140 126 -279 139 -309 15
-34 28 -50 33 -45 10 10 -145 392 -450 1109 -240 564 -262 625 -354 946 -46
162 -154 501 -240 753 -163 481 -174 526 -142 588 8 15 57 78 110 141 112 134
181 241 277 429 38 76 80 144 92 152 16 10 76 15 217 20 107 3 217 9 245 12
l49 7 -31 -39 c-17 -22 -40 -58 -50 -79 -10 -22 -25 -45 -33 -52 -25 -19 -123
-43 -179 -43 -62 0 -114 -22 -128 -53 -6 -12 -16 -51 -22 -87 -6 -36 -25 -94
-43 -130 l-33 -65 -68 -5 c-37 -3 -68 -9 -70 -15 -1 -5 23 -13 53 -17 64 -8
80 -24 80 -85 0 -71 19 -127 61 -178 21 -26 39 -51 39 -56 0 -12 -103 -11
-154 0 -22 6 -54 25 -76 46 -38 37 -54 37 -40 -1 13 -34 68 -73 127 -90 70
-20 137 -13 207 24 68 36 66 35 66 24 0 -25 -88 -114 -137 -138 -72 -35 -61
-56 18 -34 120 34 223 255 301 649 47 240 65 293 119 354 60 69 109 74 134 14
17 -43 -3 -219 -53 -457 -36 -169 -37 -182 -36 -370 0 -117 8 -251 18 -335 21
-169 17 -237 -31 -550 -53 -348 -43 -448 66 -680 144 -305 513 -866 746 -1135
96 -110 308 -320 324 -320 25 0 5 29 -107 149 -238 257 -356 409 -541 698
-175 272 -296 476 -361 608 -122 248 -128 302 -76 650 20 132 39 286 43 343
l6 103 21 -19 c31 -29 61 -42 93 -42 64 1 77 41 52 160 -9 47 -22 132 -29 190
-6 58 -13 120 -17 138 l-5 32 54 -6 c84 -10 148 18 148 65 0 6 -20 33 -44 60
-47 53 -88 120 -180 292 -60 113 -69 158 -46 241 9 31 20 42 70 69 86 46 145
132 138 203 l-3 31 -107 -3 c-107 -4 -108 -3 -108 19 0 13 20 64 45 115 50
104 98 154 146 154 52 0 137 30 182 64 55 42 129 151 125 185 -3 26 -4 26 -85
25 -150 -2 -213 -47 -284 -200 -21 -45 -43 -85 -48 -89 -6 -3 -32 -45 -58 -92
-25 -48 -48 -82 -50 -76 -5 15 42 197 73 285 30 82 80 185 131 270 37 62 27
57 180 93 l72 16 67 -37 c86 -48 161 -52 239 -12 28 14 73 29 101 33 71 9 111
36 123 82 6 21 27 58 46 82 64 80 56 135 -25 186 -38 24 -39 26 -34 68 5 38
-1 60 -41 153 -70 162 -76 165 -227 150 l-78 -8 0 37 c0 47 -40 89 -101 105
-24 7 -54 20 -67 31 -28 22 -55 22 -166 4z m156 -50 c16 -14 40 -25 53 -25 38
0 73 -20 85 -50 10 -24 7 -39 -23 -111 -49 -117 -116 -261 -129 -277 -18 -21
-25 3 -18 58 4 27 3 55 -1 61 -12 21 -29 -1 -29 -39 0 -20 -5 -44 -10 -52 -7
-11 -10 -8 -10 16 0 76 -29 134 -31 62 -1 -43 -11 -69 -24 -60 -22 15 -135
297 -135 337 0 16 11 38 29 56 24 24 38 29 78 30 26 0 57 4 68 9 36 15 66 11
97 -15z m-350 -84 c32 -26 78 -114 117 -226 44 -122 37 -150 -14 -67 -91 145
-91 145 -197 167 -15 3 -32 15 -39 26 -13 26 -4 83 17 104 22 21 86 19 116 -4z
m740 -88 c10 -9 18 -22 18 -28 0 -7 18 -51 40 -99 22 -47 40 -97 40 -110 0
-29 -33 -72 -69 -91 -43 -22 -228 -56 -285 -53 l-51 3 53 37 c51 37 65 58 39
58 -7 0 -32 -14 -55 -31 -56 -41 -65 -30 -13 16 36 33 45 55 22 55 -5 0 -29
-18 -55 -41 -25 -22 -46 -35 -46 -27 1 7 34 78 74 158 66 130 76 146 107 157
53 18 159 16 181 -4z m-744 -117 c17 -19 47 -65 67 -101 37 -66 37 -66 30
-151 -8 -96 -15 -104 -70 -78 -48 22 -82 70 -104 141 -10 32 -33 86 -52 120
-33 60 -33 62 -15 82 14 16 31 21 67 21 41 0 51 -4 77 -34z m254 -207 c14 -16
39 -31 55 -34 46 -10 141 -57 164 -81 25 -26 28 -66 8 -91 -30 -35 -93 -73
-123 -73 -31 0 -131 53 -174 93 -35 32 -52 71 -52 116 0 50 16 86 44 99 27 12
45 6 78 -29z m648 -34 c49 -26 48 -76 -3 -123 l-24 -23 -49 26 c-52 28 -79 29
-241 9 -49 -6 -53 -5 -53 14 0 28 1 28 109 47 52 9 115 27 140 40 54 28 81 30
121 10z m-1110 -195 c47 -93 53 -159 20 -234 -31 -72 -52 -64 -90 37 -31 78
-32 85 -21 142 16 87 31 135 41 135 6 0 28 -36 50 -80z m1010 38 c75 -38 61
-108 -22 -108 -22 0 -71 -13 -110 -30 -85 -36 -151 -39 -208 -10 -22 11 -40
22 -40 23 0 2 30 30 66 62 60 53 74 60 133 71 99 18 132 16 181 -8z m-587 -62
c31 -21 57 -42 57 -46 0 -10 -37 -20 -72 -20 -33 0 -56 31 -65 85 -7 42 -13
44 80 -19z m-610 -235 c37 -24 72 -51 77 -62 15 -28 -22 -43 -105 -43 -85 0
-140 25 -203 93 -43 45 -44 46 -20 53 12 4 59 6 103 4 75 -2 84 -5 148 -45z
m767 -98 c-1 -5 -22 -34 -48 -66 -39 -49 -59 -64 -116 -88 -72 -31 -97 -30
-58 1 23 19 30 46 10 37 -50 -20 -51 -20 -43 -6 49 82 124 129 208 129 26 0
47 -3 47 -7z m-270 -558 c0 -39 -102 -155 -136 -155 -13 0 -32 125 -20 137 5
5 39 10 144 22 6 0 12 -1 12 -4z m-475 -267 c-8 -35 -35 -169 -35 -174 0 -10
-63 -3 -89 11 -32 16 -41 12 -41 -20 0 -48 -33 -127 -78 -185 -26 -34 -57 -77
-68 -97 -12 -19 -24 -31 -27 -26 -4 6 -9 45 -12 89 -7 78 -6 80 33 155 26 49
44 101 52 147 14 84 22 92 107 93 32 0 76 6 98 14 59 19 66 18 60 -7z m344
-305 c27 -54 79 -138 115 -186 36 -49 63 -93 60 -99 -11 -17 -102 -1 -144 24
-50 31 -130 123 -130 151 0 22 15 127 26 180 3 15 10 27 15 27 5 0 31 -44 58
-97z m-414 63 c19 -13 19 -16 1 -92 -20 -87 -34 -109 -74 -119 -38 -9 -86 -48
-112 -90 -26 -43 -43 -37 -34 13 5 24 27 60 64 103 35 41 66 90 79 125 12 32
24 61 27 66 8 12 28 10 49 -6z m-45 -266 c0 -25 -96 -110 -125 -110 -11 0 -4
32 12 57 29 44 113 84 113 53z m400 -62 c48 -73 56 -100 75 -255 8 -65 19
-143 24 -175 5 -31 7 -65 4 -77 -13 -50 -78 -7 -115 75 -20 47 -30 126 -43
372 -5 88 -4 122 4 122 6 0 29 -28 51 -62z"/>
</g>
</svg>
