<svg xmlns="http://www.w3.org/2000/svg" xmlns:v="https://svgstorm.com" viewBox="0 0 349 339" width="349" height="339">
    <g fill="None" fill-opacity="0.0" stroke="#FEFEFE" stroke-opacity="1.00" stroke-width="0.3">
        <path d=" M 0.00 339.00  L 349.00 339.00 L 349.00 0.00 L 0.00 0.00 L 0.00 339.00 M 246.00 127.00  C 246.22 129.32 246.33 131.68 246.00 134.00 C 245.67 143.77 241.18 153.45 234.00 160.00 C 238.72 168.51 244.38 177.34 243.00 188.00 C 257.35 178.70 273.40 195.50 273.00 210.00 C 273.47 212.88 273.51 215.16 273.00 218.00 C 272.28 228.64 277.91 240.55 277.00 252.00 C 276.09 263.45 271.55 273.42 265.23 282.23 C 258.90 291.04 246.96 297.36 236.00 295.00 C 225.04 292.64 215.39 287.79 203.93 285.07 C 192.46 282.36 178.52 280.00 166.00 280.00 C 162.33 280.00 158.67 280.00 155.00 280.00 C 143.44 280.00 128.47 280.89 118.75 286.75 C 109.04 292.62 96.07 297.98 84.93 293.07 C 73.78 288.17 68.80 280.09 64.08 269.92 C 59.35 259.76 55.63 243.88 61.31 233.31 C 66.98 222.73 59.46 210.17 64.98 198.98 C 70.50 187.79 80.24 181.13 92.00 186.00 C 92.77 177.76 95.27 169.86 100.00 163.00 C 77.82 146.80 83.50 116.34 90.00 94.00 C 73.86 85.19 72.96 60.94 85.25 48.25 C 97.54 35.55 120.53 35.74 131.00 51.00 C 152.59 42.36 179.39 42.72 201.00 51.00 C 211.62 35.57 235.06 35.54 247.25 48.75 C 259.44 61.97 257.76 86.26 241.00 95.00 C 244.00 105.28 246.77 115.72 246.00 127.00 Z"/>
    </g>
    <g fill="None" fill-opacity="0.0" stroke="#000000" stroke-opacity="1.00" stroke-width="0.3">
        <path d=" M 155.00 280.00  C 158.46 279.67 162.61 279.67 166.00 280.00 C 178.52 280.00 192.46 282.36 203.93 285.07 C 215.39 287.79 225.04 292.64 236.00 295.00 C 246.96 297.36 258.90 291.04 265.23 282.23 C 271.55 273.42 276.09 263.45 277.00 252.00 C 277.91 240.55 272.28 228.64 273.00 218.00 C 273.18 215.40 273.14 212.60 273.00 210.00 C 273.40 195.50 257.35 178.70 243.00 188.00 C 244.38 177.34 238.72 168.51 234.00 160.00 C 241.18 153.45 245.67 143.77 246.00 134.00 C 246.08 131.67 246.00 129.33 246.00 127.00 C 246.77 115.72 244.00 105.28 241.00 95.00 C 257.76 86.26 259.44 61.97 247.25 48.75 C 235.06 35.54 211.62 35.57 201.00 51.00 C 179.39 42.72 152.59 42.36 131.00 51.00 C 120.53 35.74 97.54 35.55 85.25 48.25 C 72.96 60.94 73.86 85.19 90.00 94.00 C 83.50 116.34 77.82 146.80 100.00 163.00 C 95.27 169.86 92.77 177.76 92.00 186.00 C 80.24 181.13 70.50 187.79 64.98 198.98 C 59.46 210.17 66.98 222.73 61.31 233.31 C 55.63 243.88 59.35 259.76 64.08 269.92 C 68.80 280.09 73.78 288.17 84.93 293.07 C 96.07 297.98 109.04 292.62 118.75 286.75 C 128.47 280.89 143.44 280.00 155.00 280.00 M 81.00 73.00  C 80.53 70.37 80.54 68.57 81.00 66.00 C 82.40 43.97 115.35 34.27 127.00 53.00 C 118.91 61.13 109.54 52.40 100.32 56.32 C 91.10 60.25 89.66 74.06 97.00 80.00 C 95.42 83.73 92.87 87.04 92.00 91.00 C 86.07 86.65 80.89 80.55 81.00 73.00 M 239.00 91.00  C 230.66 80.40 245.71 70.61 236.23 59.77 C 226.74 48.93 214.40 62.93 205.00 53.00 C 213.27 39.14 235.01 40.68 244.92 52.08 C 254.83 63.48 254.13 84.63 239.00 91.00 M 242.00 124.00  C 242.35 127.59 242.58 131.40 242.00 135.00 C 241.52 143.85 237.48 152.69 230.00 158.00 C 226.89 153.85 221.77 151.53 217.00 150.00 C 216.91 125.19 192.60 110.58 172.00 105.00 C 169.39 104.86 166.61 104.86 164.00 105.00 C 143.02 106.14 116.88 126.97 117.00 150.00 C 112.03 152.75 106.39 155.20 103.00 160.00 C 78.65 137.33 86.16 99.50 105.30 74.30 C 124.44 49.11 164.75 43.73 194.22 52.78 C 223.69 61.82 243.29 93.06 242.00 124.00 M 98.00 76.00  C 94.91 70.41 95.60 65.12 100.75 60.75 C 105.91 56.38 116.36 60.02 109.25 64.25 C 102.14 68.49 104.92 73.38 98.00 76.00 M 233.00 77.00  C 232.57 71.37 213.61 62.82 222.03 59.03 C 230.45 55.23 242.09 70.18 233.00 77.00 M 152.00 114.00  C 153.25 119.97 159.94 124.49 166.00 124.00 C 168.52 128.50 161.65 142.53 155.00 138.00 C 148.35 133.46 143.64 133.71 150.08 139.92 C 156.52 146.12 163.76 139.69 168.00 136.00 C 172.15 139.82 178.83 146.07 185.22 140.22 C 191.62 134.38 188.75 132.73 181.77 137.77 C 174.79 142.81 167.15 129.11 170.00 124.00 C 175.25 123.74 182.23 120.92 183.00 115.00 C 199.67 116.59 211.84 133.09 213.00 149.00 C 205.77 147.53 196.61 147.82 190.31 152.31 C 184.00 156.79 179.69 157.31 174.75 164.75 C 169.81 172.20 165.58 171.55 160.75 164.25 C 155.92 156.95 151.32 156.40 144.92 152.08 C 138.53 147.76 128.39 147.37 121.00 149.00 C 121.27 131.68 135.83 117.74 152.00 114.00 M 96.00 198.00  C 91.94 199.08 87.93 200.40 84.00 202.00 C 85.94 208.26 94.35 200.98 99.00 201.00 C 100.26 207.57 102.81 213.87 102.00 221.00 C 91.42 213.91 77.81 215.30 68.00 223.00 C 56.38 205.41 84.20 172.60 96.00 198.00 M 119.00 212.00  C 123.67 212.00 128.33 212.00 133.00 212.00 C 134.24 217.21 115.88 219.49 115.03 212.97 C 114.18 206.45 115.61 194.97 115.00 188.00 C 123.13 190.80 117.17 204.68 119.00 212.00 M 156.00 188.00  C 173.02 191.96 165.71 221.40 148.33 215.67 C 130.95 209.94 138.52 183.93 156.00 188.00 M 182.00 208.00  C 188.42 204.48 186.41 189.62 195.00 189.00 C 191.45 197.85 189.60 211.62 181.00 216.00 C 178.55 206.39 172.87 197.80 171.00 188.00 C 178.82 189.20 178.43 201.72 182.00 208.00 M 207.00 192.00  C 202.19 204.05 217.53 196.03 218.00 204.00 C 214.33 204.00 210.67 204.00 207.00 204.00 C 202.29 215.41 215.31 209.87 219.67 212.33 C 224.03 214.79 207.44 219.92 204.33 215.67 C 201.22 211.42 204.19 202.89 203.00 196.00 C 201.81 189.11 208.39 185.17 217.00 188.00 C 225.61 190.83 212.44 193.57 207.00 192.00 M 268.00 223.00  C 258.39 215.29 244.59 213.86 234.00 221.00 C 232.99 214.14 235.91 208.34 237.00 202.00 C 241.39 202.75 245.23 205.59 250.00 205.00 C 250.29 200.07 243.32 200.59 240.00 199.00 C 251.06 173.87 279.43 205.69 268.00 223.00 M 79.00 244.00  C 75.48 239.68 71.30 235.44 67.00 232.00 C 69.52 225.94 76.42 221.21 83.00 221.00 C 84.38 226.65 88.62 231.33 90.00 237.00 C 98.86 235.44 86.87 225.48 87.00 220.00 C 95.25 220.73 102.37 225.02 108.70 230.30 C 115.03 235.58 118.03 241.53 122.77 248.23 C 127.51 254.93 127.92 265.73 124.22 273.22 C 120.52 280.71 114.89 285.93 106.92 288.92 C 98.96 291.92 88.58 292.15 81.31 286.69 C 74.03 281.24 71.21 277.34 67.68 268.32 C 64.15 259.30 61.13 254.48 62.78 242.78 C 64.43 231.08 71.85 244.37 79.00 244.00 M 273.00 243.00  C 273.51 246.15 273.50 248.91 273.00 252.00 C 271.41 281.32 238.26 304.94 215.75 280.25 C 193.24 255.55 227.44 223.74 250.00 220.00 C 249.21 224.86 240.79 233.57 247.00 236.00 C 249.32 231.09 252.25 226.41 253.00 221.00 C 259.64 220.69 264.27 226.10 269.00 230.00 C 267.56 235.30 260.60 237.65 259.00 243.00 C 264.67 246.54 266.86 236.30 272.00 236.00 C 272.56 238.24 273.38 240.48 273.00 243.00 M 208.00 249.00  C 205.03 260.99 193.20 262.38 184.31 269.31 C 175.41 276.23 160.93 277.69 151.92 270.08 C 142.91 262.46 130.53 261.20 128.00 249.00 C 140.22 255.29 153.19 272.43 168.00 272.00 C 182.82 271.56 195.73 255.46 208.00 249.00 Z"/>
    </g>
    <g fill="None" fill-opacity="0.0" stroke="#F7F7F7" stroke-opacity="1.00" stroke-width="0.3">
        <path d=" M 81.00 66.00  C 80.86 68.27 80.86 70.73 81.00 73.00 C 80.89 80.55 86.07 86.65 92.00 91.00 C 92.87 87.04 95.42 83.73 97.00 80.00 C 89.66 74.06 91.10 60.25 100.32 56.32 C 109.54 52.40 118.91 61.13 127.00 53.00 C 115.35 34.27 82.40 43.97 81.00 66.00 Z"/>
    </g>
    <g fill="None" fill-opacity="0.0" stroke="#F6F6F6" stroke-opacity="1.00" stroke-width="0.3">
        <path d=" M 239.00 91.00  C 254.13 84.63 254.83 63.48 244.92 52.08 C 235.01 40.68 213.27 39.14 205.00 53.00 C 214.40 62.93 226.74 48.93 236.23 59.77 C 245.71 70.61 230.66 80.40 239.00 91.00 Z"/>
    </g>
    <g fill="None" fill-opacity="0.0" stroke="#FCFCFC" stroke-opacity="1.00" stroke-width="0.3">
        <path d=" M 164.00 105.00  C 166.86 104.54 169.20 104.54 172.00 105.00 C 192.60 110.58 216.91 125.19 217.00 150.00 C 221.77 151.53 226.89 153.85 230.00 158.00 C 237.48 152.69 241.52 143.85 242.00 135.00 C 242.20 131.36 242.00 127.65 242.00 124.00 C 243.29 93.06 223.69 61.82 194.22 52.78 C 164.75 43.73 124.44 49.11 105.30 74.30 C 86.16 99.50 78.65 137.33 103.00 160.00 C 106.39 155.20 112.03 152.75 117.00 150.00 C 116.88 126.97 143.02 106.14 164.00 105.00 M 139.00 96.00  C 137.62 100.40 138.51 101.35 143.00 100.00 C 146.09 105.98 137.29 110.78 132.75 106.25 C 128.22 101.71 132.98 92.95 139.00 96.00 M 201.00 96.00  C 197.33 100.49 200.69 101.60 205.00 100.00 C 206.61 106.81 197.54 110.68 193.25 105.75 C 188.97 100.81 195.78 92.82 201.00 96.00 Z"/>
    </g>
    <g fill="None" fill-opacity="0.0" stroke="#F3F3F3" stroke-opacity="1.00" stroke-width="0.3">
        <path d=" M 98.00 76.00  C 104.92 73.38 102.14 68.49 109.25 64.25 C 116.36 60.02 105.91 56.38 100.75 60.75 C 95.60 65.12 94.91 70.41 98.00 76.00 Z"/>
    </g>
    <g fill="None" fill-opacity="0.0" stroke="#F5F5F5" stroke-opacity="1.00" stroke-width="0.3">
        <path d=" M 233.00 77.00  C 242.09 70.18 230.45 55.23 222.03 59.03 C 213.61 62.82 232.57 71.37 233.00 77.00 Z"/>
    </g>
    <g fill="None" fill-opacity="0.0" stroke="#6F6F6F" stroke-opacity="1.00" stroke-width="0.3">
        <path d=" M 81.00 73.00  C 80.86 70.73 80.86 68.27 81.00 66.00 C 80.54 68.57 80.53 70.37 81.00 73.00 Z"/>
    </g>
    <g fill="None" fill-opacity="0.0" stroke="#050505" stroke-opacity="1.00" stroke-width="0.3">
        <path d=" M 139.00 96.00  C 132.98 92.95 128.22 101.71 132.75 106.25 C 137.29 110.78 146.09 105.98 143.00 100.00 C 138.51 101.35 137.62 100.40 139.00 96.00 Z"/>
    </g>
    <g fill="None" fill-opacity="0.0" stroke="#040404" stroke-opacity="1.00" stroke-width="0.3">
        <path d=" M 201.00 96.00  C 195.78 92.82 188.97 100.81 193.25 105.75 C 197.54 110.68 206.61 106.81 205.00 100.00 C 200.69 101.60 197.33 100.49 201.00 96.00 Z"/>
    </g>
    <g fill="None" fill-opacity="0.0" stroke="#828282" stroke-opacity="1.00" stroke-width="0.3">
        <path d=" M 164.00 105.00  C 166.61 104.86 169.39 104.86 172.00 105.00 C 169.20 104.54 166.86 104.54 164.00 105.00 Z"/>
    </g>
    <g fill="None" fill-opacity="0.0" stroke="#F9F9F9" stroke-opacity="1.00" stroke-width="0.3">
        <path d=" M 152.00 114.00  C 135.83 117.74 121.27 131.68 121.00 149.00 C 128.39 147.37 138.53 147.76 144.92 152.08 C 151.32 156.40 155.92 156.95 160.75 164.25 C 165.58 171.55 169.81 172.20 174.75 164.75 C 179.69 157.31 184.00 156.79 190.31 152.31 C 196.61 147.82 205.77 147.53 213.00 149.00 C 211.84 133.09 199.67 116.59 183.00 115.00 C 182.23 120.92 175.25 123.74 170.00 124.00 C 167.15 129.11 174.79 142.81 181.77 137.77 C 188.75 132.73 191.62 134.38 185.22 140.22 C 178.83 146.07 172.15 139.82 168.00 136.00 C 163.76 139.69 156.52 146.12 150.08 139.92 C 143.64 133.71 148.35 133.46 155.00 138.00 C 161.65 142.53 168.52 128.50 166.00 124.00 C 159.94 124.49 153.25 119.97 152.00 114.00 Z"/>
    </g>
    <g fill="None" fill-opacity="0.0" stroke="#7C7C7C" stroke-opacity="1.00" stroke-width="0.3">
        <path d=" M 242.00 135.00  C 242.58 131.40 242.35 127.59 242.00 124.00 C 242.00 127.65 242.20 131.36 242.00 135.00 Z"/>
    </g>
    <g fill="None" fill-opacity="0.0" stroke="#949494" stroke-opacity="1.00" stroke-width="0.3">
        <path d=" M 246.00 134.00  C 246.33 131.68 246.22 129.32 246.00 127.00 C 246.00 129.33 246.08 131.67 246.00 134.00 Z"/>
    </g>
    <g fill="None" fill-opacity="0.0" stroke="#F8F8F8" stroke-opacity="1.00" stroke-width="0.3">
        <path d=" M 96.00 198.00  C 84.20 172.60 56.38 205.41 68.00 223.00 C 77.81 215.30 91.42 213.91 102.00 221.00 C 102.81 213.87 100.26 207.57 99.00 201.00 C 94.35 200.98 85.94 208.26 84.00 202.00 C 87.93 200.40 91.94 199.08 96.00 198.00 Z"/>
    </g>
    <g fill="None" fill-opacity="0.0" stroke="#F2F2F2" stroke-opacity="1.00" stroke-width="0.3">
        <path d=" M 119.00 212.00  C 117.17 204.68 123.13 190.80 115.00 188.00 C 115.61 194.97 114.18 206.45 115.03 212.97 C 115.88 219.49 134.24 217.21 133.00 212.00 C 128.33 212.00 123.67 212.00 119.00 212.00 Z"/>
    </g>
    <g fill="None" fill-opacity="0.0" stroke="#EBEBEB" stroke-opacity="1.00" stroke-width="0.3">
        <path d=" M 156.00 188.00  C 138.52 183.93 130.95 209.94 148.33 215.67 C 165.71 221.40 173.02 191.96 156.00 188.00 M 156.00 192.00  C 168.15 195.69 160.09 217.51 148.33 211.67 C 136.57 205.83 144.03 188.37 156.00 192.00 Z"/>
    </g>
    <g fill="None" fill-opacity="0.0" stroke="#EBEBEB" stroke-opacity="1.00" stroke-width="0.3">
        <path d=" M 182.00 208.00  C 178.43 201.72 178.82 189.20 171.00 188.00 C 172.87 197.80 178.55 206.39 181.00 216.00 C 189.60 211.62 191.45 197.85 195.00 189.00 C 186.41 189.62 188.42 204.48 182.00 208.00 Z"/>
    </g>
    <g fill="None" fill-opacity="0.0" stroke="#F0F0F0" stroke-opacity="1.00" stroke-width="0.3">
        <path d=" M 207.00 192.00  C 212.44 193.57 225.61 190.83 217.00 188.00 C 208.39 185.17 201.81 189.11 203.00 196.00 C 204.19 202.89 201.22 211.42 204.33 215.67 C 207.44 219.92 224.03 214.79 219.67 212.33 C 215.31 209.87 202.29 215.41 207.00 204.00 C 210.67 204.00 214.33 204.00 218.00 204.00 C 217.53 196.03 202.19 204.05 207.00 192.00 Z"/>
    </g>
    <g fill="None" fill-opacity="0.0" stroke="#F7F7F7" stroke-opacity="1.00" stroke-width="0.3">
        <path d=" M 268.00 223.00  C 279.43 205.69 251.06 173.87 240.00 199.00 C 243.32 200.59 250.29 200.07 250.00 205.00 C 245.23 205.59 241.39 202.75 237.00 202.00 C 235.91 208.34 232.99 214.14 234.00 221.00 C 244.59 213.86 258.39 215.29 268.00 223.00 Z"/>
    </g>
    <g fill="None" fill-opacity="0.0" stroke="#000000" stroke-opacity="1.00" stroke-width="0.3">
        <path d=" M 156.00 192.00  C 144.03 188.37 136.57 205.83 148.33 211.67 C 160.09 217.51 168.15 195.69 156.00 192.00 Z"/>
    </g>
    <g fill="None" fill-opacity="0.0" stroke="#787878" stroke-opacity="1.00" stroke-width="0.3">
        <path d=" M 273.00 218.00  C 273.51 215.16 273.47 212.88 273.00 210.00 C 273.14 212.60 273.18 215.40 273.00 218.00 Z"/>
    </g>
    <g fill="None" fill-opacity="0.0" stroke="#F8F8F8" stroke-opacity="1.00" stroke-width="0.3">
        <path d=" M 79.00 244.00  C 71.85 244.37 64.43 231.08 62.78 242.78 C 61.13 254.48 64.15 259.30 67.68 268.32 C 71.21 277.34 74.03 281.24 81.31 286.69 C 88.58 292.15 98.96 291.92 106.92 288.92 C 114.89 285.93 120.52 280.71 124.22 273.22 C 127.92 265.73 127.51 254.93 122.77 248.23 C 118.03 241.53 115.03 235.58 108.70 230.30 C 102.37 225.02 95.25 220.73 87.00 220.00 C 86.87 225.48 98.86 235.44 90.00 237.00 C 88.62 231.33 84.38 226.65 83.00 221.00 C 76.42 221.21 69.52 225.94 67.00 232.00 C 71.30 235.44 75.48 239.68 79.00 244.00 M 95.00 257.00  C 98.39 242.62 115.75 248.17 114.66 262.68 C 113.57 277.18 103.25 283.49 89.93 277.07 C 76.60 270.66 80.21 252.42 95.00 257.00 Z"/>
    </g>
    <g fill="None" fill-opacity="0.0" stroke="#F9F9F9" stroke-opacity="1.00" stroke-width="0.3">
        <path d=" M 273.00 252.00  C 273.16 249.06 273.16 245.94 273.00 243.00 C 273.38 240.48 272.56 238.24 272.00 236.00 C 266.86 236.30 264.67 246.54 259.00 243.00 C 260.60 237.65 267.56 235.30 269.00 230.00 C 264.27 226.10 259.64 220.69 253.00 221.00 C 252.25 226.41 249.32 231.09 247.00 236.00 C 240.79 233.57 249.21 224.86 250.00 220.00 C 227.44 223.74 193.24 255.55 215.75 280.25 C 238.26 304.94 271.41 281.32 273.00 252.00 M 241.00 257.00  C 254.96 252.36 259.97 269.96 246.77 276.77 C 233.57 283.58 223.09 277.89 221.67 263.33 C 220.26 248.77 236.83 242.18 241.00 257.00 Z"/>
    </g>
    <g fill="None" fill-opacity="0.0" stroke="#808080" stroke-opacity="1.00" stroke-width="0.3">
        <path d=" M 273.00 252.00  C 273.50 248.91 273.51 246.15 273.00 243.00 C 273.16 245.94 273.16 249.06 273.00 252.00 Z"/>
    </g>
    <g fill="None" fill-opacity="0.0" stroke="#000000" stroke-opacity="1.00" stroke-width="0.3">
        <path d=" M 95.00 257.00  C 80.21 252.42 76.60 270.66 89.93 277.07 C 103.25 283.49 113.57 277.18 114.66 262.68 C 115.75 248.17 98.39 242.62 95.00 257.00 Z"/>
    </g>
    <g fill="None" fill-opacity="0.0" stroke="#000000" stroke-opacity="1.00" stroke-width="0.3">
        <path d=" M 241.00 257.00  C 236.83 242.18 220.26 248.77 221.67 263.33 C 223.09 277.89 233.57 283.58 246.77 276.77 C 259.97 269.96 254.96 252.36 241.00 257.00 Z"/>
    </g>
    <g fill="None" fill-opacity="0.0" stroke="#E9E9E9" stroke-opacity="1.00" stroke-width="0.3">
        <path d=" M 208.00 249.00  C 195.73 255.46 182.82 271.56 168.00 272.00 C 153.19 272.43 140.22 255.29 128.00 249.00 C 130.53 261.20 142.91 262.46 151.92 270.08 C 160.93 277.69 175.41 276.23 184.31 269.31 C 193.20 262.38 205.03 260.99 208.00 249.00 Z"/>
    </g>
    <g fill="None" fill-opacity="0.0" stroke="#656565" stroke-opacity="1.00" stroke-width="0.3">
        <path d=" M 155.00 280.00  C 158.67 280.00 162.33 280.00 166.00 280.00 C 162.61 279.67 158.46 279.67 155.00 280.00 Z"/>
    </g>
    <g fill="None" fill-opacity="1.00" stroke="None">
        <path d=" M 0.00 339.00  L 349.00 339.00 L 349.00 0.00 L 0.00 0.00 L 0.00 339.00 M 246.00 127.00  C 246.22 129.32 246.33 131.68 246.00 134.00 C 245.67 143.77 241.18 153.45 234.00 160.00 C 238.72 168.51 244.38 177.34 243.00 188.00 C 257.35 178.70 273.40 195.50 273.00 210.00 C 273.47 212.88 273.51 215.16 273.00 218.00 C 272.28 228.64 277.91 240.55 277.00 252.00 C 276.09 263.45 271.55 273.42 265.23 282.23 C 258.90 291.04 246.96 297.36 236.00 295.00 C 225.04 292.64 215.39 287.79 203.93 285.07 C 192.46 282.36 178.52 280.00 166.00 280.00 C 162.33 280.00 158.67 280.00 155.00 280.00 C 143.44 280.00 128.47 280.89 118.75 286.75 C 109.04 292.62 96.07 297.98 84.93 293.07 C 73.78 288.17 68.80 280.09 64.08 269.92 C 59.35 259.76 55.63 243.88 61.31 233.31 C 66.98 222.73 59.46 210.17 64.98 198.98 C 70.50 187.79 80.24 181.13 92.00 186.00 C 92.77 177.76 95.27 169.86 100.00 163.00 C 77.82 146.80 83.50 116.34 90.00 94.00 C 73.86 85.19 72.96 60.94 85.25 48.25 C 97.54 35.55 120.53 35.74 131.00 51.00 C 152.59 42.36 179.39 42.72 201.00 51.00 C 211.62 35.57 235.06 35.54 247.25 48.75 C 259.44 61.97 257.76 86.26 241.00 95.00 C 244.00 105.28 246.77 115.72 246.00 127.00 Z"/>
    </g>
    <g fill="#000000" fill-opacity="1.00" stroke="None">
        <path d=" M 155.00 280.00  C 158.46 279.67 162.61 279.67 166.00 280.00 C 178.52 280.00 192.46 282.36 203.93 285.07 C 215.39 287.79 225.04 292.64 236.00 295.00 C 246.96 297.36 258.90 291.04 265.23 282.23 C 271.55 273.42 276.09 263.45 277.00 252.00 C 277.91 240.55 272.28 228.64 273.00 218.00 C 273.18 215.40 273.14 212.60 273.00 210.00 C 273.40 195.50 257.35 178.70 243.00 188.00 C 244.38 177.34 238.72 168.51 234.00 160.00 C 241.18 153.45 245.67 143.77 246.00 134.00 C 246.08 131.67 246.00 129.33 246.00 127.00 C 246.77 115.72 244.00 105.28 241.00 95.00 C 257.76 86.26 259.44 61.97 247.25 48.75 C 235.06 35.54 211.62 35.57 201.00 51.00 C 179.39 42.72 152.59 42.36 131.00 51.00 C 120.53 35.74 97.54 35.55 85.25 48.25 C 72.96 60.94 73.86 85.19 90.00 94.00 C 83.50 116.34 77.82 146.80 100.00 163.00 C 95.27 169.86 92.77 177.76 92.00 186.00 C 80.24 181.13 70.50 187.79 64.98 198.98 C 59.46 210.17 66.98 222.73 61.31 233.31 C 55.63 243.88 59.35 259.76 64.08 269.92 C 68.80 280.09 73.78 288.17 84.93 293.07 C 96.07 297.98 109.04 292.62 118.75 286.75 C 128.47 280.89 143.44 280.00 155.00 280.00 M 81.00 73.00  C 80.53 70.37 80.54 68.57 81.00 66.00 C 82.40 43.97 115.35 34.27 127.00 53.00 C 118.91 61.13 109.54 52.40 100.32 56.32 C 91.10 60.25 89.66 74.06 97.00 80.00 C 95.42 83.73 92.87 87.04 92.00 91.00 C 86.07 86.65 80.89 80.55 81.00 73.00 M 239.00 91.00  C 230.66 80.40 245.71 70.61 236.23 59.77 C 226.74 48.93 214.40 62.93 205.00 53.00 C 213.27 39.14 235.01 40.68 244.92 52.08 C 254.83 63.48 254.13 84.63 239.00 91.00 M 242.00 124.00  C 242.35 127.59 242.58 131.40 242.00 135.00 C 241.52 143.85 237.48 152.69 230.00 158.00 C 226.89 153.85 221.77 151.53 217.00 150.00 C 216.91 125.19 192.60 110.58 172.00 105.00 C 169.39 104.86 166.61 104.86 164.00 105.00 C 143.02 106.14 116.88 126.97 117.00 150.00 C 112.03 152.75 106.39 155.20 103.00 160.00 C 78.65 137.33 86.16 99.50 105.30 74.30 C 124.44 49.11 164.75 43.73 194.22 52.78 C 223.69 61.82 243.29 93.06 242.00 124.00 M 98.00 76.00  C 94.91 70.41 95.60 65.12 100.75 60.75 C 105.91 56.38 116.36 60.02 109.25 64.25 C 102.14 68.49 104.92 73.38 98.00 76.00 M 233.00 77.00  C 232.57 71.37 213.61 62.82 222.03 59.03 C 230.45 55.23 242.09 70.18 233.00 77.00 M 152.00 114.00  C 153.25 119.97 159.94 124.49 166.00 124.00 C 168.52 128.50 161.65 142.53 155.00 138.00 C 148.35 133.46 143.64 133.71 150.08 139.92 C 156.52 146.12 163.76 139.69 168.00 136.00 C 172.15 139.82 178.83 146.07 185.22 140.22 C 191.62 134.38 188.75 132.73 181.77 137.77 C 174.79 142.81 167.15 129.11 170.00 124.00 C 175.25 123.74 182.23 120.92 183.00 115.00 C 199.67 116.59 211.84 133.09 213.00 149.00 C 205.77 147.53 196.61 147.82 190.31 152.31 C 184.00 156.79 179.69 157.31 174.75 164.75 C 169.81 172.20 165.58 171.55 160.75 164.25 C 155.92 156.95 151.32 156.40 144.92 152.08 C 138.53 147.76 128.39 147.37 121.00 149.00 C 121.27 131.68 135.83 117.74 152.00 114.00 M 96.00 198.00  C 91.94 199.08 87.93 200.40 84.00 202.00 C 85.94 208.26 94.35 200.98 99.00 201.00 C 100.26 207.57 102.81 213.87 102.00 221.00 C 91.42 213.91 77.81 215.30 68.00 223.00 C 56.38 205.41 84.20 172.60 96.00 198.00 M 119.00 212.00  C 123.67 212.00 128.33 212.00 133.00 212.00 C 134.24 217.21 115.88 219.49 115.03 212.97 C 114.18 206.45 115.61 194.97 115.00 188.00 C 123.13 190.80 117.17 204.68 119.00 212.00 M 156.00 188.00  C 173.02 191.96 165.71 221.40 148.33 215.67 C 130.95 209.94 138.52 183.93 156.00 188.00 M 182.00 208.00  C 188.42 204.48 186.41 189.62 195.00 189.00 C 191.45 197.85 189.60 211.62 181.00 216.00 C 178.55 206.39 172.87 197.80 171.00 188.00 C 178.82 189.20 178.43 201.72 182.00 208.00 M 207.00 192.00  C 202.19 204.05 217.53 196.03 218.00 204.00 C 214.33 204.00 210.67 204.00 207.00 204.00 C 202.29 215.41 215.31 209.87 219.67 212.33 C 224.03 214.79 207.44 219.92 204.33 215.67 C 201.22 211.42 204.19 202.89 203.00 196.00 C 201.81 189.11 208.39 185.17 217.00 188.00 C 225.61 190.83 212.44 193.57 207.00 192.00 M 268.00 223.00  C 258.39 215.29 244.59 213.86 234.00 221.00 C 232.99 214.14 235.91 208.34 237.00 202.00 C 241.39 202.75 245.23 205.59 250.00 205.00 C 250.29 200.07 243.32 200.59 240.00 199.00 C 251.06 173.87 279.43 205.69 268.00 223.00 M 79.00 244.00  C 75.48 239.68 71.30 235.44 67.00 232.00 C 69.52 225.94 76.42 221.21 83.00 221.00 C 84.38 226.65 88.62 231.33 90.00 237.00 C 98.86 235.44 86.87 225.48 87.00 220.00 C 95.25 220.73 102.37 225.02 108.70 230.30 C 115.03 235.58 118.03 241.53 122.77 248.23 C 127.51 254.93 127.92 265.73 124.22 273.22 C 120.52 280.71 114.89 285.93 106.92 288.92 C 98.96 291.92 88.58 292.15 81.31 286.69 C 74.03 281.24 71.21 277.34 67.68 268.32 C 64.15 259.30 61.13 254.48 62.78 242.78 C 64.43 231.08 71.85 244.37 79.00 244.00 M 273.00 243.00  C 273.51 246.15 273.50 248.91 273.00 252.00 C 271.41 281.32 238.26 304.94 215.75 280.25 C 193.24 255.55 227.44 223.74 250.00 220.00 C 249.21 224.86 240.79 233.57 247.00 236.00 C 249.32 231.09 252.25 226.41 253.00 221.00 C 259.64 220.69 264.27 226.10 269.00 230.00 C 267.56 235.30 260.60 237.65 259.00 243.00 C 264.67 246.54 266.86 236.30 272.00 236.00 C 272.56 238.24 273.38 240.48 273.00 243.00 M 208.00 249.00  C 205.03 260.99 193.20 262.38 184.31 269.31 C 175.41 276.23 160.93 277.69 151.92 270.08 C 142.91 262.46 130.53 261.20 128.00 249.00 C 140.22 255.29 153.19 272.43 168.00 272.00 C 182.82 271.56 195.73 255.46 208.00 249.00 Z"/>
    </g>
    <g fill="#F7F7F7" fill-opacity="1.00" stroke="None">
        <path d=" M 81.00 66.00  C 80.86 68.27 80.86 70.73 81.00 73.00 C 80.89 80.55 86.07 86.65 92.00 91.00 C 92.87 87.04 95.42 83.73 97.00 80.00 C 89.66 74.06 91.10 60.25 100.32 56.32 C 109.54 52.40 118.91 61.13 127.00 53.00 C 115.35 34.27 82.40 43.97 81.00 66.00 Z"/>
    </g>
    <g fill="#F6F6F6" fill-opacity="1.00" stroke="None">
        <path d=" M 239.00 91.00  C 254.13 84.63 254.83 63.48 244.92 52.08 C 235.01 40.68 213.27 39.14 205.00 53.00 C 214.40 62.93 226.74 48.93 236.23 59.77 C 245.71 70.61 230.66 80.40 239.00 91.00 Z"/>
    </g>
    <g fill="#FCFCFC" fill-opacity="1.00" stroke="None">
        <path d=" M 164.00 105.00  C 166.86 104.54 169.20 104.54 172.00 105.00 C 192.60 110.58 216.91 125.19 217.00 150.00 C 221.77 151.53 226.89 153.85 230.00 158.00 C 237.48 152.69 241.52 143.85 242.00 135.00 C 242.20 131.36 242.00 127.65 242.00 124.00 C 243.29 93.06 223.69 61.82 194.22 52.78 C 164.75 43.73 124.44 49.11 105.30 74.30 C 86.16 99.50 78.65 137.33 103.00 160.00 C 106.39 155.20 112.03 152.75 117.00 150.00 C 116.88 126.97 143.02 106.14 164.00 105.00 M 139.00 96.00  C 137.62 100.40 138.51 101.35 143.00 100.00 C 146.09 105.98 137.29 110.78 132.75 106.25 C 128.22 101.71 132.98 92.95 139.00 96.00 M 201.00 96.00  C 197.33 100.49 200.69 101.60 205.00 100.00 C 206.61 106.81 197.54 110.68 193.25 105.75 C 188.97 100.81 195.78 92.82 201.00 96.00 Z"/>
    </g>
    <g fill="#F3F3F3" fill-opacity="1.00" stroke="None">
        <path d=" M 98.00 76.00  C 104.92 73.38 102.14 68.49 109.25 64.25 C 116.36 60.02 105.91 56.38 100.75 60.75 C 95.60 65.12 94.91 70.41 98.00 76.00 Z"/>
    </g>
    <g fill="#F5F5F5" fill-opacity="1.00" stroke="None">
        <path d=" M 233.00 77.00  C 242.09 70.18 230.45 55.23 222.03 59.03 C 213.61 62.82 232.57 71.37 233.00 77.00 Z"/>
    </g>
    <g fill="#6F6F6F" fill-opacity="1.00" stroke="None">
        <path d=" M 81.00 73.00  C 80.86 70.73 80.86 68.27 81.00 66.00 C 80.54 68.57 80.53 70.37 81.00 73.00 Z"/>
    </g>
    <g fill="#050505" fill-opacity="1.00" stroke="None">
        <path d=" M 139.00 96.00  C 132.98 92.95 128.22 101.71 132.75 106.25 C 137.29 110.78 146.09 105.98 143.00 100.00 C 138.51 101.35 137.62 100.40 139.00 96.00 Z"/>
    </g>
    <g fill="#040404" fill-opacity="1.00" stroke="None">
        <path d=" M 201.00 96.00  C 195.78 92.82 188.97 100.81 193.25 105.75 C 197.54 110.68 206.61 106.81 205.00 100.00 C 200.69 101.60 197.33 100.49 201.00 96.00 Z"/>
    </g>
    <g fill="#828282" fill-opacity="1.00" stroke="None">
        <path d=" M 164.00 105.00  C 166.61 104.86 169.39 104.86 172.00 105.00 C 169.20 104.54 166.86 104.54 164.00 105.00 Z"/>
    </g>
    <g fill="#F9F9F9" fill-opacity="1.00" stroke="None">
        <path d=" M 152.00 114.00  C 135.83 117.74 121.27 131.68 121.00 149.00 C 128.39 147.37 138.53 147.76 144.92 152.08 C 151.32 156.40 155.92 156.95 160.75 164.25 C 165.58 171.55 169.81 172.20 174.75 164.75 C 179.69 157.31 184.00 156.79 190.31 152.31 C 196.61 147.82 205.77 147.53 213.00 149.00 C 211.84 133.09 199.67 116.59 183.00 115.00 C 182.23 120.92 175.25 123.74 170.00 124.00 C 167.15 129.11 174.79 142.81 181.77 137.77 C 188.75 132.73 191.62 134.38 185.22 140.22 C 178.83 146.07 172.15 139.82 168.00 136.00 C 163.76 139.69 156.52 146.12 150.08 139.92 C 143.64 133.71 148.35 133.46 155.00 138.00 C 161.65 142.53 168.52 128.50 166.00 124.00 C 159.94 124.49 153.25 119.97 152.00 114.00 Z"/>
    </g>
    <g fill="#7C7C7C" fill-opacity="1.00" stroke="None">
        <path d=" M 242.00 135.00  C 242.58 131.40 242.35 127.59 242.00 124.00 C 242.00 127.65 242.20 131.36 242.00 135.00 Z"/>
    </g>
    <g fill="#949494" fill-opacity="1.00" stroke="None">
        <path d=" M 246.00 134.00  C 246.33 131.68 246.22 129.32 246.00 127.00 C 246.00 129.33 246.08 131.67 246.00 134.00 Z"/>
    </g>
    <g fill="#F8F8F8" fill-opacity="1.00" stroke="None">
        <path d=" M 96.00 198.00  C 84.20 172.60 56.38 205.41 68.00 223.00 C 77.81 215.30 91.42 213.91 102.00 221.00 C 102.81 213.87 100.26 207.57 99.00 201.00 C 94.35 200.98 85.94 208.26 84.00 202.00 C 87.93 200.40 91.94 199.08 96.00 198.00 Z"/>
    </g>
    <g fill="#F2F2F2" fill-opacity="1.00" stroke="None">
        <path d=" M 119.00 212.00  C 117.17 204.68 123.13 190.80 115.00 188.00 C 115.61 194.97 114.18 206.45 115.03 212.97 C 115.88 219.49 134.24 217.21 133.00 212.00 C 128.33 212.00 123.67 212.00 119.00 212.00 Z"/>
    </g>
    <g fill="#EBEBEB" fill-opacity="1.00" stroke="None">
        <path d=" M 156.00 188.00  C 138.52 183.93 130.95 209.94 148.33 215.67 C 165.71 221.40 173.02 191.96 156.00 188.00 M 156.00 192.00  C 168.15 195.69 160.09 217.51 148.33 211.67 C 136.57 205.83 144.03 188.37 156.00 192.00 Z"/>
    </g>
    <g fill="#EBEBEB" fill-opacity="1.00" stroke="None">
        <path d=" M 182.00 208.00  C 178.43 201.72 178.82 189.20 171.00 188.00 C 172.87 197.80 178.55 206.39 181.00 216.00 C 189.60 211.62 191.45 197.85 195.00 189.00 C 186.41 189.62 188.42 204.48 182.00 208.00 Z"/>
    </g>
    <g fill="#F0F0F0" fill-opacity="1.00" stroke="None">
        <path d=" M 207.00 192.00  C 212.44 193.57 225.61 190.83 217.00 188.00 C 208.39 185.17 201.81 189.11 203.00 196.00 C 204.19 202.89 201.22 211.42 204.33 215.67 C 207.44 219.92 224.03 214.79 219.67 212.33 C 215.31 209.87 202.29 215.41 207.00 204.00 C 210.67 204.00 214.33 204.00 218.00 204.00 C 217.53 196.03 202.19 204.05 207.00 192.00 Z"/>
    </g>
    <g fill="#F7F7F7" fill-opacity="1.00" stroke="None">
        <path d=" M 268.00 223.00  C 279.43 205.69 251.06 173.87 240.00 199.00 C 243.32 200.59 250.29 200.07 250.00 205.00 C 245.23 205.59 241.39 202.75 237.00 202.00 C 235.91 208.34 232.99 214.14 234.00 221.00 C 244.59 213.86 258.39 215.29 268.00 223.00 Z"/>
    </g>
    <g fill="#000000" fill-opacity="1.00" stroke="None">
        <path d=" M 156.00 192.00  C 144.03 188.37 136.57 205.83 148.33 211.67 C 160.09 217.51 168.15 195.69 156.00 192.00 Z"/>
    </g>
    <g fill="#787878" fill-opacity="1.00" stroke="None">
        <path d=" M 273.00 218.00  C 273.51 215.16 273.47 212.88 273.00 210.00 C 273.14 212.60 273.18 215.40 273.00 218.00 Z"/>
    </g>
    <g fill="#F8F8F8" fill-opacity="1.00" stroke="None">
        <path d=" M 79.00 244.00  C 71.85 244.37 64.43 231.08 62.78 242.78 C 61.13 254.48 64.15 259.30 67.68 268.32 C 71.21 277.34 74.03 281.24 81.31 286.69 C 88.58 292.15 98.96 291.92 106.92 288.92 C 114.89 285.93 120.52 280.71 124.22 273.22 C 127.92 265.73 127.51 254.93 122.77 248.23 C 118.03 241.53 115.03 235.58 108.70 230.30 C 102.37 225.02 95.25 220.73 87.00 220.00 C 86.87 225.48 98.86 235.44 90.00 237.00 C 88.62 231.33 84.38 226.65 83.00 221.00 C 76.42 221.21 69.52 225.94 67.00 232.00 C 71.30 235.44 75.48 239.68 79.00 244.00 M 95.00 257.00  C 98.39 242.62 115.75 248.17 114.66 262.68 C 113.57 277.18 103.25 283.49 89.93 277.07 C 76.60 270.66 80.21 252.42 95.00 257.00 Z"/>
    </g>
    <g fill="#F9F9F9" fill-opacity="1.00" stroke="None">
        <path d=" M 273.00 252.00  C 273.16 249.06 273.16 245.94 273.00 243.00 C 273.38 240.48 272.56 238.24 272.00 236.00 C 266.86 236.30 264.67 246.54 259.00 243.00 C 260.60 237.65 267.56 235.30 269.00 230.00 C 264.27 226.10 259.64 220.69 253.00 221.00 C 252.25 226.41 249.32 231.09 247.00 236.00 C 240.79 233.57 249.21 224.86 250.00 220.00 C 227.44 223.74 193.24 255.55 215.75 280.25 C 238.26 304.94 271.41 281.32 273.00 252.00 M 241.00 257.00  C 254.96 252.36 259.97 269.96 246.77 276.77 C 233.57 283.58 223.09 277.89 221.67 263.33 C 220.26 248.77 236.83 242.18 241.00 257.00 Z"/>
    </g>
    <g fill="#808080" fill-opacity="1.00" stroke="None">
        <path d=" M 273.00 252.00  C 273.50 248.91 273.51 246.15 273.00 243.00 C 273.16 245.94 273.16 249.06 273.00 252.00 Z"/>
    </g>
    <g fill="#000000" fill-opacity="1.00" stroke="None">
        <path d=" M 95.00 257.00  C 80.21 252.42 76.60 270.66 89.93 277.07 C 103.25 283.49 113.57 277.18 114.66 262.68 C 115.75 248.17 98.39 242.62 95.00 257.00 Z"/>
    </g>
    <g fill="#000000" fill-opacity="1.00" stroke="None">
        <path d=" M 241.00 257.00  C 236.83 242.18 220.26 248.77 221.67 263.33 C 223.09 277.89 233.57 283.58 246.77 276.77 C 259.97 269.96 254.96 252.36 241.00 257.00 Z"/>
    </g>
    <g fill="#E9E9E9" fill-opacity="1.00" stroke="None">
        <path d=" M 208.00 249.00  C 195.73 255.46 182.82 271.56 168.00 272.00 C 153.19 272.43 140.22 255.29 128.00 249.00 C 130.53 261.20 142.91 262.46 151.92 270.08 C 160.93 277.69 175.41 276.23 184.31 269.31 C 193.20 262.38 205.03 260.99 208.00 249.00 Z"/>
    </g>
    <g fill="#656565" fill-opacity="1.00" stroke="None">
        <path d=" M 155.00 280.00  C 158.67 280.00 162.33 280.00 166.00 280.00 C 162.61 279.67 158.46 279.67 155.00 280.00 Z"/>
    </g>
</svg>