<svg xmlns="http://www.w3.org/2000/svg" xmlns:v="https://svgstorm.com"
viewBox = "0 0 1587 1613"
width="1587"
height="1613"
fill="none">
<g fill="None"  stroke="none" stroke-opacity="1.00" stroke-width="0.3"><path d="
M 0.00 1613.00 
L 1587.00 1613.00
L 1587.00 0.00
L 0.00 0.00
L 0.00 1613.00
M 1048.00 487.00 
C 1033.15 487.05 1018.49 487.81 1004.00 487.00 C 989.51 486.19 970.90 487.82 957.00 487.00 C 943.10 486.18 925.02 491.98 919.08 479.92 C 913.13 467.87 907.54 461.65 900.25 451.75 C 892.95 441.85 886.30 435.59 877.25 427.75 C 868.20 419.92 860.30 413.93 849.92 408.08 C 839.55 402.23 830.58 397.26 818.93 393.07 C 807.27 388.89 793.92 385.65 781.00 384.00 C 768.08 382.36 750.36 381.57 737.33 383.33 C 724.30 385.09 710.76 387.90 698.98 391.98 C 687.19 396.05 677.29 401.14 666.92 406.92 C 656.55 412.69 648.13 418.76 639.25 426.25 C 630.37 433.74 623.55 440.12 616.25 449.25 C 608.95 458.38 603.01 466.55 597.23 477.23 C 591.45 487.91 587.27 498.04 583.22 510.22 C 579.18 522.41 577.11 536.10 576.00 550.00 C 574.89 563.90 574.82 581.10 575.00 596.00 C 575.18 610.90 574.87 627.91 575.00 643.00
C 532.71 642.85 493.18 654.68 456.00 672.00
C 455.94 634.99 455.73 587.39 456.78 551.78 C 457.83 516.16 466.50 483.13 478.92 452.92 C 491.35 422.72 504.79 402.14 524.75 377.75 C 544.72 353.37 563.60 337.84 589.08 320.08 C 614.56 302.33 640.54 290.92 671.07 281.07 C 701.60 271.23 745.79 267.42 779.22 269.78 C 812.66 272.14 848.57 280.47 877.68 293.32 C 906.79 306.18 928.30 320.27 952.25 339.75 C 976.20 359.23 992.18 378.97 1009.30 403.70 C 1026.43 428.43 1040.06 458.00 1048.00 487.00
M 1059.00 643.00 
C 1056.87 652.15 1058.64 663.16 1058.00 672.00
C 1045.28 666.83 1036.37 661.43 1022.93 657.07 C 1009.49 652.72 997.17 649.21 982.33 646.67 C 967.48 644.13 951.31 643.75 935.00 643.00 C 918.69 642.25 917.43 623.05 919.00 609.00 C 920.57 594.95 917.35 571.74 919.00 558.00 C 920.65 544.26 913.19 522.03 926.70 514.70 C 940.20 507.37 958.69 512.80 974.00 512.00 C 989.31 511.20 1009.95 510.90 1025.00 512.00 C 1040.05 513.10 1060.23 506.53 1072.25 515.75 C 1084.27 524.98 1075.90 545.98 1078.00 560.00 C 1080.10 574.02 1076.25 596.52 1078.00 611.00 C 1079.75 625.48 1077.76 645.08 1059.00 643.00
M 757.00 795.00 
C 768.96 771.91 779.82 750.29 798.75 730.75 C 817.69 711.22 835.94 697.75 860.69 685.70 C 885.45 673.64 921.03 667.25 950.00 668.00 C 978.97 668.75 1010.45 676.30 1035.23 688.77 C 1060.01 701.24 1077.69 713.56 1096.75 734.25 C 1115.81 754.94 1125.79 775.93 1135.93 802.07 C 1146.06 828.22 1148.93 867.96 1145.22 896.22 C 1141.52 924.49 1132.35 952.19 1118.25 975.25 C 1104.14 998.30 1089.34 1015.89 1069.25 1033.25 C 1049.16 1050.60 1029.52 1064.70 1008.25 1079.25 C 986.98 1093.80 965.70 1107.53 944.30 1121.30 C 922.91 1135.07 901.81 1151.15 880.77 1164.77 C 859.73 1178.39 840.67 1197.87 820.25 1211.25 C 799.82 1224.63 783.69 1255.97 758.00 1256.00 C 732.30 1256.03 715.92 1225.96 695.75 1212.25 C 675.59 1198.53 656.22 1179.45 635.25 1165.75 C 614.29 1152.04 593.21 1135.91 571.77 1122.23 C 550.33 1108.55 529.21 1094.51 507.92 1080.08 C 486.62 1065.65 466.84 1051.46 446.92 1034.08 C 427.00 1016.71 411.77 999.68 397.23 976.77 C 382.69 953.86 373.81 925.16 370.00 897.00 C 366.19 868.84 368.64 829.61 378.32 803.32 C 388.01 777.03 398.98 756.54 417.75 735.75 C 436.53 714.97 453.19 701.62 478.23 689.23 C 503.27 676.84 533.97 669.43 563.00 668.00 C 592.03 666.57 627.83 673.61 652.69 685.31 C 677.56 697.00 696.18 710.05 715.25 729.75 C 734.32 749.45 746.22 770.75 757.00 795.00 Z"/>
</g>
<g fill="None" fill-opacity="0.0" stroke="#AE296F" stroke-opacity="1.00" stroke-width="0.3"><path d="
M 1048.00 487.00 
C 1040.06 458.00 1026.43 428.43 1009.30 403.70 C 992.18 378.97 976.20 359.23 952.25 339.75 C 928.30 320.27 906.79 306.18 877.68 293.32 C 848.57 280.47 812.66 272.14 779.22 269.78 C 745.79 267.42 701.60 271.23 671.07 281.07 C 640.54 290.92 614.56 302.33 589.08 320.08 C 563.60 337.84 544.72 353.37 524.75 377.75 C 504.79 402.14 491.35 422.72 478.92 452.92 C 466.50 483.13 457.83 516.16 456.78 551.78 C 455.73 587.39 455.94 634.99 456.00 672.00
C 493.18 654.68 532.71 642.85 575.00 643.00
C 574.87 627.91 575.18 610.90 575.00 596.00 C 574.82 581.10 574.89 563.90 576.00 550.00 C 577.11 536.10 579.18 522.41 583.22 510.22 C 587.27 498.04 591.45 487.91 597.23 477.23 C 603.01 466.55 608.95 458.38 616.25 449.25 C 623.55 440.12 630.37 433.74 639.25 426.25 C 648.13 418.76 656.55 412.69 666.92 406.92 C 677.29 401.14 687.19 396.05 698.98 391.98 C 710.76 387.90 724.30 385.09 737.33 383.33 C 750.36 381.57 768.08 382.36 781.00 384.00 C 793.92 385.65 807.27 388.89 818.93 393.07 C 830.58 397.26 839.55 402.23 849.92 408.08 C 860.30 413.93 868.20 419.92 877.25 427.75 C 886.30 435.59 892.95 441.85 900.25 451.75 C 907.54 461.65 913.13 467.87 919.08 479.92 C 925.02 491.98 943.10 486.18 957.00 487.00 C 970.90 487.82 989.51 486.19 1004.00 487.00 C 1018.49 487.81 1033.15 487.05 1048.00 487.00 Z"/>
</g>
<g fill="None" fill-opacity="0.0" stroke="#AE296F" stroke-opacity="1.00" stroke-width="0.3"><path d="
M 1059.00 643.00 
C 1077.76 645.08 1079.75 625.48 1078.00 611.00 C 1076.25 596.52 1080.10 574.02 1078.00 560.00 C 1075.90 545.98 1084.27 524.98 1072.25 515.75 C 1060.23 506.53 1040.05 513.10 1025.00 512.00 C 1009.95 510.90 989.31 511.20 974.00 512.00 C 958.69 512.80 940.20 507.37 926.70 514.70 C 913.19 522.03 920.65 544.26 919.00 558.00 C 917.35 571.74 920.57 594.95 919.00 609.00 C 917.43 623.05 918.69 642.25 935.00 643.00 C 951.31 643.75 967.48 644.13 982.33 646.67 C 997.17 649.21 1009.49 652.72 1022.93 657.07 C 1036.37 661.43 1045.28 666.83 1058.00 672.00
C 1058.64 663.16 1056.87 652.15 1059.00 643.00 Z"/>
</g>
<g fill="None" fill-opacity="0.0" stroke="#AE296F" stroke-opacity="1.00" stroke-width="0.3"><path d="
M 757.00 795.00 
C 746.22 770.75 734.32 749.45 715.25 729.75 C 696.18 710.05 677.56 697.00 652.69 685.31 C 627.83 673.61 592.03 666.57 563.00 668.00 C 533.97 669.43 503.27 676.84 478.23 689.23 C 453.19 701.62 436.53 714.97 417.75 735.75 C 398.98 756.54 388.01 777.03 378.32 803.32 C 368.64 829.61 366.19 868.84 370.00 897.00 C 373.81 925.16 382.69 953.86 397.23 976.77 C 411.77 999.68 427.00 1016.71 446.92 1034.08 C 466.84 1051.46 486.62 1065.65 507.92 1080.08 C 529.21 1094.51 550.33 1108.55 571.77 1122.23 C 593.21 1135.91 614.29 1152.04 635.25 1165.75 C 656.22 1179.45 675.59 1198.53 695.75 1212.25 C 715.92 1225.96 732.30 1256.03 758.00 1256.00 C 783.69 1255.97 799.82 1224.63 820.25 1211.25 C 840.67 1197.87 859.73 1178.39 880.77 1164.77 C 901.81 1151.15 922.91 1135.07 944.30 1121.30 C 965.70 1107.53 986.98 1093.80 1008.25 1079.25 C 1029.52 1064.70 1049.16 1050.60 1069.25 1033.25 C 1089.34 1015.89 1104.14 998.30 1118.25 975.25 C 1132.35 952.19 1141.52 924.49 1145.22 896.22 C 1148.93 867.96 1146.06 828.22 1135.93 802.07 C 1125.79 775.93 1115.81 754.94 1096.75 734.25 C 1077.69 713.56 1060.01 701.24 1035.23 688.77 C 1010.45 676.30 978.97 668.75 950.00 668.00 C 921.03 667.25 885.45 673.64 860.69 685.70 C 835.94 697.75 817.69 711.22 798.75 730.75 C 779.82 750.29 768.96 771.91 757.00 795.00
M 567.00 743.00 
C 584.26 744.65 578.59 769.25 563.99 767.99 C 549.40 766.73 536.62 773.49 524.77 778.77 C 512.92 784.05 505.14 791.06 496.25 800.25 C 487.35 809.44 481.73 819.50 477.03 831.03 C 472.32 842.55 467.44 860.28 469.00 873.00 C 470.56 885.72 471.00 903.20 478.92 913.08 C 486.85 922.95 490.28 943.68 474.00 943.00 C 457.72 942.32 459.53 924.67 453.02 913.98 C 446.52 903.28 446.10 885.17 445.00 872.00 C 443.90 858.83 447.94 840.97 451.93 828.93 C 455.91 816.88 461.39 805.80 468.75 795.75 C 476.12 785.71 483.34 777.79 493.25 770.25 C 503.16 762.70 513.03 756.18 525.02 752.03 C 537.02 747.87 553.56 741.72 567.00 743.00
M 952.00 743.00 
C 965.88 743.59 982.31 748.55 995.08 753.92 C 1007.84 759.30 1017.15 766.21 1027.75 775.25 C 1038.35 784.28 1044.77 792.58 1052.25 804.75 C 1059.74 816.91 1063.36 829.34 1066.99 844.01 C 1070.63 858.67 1070.50 877.12 1068.01 893.01 C 1065.52 908.90 1058.96 916.59 1053.70 932.70 C 1048.43 948.80 1022.39 941.56 1028.98 925.98 C 1035.56 910.39 1041.84 903.21 1044.33 887.33 C 1046.81 871.45 1045.88 854.01 1041.22 839.78 C 1036.57 825.54 1031.74 815.72 1022.25 804.75 C 1012.75 793.79 1005.80 786.96 992.92 780.08 C 980.03 773.21 967.02 768.17 951.00 768.00 C 934.97 767.83 931.49 742.12 952.00 743.00
M 873.00 850.00 
C 890.07 853.54 883.24 877.38 884.00 892.00 C 884.76 906.62 884.03 929.84 884.00 946.00 C 883.97 962.16 884.83 983.53 884.00 1000.00 C 883.17 1016.48 886.18 1038.23 884.00 1054.00 C 881.82 1069.77 890.70 1092.31 880.25 1104.25 C 869.79 1116.19 846.49 1106.73 831.00 1109.00 C 815.51 1111.27 793.54 1107.94 777.00 1109.00 C 760.46 1110.06 739.61 1108.45 723.00 1109.00 C 706.39 1109.55 684.75 1108.60 669.00 1109.00 C 653.25 1109.40 632.12 1112.90 631.00 1094.00 C 629.89 1075.09 631.69 1058.48 631.00 1040.00 C 630.31 1021.52 631.74 1004.38 631.00 986.00 C 630.26 967.62 632.28 950.54 631.00 932.00 C 629.72 913.46 633.67 897.05 631.00 878.00 C 628.33 858.95 637.53 847.31 657.00 850.00 C 676.47 852.69 692.38 848.53 711.00 850.00 C 729.62 851.47 746.83 848.77 765.00 850.00 C 783.17 851.23 801.15 848.18 819.00 850.00 C 836.85 851.82 855.58 846.39 873.00 850.00 Z"/>
</g>
<g fill="None" fill-opacity="0.0" stroke="#F1F7FC" stroke-opacity="1.00" stroke-width="0.3"><path d="
M 567.00 743.00 
C 553.56 741.72 537.02 747.87 525.02 752.03 C 513.03 756.18 503.16 762.70 493.25 770.25 C 483.34 777.79 476.12 785.71 468.75 795.75 C 461.39 805.80 455.91 816.88 451.93 828.93 C 447.94 840.97 443.90 858.83 445.00 872.00 C 446.10 885.17 446.52 903.28 453.02 913.98 C 459.53 924.67 457.72 942.32 474.00 943.00 C 490.28 943.68 486.85 922.95 478.92 913.08 C 471.00 903.20 470.56 885.72 469.00 873.00 C 467.44 860.28 472.32 842.55 477.03 831.03 C 481.73 819.50 487.35 809.44 496.25 800.25 C 505.14 791.06 512.92 784.05 524.77 778.77 C 536.62 773.49 549.40 766.73 563.99 767.99 C 578.59 769.25 584.26 744.65 567.00 743.00 Z"/>
</g>
<g fill="None" fill-opacity="0.0" stroke="#F1F7FC" stroke-opacity="1.00" stroke-width="0.3"><path d="
M 952.00 743.00 
C 931.49 742.12 934.97 767.83 951.00 768.00 C 967.02 768.17 980.03 773.21 992.92 780.08 C 1005.80 786.96 1012.75 793.79 1022.25 804.75 C 1031.74 815.72 1036.57 825.54 1041.22 839.78 C 1045.88 854.01 1046.81 871.45 1044.33 887.33 C 1041.84 903.21 1035.56 910.39 1028.98 925.98 C 1022.39 941.56 1048.43 948.80 1053.70 932.70 C 1058.96 916.59 1065.52 908.90 1068.01 893.01 C 1070.50 877.12 1070.63 858.67 1066.99 844.01 C 1063.36 829.34 1059.74 816.91 1052.25 804.75 C 1044.77 792.58 1038.35 784.28 1027.75 775.25 C 1017.15 766.21 1007.84 759.30 995.08 753.92 C 982.31 748.55 965.88 743.59 952.00 743.00 Z"/>
</g>
<g fill="None" fill-opacity="0.0" stroke="#F1F7FC" stroke-opacity="1.00" stroke-width="0.3"><path d="
M 873.00 850.00 
C 855.58 846.39 836.85 851.82 819.00 850.00 C 801.15 848.18 783.17 851.23 765.00 850.00 C 746.83 848.77 729.62 851.47 711.00 850.00 C 692.38 848.53 676.47 852.69 657.00 850.00 C 637.53 847.31 628.33 858.95 631.00 878.00 C 633.67 897.05 629.72 913.46 631.00 932.00 C 632.28 950.54 630.26 967.62 631.00 986.00 C 631.74 1004.38 630.31 1021.52 631.00 1040.00 C 631.69 1058.48 629.89 1075.09 631.00 1094.00 C 632.12 1112.90 653.25 1109.40 669.00 1109.00 C 684.75 1108.60 706.39 1109.55 723.00 1109.00 C 739.61 1108.45 760.46 1110.06 777.00 1109.00 C 793.54 1107.94 815.51 1111.27 831.00 1109.00 C 846.49 1106.73 869.79 1116.19 880.25 1104.25 C 890.70 1092.31 881.82 1069.77 884.00 1054.00 C 886.18 1038.23 883.17 1016.48 884.00 1000.00 C 884.83 983.53 883.97 962.16 884.00 946.00 C 884.03 929.84 884.76 906.62 884.00 892.00 C 883.24 877.38 890.07 853.54 873.00 850.00
M 860.00 874.00 
C 860.00 944.33 860.00 1014.67 860.00 1085.00
C 791.67 1085.00 723.33 1085.00 655.00 1085.00
C 655.00 1014.66 655.00 944.34 655.00 874.00
C 723.33 874.00 791.67 874.00 860.00 874.00 Z"/>
</g>
<g fill="None" fill-opacity="0.0" stroke="#AE296F" stroke-opacity="1.00" stroke-width="0.3"><path d="
M 860.00 874.00 
C 791.67 874.00 723.33 874.00 655.00 874.00
C 655.00 944.34 655.00 1014.66 655.00 1085.00
C 723.33 1085.00 791.67 1085.00 860.00 1085.00
C 860.00 1014.67 860.00 944.33 860.00 874.00
M 761.00 908.00 
C 770.63 908.74 782.08 913.59 789.75 920.25 C 797.41 926.92 804.14 936.03 805.98 946.03 C 807.81 956.02 809.03 973.03 801.69 981.69 C 794.36 990.36 788.99 999.82 791.00 1011.00 C 793.01 1022.18 797.81 1038.21 791.23 1047.23 C 784.65 1056.25 762.27 1049.54 753.00 1051.00 C 743.73 1052.46 722.29 1054.19 721.03 1041.98 C 719.76 1029.76 723.24 1014.83 724.00 1003.00 C 724.76 991.17 715.00 986.72 711.03 975.98 C 707.05 965.23 706.29 951.70 710.32 941.32 C 714.35 930.94 719.79 924.16 728.75 917.75 C 737.70 911.33 749.67 907.13 761.00 908.00 Z"/>
</g>
<g fill="None" fill-opacity="0.0" stroke="#F1F7FC" stroke-opacity="1.00" stroke-width="0.3"><path d="
M 761.00 908.00 
C 749.67 907.13 737.70 911.33 728.75 917.75 C 719.79 924.16 714.35 930.94 710.32 941.32 C 706.29 951.70 707.05 965.23 711.03 975.98 C 715.00 986.72 724.76 991.17 724.00 1003.00 C 723.24 1014.83 719.76 1029.76 721.03 1041.98 C 722.29 1054.19 743.73 1052.46 753.00 1051.00 C 762.27 1049.54 784.65 1056.25 791.23 1047.23 C 797.81 1038.21 793.01 1022.18 791.00 1011.00 C 788.99 999.82 794.36 990.36 801.69 981.69 C 809.03 973.03 807.81 956.02 805.98 946.03 C 804.14 936.03 797.41 926.92 789.75 920.25 C 782.08 913.59 770.63 908.74 761.00 908.00
M 769.00 1027.00 
C 761.33 1027.00 753.67 1027.00 746.00 1027.00
C 744.25 1013.90 757.58 989.71 744.30 980.70 C 731.02 971.68 728.02 953.94 737.75 941.75 C 747.49 929.57 765.16 929.22 775.75 940.25 C 786.35 951.28 786.09 969.85 772.75 979.75 C 759.42 989.65 769.51 1012.44 769.00 1027.00 Z"/>
</g>
<g fill="None" fill-opacity="0.0" stroke="#AE296F" stroke-opacity="1.00" stroke-width="0.3"><path d="
M 769.00 1027.00 
C 769.51 1012.44 759.42 989.65 772.75 979.75 C 786.09 969.85 786.35 951.28 775.75 940.25 C 765.16 929.22 747.49 929.57 737.75 941.75 C 728.02 953.94 731.02 971.68 744.30 980.70 C 757.58 989.71 744.25 1013.90 746.00 1027.00
C 753.67 1027.00 761.33 1027.00 769.00 1027.00 Z"/>
</g>
<g fill="none" fill-opacity="1.00" stroke="None">
<path d="
M 0.00 1613.00 
L 1587.00 1613.00
L 1587.00 0.00
L 0.00 0.00
L 0.00 1613.00
M 1048.00 487.00 
C 1033.15 487.05 1018.49 487.81 1004.00 487.00 C 989.51 486.19 970.90 487.82 957.00 487.00 C 943.10 486.18 925.02 491.98 919.08 479.92 C 913.13 467.87 907.54 461.65 900.25 451.75 C 892.95 441.85 886.30 435.59 877.25 427.75 C 868.20 419.92 860.30 413.93 849.92 408.08 C 839.55 402.23 830.58 397.26 818.93 393.07 C 807.27 388.89 793.92 385.65 781.00 384.00 C 768.08 382.36 750.36 381.57 737.33 383.33 C 724.30 385.09 710.76 387.90 698.98 391.98 C 687.19 396.05 677.29 401.14 666.92 406.92 C 656.55 412.69 648.13 418.76 639.25 426.25 C 630.37 433.74 623.55 440.12 616.25 449.25 C 608.95 458.38 603.01 466.55 597.23 477.23 C 591.45 487.91 587.27 498.04 583.22 510.22 C 579.18 522.41 577.11 536.10 576.00 550.00 C 574.89 563.90 574.82 581.10 575.00 596.00 C 575.18 610.90 574.87 627.91 575.00 643.00
C 532.71 642.85 493.18 654.68 456.00 672.00
C 455.94 634.99 455.73 587.39 456.78 551.78 C 457.83 516.16 466.50 483.13 478.92 452.92 C 491.35 422.72 504.79 402.14 524.75 377.75 C 544.72 353.37 563.60 337.84 589.08 320.08 C 614.56 302.33 640.54 290.92 671.07 281.07 C 701.60 271.23 745.79 267.42 779.22 269.78 C 812.66 272.14 848.57 280.47 877.68 293.32 C 906.79 306.18 928.30 320.27 952.25 339.75 C 976.20 359.23 992.18 378.97 1009.30 403.70 C 1026.43 428.43 1040.06 458.00 1048.00 487.00
M 1059.00 643.00 
C 1056.87 652.15 1058.64 663.16 1058.00 672.00
C 1045.28 666.83 1036.37 661.43 1022.93 657.07 C 1009.49 652.72 997.17 649.21 982.33 646.67 C 967.48 644.13 951.31 643.75 935.00 643.00 C 918.69 642.25 917.43 623.05 919.00 609.00 C 920.57 594.95 917.35 571.74 919.00 558.00 C 920.65 544.26 913.19 522.03 926.70 514.70 C 940.20 507.37 958.69 512.80 974.00 512.00 C 989.31 511.20 1009.95 510.90 1025.00 512.00 C 1040.05 513.10 1060.23 506.53 1072.25 515.75 C 1084.27 524.98 1075.90 545.98 1078.00 560.00 C 1080.10 574.02 1076.25 596.52 1078.00 611.00 C 1079.75 625.48 1077.76 645.08 1059.00 643.00
M 757.00 795.00 
C 768.96 771.91 779.82 750.29 798.75 730.75 C 817.69 711.22 835.94 697.75 860.69 685.70 C 885.45 673.64 921.03 667.25 950.00 668.00 C 978.97 668.75 1010.45 676.30 1035.23 688.77 C 1060.01 701.24 1077.69 713.56 1096.75 734.25 C 1115.81 754.94 1125.79 775.93 1135.93 802.07 C 1146.06 828.22 1148.93 867.96 1145.22 896.22 C 1141.52 924.49 1132.35 952.19 1118.25 975.25 C 1104.14 998.30 1089.34 1015.89 1069.25 1033.25 C 1049.16 1050.60 1029.52 1064.70 1008.25 1079.25 C 986.98 1093.80 965.70 1107.53 944.30 1121.30 C 922.91 1135.07 901.81 1151.15 880.77 1164.77 C 859.73 1178.39 840.67 1197.87 820.25 1211.25 C 799.82 1224.63 783.69 1255.97 758.00 1256.00 C 732.30 1256.03 715.92 1225.96 695.75 1212.25 C 675.59 1198.53 656.22 1179.45 635.25 1165.75 C 614.29 1152.04 593.21 1135.91 571.77 1122.23 C 550.33 1108.55 529.21 1094.51 507.92 1080.08 C 486.62 1065.65 466.84 1051.46 446.92 1034.08 C 427.00 1016.71 411.77 999.68 397.23 976.77 C 382.69 953.86 373.81 925.16 370.00 897.00 C 366.19 868.84 368.64 829.61 378.32 803.32 C 388.01 777.03 398.98 756.54 417.75 735.75 C 436.53 714.97 453.19 701.62 478.23 689.23 C 503.27 676.84 533.97 669.43 563.00 668.00 C 592.03 666.57 627.83 673.61 652.69 685.31 C 677.56 697.00 696.18 710.05 715.25 729.75 C 734.32 749.45 746.22 770.75 757.00 795.00 Z"/>
</g>
<g fill="#AE296F" fill-opacity="1.00" stroke="None">
<path d="
M 1048.00 487.00 
C 1040.06 458.00 1026.43 428.43 1009.30 403.70 C 992.18 378.97 976.20 359.23 952.25 339.75 C 928.30 320.27 906.79 306.18 877.68 293.32 C 848.57 280.47 812.66 272.14 779.22 269.78 C 745.79 267.42 701.60 271.23 671.07 281.07 C 640.54 290.92 614.56 302.33 589.08 320.08 C 563.60 337.84 544.72 353.37 524.75 377.75 C 504.79 402.14 491.35 422.72 478.92 452.92 C 466.50 483.13 457.83 516.16 456.78 551.78 C 455.73 587.39 455.94 634.99 456.00 672.00
C 493.18 654.68 532.71 642.85 575.00 643.00
C 574.87 627.91 575.18 610.90 575.00 596.00 C 574.82 581.10 574.89 563.90 576.00 550.00 C 577.11 536.10 579.18 522.41 583.22 510.22 C 587.27 498.04 591.45 487.91 597.23 477.23 C 603.01 466.55 608.95 458.38 616.25 449.25 C 623.55 440.12 630.37 433.74 639.25 426.25 C 648.13 418.76 656.55 412.69 666.92 406.92 C 677.29 401.14 687.19 396.05 698.98 391.98 C 710.76 387.90 724.30 385.09 737.33 383.33 C 750.36 381.57 768.08 382.36 781.00 384.00 C 793.92 385.65 807.27 388.89 818.93 393.07 C 830.58 397.26 839.55 402.23 849.92 408.08 C 860.30 413.93 868.20 419.92 877.25 427.75 C 886.30 435.59 892.95 441.85 900.25 451.75 C 907.54 461.65 913.13 467.87 919.08 479.92 C 925.02 491.98 943.10 486.18 957.00 487.00 C 970.90 487.82 989.51 486.19 1004.00 487.00 C 1018.49 487.81 1033.15 487.05 1048.00 487.00 Z"/>
</g>
<g fill="#AE296F" fill-opacity="1.00" stroke="None">
<path d="
M 1059.00 643.00 
C 1077.76 645.08 1079.75 625.48 1078.00 611.00 C 1076.25 596.52 1080.10 574.02 1078.00 560.00 C 1075.90 545.98 1084.27 524.98 1072.25 515.75 C 1060.23 506.53 1040.05 513.10 1025.00 512.00 C 1009.95 510.90 989.31 511.20 974.00 512.00 C 958.69 512.80 940.20 507.37 926.70 514.70 C 913.19 522.03 920.65 544.26 919.00 558.00 C 917.35 571.74 920.57 594.95 919.00 609.00 C 917.43 623.05 918.69 642.25 935.00 643.00 C 951.31 643.75 967.48 644.13 982.33 646.67 C 997.17 649.21 1009.49 652.72 1022.93 657.07 C 1036.37 661.43 1045.28 666.83 1058.00 672.00
C 1058.64 663.16 1056.87 652.15 1059.00 643.00 Z"/>
</g>
<g fill="#AE296F" fill-opacity="1.00" stroke="None">
<path d="
M 757.00 795.00 
C 746.22 770.75 734.32 749.45 715.25 729.75 C 696.18 710.05 677.56 697.00 652.69 685.31 C 627.83 673.61 592.03 666.57 563.00 668.00 C 533.97 669.43 503.27 676.84 478.23 689.23 C 453.19 701.62 436.53 714.97 417.75 735.75 C 398.98 756.54 388.01 777.03 378.32 803.32 C 368.64 829.61 366.19 868.84 370.00 897.00 C 373.81 925.16 382.69 953.86 397.23 976.77 C 411.77 999.68 427.00 1016.71 446.92 1034.08 C 466.84 1051.46 486.62 1065.65 507.92 1080.08 C 529.21 1094.51 550.33 1108.55 571.77 1122.23 C 593.21 1135.91 614.29 1152.04 635.25 1165.75 C 656.22 1179.45 675.59 1198.53 695.75 1212.25 C 715.92 1225.96 732.30 1256.03 758.00 1256.00 C 783.69 1255.97 799.82 1224.63 820.25 1211.25 C 840.67 1197.87 859.73 1178.39 880.77 1164.77 C 901.81 1151.15 922.91 1135.07 944.30 1121.30 C 965.70 1107.53 986.98 1093.80 1008.25 1079.25 C 1029.52 1064.70 1049.16 1050.60 1069.25 1033.25 C 1089.34 1015.89 1104.14 998.30 1118.25 975.25 C 1132.35 952.19 1141.52 924.49 1145.22 896.22 C 1148.93 867.96 1146.06 828.22 1135.93 802.07 C 1125.79 775.93 1115.81 754.94 1096.75 734.25 C 1077.69 713.56 1060.01 701.24 1035.23 688.77 C 1010.45 676.30 978.97 668.75 950.00 668.00 C 921.03 667.25 885.45 673.64 860.69 685.70 C 835.94 697.75 817.69 711.22 798.75 730.75 C 779.82 750.29 768.96 771.91 757.00 795.00
M 567.00 743.00 
C 584.26 744.65 578.59 769.25 563.99 767.99 C 549.40 766.73 536.62 773.49 524.77 778.77 C 512.92 784.05 505.14 791.06 496.25 800.25 C 487.35 809.44 481.73 819.50 477.03 831.03 C 472.32 842.55 467.44 860.28 469.00 873.00 C 470.56 885.72 471.00 903.20 478.92 913.08 C 486.85 922.95 490.28 943.68 474.00 943.00 C 457.72 942.32 459.53 924.67 453.02 913.98 C 446.52 903.28 446.10 885.17 445.00 872.00 C 443.90 858.83 447.94 840.97 451.93 828.93 C 455.91 816.88 461.39 805.80 468.75 795.75 C 476.12 785.71 483.34 777.79 493.25 770.25 C 503.16 762.70 513.03 756.18 525.02 752.03 C 537.02 747.87 553.56 741.72 567.00 743.00
M 952.00 743.00 
C 965.88 743.59 982.31 748.55 995.08 753.92 C 1007.84 759.30 1017.15 766.21 1027.75 775.25 C 1038.35 784.28 1044.77 792.58 1052.25 804.75 C 1059.74 816.91 1063.36 829.34 1066.99 844.01 C 1070.63 858.67 1070.50 877.12 1068.01 893.01 C 1065.52 908.90 1058.96 916.59 1053.70 932.70 C 1048.43 948.80 1022.39 941.56 1028.98 925.98 C 1035.56 910.39 1041.84 903.21 1044.33 887.33 C 1046.81 871.45 1045.88 854.01 1041.22 839.78 C 1036.57 825.54 1031.74 815.72 1022.25 804.75 C 1012.75 793.79 1005.80 786.96 992.92 780.08 C 980.03 773.21 967.02 768.17 951.00 768.00 C 934.97 767.83 931.49 742.12 952.00 743.00
M 873.00 850.00 
C 890.07 853.54 883.24 877.38 884.00 892.00 C 884.76 906.62 884.03 929.84 884.00 946.00 C 883.97 962.16 884.83 983.53 884.00 1000.00 C 883.17 1016.48 886.18 1038.23 884.00 1054.00 C 881.82 1069.77 890.70 1092.31 880.25 1104.25 C 869.79 1116.19 846.49 1106.73 831.00 1109.00 C 815.51 1111.27 793.54 1107.94 777.00 1109.00 C 760.46 1110.06 739.61 1108.45 723.00 1109.00 C 706.39 1109.55 684.75 1108.60 669.00 1109.00 C 653.25 1109.40 632.12 1112.90 631.00 1094.00 C 629.89 1075.09 631.69 1058.48 631.00 1040.00 C 630.31 1021.52 631.74 1004.38 631.00 986.00 C 630.26 967.62 632.28 950.54 631.00 932.00 C 629.72 913.46 633.67 897.05 631.00 878.00 C 628.33 858.95 637.53 847.31 657.00 850.00 C 676.47 852.69 692.38 848.53 711.00 850.00 C 729.62 851.47 746.83 848.77 765.00 850.00 C 783.17 851.23 801.15 848.18 819.00 850.00 C 836.85 851.82 855.58 846.39 873.00 850.00 Z"/>
</g>
<g fill="#F1F7FC" fill-opacity="1.00" stroke="None">
<path d="
M 567.00 743.00 
C 553.56 741.72 537.02 747.87 525.02 752.03 C 513.03 756.18 503.16 762.70 493.25 770.25 C 483.34 777.79 476.12 785.71 468.75 795.75 C 461.39 805.80 455.91 816.88 451.93 828.93 C 447.94 840.97 443.90 858.83 445.00 872.00 C 446.10 885.17 446.52 903.28 453.02 913.98 C 459.53 924.67 457.72 942.32 474.00 943.00 C 490.28 943.68 486.85 922.95 478.92 913.08 C 471.00 903.20 470.56 885.72 469.00 873.00 C 467.44 860.28 472.32 842.55 477.03 831.03 C 481.73 819.50 487.35 809.44 496.25 800.25 C 505.14 791.06 512.92 784.05 524.77 778.77 C 536.62 773.49 549.40 766.73 563.99 767.99 C 578.59 769.25 584.26 744.65 567.00 743.00 Z"/>
</g>
<g fill="#F1F7FC" fill-opacity="1.00" stroke="None">
<path d="
M 952.00 743.00 
C 931.49 742.12 934.97 767.83 951.00 768.00 C 967.02 768.17 980.03 773.21 992.92 780.08 C 1005.80 786.96 1012.75 793.79 1022.25 804.75 C 1031.74 815.72 1036.57 825.54 1041.22 839.78 C 1045.88 854.01 1046.81 871.45 1044.33 887.33 C 1041.84 903.21 1035.56 910.39 1028.98 925.98 C 1022.39 941.56 1048.43 948.80 1053.70 932.70 C 1058.96 916.59 1065.52 908.90 1068.01 893.01 C 1070.50 877.12 1070.63 858.67 1066.99 844.01 C 1063.36 829.34 1059.74 816.91 1052.25 804.75 C 1044.77 792.58 1038.35 784.28 1027.75 775.25 C 1017.15 766.21 1007.84 759.30 995.08 753.92 C 982.31 748.55 965.88 743.59 952.00 743.00 Z"/>
</g>
<g fill="#F1F7FC" fill-opacity="1.00" stroke="None">
<path d="
M 873.00 850.00 
C 855.58 846.39 836.85 851.82 819.00 850.00 C 801.15 848.18 783.17 851.23 765.00 850.00 C 746.83 848.77 729.62 851.47 711.00 850.00 C 692.38 848.53 676.47 852.69 657.00 850.00 C 637.53 847.31 628.33 858.95 631.00 878.00 C 633.67 897.05 629.72 913.46 631.00 932.00 C 632.28 950.54 630.26 967.62 631.00 986.00 C 631.74 1004.38 630.31 1021.52 631.00 1040.00 C 631.69 1058.48 629.89 1075.09 631.00 1094.00 C 632.12 1112.90 653.25 1109.40 669.00 1109.00 C 684.75 1108.60 706.39 1109.55 723.00 1109.00 C 739.61 1108.45 760.46 1110.06 777.00 1109.00 C 793.54 1107.94 815.51 1111.27 831.00 1109.00 C 846.49 1106.73 869.79 1116.19 880.25 1104.25 C 890.70 1092.31 881.82 1069.77 884.00 1054.00 C 886.18 1038.23 883.17 1016.48 884.00 1000.00 C 884.83 983.53 883.97 962.16 884.00 946.00 C 884.03 929.84 884.76 906.62 884.00 892.00 C 883.24 877.38 890.07 853.54 873.00 850.00
M 860.00 874.00 
C 860.00 944.33 860.00 1014.67 860.00 1085.00
C 791.67 1085.00 723.33 1085.00 655.00 1085.00
C 655.00 1014.66 655.00 944.34 655.00 874.00
C 723.33 874.00 791.67 874.00 860.00 874.00 Z"/>
</g>
<g fill="#AE296F" fill-opacity="1.00" stroke="None">
<path d="
M 860.00 874.00 
C 791.67 874.00 723.33 874.00 655.00 874.00
C 655.00 944.34 655.00 1014.66 655.00 1085.00
C 723.33 1085.00 791.67 1085.00 860.00 1085.00
C 860.00 1014.67 860.00 944.33 860.00 874.00
M 761.00 908.00 
C 770.63 908.74 782.08 913.59 789.75 920.25 C 797.41 926.92 804.14 936.03 805.98 946.03 C 807.81 956.02 809.03 973.03 801.69 981.69 C 794.36 990.36 788.99 999.82 791.00 1011.00 C 793.01 1022.18 797.81 1038.21 791.23 1047.23 C 784.65 1056.25 762.27 1049.54 753.00 1051.00 C 743.73 1052.46 722.29 1054.19 721.03 1041.98 C 719.76 1029.76 723.24 1014.83 724.00 1003.00 C 724.76 991.17 715.00 986.72 711.03 975.98 C 707.05 965.23 706.29 951.70 710.32 941.32 C 714.35 930.94 719.79 924.16 728.75 917.75 C 737.70 911.33 749.67 907.13 761.00 908.00 Z"/>
</g>
<g fill="#F1F7FC" fill-opacity="1.00" stroke="None">
<path d="
M 761.00 908.00 
C 749.67 907.13 737.70 911.33 728.75 917.75 C 719.79 924.16 714.35 930.94 710.32 941.32 C 706.29 951.70 707.05 965.23 711.03 975.98 C 715.00 986.72 724.76 991.17 724.00 1003.00 C 723.24 1014.83 719.76 1029.76 721.03 1041.98 C 722.29 1054.19 743.73 1052.46 753.00 1051.00 C 762.27 1049.54 784.65 1056.25 791.23 1047.23 C 797.81 1038.21 793.01 1022.18 791.00 1011.00 C 788.99 999.82 794.36 990.36 801.69 981.69 C 809.03 973.03 807.81 956.02 805.98 946.03 C 804.14 936.03 797.41 926.92 789.75 920.25 C 782.08 913.59 770.63 908.74 761.00 908.00
M 769.00 1027.00 
C 761.33 1027.00 753.67 1027.00 746.00 1027.00
C 744.25 1013.90 757.58 989.71 744.30 980.70 C 731.02 971.68 728.02 953.94 737.75 941.75 C 747.49 929.57 765.16 929.22 775.75 940.25 C 786.35 951.28 786.09 969.85 772.75 979.75 C 759.42 989.65 769.51 1012.44 769.00 1027.00 Z"/>
</g>
<g fill="#AE296F" fill-opacity="1.00" stroke="None">
<path d="
M 769.00 1027.00 
C 769.51 1012.44 759.42 989.65 772.75 979.75 C 786.09 969.85 786.35 951.28 775.75 940.25 C 765.16 929.22 747.49 929.57 737.75 941.75 C 728.02 953.94 731.02 971.68 744.30 980.70 C 757.58 989.71 744.25 1013.90 746.00 1027.00
C 753.67 1027.00 761.33 1027.00 769.00 1027.00 Z"/>
</g>
</svg>