<svg xmlns="http://www.w3.org/2000/svg" version="1.0" width="739.673278pt" height="910.529611pt" viewBox="0 0 739.673278 910.529611" preserveAspectRatio="xMidYMid meet">
<g transform="translate(-142.564213,966.463023) scale(0.100000,-0.100000)" fill="#ffe600" stroke="none">
<path d="M5096 9585 c-23 -117 -52 -190 -95 -238 -37 -42 -111 -80 -176 -93 l-38 -7 63 -19 c66 -21 123 -52 152 -84 33 -38 71 -139 92 -246 11 -59 24 -108 27 -108 4 0 10 27 13 61 11 91 43 207 72 256 30 52 84 90 169 118 l62 21 -72 23 c-131 40 -188 117 -223 301 -10 49 -20 91 -23 94 -3 4 -13 -32 -23 -79z"/>
<path d="M3516 8765 c-19 -82 -41 -120 -82 -141 l-40 -20 38 -16 c29 -13 43 -28 58 -60 11 -24 20 -54 20 -68 1 -50 17 -53 23 -5 10 66 44 122 83 137 l32 11 -31 16 c-42 22 -67 59 -82 123 -12 50 -13 51 -19 23z"/>
<path d="M4256 8742 c-13 -96 -80 -182 -142 -182 -36 0 -29 -17 11 -24 69 -13 135 -112 135 -203 0 -39 18 -25 25 20 10 61 44 135 72 157 14 11 40 22 59 26 44 8 43 20 -1 28 -52 10 -98 62 -118 133 -9 33 -17 67 -17 76 0 37 -18 14 -24 -31z"/>
<path d="M5946 8765 c-28 -132 -64 -186 -139 -206 l-42 -12 40 -14 c78 -27 109 -73 140 -208 6 -27 9 -23 26 44 24 95 54 134 121 159 53 20 53 20 23 27 -81 20 -108 52 -141 165 -20 68 -23 72 -28 45z"/>
<path d="M6690 8768 c0 -37 -29 -114 -50 -133 -10 -9 -31 -20 -46 -24 l-28 -7 39 -20 c45 -22 72 -67 84 -142 7 -45 8 -46 15 -17 26 113 46 146 100 170 27 11 28 13 9 14 -40 2 -81 51 -98 115 -17 66 -25 81 -25 44z"/>
<path d="M5118 8590 c-4 -25 -12 -99 -18 -165 -18 -180 -59 -319 -121 -407 -29 -40 -113 -93 -180 -112 -30 -9 -94 -22 -144 -30 -53 -8 -75 -14 -53 -15 117 -4 276 -56 346 -115 38 -33 94 -144 117 -235 20 -80 44 -256 46 -336 1 -78 17 -122 18 -50 2 93 31 320 51 393 42 151 101 232 211 285 54 27 177 56 247 58 27 1 30 3 12 6 -166 27 -207 36 -254 57 -72 32 -136 92 -169 160 -46 94 -90 317 -100 501 l-2 50 -7 -45z"/>
<path d="M2850 8558 c55 -119 62 -272 19 -402 -12 -34 -53 -115 -92 -181 -144 -244 -173 -339 -164 -544 3 -91 11 -146 27 -196 77 -243 262 -449 485 -540 l56 -23 -33 -20 c-111 -68 -269 -81 -381 -29 -64 29 -154 109 -183 162 -10 19 -23 35 -27 35 -11 0 -1 -133 14 -202 24 -107 124 -213 227 -241 42 -11 51 -20 31 -33 -15 -9 -122 -173 -138 -212 -7 -18 -17 -32 -21 -32 -11 0 -135 135 -181 197 -53 71 -95 157 -115 234 -17 67 -16 150 5 464 21 295 -34 483 -186 646 -89 94 -167 138 -262 146 -113 10 -201 -46 -201 -128 0 -53 38 -94 78 -84 50 13 65 42 42 85 -8 15 -6 21 9 30 84 44 231 -53 280 -185 28 -75 37 -200 22 -290 -7 -38 -30 -116 -53 -174 -104 -275 -111 -298 -116 -421 -6 -167 22 -270 110 -397 16 -24 26 -43 22 -43 -21 0 -128 68 -167 107 -64 62 -96 133 -104 222 -3 39 -9 71 -13 71 -12 0 -41 -87 -50 -148 -11 -84 5 -176 45 -258 46 -94 131 -174 267 -250 207 -116 278 -176 365 -308 41 -61 133 -267 133 -296 0 -7 -25 20 -55 59 -98 125 -275 241 -439 287 -59 16 -72 24 -93 56 -15 22 -45 47 -72 60 -41 20 -62 23 -181 24 -101 1 -145 5 -174 18 -22 9 -41 14 -43 12 -9 -9 42 -92 85 -138 69 -74 130 -102 222 -102 58 0 87 5 128 23 l53 24 77 -22 c131 -38 292 -136 372 -227 65 -75 144 -223 127 -241 -4 -3 -22 8 -42 26 -20 17 -64 45 -98 62 -118 60 -161 70 -333 79 -89 5 -183 14 -210 21 -69 17 -144 55 -188 95 -21 19 -41 33 -44 30 -3 -3 0 -38 7 -77 21 -131 102 -251 211 -312 l54 -31 -40 -12 c-108 -31 -207 -106 -262 -197 -96 -159 -77 -359 43 -465 116 -102 300 -72 300 50 0 66 -61 99 -114 62 -18 -13 -22 -24 -19 -50 4 -33 3 -34 -29 -34 -25 0 -44 10 -78 41 -60 55 -79 108 -73 201 6 93 33 154 97 218 168 167 462 170 725 6 72 -45 119 -86 98 -86 -6 0 -14 4 -17 10 -3 5 -38 19 -77 31 -106 32 -196 24 -324 -31 -84 -36 -106 -41 -155 -38 -50 3 -56 1 -48 -13 12 -24 77 -79 108 -91 14 -6 107 -14 206 -18 148 -6 192 -11 245 -29 123 -42 195 -93 345 -247 77 -79 164 -157 193 -175 29 -17 52 -33 50 -34 -2 -2 -32 3 -68 12 -47 11 -91 13 -160 9 -113 -8 -226 5 -303 34 -69 26 -148 95 -188 164 l-29 51 0 -55 c0 -225 137 -397 349 -441 57 -12 261 -8 294 6 9 4 17 3 17 -2 0 -4 -51 -34 -113 -66 -100 -51 -119 -57 -173 -57 -45 0 -73 6 -110 25 -27 14 -50 25 -52 25 -11 0 45 -86 75 -116 74 -72 167 -92 318 -68 305 49 722 -59 1038 -270 48 -32 87 -65 87 -72 0 -18 4 -19 -85 21 -402 183 -805 202 -1057 48 -156 -94 -238 -240 -238 -424 0 -182 90 -328 247 -401 164 -77 358 -12 378 126 9 54 1 89 -27 129 -26 36 -95 68 -129 60 -37 -9 -69 -43 -69 -74 0 -49 52 -78 80 -44 20 24 46 18 60 -14 10 -24 9 -35 -5 -66 -37 -76 -147 -91 -260 -36 -216 107 -260 421 -83 600 85 86 159 125 301 156 126 28 356 17 509 -23 160 -43 272 -90 410 -173 297 -177 481 -375 663 -712 26 -48 45 -90 43 -93 -3 -2 -30 33 -60 78 -207 312 -459 548 -727 684 -283 142 -586 118 -782 -63 -55 -51 -128 -143 -114 -143 3 0 23 9 45 20 21 11 71 29 112 39 78 21 349 47 368 36 7 -4 -8 -19 -38 -36 -109 -62 -158 -184 -116 -288 18 -44 51 -71 88 -71 l25 0 -18 33 c-26 45 -12 85 44 135 108 95 294 97 469 4 82 -43 205 -160 287 -272 59 -80 160 -242 154 -248 -2 -2 -20 1 -42 7 -21 6 -55 11 -75 11 -45 0 -138 -19 -137 -28 0 -4 35 -24 78 -45 283 -139 525 -479 627 -882 26 -102 27 -115 14 -158 -20 -75 -60 -121 -133 -156 -36 -17 -74 -31 -85 -31 -12 0 -24 -5 -27 -10 -3 -6 4 -10 17 -10 36 0 139 -53 175 -90 18 -19 42 -57 52 -85 24 -63 51 -191 51 -240 0 -68 16 -34 27 58 14 119 47 216 90 266 33 39 98 71 182 90 l36 8 -45 12 c-74 20 -116 41 -154 80 -69 71 -80 137 -46 272 102 399 360 751 652 889 l61 29 -28 11 c-46 17 -146 23 -189 11 -22 -6 -41 -9 -43 -7 -7 6 102 176 169 264 159 208 311 307 489 319 45 3 97 1 127 -7 65 -15 136 -60 162 -102 21 -35 26 -83 10 -93 -18 -11 -11 -35 11 -35 57 0 93 55 92 145 0 41 -7 74 -21 101 -23 45 -98 118 -132 129 -98 31 197 22 340 -11 36 -8 89 -26 119 -39 29 -14 55 -25 58 -25 12 0 -69 99 -120 147 -101 93 -215 140 -362 150 -158 10 -321 -32 -480 -124 -242 -141 -474 -365 -650 -629 -36 -53 -65 -92 -65 -85 0 6 23 55 51 108 161 306 381 532 689 708 124 71 232 113 390 153 94 24 124 27 285 27 161 0 188 -2 255 -23 152 -48 250 -121 308 -230 101 -190 30 -431 -153 -518 -65 -31 -166 -33 -209 -5 -52 35 -70 88 -42 127 14 18 16 18 44 2 38 -23 55 -23 76 1 41 45 -7 113 -79 113 -95 0 -163 -126 -121 -226 52 -125 249 -161 401 -72 197 116 272 387 166 606 -146 303 -623 395 -1109 214 -53 -20 -123 -50 -156 -66 -109 -55 -79 -8 47 73 164 105 390 197 594 240 108 24 294 29 484 15 131 -10 183 4 247 66 39 37 96 127 75 116 -92 -46 -108 -50 -167 -46 -44 3 -79 13 -126 38 -36 18 -84 43 -107 54 -41 19 -63 46 -25 31 9 -4 72 -10 138 -12 145 -7 222 12 321 76 113 73 171 181 180 336 l5 90 -30 -50 c-90 -152 -237 -213 -482 -199 -77 4 -122 2 -170 -9 -36 -9 -66 -14 -68 -12 -2 1 21 16 51 33 35 20 94 73 163 147 231 247 349 305 624 305 80 0 161 5 180 10 41 11 91 45 119 82 l20 25 -57 0 c-45 0 -79 9 -157 43 -78 33 -115 43 -175 47 -79 6 -172 -13 -214 -43 -31 -22 -44 -16 -16 7 165 135 381 206 552 181 145 -21 264 -96 323 -203 23 -44 30 -69 33 -136 4 -74 2 -88 -23 -138 -30 -63 -83 -105 -130 -105 -29 0 -31 2 -27 34 3 26 -1 37 -19 50 -67 46 -143 -26 -107 -101 30 -63 116 -89 209 -63 53 15 123 82 156 148 25 51 28 68 28 157 0 91 -3 106 -31 166 -18 37 -49 86 -70 109 -49 55 -145 118 -201 132 -24 6 -43 13 -43 17 0 3 13 12 29 19 115 51 210 194 227 342 l7 62 -60 -46 c-89 -69 -150 -87 -327 -97 -180 -9 -211 -14 -301 -46 -76 -28 -127 -57 -193 -110 l-43 -35 6 28 c12 51 64 149 107 204 88 108 263 218 409 256 66 17 66 17 115 -7 39 -19 64 -24 124 -23 116 1 200 51 278 169 28 42 40 75 28 75 -2 0 -21 -7 -41 -16 -28 -11 -76 -16 -174 -17 -125 -2 -140 -4 -181 -27 -24 -14 -55 -41 -68 -60 -19 -29 -35 -38 -90 -53 -162 -44 -351 -165 -436 -278 -25 -34 -46 -65 -46 -70 0 -5 -4 -9 -9 -9 -24 0 68 220 130 312 86 127 168 194 393 319 191 106 297 282 284 469 -5 61 -42 170 -58 170 -4 0 -9 -33 -12 -74 -6 -90 -35 -154 -98 -216 -41 -41 -170 -120 -170 -105 0 4 13 25 29 48 74 108 101 201 101 349 0 126 -17 203 -84 374 -86 220 -106 325 -86 449 27 169 136 295 256 295 57 0 72 -12 54 -44 -30 -58 35 -109 88 -69 21 16 28 30 30 66 8 121 -151 174 -311 103 -74 -33 -178 -135 -235 -231 -89 -152 -120 -366 -92 -642 21 -202 17 -304 -14 -398 -33 -98 -105 -208 -205 -310 -40 -41 -75 -75 -76 -75 -2 0 -18 26 -35 58 -17 32 -55 91 -86 131 -30 40 -54 74 -52 75 2 2 21 8 43 14 95 27 177 106 215 210 18 49 40 232 28 232 -3 0 -17 -17 -30 -37 -41 -61 -119 -132 -178 -161 -49 -24 -66 -27 -160 -27 -99 0 -109 2 -177 34 -40 19 -73 37 -73 40 0 4 17 13 38 20 112 39 264 155 346 264 184 245 232 536 131 792 -15 39 -64 132 -107 207 -109 187 -120 219 -126 353 -4 118 10 201 49 277 l20 39 -43 -22 c-55 -28 -149 -123 -178 -179 -89 -175 -97 -348 -29 -640 56 -240 50 -367 -27 -520 -76 -151 -217 -261 -383 -296 -77 -16 -171 -18 -171 -4 0 6 5 10 10 10 6 0 29 17 53 38 27 26 59 43 92 51 114 28 240 122 283 213 22 44 62 220 62 271 0 15 -16 69 -36 120 -20 52 -36 113 -37 139 -2 54 -13 56 -41 8 -14 -24 -21 -58 -24 -120 -4 -82 -2 -92 33 -180 21 -51 38 -108 37 -126 -4 -97 -121 -226 -249 -274 -30 -11 -55 -20 -57 -20 -2 0 5 17 15 38 57 115 64 290 17 393 -14 30 -50 81 -82 114 -31 33 -69 80 -83 104 -26 42 -27 43 -37 22 -7 -15 -6 -54 2 -119 31 -249 -6 -361 -170 -517 -49 -47 -93 -85 -98 -85 -5 0 2 16 15 36 32 47 61 141 70 224 7 70 -5 140 -50 309 -42 156 -31 279 36 399 16 28 24 52 18 52 -23 0 -123 -56 -163 -91 -50 -44 -99 -131 -121 -215 -9 -33 -20 -137 -26 -235 -6 -115 -16 -204 -29 -255 -23 -91 -81 -218 -138 -301 -43 -63 -149 -183 -161 -183 -4 0 1 26 13 58 17 46 21 81 21 177 0 113 -2 124 -29 180 -41 82 -118 157 -208 200 -99 48 -127 45 -72 -6 35 -32 79 -113 98 -178 36 -122 13 -317 -55 -460 -33 -72 -110 -200 -121 -201 -3 0 1 21 9 48 21 65 21 231 0 303 -9 30 -31 75 -49 100 l-33 44 -7 -63 c-8 -75 -14 -93 -85 -277 -30 -77 -65 -183 -77 -235 -17 -70 -25 -88 -29 -70 -3 14 -12 54 -20 90 -8 36 -45 146 -82 245 -55 146 -68 192 -69 242 0 36 -5 63 -11 63 -16 0 -64 -80 -81 -135 -24 -78 -29 -209 -11 -280 9 -32 14 -61 12 -63 -7 -7 -95 135 -122 196 -100 226 -82 483 43 622 20 22 34 44 32 50 -2 7 -41 -8 -95 -35 -140 -70 -221 -173 -243 -312 -12 -74 2 -197 30 -260 11 -25 20 -48 20 -51 0 -13 -105 97 -150 158 -123 167 -173 322 -189 591 -6 95 -17 200 -26 232 -36 136 -113 235 -222 283 -30 14 -59 24 -64 22 -5 -2 2 -20 16 -41 54 -78 79 -198 64 -301 -5 -36 -23 -114 -40 -173 -51 -177 -42 -327 27 -452 13 -24 22 -46 20 -49 -3 -2 -47 38 -99 89 -159 158 -194 262 -167 495 9 78 10 121 3 136 -10 22 -10 22 -28 -12 -10 -19 -49 -68 -86 -109 -82 -89 -109 -150 -116 -266 -6 -86 11 -177 46 -247 10 -21 17 -38 15 -38 -2 0 -28 9 -58 21 -116 43 -216 143 -246 244 -11 38 -9 47 31 140 37 87 42 109 43 175 0 61 -5 84 -25 124 -13 27 -29 51 -34 53 -6 2 -10 -21 -10 -50 -1 -36 -12 -80 -39 -146 -29 -72 -37 -103 -33 -130 4 -20 11 -70 17 -111 26 -180 143 -306 326 -351 32 -8 64 -26 91 -51 24 -21 47 -38 53 -38 5 0 10 -4 10 -10 0 -14 -94 -12 -172 5 -201 42 -353 184 -424 395 -14 41 -18 84 -18 170 0 99 6 137 38 270 75 306 54 512 -70 681 -29 39 -156 139 -177 139 -3 0 7 -28 23 -62z m1309 -1957 c45 -12 113 -33 150 -47 75 -30 194 -94 187 -101 -2 -2 -35 9 -73 25 -231 100 -557 108 -795 19 -155 -59 -278 -138 -392 -252 -236 -237 -358 -579 -327 -918 41 -433 242 -794 655 -1175 55 -52 223 -192 371 -311 352 -284 414 -337 574 -494 169 -167 271 -288 380 -451 82 -125 221 -383 221 -412 0 -34 20 -5 88 130 136 271 312 507 553 742 161 158 195 186 501 430 505 402 709 610 880 897 401 673 218 1468 -409 1769 -263 127 -559 142 -848 43 -55 -19 -101 -32 -104 -30 -9 9 187 95 271 119 250 72 523 56 743 -43 98 -45 224 -131 311 -213 175 -165 287 -370 342 -622 24 -115 24 -399 -2 -516 -109 -506 -411 -909 -1062 -1420 -363 -284 -565 -469 -756 -690 -180 -209 -359 -500 -459 -748 -18 -45 -36 -79 -39 -75 -3 5 -21 46 -40 93 -191 483 -512 874 -1094 1335 -510 404 -726 616 -918 902 -300 447 -359 990 -154 1408 167 340 473 571 831 629 73 11 331 -3 414 -23z m114 -245 c287 -85 507 -286 593 -542 23 -69 26 -91 22 -179 -5 -121 -29 -184 -79 -211 -31 -16 -32 -17 -14 -30 24 -18 78 -28 109 -20 14 3 38 17 54 31 17 14 32 25 35 25 4 0 3 -22 0 -49 -8 -67 11 -138 59 -217 22 -36 47 -87 56 -113 l16 -46 12 41 c6 22 33 77 58 121 50 85 68 156 58 227 l-5 41 37 -28 c44 -34 91 -43 140 -27 47 15 52 26 19 42 -46 22 -77 98 -81 199 -5 111 9 177 59 280 105 217 300 377 556 456 81 25 101 27 258 27 156 0 177 -3 260 -28 339 -103 593 -382 662 -725 18 -93 21 -312 4 -401 -18 -97 -57 -220 -102 -323 -42 -96 -118 -227 -131 -227 -7 0 -14 90 -10 130 1 8 2 61 2 116 1 109 -19 222 -65 364 -14 45 -25 97 -25 117 0 39 31 98 60 113 31 16 79 11 100 -10 26 -26 25 -40 -2 -37 -19 2 -23 -3 -23 -28 0 -25 4 -31 26 -33 31 -4 69 37 69 72 0 39 -36 84 -77 95 -52 15 -60 14 -110 -10 -30 -15 -52 -35 -71 -67 -25 -43 -27 -56 -27 -152 0 -104 0 -106 47 -205 54 -115 71 -175 66 -231 -3 -32 -5 -36 -13 -19 -34 77 -140 145 -224 145 -149 -1 -235 -147 -141 -241 20 -20 39 -29 61 -29 57 0 88 49 54 84 -13 12 -20 13 -41 4 -22 -11 -28 -9 -40 7 -27 36 9 92 67 104 83 18 164 -31 210 -125 30 -60 31 -68 26 -151 -7 -128 -18 -153 -107 -252 -80 -89 -197 -197 -205 -189 -3 3 0 30 6 61 24 133 -31 315 -127 417 -119 128 -314 157 -414 61 -102 -97 -54 -273 75 -273 57 0 95 35 95 89 0 14 -2 14 -18 0 -41 -38 -112 -10 -112 44 0 41 9 58 41 74 93 49 238 -36 289 -170 34 -89 39 -236 11 -339 -34 -124 -48 -144 -182 -252 -67 -54 -176 -143 -243 -197 -341 -277 -570 -521 -759 -807 -38 -58 -72 -103 -75 -100 -4 3 -43 60 -88 127 -203 304 -412 518 -845 864 -118 94 -228 185 -246 201 -78 74 -118 324 -74 467 45 147 168 244 276 217 59 -15 86 -86 48 -128 -20 -22 -70 -23 -95 -1 -17 15 -18 15 -18 -1 0 -9 7 -30 15 -45 37 -73 157 -53 196 32 24 53 24 91 0 143 -35 77 -121 120 -222 111 -159 -14 -297 -143 -344 -323 -17 -63 -22 -189 -10 -242 4 -21 3 -32 -4 -32 -22 0 -263 253 -282 294 -66 152 -33 321 78 400 33 23 53 29 98 30 51 0 60 -3 81 -27 40 -47 23 -123 -20 -88 -31 26 -67 -20 -46 -59 24 -46 101 -35 138 21 45 65 9 163 -72 200 -107 49 -252 -6 -306 -116 l-19 -40 -1 57 c0 60 18 117 84 263 31 69 36 90 36 155 0 97 -13 143 -56 189 -63 70 -165 76 -214 14 -42 -54 -12 -138 48 -131 23 2 27 8 27 33 0 24 -4 30 -22 30 -34 0 -36 11 -7 34 55 43 134 13 155 -60 12 -37 10 -52 -10 -128 -70 -259 -73 -278 -75 -458 -2 -95 -5 -175 -8 -178 -6 -6 -63 85 -101 160 -130 261 -175 589 -113 830 93 362 357 616 727 700 104 24 331 14 442 -19z"/>
<path d="M4316 6079 c-30 -23 -33 -45 -10 -77 17 -25 60 -29 88 -9 24 17 24 62 1 87 -23 26 -46 25 -79 -1z"/>
<path d="M5850 6080 c-41 -41 -13 -100 47 -100 55 0 78 56 39 95 -30 30 -59 32 -86 5z"/>
<path d="M4524 5916 c-11 -28 1 -51 25 -51 28 0 47 25 38 49 -8 20 -56 21 -63 2z"/>
<path d="M5664 5916 c-10 -26 1 -51 22 -54 27 -4 47 21 39 48 -7 24 -53 28 -61 6z"/>
<path d="M4647 5709 c-31 -24 -35 -59 -9 -82 53 -48 133 19 90 75 -22 27 -53 30 -81 7z"/>
<path d="M5530 5712 c-25 -20 -30 -63 -10 -87 19 -23 76 -19 94 7 20 29 20 41 -1 66 -27 30 -57 35 -83 14z"/>
<path d="M3819 8324 c-13 -15 -57 -42 -96 -60 -91 -42 -154 -99 -183 -167 -25 -57 -42 -174 -31 -214 6 -23 9 -20 30 32 29 69 58 105 127 156 70 51 131 115 155 161 17 34 37 118 27 118 -2 0 -15 -12 -29 -26z"/>
<path d="M6401 8321 c2 -73 62 -161 161 -234 94 -70 110 -89 147 -166 37 -80 46 -65 31 50 -20 151 -87 244 -212 291 -34 13 -76 37 -95 54 l-33 31 1 -26z"/>
<path d="M2360 8235 c0 -17 -11 -53 -24 -81 -22 -48 -47 -68 -106 -86 -8 -3 2 -8 22 -12 58 -11 108 -86 108 -163 0 -39 17 -25 23 17 8 65 38 112 85 137 l43 21 -36 12 c-42 14 -70 51 -87 116 -15 60 -28 78 -28 39z"/>
<path d="M7900 8243 c0 -70 -55 -153 -112 -170 l-33 -10 32 -7 c57 -13 113 -99 113 -174 0 -38 17 -16 24 32 9 59 42 106 91 131 l40 20 -39 20 c-50 25 -73 56 -88 123 -12 50 -28 70 -28 35z"/>
<path d="M1591 7299 c-22 -109 -68 -173 -133 -186 -39 -8 -43 -19 -10 -26 43 -10 90 -43 107 -77 9 -18 24 -69 34 -113 l18 -82 7 50 c18 129 62 196 142 217 l44 12 -48 18 c-75 28 -103 64 -127 164 l-21 85 -13 -62z"/>
<path d="M8606 7299 c-14 -108 -57 -166 -137 -190 l-39 -12 52 -21 c75 -30 106 -82 128 -216 8 -51 13 -42 30 50 7 36 18 77 26 92 20 38 76 78 119 85 l37 6 -47 18 c-69 26 -102 63 -125 137 -11 35 -20 73 -20 83 0 40 -18 17 -24 -32z"/>
<path d="M8116 4045 c-11 -76 -35 -175 -51 -204 -24 -47 -73 -84 -140 -106 l-66 -23 38 -7 c125 -23 188 -105 212 -274 5 -40 11 -75 14 -77 2 -2 13 43 24 101 33 168 76 219 208 250 l50 12 -40 7 c-58 10 -124 47 -157 87 -26 32 -46 95 -75 239 l-10 45 -7 -50z"/>
<path d="M2117 4070 c-3 -8 -13 -53 -22 -100 -18 -94 -55 -172 -95 -200 -15 -11 -55 -27 -90 -37 l-63 -17 49 -11 c127 -29 171 -83 201 -249 17 -91 33 -126 33 -70 0 41 31 166 51 206 26 50 78 88 152 108 l62 17 -41 7 c-57 10 -138 59 -162 98 -26 43 -39 85 -56 183 -7 44 -16 73 -19 65z"/>
<path d="M4017 2634 c-4 -4 -7 -19 -7 -34 0 -48 -30 -130 -61 -165 -22 -24 -49 -41 -92 -54 -34 -11 -53 -20 -42 -21 11 0 43 -11 72 -24 64 -30 97 -83 115 -184 6 -39 15 -69 18 -64 4 4 12 34 19 67 26 123 74 180 171 200 l34 8 -58 17 c-93 29 -131 79 -151 198 -6 35 -14 60 -18 56z"/>
<path d="M6196 2583 c-13 -113 -65 -181 -156 -204 l-50 -13 56 -17 c30 -10 65 -26 76 -36 32 -29 60 -92 73 -168 13 -75 17 -73 35 16 23 120 77 181 168 195 l46 7 -54 14 c-30 8 -65 20 -77 28 -35 24 -74 99 -86 170 -6 36 -14 65 -18 65 -3 0 -9 -26 -13 -57z"/>
<path d="M4526 1925 c-15 -78 -40 -120 -85 -141 l-42 -20 40 -17 c46 -21 75 -72 87 -152 l8 -50 13 64 c18 88 45 128 95 143 23 7 35 14 27 16 -72 22 -104 59 -123 146 l-12 51 -8 -40z"/>
<path d="M5687 1946 c-4 -10 -7 -29 -7 -42 0 -61 -63 -133 -117 -135 -10 0 1 -9 24 -19 51 -23 73 -54 94 -138 l16 -64 6 47 c4 26 16 67 27 92 15 35 28 48 60 60 l40 16 -38 17 c-47 21 -69 54 -85 127 -9 40 -15 52 -20 39z"/>
</g>
</svg>