<svg xmlns="http://www.w3.org/2000/svg" version="1.0" width="723.760402pt" height="750.384959pt" viewBox="0 0 723.760402 750.384959" preserveAspectRatio="xMidYMid meet">

<g transform="translate(-146.154266,869.884959) scale(0.100000,-0.100000)" fill="#9b913a" stroke="none">
<path d="M6645 8681 c-52 -24 -73 -48 -115 -134 -32 -65 -41 -75 -97 -107 -127 -73 -158 -122 -158 -256 0 -88 1 -94 47 -185 58 -117 136 -211 258 -312 158 -130 234 -202 286 -271 27 -36 52 -65 56 -66 4 0 -9 37 -29 83 -50 116 -97 262 -128 402 -14 66 -32 141 -40 168 -8 26 -10 47 -6 47 12 0 39 -64 91 -210 60 -169 112 -295 145 -357 14 -26 24 -40 21 -30 -34 111 -76 412 -76 543 0 92 14 128 24 62 32 -209 50 -300 80 -396 20 -63 39 -138 42 -168 8 -63 19 -70 27 -16 9 55 27 305 30 397 2 85 16 102 30 38 5 -21 6 -154 2 -295 -3 -142 -4 -258 -1 -258 3 0 27 42 52 93 26 50 78 141 117 201 122 191 198 370 219 516 44 310 -172 504 -451 406 -41 -14 -83 -26 -93 -26 -10 0 -46 25 -79 56 -99 91 -172 113 -254 75z"/>
<path d="M3503 8649 c-42 -16 -69 -38 -130 -105 -43 -46 -85 -84 -95 -84 -10 0 -45 9 -76 19 -121 41 -260 37 -353 -10 -154 -77 -230 -213 -231 -414 0 -125 22 -225 73 -330 47 -99 102 -172 217 -289 48 -50 119 -128 156 -174 38 -46 70 -81 73 -78 12 11 -70 287 -106 357 -45 87 -96 227 -86 237 10 10 39 -30 100 -137 49 -87 125 -268 125 -298 0 -7 5 -13 12 -13 8 0 10 69 5 272 -4 157 -3 268 2 262 18 -19 53 -188 61 -302 5 -64 10 -175 10 -247 1 -128 10 -143 24 -40 4 28 20 136 36 241 16 104 32 242 36 305 6 129 10 147 25 132 5 -5 15 -67 20 -137 12 -143 2 -289 -32 -455 -11 -56 -19 -113 -17 -128 3 -25 7 -21 46 43 24 40 74 143 113 230 94 215 142 310 154 304 13 -6 13 -2 -34 -140 -21 -63 -49 -149 -62 -190 -12 -41 -56 -140 -96 -218 l-73 -144 63 46 c34 25 154 108 267 183 310 208 406 316 455 508 22 86 19 209 -6 290 -28 93 -71 137 -187 193 -51 24 -99 53 -107 65 -8 12 -24 51 -36 87 -51 153 -193 218 -346 159z"/>
<path d="M2385 8373 c-88 -36 -184 -82 -213 -102 -29 -21 -90 -85 -139 -146 -61 -76 -110 -125 -167 -167 -83 -61 -110 -97 -65 -84 67 19 126 25 235 23 230 -2 304 53 379 283 33 104 61 153 114 205 77 73 61 72 -144 -12z"/>
<path d="M4277 8354 c-3 -4 7 -33 23 -64 53 -106 70 -188 70 -347 0 -203 26 -300 104 -390 52 -60 113 -96 246 -148 104 -40 124 -52 168 -99 58 -61 81 -103 113 -206 22 -68 24 -92 23 -257 -1 -157 2 -183 15 -188 17 -7 51 27 51 51 0 26 51 129 78 158 15 16 78 53 141 82 154 73 216 135 294 295 59 122 127 285 127 306 0 22 -11 15 -79 -50 -42 -40 -97 -80 -149 -107 -46 -24 -111 -65 -145 -91 -34 -26 -63 -46 -65 -44 -2 1 19 48 47 102 62 124 147 238 249 334 67 64 89 78 157 102 44 15 102 42 129 59 59 38 127 127 156 206 25 65 70 263 63 274 -10 18 -32 4 -81 -52 -29 -32 -94 -87 -145 -122 -141 -96 -205 -165 -262 -281 -26 -54 -63 -117 -83 -140 -78 -93 -143 -189 -217 -322 -84 -150 -175 -332 -175 -352 0 -6 -4 -14 -9 -17 -4 -3 -19 38 -32 92 -16 67 -41 133 -82 212 -32 63 -75 160 -94 214 -65 187 -115 265 -273 431 -52 56 -149 160 -214 233 -111 123 -133 142 -149 126z"/>
<path d="M7883 8110 c-145 -30 -234 -113 -390 -365 -108 -175 -226 -385 -220 -392 2 -1 37 28 78 65 41 37 101 89 134 114 34 25 78 64 98 87 33 36 57 51 57 36 0 -40 -155 -218 -278 -320 -34 -27 -59 -51 -57 -53 2 -2 21 6 43 17 22 11 84 38 138 60 55 21 147 62 206 90 103 49 128 58 128 45 0 -17 -218 -160 -300 -196 -155 -70 -182 -83 -192 -95 -16 -19 -6 -24 28 -13 28 9 287 59 409 79 88 15 150 17 149 6 -3 -16 -108 -50 -294 -95 -302 -73 -291 -63 -92 -87 95 -11 176 -23 180 -27 12 -12 -21 -25 -84 -31 -56 -6 -251 8 -299 22 -34 9 -5 -13 70 -52 118 -62 282 -134 409 -178 114 -39 127 -42 231 -41 90 0 120 4 167 22 85 34 137 74 179 137 54 79 62 119 54 251 l-7 110 37 49 c48 62 65 104 65 157 -1 97 -57 160 -174 193 -82 24 -101 46 -109 125 -20 189 -186 317 -364 280z"/>
<path d="M2055 7716 c-145 -36 -199 -101 -240 -289 -5 -24 -19 -34 -89 -67 -105 -48 -158 -98 -175 -165 -16 -62 -7 -113 30 -168 34 -52 78 -85 171 -126 99 -45 108 -75 56 -186 -57 -124 -46 -218 34 -290 57 -52 115 -75 223 -87 197 -22 287 12 580 218 99 70 195 137 213 150 18 12 64 35 103 49 38 15 69 29 67 31 -11 11 -162 -23 -297 -66 -86 -28 -173 -53 -193 -57 -113 -18 40 67 301 168 13 5 22 11 20 14 -6 5 -501 -22 -559 -31 -82 -12 -31 13 90 45 153 40 267 59 427 71 147 10 195 24 128 35 -73 13 -169 35 -300 70 -329 89 -395 108 -395 116 0 5 2 9 4 9 2 0 70 -7 152 -16 147 -15 305 -45 456 -85 88 -24 120 -21 68 6 -50 26 -377 222 -428 257 -23 16 -40 33 -37 38 7 11 111 -33 324 -136 96 -46 175 -83 177 -82 5 5 -271 305 -331 359 -129 117 -233 179 -352 210 -86 21 -155 23 -228 5z"/>
<path d="M6062 7671 c-154 -53 -209 -181 -154 -354 12 -38 19 -79 16 -92 -3 -12 -30 -44 -61 -70 -63 -55 -83 -94 -83 -162 0 -75 31 -119 115 -164 39 -21 75 -46 82 -56 7 -10 19 -52 28 -93 19 -93 53 -151 108 -188 62 -41 90 -51 165 -58 169 -16 345 83 442 248 64 109 98 156 162 227 32 35 58 68 58 73 0 4 19 -4 42 -19 36 -24 52 -28 114 -28 58 0 78 4 101 21 131 97 119 291 -22 355 -89 41 -202 7 -251 -77 -40 -67 -43 -135 -10 -196 l25 -47 -105 -51 c-58 -29 -146 -83 -196 -121 -50 -38 -93 -67 -96 -65 -23 24 122 165 226 219 39 21 72 42 72 46 0 5 -28 1 -62 -9 -35 -10 -115 -30 -179 -43 -66 -14 -143 -38 -179 -56 -34 -17 -66 -31 -71 -31 -23 0 10 34 68 71 113 71 239 119 393 151 l65 13 -195 6 c-206 7 -281 21 -385 69 -46 22 -48 24 -23 27 15 3 50 -3 80 -12 81 -24 223 -37 322 -29 l90 7 -26 22 c-26 22 -163 65 -209 65 -32 0 -53 15 -44 30 11 18 136 6 264 -25 58 -14 108 -24 112 -23 4 2 -24 30 -63 63 -39 33 -114 98 -167 144 -102 89 -201 158 -264 185 -47 19 -175 46 -219 46 -18 -1 -57 -9 -86 -19z"/>
<path d="M4173 7349 c-100 -17 -190 -62 -436 -218 -103 -65 -144 -83 -242 -106 l-60 -14 130 3 c105 3 161 10 295 41 91 20 180 43 199 51 41 17 51 11 26 -15 -44 -50 -295 -134 -470 -159 l-60 -8 60 -15 c45 -10 131 -14 342 -14 155 0 280 -1 279 -3 -4 -3 -135 -28 -226 -43 -36 -6 -173 -14 -305 -18 l-240 -6 95 -32 c52 -17 140 -44 194 -58 88 -24 404 -131 415 -141 32 -30 -338 42 -548 106 -91 29 -95 25 -18 -15 67 -33 183 -115 240 -169 44 -41 23 -51 -36 -16 -29 16 -101 53 -162 82 -60 29 -147 71 -192 95 -45 23 -84 39 -87 35 -2 -4 31 -46 74 -94 44 -48 132 -156 197 -240 160 -208 231 -279 327 -324 73 -35 80 -36 164 -32 179 9 289 106 308 273 4 31 14 65 23 75 9 10 47 28 84 40 115 37 176 111 177 213 0 61 -19 107 -69 164 l-40 45 15 37 c31 73 34 83 34 139 0 203 -255 382 -487 341z"/>
<path d="M3143 7106 c-124 -59 -159 -227 -72 -337 36 -45 97 -71 168 -70 109 1 188 72 200 180 12 105 -17 171 -96 218 -63 37 -135 40 -200 9z"/>
<path d="M7337 6858 c73 -106 117 -162 167 -215 42 -45 43 -64 2 -45 -44 20 -105 82 -193 198 -47 63 -87 114 -89 114 -4 0 7 -30 39 -103 38 -85 162 -301 224 -389 69 -100 48 -101 -46 -2 -60 62 -128 156 -218 300 -11 18 -12 18 -12 -3 -1 -12 17 -95 40 -185 40 -164 63 -348 41 -334 -6 3 -14 21 -18 39 -3 17 -24 86 -45 152 -47 146 -73 251 -89 370 -7 50 -16 96 -20 103 -7 14 -51 -323 -50 -385 0 -18 -5 -33 -10 -33 -23 0 -30 60 -30 243 0 106 -4 197 -8 204 -5 7 -19 -22 -37 -73 -16 -47 -48 -123 -72 -167 -102 -191 -162 -325 -172 -381 -31 -170 12 -327 112 -409 113 -92 206 -106 336 -49 90 40 115 40 174 2 80 -50 110 -63 167 -69 l55 -6 13 -70 c15 -79 28 -510 18 -578 -7 -43 -8 -44 -81 -76 -187 -83 -339 -209 -429 -359 -53 -90 -102 -223 -115 -314 -10 -75 2 -88 50 -49 98 80 207 126 346 145 52 7 96 10 98 6 7 -12 -129 -272 -199 -380 -264 -404 -565 -712 -1031 -1050 -93 -68 -196 -143 -228 -168 -32 -24 -60 -43 -62 -40 -6 5 125 161 240 284 90 97 114 116 196 160 100 52 207 144 261 221 45 66 103 189 132 280 32 103 66 268 66 323 0 62 -27 49 -52 -25 -37 -110 -76 -150 -244 -244 -155 -88 -205 -134 -254 -234 -21 -45 -53 -134 -70 -197 -18 -63 -41 -128 -53 -145 -87 -123 -622 -733 -634 -722 -13 13 74 212 136 310 67 107 95 163 190 377 50 115 123 216 191 264 82 59 64 78 -36 40 -38 -15 -139 -50 -224 -78 -223 -74 -295 -127 -357 -263 -35 -76 -42 -210 -19 -334 20 -107 20 -169 1 -244 -21 -79 -94 -229 -189 -390 -80 -134 -200 -372 -231 -460 -25 -68 -31 -73 -39 -28 -48 281 -50 305 -50 583 0 228 4 303 22 440 21 157 105 601 122 646 6 15 21 23 51 28 208 33 332 303 275 598 -8 40 -37 143 -64 228 -30 93 -59 210 -73 293 -13 75 -27 137 -31 137 -4 0 -8 -3 -8 -7 0 -5 -5 -57 -10 -118 -14 -152 -35 -268 -65 -364 -28 -88 -52 -110 -41 -38 3 23 9 116 12 207 6 165 6 165 -13 135 -10 -16 -29 -55 -42 -85 -33 -80 -106 -214 -166 -305 -59 -90 -126 -166 -132 -149 -2 6 15 41 37 78 41 68 59 104 137 285 46 108 126 270 163 331 20 32 19 32 -20 -10 -23 -25 -68 -79 -100 -121 -109 -141 -327 -348 -351 -333 -6 3 6 25 26 47 108 126 419 565 386 547 -9 -5 -43 -36 -76 -70 -76 -79 -170 -141 -355 -234 -175 -89 -253 -146 -316 -229 -93 -124 -124 -215 -105 -302 10 -45 21 -62 63 -100 27 -25 54 -45 58 -45 12 0 27 -54 35 -120 8 -77 48 -154 93 -182 29 -18 51 -23 102 -23 55 1 76 7 137 38 104 53 130 51 206 -20 34 -32 64 -59 66 -61 3 -1 -21 -82 -53 -180 -117 -363 -154 -576 -163 -925 -3 -125 -8 -225 -11 -223 -2 3 -23 63 -47 133 -121 368 -281 690 -542 1091 -76 116 -138 235 -158 302 -10 35 -19 123 -24 245 -10 213 -25 281 -88 394 -48 85 -97 138 -220 233 -56 43 -121 100 -143 126 -96 109 -159 254 -185 429 -16 105 -28 129 -50 100 -17 -23 -30 -223 -21 -328 3 -43 18 -134 33 -201 24 -114 26 -142 27 -393 l1 -270 33 -93 c72 -209 156 -291 349 -343 43 -11 95 -31 115 -45 63 -40 225 -286 371 -564 58 -111 137 -282 137 -298 0 -3 -37 30 -82 74 -164 157 -372 335 -763 649 -306 246 -399 328 -605 535 -499 499 -802 951 -960 1430 -59 178 -65 222 -47 327 26 146 28 189 17 278 -13 108 -35 166 -106 285 -105 177 -114 200 -230 608 -8 29 -20 52 -28 52 -11 0 -13 -32 -12 -157 1 -97 -6 -225 -18 -332 -17 -151 -18 -188 -8 -280 7 -58 21 -140 32 -181 26 -96 105 -257 164 -335 40 -54 47 -73 66 -165 106 -521 326 -932 748 -1398 332 -366 672 -685 1142 -1072 422 -348 608 -525 777 -741 226 -290 340 -511 428 -833 19 -71 36 -131 38 -133 2 -1 32 -4 67 -5 l63 -3 19 75 c33 135 79 263 143 396 102 214 194 339 429 581 163 169 294 280 612 523 763 581 1025 835 1238 1202 75 130 137 266 186 406 l32 91 82 40 c128 62 180 123 379 441 37 58 96 139 133 180 87 98 134 170 179 278 20 49 60 118 90 158 116 151 135 225 144 549 5 209 9 255 24 282 21 39 22 53 2 53 -24 0 -106 -136 -216 -360 -155 -313 -153 -306 -153 -490 -1 -152 -2 -156 -30 -208 -37 -67 -129 -161 -191 -195 -62 -35 -117 -54 -242 -81 l-103 -23 0 102 c0 139 -15 283 -46 446 l-27 136 23 30 c12 17 34 66 50 109 25 73 31 81 76 109 79 48 139 115 152 168 38 150 -17 309 -149 431 -48 44 -95 73 -217 132 -86 42 -191 100 -234 130 -43 30 -82 54 -88 54 -6 0 15 -37 47 -82z"/>
<path d="M8520 6776 c-16 -25 -68 -72 -113 -105 -148 -106 -192 -173 -203 -303 -5 -55 -1 -98 16 -178 27 -131 22 -210 -24 -342 -53 -155 -94 -219 -227 -351 -104 -103 -118 -121 -109 -138 17 -32 38 -23 122 52 185 167 313 399 337 608 7 63 18 97 69 199 50 102 67 151 98 280 20 87 50 190 66 230 27 68 29 92 8 92 -5 0 -23 -20 -40 -44z"/>
<path d="M3010 6657 c-306 -239 -406 -327 -502 -447 -121 -151 -181 -300 -164 -413 23 -149 133 -242 317 -267 96 -13 118 -24 150 -77 65 -108 123 -152 202 -153 75 0 162 58 208 141 32 56 48 61 121 43 73 -19 129 -15 213 17 232 87 272 394 85 668 -22 34 -81 102 -129 153 -49 50 -104 115 -122 145 -19 30 -47 75 -62 100 -15 25 -30 43 -33 40 -3 -2 7 -50 21 -106 60 -237 75 -327 74 -443 0 -123 -6 -122 -34 7 -9 44 -37 150 -63 235 -25 85 -55 193 -67 240 l-22 85 -6 -45 c-4 -25 -9 -99 -12 -165 -10 -185 -35 -351 -71 -454 -11 -33 -14 1 -5 65 6 38 11 150 12 249 1 99 5 210 8 247 6 64 5 67 -11 50 -30 -31 -85 -138 -138 -269 -58 -143 -94 -214 -122 -239 -28 -26 -31 -12 -8 42 12 27 41 123 66 213 50 183 62 216 123 315 23 38 40 70 39 71 -2 1 -32 -20 -68 -48z"/>
<path d="M5427 6676 c-60 -22 -114 -64 -180 -143 -34 -40 -66 -74 -72 -75 -5 -1 -55 -2 -110 -2 -84 -1 -107 -5 -143 -24 -66 -35 -119 -88 -149 -150 -23 -47 -28 -73 -31 -156 -8 -177 11 -236 162 -501 37 -66 113 -187 168 -270 90 -135 99 -146 94 -110 -3 22 -13 90 -21 150 -8 61 -22 149 -30 196 -18 103 -18 109 -5 109 24 0 87 -176 111 -310 l13 -75 6 45 c11 71 -7 495 -26 623 -11 73 14 35 39 -60 41 -154 56 -263 63 -470 4 -106 11 -193 15 -193 10 0 21 40 55 195 45 207 134 447 192 515 20 23 21 24 22 5 0 -12 -13 -59 -30 -107 -37 -106 -116 -405 -125 -473 l-6 -50 54 91 c133 223 237 333 149 158 -22 -44 -58 -122 -81 -175 -23 -53 -61 -130 -85 -172 -24 -43 -41 -77 -38 -77 4 0 70 52 147 116 77 63 203 166 281 228 276 223 356 353 341 552 -15 195 -175 310 -369 265 -53 -12 -66 2 -77 84 -15 103 -38 159 -82 204 -65 64 -166 87 -252 57z"/>
<path d="M4202 5830 c-63 -13 -138 -58 -186 -111 -43 -47 -58 -84 -73 -173 l-8 -50 -67 -16 c-90 -22 -140 -57 -172 -121 -42 -85 -33 -169 29 -256 19 -26 46 -65 61 -85 l26 -38 -17 -64 c-22 -81 -17 -192 12 -257 48 -108 179 -189 316 -197 163 -10 244 21 588 219 78 44 176 99 218 120 l76 40 -70 -6 c-38 -3 -126 -12 -195 -21 -94 -12 -132 -13 -153 -5 -36 14 -28 28 20 34 21 2 79 15 129 29 l92 24 -132 12 c-210 18 -459 43 -486 49 -25 6 -25 6 5 15 17 5 109 11 205 14 161 6 352 -6 550 -33 68 -9 43 5 -47 27 -113 27 -222 69 -344 132 -59 30 -139 65 -178 78 -165 53 -8 53 168 0 57 -18 141 -48 185 -67 72 -32 233 -83 261 -83 5 0 -37 24 -95 53 -98 49 -318 183 -371 226 -53 43 -1 30 138 -34 81 -37 176 -78 210 -91 35 -13 87 -37 116 -54 30 -16 57 -30 61 -30 10 0 -68 100 -161 205 -43 50 -115 142 -160 205 -87 124 -161 200 -234 243 -97 57 -229 85 -317 67z"/>
<path d="M7212 5598 c-35 -51 -83 -120 -107 -153 -79 -106 -91 -198 -44 -318 20 -51 27 -154 14 -209 -3 -13 -1 -30 5 -38 8 -12 18 -6 55 35 120 132 176 220 200 310 19 71 14 126 -23 240 -23 72 -28 123 -20 194 6 48 -19 29 -80 -61z"/>
<path d="M2077 5553 c-11 -19 16 -229 44 -343 88 -358 196 -492 437 -546 85 -19 112 -39 203 -151 116 -141 256 -395 300 -542 8 -28 21 -47 36 -54 55 -25 60 38 13 183 -57 177 -164 371 -280 512 -65 77 -66 79 -101 216 -63 249 -121 319 -368 448 -127 66 -181 116 -225 209 -33 70 -48 86 -59 68z"/>
<path d="M6275 5540 c-82 -12 -135 -30 -220 -72 -101 -51 -146 -82 -254 -175 -47 -41 -128 -104 -179 -140 -51 -36 -92 -67 -89 -69 4 -5 149 58 309 135 109 52 128 58 128 42 0 -16 -112 -100 -190 -141 -116 -62 -206 -120 -185 -120 64 0 436 80 588 126 9 3 17 0 17 -6 0 -26 -354 -158 -567 -211 -51 -13 -93 -27 -93 -30 0 -20 257 -43 477 -43 112 -1 203 -4 203 -7 0 -6 -159 -39 -265 -55 -22 -3 -110 -9 -195 -12 l-155 -7 110 -48 c94 -42 351 -141 394 -154 11 -3 12 -6 3 -15 -9 -9 -37 -8 -115 5 -123 19 -233 53 -375 114 -58 24 -106 42 -109 40 -2 -3 31 -29 74 -57 142 -96 356 -285 432 -384 23 -29 41 -56 41 -60 0 -4 -32 22 -71 58 -105 97 -226 185 -453 329 -91 58 -120 71 -94 40 8 -10 37 -45 65 -78 86 -102 177 -245 164 -258 -16 -16 -155 129 -240 248 -35 50 -61 81 -57 70 32 -87 50 -151 76 -271 76 -342 134 -462 270 -552 155 -104 328 -120 450 -42 56 36 82 75 121 176 46 120 60 130 209 160 178 34 247 101 258 246 6 84 -10 142 -58 217 -67 103 -65 113 29 175 115 77 151 131 151 226 0 72 -18 105 -99 185 l-71 69 0 61 c0 80 -23 157 -60 199 -65 73 -222 109 -375 86z"/>
<path d="M2660 5199 c0 -8 19 -23 43 -34 47 -22 73 -65 104 -170 18 -61 36 -84 173 -210 24 -22 49 -54 56 -71 15 -36 40 -59 48 -45 9 14 -12 153 -36 246 -40 153 -94 224 -204 264 -75 29 -184 40 -184 20z"/>
<path d="M5155 5117 c-77 -36 -125 -121 -125 -222 0 -49 37 -131 76 -167 94 -87 252 -73 331 31 42 54 56 109 48 182 -19 159 -180 245 -330 176z"/>
</g>
</svg>