<svg xmlns="http://www.w3.org/2000/svg" version="1.0" width="742.123145pt" height="779.379620pt" viewBox="0 0 742.123145 779.379620" preserveAspectRatio="xMidYMid meet">

<g transform="translate(-133.903459,904.379253) scale(0.100000,-0.100000)" fill="rgb(228, 171, 0)" stroke="none">
<path d="M2933 8954 c-85 -179 -93 -352 -23 -502 41 -88 87 -139 174 -197 56 -36 73 -52 65 -61 -12 -15 -140 -69 -185 -78 -66 -14 -214 123 -289 267 -31 59 -52 75 -41 32 18 -72 36 -245 30 -290 -8 -66 -50 -142 -97 -176 -103 -75 -238 -77 -477 -10 -196 56 -307 70 -402 51 -81 -17 -97 -34 -40 -44 56 -8 187 -77 256 -133 124 -101 176 -193 176 -315 0 -116 -57 -182 -205 -238 -82 -31 -236 -39 -324 -16 -35 9 -66 14 -68 12 -3 -2 14 -25 36 -49 44 -48 121 -92 266 -152 50 -21 96 -45 102 -53 19 -24 16 -86 -11 -197 -14 -55 -32 -140 -41 -190 -9 -49 -21 -95 -27 -102 -20 -24 -122 -55 -183 -55 -101 -1 -205 69 -248 166 -7 17 -19 42 -25 56 -22 50 -15 -133 8 -197 45 -127 110 -194 290 -295 119 -67 131 -87 166 -290 30 -173 51 -252 109 -411 25 -66 45 -126 45 -132 0 -7 -32 -3 -92 12 -50 13 -94 21 -97 18 -10 -10 114 -126 190 -178 73 -50 82 -61 213 -255 74 -111 131 -202 125 -202 -6 0 -62 46 -125 103 -148 131 -174 152 -174 139 0 -25 100 -134 338 -369 140 -138 251 -256 248 -261 -4 -7 -26 -4 -63 9 -62 21 -99 24 -108 9 -12 -20 16 -47 100 -94 139 -77 339 -211 492 -330 79 -60 141 -112 138 -114 -2 -3 -25 1 -50 8 -34 9 -49 10 -57 2 -8 -8 -2 -16 21 -29 207 -114 353 -213 546 -373 130 -107 140 -126 50 -96 -89 31 -109 12 -33 -32 29 -17 100 -70 156 -119 57 -48 125 -105 150 -125 26 -21 48 -43 48 -50 1 -7 2 -21 3 -30 0 -10 14 -32 29 -50 l28 -33 -9 -200 c-8 -187 -1 -325 18 -343 4 -4 26 16 49 43 78 94 119 128 215 173 l94 45 54 -59 c29 -32 87 -103 127 -156 65 -84 75 -104 81 -150 13 -103 -29 -247 -98 -340 -44 -59 -88 -97 -154 -135 -36 -21 -36 -22 -12 -23 43 0 180 39 223 64 23 13 67 54 99 90 32 37 73 74 90 83 l31 16 37 -41 c50 -57 99 -155 149 -297 52 -148 88 -229 130 -292 41 -60 120 -143 137 -143 17 0 17 -2 -11 61 -46 106 -60 184 -60 329 1 149 16 229 62 339 35 81 166 287 277 435 89 119 343 417 360 423 6 2 10 -44 10 -125 1 -122 25 -272 45 -272 4 0 10 39 13 88 13 172 83 362 188 504 94 127 282 272 398 308 77 24 212 26 351 5 52 -8 96 -12 99 -9 7 7 -54 66 -140 136 -43 34 -79 66 -79 69 0 4 22 16 50 28 49 21 50 21 147 4 65 -11 150 -17 253 -16 172 0 258 17 380 74 121 56 240 145 168 125 -149 -41 -319 -44 -404 -6 -95 41 -134 99 -134 196 0 55 1 57 58 111 31 30 122 107 201 171 129 103 318 272 379 339 29 32 28 49 -3 57 l-26 7 48 62 c103 134 217 264 275 315 76 67 134 137 185 227 70 121 66 129 -23 49 -90 -80 -144 -120 -144 -106 0 6 22 59 49 119 129 287 187 491 231 813 13 100 32 187 52 245 35 102 57 216 58 293 0 56 -9 65 -33 30 -18 -28 -15 -35 -57 137 -18 72 -47 177 -66 234 -32 97 -33 106 -20 144 15 45 8 92 -19 134 -16 24 -19 25 -30 10 -7 -9 -16 -17 -21 -17 -13 0 -104 151 -98 162 3 4 13 8 23 8 37 0 176 42 234 71 94 48 186 142 216 223 l11 28 -30 -25 c-40 -34 -124 -72 -188 -86 -88 -18 -250 -14 -324 9 -59 18 -148 78 -148 100 0 5 26 16 57 25 142 41 259 113 368 224 82 85 112 127 171 244 31 61 40 87 30 87 -8 0 -16 -4 -18 -8 -9 -24 -174 -143 -253 -184 -158 -81 -353 -125 -512 -114 -142 9 -311 47 -471 107 -23 9 -22 10 28 62 61 61 133 197 104 197 -3 0 -20 -12 -37 -26 -64 -54 -218 -114 -291 -114 l-26 0 35 63 c18 34 43 87 54 117 25 70 63 219 59 232 -2 6 -22 -20 -43 -57 -22 -37 -68 -100 -102 -140 -120 -141 -235 -215 -348 -223 l-59 -5 17 24 c92 126 189 300 175 315 -2 2 -49 -41 -104 -94 -74 -73 -119 -107 -179 -138 -85 -44 -383 -159 -391 -151 -3 2 11 33 30 68 43 78 78 167 74 186 -2 9 -18 -5 -40 -34 -52 -69 -147 -163 -215 -215 -85 -66 -323 -228 -334 -228 -5 0 7 28 26 63 55 100 45 114 -26 37 -95 -101 -230 -259 -281 -325 -163 -214 -298 -470 -374 -705 -59 -185 -57 -181 -61 -145 -49 421 -191 744 -433 985 -153 154 -306 225 -665 310 -109 26 -196 53 -241 75 -124 61 -213 180 -231 308 -8 55 -21 55 -45 0 -28 -61 -30 -196 -4 -257 9 -22 13 -43 8 -48 -11 -11 -152 26 -215 58 -112 56 -194 140 -255 260 -42 83 -61 165 -70 291 l-7 107 -42 -90z m3777 -1028 l104 -119 81 89 82 88 33 -44 c128 -176 128 -420 -2 -672 -39 -76 -101 -158 -111 -148 -9 9 -10 74 -3 220 l6 135 -24 -95 c-33 -132 -58 -213 -68 -225 -4 -5 -9 69 -9 165 -1 96 -5 189 -9 205 -4 17 -8 23 -9 15 -17 -199 -26 -262 -46 -335 -37 -134 -40 -132 -55 35 -14 167 -39 337 -53 369 -17 37 -25 -180 -14 -368 4 -79 7 -158 5 -174 l-3 -31 -34 35 c-39 38 -80 122 -137 279 -29 77 -40 98 -42 78 -3 -21 45 -253 74 -358 l7 -25 -26 24 -25 23 19 -77 c11 -43 17 -80 14 -83 -15 -16 -145 167 -215 304 -66 129 -84 211 -78 367 5 120 33 247 58 262 6 4 46 -21 91 -54 45 -35 90 -61 104 -61 25 0 29 8 81 170 15 47 36 102 46 124 23 45 4 60 158 -118z m-2891 -33 c1 -55 5 -93 11 -93 6 0 10 4 10 9 0 4 50 59 111 122 132 134 124 138 140 -64 16 -216 -9 -379 -76 -494 -64 -108 -289 -323 -339 -323 -18 0 -16 4 10 33 17 17 37 41 45 52 12 17 11 17 -15 -3 -70 -54 -49 -13 64 123 146 176 146 203 1 48 -55 -59 -101 -101 -101 -94 0 13 15 39 144 248 31 50 56 95 56 100 0 12 -70 -69 -155 -179 -68 -88 -95 -118 -95 -104 0 3 43 88 95 190 96 187 130 283 52 146 -52 -91 -162 -256 -177 -265 -6 -4 -13 -5 -15 -3 -6 6 21 107 66 247 22 68 38 125 35 128 -6 7 -132 -233 -168 -321 -17 -42 -34 -76 -38 -76 -25 0 -28 245 -5 335 30 114 133 254 263 358 l67 54 7 -41 c3 -22 7 -83 7 -133z m-984 -34 c56 -38 106 -60 191 -85 102 -29 145 -50 201 -99 71 -61 130 -203 148 -352 8 -70 -4 -83 -30 -34 -8 17 -25 31 -37 33 -17 2 -25 13 -32 41 -15 59 -26 43 -19 -28 7 -77 -6 -86 -36 -22 -11 23 -41 78 -66 122 -24 44 -45 91 -46 105 0 14 -3 19 -6 12 -3 -7 5 -74 17 -148 12 -74 20 -137 17 -140 -8 -8 -98 101 -139 168 -21 34 -38 58 -38 54 0 -19 36 -130 72 -224 22 -57 37 -106 34 -109 -9 -9 -103 55 -136 93 -19 22 -30 29 -30 19 0 -26 46 -131 79 -179 37 -53 37 -56 10 -56 -23 0 -113 62 -129 88 -7 14 -9 14 -10 2 0 -8 28 -41 61 -73 34 -32 59 -60 56 -64 -3 -3 -20 -1 -36 5 -38 13 -38 8 -6 -34 52 -69 21 -52 -95 51 -174 155 -236 249 -261 402 -12 75 -3 253 13 253 5 0 24 -11 41 -24 55 -42 170 -97 179 -88 6 6 5 32 -1 68 -12 66 -15 264 -3 264 4 0 21 -9 37 -21z m4976 -359 c137 -13 131 -7 103 -98 -31 -99 -47 -189 -40 -218 5 -20 24 -29 123 -60 106 -33 201 -69 212 -79 2 -3 -37 -58 -86 -122 -106 -139 -137 -191 -122 -209 5 -7 46 -27 89 -44 44 -18 80 -38 80 -45 0 -7 -30 -41 -67 -75 -164 -150 -363 -219 -597 -207 -158 7 -221 34 -136 57 40 11 51 24 28 33 -7 2 23 8 67 12 44 4 94 13 110 20 l30 13 -30 1 c-39 1 -147 29 -159 41 -13 13 32 31 208 81 82 23 158 51 170 62 l21 18 -30 -7 c-86 -20 -121 -23 -245 -23 l-135 0 40 25 c22 14 117 63 210 109 176 87 191 107 43 56 -106 -37 -279 -74 -292 -61 -13 13 35 54 139 117 91 56 179 122 172 129 -2 2 -35 -10 -74 -26 -64 -27 -190 -50 -276 -50 -26 0 -27 2 -14 20 23 32 119 132 182 187 32 29 56 55 53 58 -3 3 -61 -27 -129 -66 -148 -85 -239 -132 -245 -126 -11 11 21 64 73 118 31 32 52 59 47 59 -6 0 -43 -22 -84 -49 -41 -28 -76 -48 -78 -46 -2 1 6 21 18 44 11 23 17 41 12 41 -4 0 -33 -22 -64 -50 -61 -55 -68 -58 -68 -34 0 39 63 145 119 201 125 123 282 185 511 201 8 1 58 -3 111 -8z m-3424 -204 c-17 -43 -192 -272 -260 -338 l-78 -77 38 -11 c21 -5 55 -13 76 -16 20 -4 40 -10 42 -14 7 -11 -157 -164 -227 -211 -82 -56 -174 -98 -245 -111 -48 -9 -78 -8 -158 6 -54 9 -101 19 -104 21 -13 14 25 29 86 34 74 7 74 10 -5 36 -30 9 -50 21 -45 25 4 5 51 13 103 20 129 16 230 38 260 56 l25 15 -25 -5 c-98 -20 -300 -18 -300 3 0 14 136 60 212 73 79 13 72 21 -28 33 -79 9 -98 20 -59 35 174 64 270 107 311 137 27 19 40 32 29 28 -132 -49 -353 -111 -362 -101 -3 2 33 29 79 59 46 31 117 85 158 121 112 98 219 149 376 180 93 19 107 19 101 2z m208 -62 c97 -31 154 -63 190 -106 64 -75 80 -164 50 -266 -18 -60 -30 -60 -39 -1 -8 49 -76 199 -83 182 -2 -7 10 -71 27 -143 18 -72 29 -134 26 -137 -13 -13 -120 73 -153 123 -30 45 -37 67 -48 157 -8 57 -23 127 -35 156 -20 51 -23 61 -17 61 1 0 38 -12 82 -26z m1388 -89 c87 -26 187 -87 267 -161 93 -88 205 -244 175 -244 -2 0 -28 11 -57 23 -109 48 -321 108 -376 106 -9 0 21 -18 68 -40 47 -22 127 -68 178 -102 l94 -62 -39 -2 c-238 -15 -403 -40 -403 -61 0 -4 62 -8 138 -8 132 -1 274 -22 295 -43 13 -13 -43 -52 -160 -111 -101 -50 -126 -68 -80 -56 49 12 300 27 309 18 10 -10 -29 -47 -106 -100 -27 -18 -46 -35 -44 -38 3 -2 45 15 94 38 49 23 93 44 98 46 5 3 -1 -10 -13 -27 -13 -18 -21 -34 -18 -37 2 -3 34 3 71 13 54 14 68 15 78 4 18 -18 -79 -106 -157 -142 -125 -59 -292 -82 -420 -60 -67 12 -220 65 -229 80 -3 3 9 35 26 70 17 35 32 80 35 100 5 35 3 38 -84 107 -48 39 -114 90 -145 115 -32 24 -58 48 -58 54 0 5 43 42 96 80 53 39 108 80 123 92 l26 22 -30 57 c-16 32 -54 91 -83 132 -63 88 -63 89 48 126 88 30 206 34 283 11z m-2555 -48 c6 -54 -66 -129 -81 -84 -7 22 14 81 35 100 27 23 42 17 46 -16z m-114 7 c15 -38 -7 -104 -35 -104 -15 0 -40 66 -32 87 13 35 56 46 67 17z m176 -49 c17 -21 4 -51 -36 -82 -29 -22 -37 -24 -45 -12 -5 8 -9 19 -9 24 0 21 53 84 71 85 4 0 12 -7 19 -15z m-260 -79 c0 -7 -10 -22 -23 -34 -21 -20 -25 -21 -45 -6 -30 21 -29 68 1 89 21 15 23 14 45 -10 12 -14 22 -32 22 -39z m3614 -15 c13 -14 16 -33 14 -72 -3 -50 -5 -54 -30 -57 -31 -4 -55 24 -64 76 -11 58 43 94 80 53z m150 -24 c8 -22 6 -36 -9 -63 -25 -47 -54 -63 -72 -38 -17 23 -17 56 2 100 12 30 19 35 42 32 20 -2 30 -11 37 -31z m-3490 7 c9 -24 -10 -51 -45 -63 -44 -15 -49 -14 -49 9 0 46 80 92 94 54z m-789 -26 c94 -26 202 -80 245 -120 32 -31 33 -33 13 -36 -12 -2 -58 4 -103 12 -95 18 -100 19 -100 8 0 -4 20 -13 43 -20 47 -14 112 -50 105 -58 -3 -2 -34 3 -69 11 -65 17 -410 34 -397 20 3 -3 82 -20 175 -35 174 -30 273 -55 273 -69 0 -8 -165 -20 -290 -22 -49 0 -59 -2 -43 -9 29 -12 243 -40 300 -40 24 0 43 -4 43 -9 0 -11 -121 -56 -175 -65 -22 -4 -47 -11 -55 -16 -24 -16 75 -1 254 37 21 4 28 3 24 -7 -6 -19 -304 -167 -361 -179 -130 -29 -277 -2 -403 73 -84 50 -108 71 -99 86 8 14 182 100 202 100 26 0 11 16 -49 50 -66 38 -198 160 -198 184 0 10 21 17 73 25 39 7 128 30 196 53 185 61 258 66 396 26z m632 20 c33 -42 13 -140 -39 -183 -36 -30 -49 -31 -74 -4 -14 15 -19 36 -18 74 0 57 11 77 59 107 35 21 59 23 72 6z m-191 -43 c31 -48 -15 -101 -62 -70 -26 17 -33 62 -12 83 20 20 56 14 74 -13z m3573 -14 c26 -37 26 -53 0 -77 -23 -21 -41 -14 -72 28 -14 18 -18 34 -13 52 9 38 57 36 85 -3z m361 14 c17 -20 6 -56 -27 -87 -22 -20 -33 -24 -50 -17 -30 11 -29 30 2 79 26 42 53 51 75 25z m-3622 -57 c21 -21 15 -68 -10 -77 -26 -10 -78 12 -78 32 0 43 60 73 88 45z m3182 -43 c28 -29 32 -39 24 -53 -16 -24 -38 -26 -79 -6 -39 18 -55 55 -35 79 20 25 54 17 90 -20z m532 -2 c37 -33 12 -75 -58 -94 -32 -9 -40 -8 -51 7 -17 24 -16 33 7 72 16 25 26 32 52 32 17 0 40 -7 50 -17z m-4031 -39 c16 -20 3 -44 -35 -62 -47 -23 -75 20 -39 60 20 22 56 23 74 2z m242 -42 c21 -19 22 -51 1 -80 -24 -35 -51 -28 -65 18 -10 33 -9 43 5 65 17 26 25 26 59 -3z m3548 8 c53 -24 75 -110 43 -173 -24 -47 -53 -67 -102 -67 -93 0 -145 46 -146 129 -1 59 19 100 59 118 33 15 106 11 146 -7z m-2366 -9 c63 -22 145 -78 145 -99 0 -9 -6 -12 -17 -7 -10 3 -65 8 -123 11 -86 3 -98 2 -65 -7 22 -5 65 -13 95 -17 l55 -8 -35 -18 c-19 -10 -62 -21 -95 -24 -50 -3 -69 0 -104 17 -51 27 -141 90 -141 100 0 10 179 70 208 71 12 0 47 -9 77 -19z m2059 -21 c6 -6 7 -19 0 -37 -11 -34 -53 -42 -90 -18 -50 33 -12 92 49 74 17 -5 35 -13 41 -19z m-1811 -52 c14 -24 44 -61 66 -83 44 -42 50 -55 26 -55 -32 0 -135 123 -135 163 0 29 17 19 43 -25z m-1675 8 c5 -24 -36 -66 -65 -66 -19 0 -23 5 -23 30 0 48 80 81 88 36z m158 -13 c8 -31 -13 -76 -39 -81 -14 -3 -17 4 -17 40 0 65 43 96 56 41z m3906 10 c25 -23 23 -58 -4 -70 -26 -11 -77 0 -89 19 -32 49 47 93 93 51z m-3997 -50 c-8 -37 -49 -77 -69 -70 -37 15 6 97 51 97 22 0 24 -3 18 -27z m3426 -13 c10 -6 19 -17 19 -24 0 -23 -41 -66 -62 -66 -45 0 -76 58 -46 88 15 15 63 16 89 2z m547 -56 c25 -16 26 -22 12 -58 -7 -19 -17 -26 -35 -26 -67 0 -121 66 -79 97 21 15 66 10 102 -13z m-3760 -65 c56 -49 131 -89 168 -89 16 0 24 -5 22 -12 -7 -21 -51 -20 -101 1 -51 22 -147 105 -147 127 0 21 8 17 58 -27z m3266 2 c24 -26 17 -60 -16 -84 -23 -17 -31 -19 -53 -9 -44 20 -29 85 25 105 24 9 26 8 44 -12z m404 -41 c24 -15 32 -27 32 -49 0 -35 -22 -55 -53 -47 -26 6 -72 79 -63 101 8 21 45 18 84 -5z m-3853 -47 c-9 -60 -48 -180 -79 -241 -60 -119 -175 -230 -295 -284 -124 -57 -217 -70 -526 -77 -154 -3 -284 -3 -288 0 -15 11 268 292 360 358 94 67 482 264 543 276 l35 6 -24 -19 c-14 -11 -105 -66 -202 -123 -98 -57 -176 -106 -173 -108 6 -6 73 25 228 107 76 40 140 71 142 69 3 -2 -64 -71 -148 -153 -132 -128 -217 -201 -294 -251 -16 -11 -15 -11 8 -3 98 34 235 136 406 303 72 72 132 125 132 118 0 -6 -45 -79 -99 -161 -54 -83 -96 -150 -91 -150 22 0 161 158 229 263 25 37 49 67 54 67 5 0 6 -17 3 -37 l-7 -38 20 25 c11 14 28 42 37 63 24 51 37 47 29 -10z m842 -26 c68 -40 163 -137 206 -210 54 -90 71 -174 64 -330 -5 -130 -27 -237 -49 -237 -5 0 -22 7 -37 16 -26 15 -28 23 -44 144 -24 187 -33 198 -42 55 -7 -129 -13 -162 -25 -149 -4 5 -28 61 -54 124 -45 111 -94 206 -101 198 -3 -2 3 -30 11 -62 22 -85 64 -277 64 -294 0 -27 -26 5 -105 133 -42 68 -83 129 -91 136 -8 6 6 -33 30 -87 66 -152 100 -243 92 -251 -4 -4 -62 50 -129 120 -67 70 -125 127 -129 127 -4 0 29 -58 72 -130 76 -125 108 -195 96 -207 -6 -6 -95 49 -159 100 -21 16 -40 27 -42 25 -3 -2 25 -40 60 -84 36 -43 65 -82 65 -86 0 -11 -14 -10 -26 1 -5 5 -70 44 -144 86 -74 43 -139 80 -144 83 -26 15 9 -24 79 -88 153 -139 204 -189 197 -193 -4 -3 -36 2 -72 9 -105 23 -114 13 -27 -28 61 -29 77 -42 77 -59 0 -20 -4 -21 -64 -17 -95 6 -180 53 -287 158 -99 98 -137 166 -171 303 -12 48 -19 89 -17 91 3 3 34 10 69 15 36 6 89 18 118 26 l53 16 -8 62 c-10 80 -8 296 4 308 5 5 32 2 63 -6 88 -24 230 -45 302 -45 66 0 68 1 73 28 8 33 53 185 66 219 11 29 29 26 106 -20z m2711 27 c45 -31 20 -124 -34 -124 -52 0 -68 52 -34 108 22 36 35 39 68 16z m212 -21 c24 -31 23 -51 -3 -67 -15 -9 -22 -7 -38 13 -10 13 -19 33 -19 45 0 44 29 48 60 9z m-1991 -113 c14 -147 23 -151 202 -101 167 47 319 70 319 49 0 -44 -100 -261 -157 -342 -19 -26 -31 -52 -26 -56 4 -4 48 -22 96 -40 48 -18 90 -37 93 -42 9 -13 -50 -108 -107 -171 -85 -95 -200 -172 -334 -222 -62 -24 -308 -84 -343 -85 -25 0 -7 18 103 103 103 79 146 117 131 117 -7 0 -113 -65 -191 -116 -30 -21 -58 -35 -61 -32 -8 9 86 117 157 182 35 31 109 88 165 126 150 102 167 131 35 59 -41 -22 -102 -52 -135 -66 -34 -14 -92 -40 -130 -59 -38 -19 -71 -33 -73 -30 -12 12 110 168 243 309 82 88 151 164 153 170 2 6 -25 -14 -60 -44 -35 -31 -126 -102 -201 -157 -76 -56 -156 -118 -178 -138 -22 -20 -43 -35 -45 -32 -5 5 120 253 166 331 24 40 26 46 10 38 -37 -20 -142 -147 -214 -258 -96 -149 -105 -149 -63 -2 14 46 23 85 22 87 -2 1 -19 -21 -40 -50 -20 -29 -50 -71 -67 -93 -17 -22 -34 -47 -39 -55 -36 -63 -5 123 42 260 75 218 223 373 438 461 45 18 67 23 72 15 3 -6 11 -58 17 -116z m1896 99 c23 -44 16 -93 -13 -97 -30 -5 -48 11 -56 48 -14 72 39 109 69 49z m541 -116 c251 -105 332 -201 350 -412 l7 -81 -127 0 c-135 0 -260 -16 -275 -34 -4 -6 -32 -64 -60 -128 -75 -165 -64 -157 -147 -115 -110 55 -249 107 -285 107 -19 0 -54 -11 -78 -25 -23 -14 -46 -25 -51 -25 -4 0 -29 37 -55 82 -55 93 -100 148 -122 148 -7 0 -38 -16 -68 -35 l-55 -34 -27 36 c-16 20 -41 48 -56 63 l-29 27 26 74 c30 87 78 159 151 228 55 52 95 66 95 33 0 -10 -11 -51 -25 -91 -27 -81 -43 -171 -29 -171 5 0 39 48 75 107 36 59 72 109 79 111 10 4 12 -11 7 -69 -7 -82 2 -259 13 -259 4 0 11 27 14 61 8 68 39 175 58 202 12 16 19 4 60 -95 50 -119 85 -184 95 -175 3 3 -2 27 -11 54 -14 43 -46 229 -46 269 0 8 5 12 10 9 22 -14 127 -154 176 -234 28 -47 56 -87 62 -89 13 -4 -40 148 -82 238 -14 30 -22 56 -17 58 13 5 189 -96 239 -136 23 -19 45 -32 48 -29 15 15 -98 149 -196 231 -43 36 -44 37 -15 31 17 -4 58 -13 92 -20 34 -6 80 -24 102 -38 31 -21 41 -24 41 -12 0 19 -83 84 -138 109 -62 28 -53 40 26 33 l67 -7 -32 26 c-36 28 -43 47 -15 37 9 -3 76 -30 148 -60z m-1286 -600 c73 -84 78 -85 152 -24 35 28 66 51 71 51 4 0 23 -24 42 -54 19 -30 39 -58 45 -61 6 -3 37 20 70 51 53 50 63 56 75 43 27 -28 74 -166 86 -255 10 -77 10 -101 -5 -173 -10 -46 -26 -100 -36 -120 -21 -38 -54 -81 -64 -81 -8 0 0 73 18 155 8 38 14 71 12 72 -2 2 -24 -38 -49 -89 l-46 -93 0 45 c0 25 4 64 8 88 5 23 7 42 5 42 -2 0 -22 -36 -45 -81 -22 -45 -42 -79 -44 -77 -2 2 2 61 9 131 7 70 10 127 7 127 -6 0 -86 -212 -98 -257 -14 -56 -33 -10 -33 83 0 102 -13 245 -20 237 -17 -18 -30 -120 -30 -228 0 -63 -4 -116 -9 -120 -15 -8 -120 168 -165 277 -22 54 -42 96 -44 93 -9 -8 31 -175 69 -284 21 -63 37 -116 35 -119 -2 -2 -22 16 -45 39 -23 24 -41 41 -41 38 0 -3 11 -34 25 -69 14 -35 22 -66 19 -69 -14 -13 -99 101 -145 194 -99 202 -94 357 17 528 l45 68 32 -28 c18 -15 53 -51 77 -80z m-1809 -179 c11 -13 10 -23 -2 -57 -11 -34 -19 -42 -39 -42 -22 0 -25 5 -28 43 -5 64 35 96 69 56z m89 -33 c0 -36 -41 -88 -59 -76 -9 5 -11 20 -8 42 7 42 23 63 48 63 14 0 19 -7 19 -29z m-245 -15 c14 -10 20 -26 20 -56 0 -30 -6 -46 -20 -56 -25 -18 -31 -18 -55 6 -29 29 -35 66 -16 95 18 28 43 32 71 11z m355 -42 c0 -20 -54 -74 -73 -74 -8 0 -21 7 -28 16 -28 34 43 105 83 83 10 -5 18 -17 18 -25z m-465 -40 c26 -28 33 -68 14 -79 -16 -11 -57 3 -79 27 -25 27 -25 33 0 58 26 26 36 25 65 -6z m515 -45 c15 -27 -8 -64 -46 -73 -31 -8 -39 -2 -48 36 -5 21 -1 30 16 42 31 22 65 20 78 -5z m-230 -37 c30 -24 51 -89 44 -134 -10 -67 -92 -140 -166 -149 -38 -5 -96 21 -118 51 -24 33 -27 98 -6 138 18 34 62 76 101 96 41 22 117 21 145 -2z m3067 -16 c45 -15 85 -31 88 -35 3 -5 -13 -36 -36 -69 -23 -33 -39 -64 -36 -69 3 -4 89 -35 191 -68 102 -33 186 -65 186 -71 0 -15 -139 -117 -227 -168 -40 -22 -71 -44 -70 -48 1 -4 35 -31 76 -60 41 -29 76 -58 78 -64 5 -16 -152 -101 -242 -131 -105 -34 -283 -43 -395 -19 -78 17 -246 94 -276 127 -21 23 -37 22 190 9 93 -6 171 -9 173 -6 2 2 -36 9 -84 16 -100 14 -213 46 -213 60 0 6 58 9 143 9 116 -1 164 3 262 24 l120 25 -136 1 c-216 2 -418 27 -358 45 39 11 449 77 482 76 20 0 37 5 37 10 0 11 -252 12 -392 2 -49 -4 -88 -4 -88 -1 0 14 130 90 250 148 135 65 133 73 -10 42 -70 -16 -169 -48 -295 -97 -20 -7 -20 -7 -1 14 10 12 41 36 69 54 27 18 45 34 39 36 -13 4 -166 -72 -208 -104 -64 -50 -60 -20 9 53 52 56 50 60 -9 16 -31 -23 -54 -30 -54 -15 0 5 14 29 31 55 70 107 197 190 335 221 104 23 266 15 371 -18z m-3409 7 c24 -20 29 -40 18 -65 -10 -22 -28 -23 -66 -3 -23 12 -30 23 -30 44 0 15 3 31 7 34 12 13 51 7 71 -10z m1185 -82 c39 -18 95 -57 129 -90 l61 -58 -91 -62 c-50 -34 -95 -68 -101 -75 -7 -8 1 -48 29 -137 36 -113 38 -125 23 -136 -22 -17 -129 -51 -185 -58 l-46 -7 -7 -47 c-3 -25 -1 -77 5 -116 6 -38 11 -79 13 -89 4 -38 -88 -46 -186 -16 -82 25 -169 89 -235 171 -58 71 -171 283 -158 296 4 4 45 -30 90 -77 116 -120 138 -138 98 -78 -27 40 -72 129 -72 144 0 16 45 -13 258 -167 40 -29 43 -29 31 -7 -6 12 -44 57 -83 98 -39 41 -82 90 -94 108 l-23 32 23 0 c31 0 259 -56 303 -74 19 -8 35 -13 35 -11 0 2 -65 43 -145 91 -80 48 -145 91 -145 94 0 9 176 30 255 31 l70 0 -45 20 c-25 11 -93 32 -152 45 -60 14 -108 29 -108 33 0 8 146 51 174 51 9 0 16 4 16 9 0 10 -165 51 -203 51 -42 0 8 32 80 52 53 14 96 17 193 15 118 -3 129 -5 193 -36z m-599 6 c9 -15 7 -21 -8 -33 -22 -16 -64 -18 -86 -4 -12 7 -12 12 0 35 11 21 20 25 48 23 21 -2 40 -11 46 -21z m977 -18 c161 -35 292 -121 399 -263 41 -55 49 -86 12 -53 -21 19 -136 72 -174 81 -17 4 -28 2 -28 -4 0 -5 6 -10 13 -10 10 0 172 -91 186 -105 11 -12 -9 -16 -28 -6 -26 14 -263 77 -321 85 -33 5 -2 -11 113 -57 87 -35 162 -68 167 -73 7 -7 -51 -9 -162 -6 -95 2 -184 0 -197 -5 -21 -8 -14 -11 40 -16 112 -11 369 -85 369 -107 0 -5 -30 -11 -67 -15 -142 -14 -384 -72 -398 -96 -4 -6 2 -8 17 -4 31 7 335 25 428 25 97 0 86 -11 -80 -78 -251 -100 -402 -121 -522 -74 -110 44 -110 39 -7 182 92 129 94 133 68 197 -13 32 -12 34 26 73 37 38 40 45 43 109 5 78 -9 130 -45 179 -13 17 -21 37 -18 42 8 13 101 13 166 -1z m-1928 -23 c38 -7 76 -20 84 -29 19 -18 15 -20 -93 -36 -74 -11 -142 -29 -148 -39 -2 -4 36 -7 85 -7 54 0 93 -5 100 -12 13 -13 17 -12 -119 -38 -122 -24 -424 -133 -395 -142 6 -2 47 5 90 16 44 11 135 25 204 31 68 6 141 13 162 15 64 9 40 -12 -73 -63 -89 -41 -423 -242 -415 -250 1 -1 80 25 176 59 304 106 350 121 356 115 8 -7 -47 -73 -186 -224 -62 -68 -111 -125 -108 -128 6 -6 92 54 234 164 115 89 256 176 261 162 2 -4 -24 -46 -56 -92 -33 -45 -86 -126 -118 -178 -113 -186 -251 -296 -419 -335 -111 -26 -108 -30 -106 111 2 89 -1 123 -11 131 -7 6 -51 13 -98 17 -204 15 -241 19 -245 25 -6 10 68 180 119 274 25 46 46 89 46 95 0 6 -36 37 -80 68 -94 65 -94 60 8 156 79 74 165 121 262 143 79 18 376 13 483 -9z m338 4 c11 -6 19 -21 19 -35 0 -20 -7 -26 -41 -35 -37 -10 -44 -9 -62 9 -18 17 -19 24 -9 46 9 19 19 25 42 25 17 0 40 -5 51 -10z m605 -45 c15 -38 -59 -63 -87 -29 -11 14 -10 18 6 30 25 19 74 18 81 -1z m-574 -62 c24 -21 23 -38 -4 -63 -43 -39 -107 -17 -94 33 10 41 67 59 98 30z m519 -12 c20 -16 22 -23 13 -38 -15 -25 -52 -28 -75 -7 -23 21 -24 28 -3 48 20 21 37 20 65 -3z m-64 -72 c28 -24 1 -66 -36 -54 -24 7 -54 52 -45 66 7 13 60 4 81 -12z m-419 -44 c4 -30 -39 -67 -74 -63 -37 4 -44 38 -14 68 28 28 84 25 88 -5z m2312 5 c16 -30 3 -62 -23 -58 -38 5 -33 77 5 78 4 0 12 -9 18 -20z m88 8 c18 -18 14 -45 -9 -62 -28 -19 -49 -10 -49 23 0 28 16 51 35 51 6 0 16 -5 23 -12z m-2064 -17 c21 -23 18 -60 -6 -75 -36 -22 -77 51 -46 82 17 17 32 15 52 -7z m1900 -34 c8 -21 6 -31 -6 -43 -14 -14 -19 -14 -52 0 -42 17 -48 47 -13 64 35 17 61 10 71 -21z m295 14 c8 -14 6 -25 -10 -45 -24 -31 -65 -32 -83 -3 -9 15 -6 23 17 43 34 29 63 31 76 5z m-2311 -13 c16 -16 15 -60 -1 -82 -15 -20 -62 -25 -79 -8 -17 17 -11 75 8 89 22 16 56 17 72 1z m-130 -13 c2 -2 1 -17 -3 -34 -8 -39 -55 -67 -85 -51 -27 15 -25 46 6 76 19 20 31 24 52 19 15 -4 29 -8 30 -10z m2059 -50 c32 -23 20 -55 -22 -55 -37 0 -69 29 -59 54 8 20 52 21 81 1z m462 1 c27 -32 -21 -65 -74 -52 -31 8 -32 30 -3 50 28 20 62 20 77 2z m-199 -16 c11 -11 22 -31 26 -45 8 -33 -25 -71 -77 -86 -31 -10 -43 -9 -76 7 -33 17 -38 24 -41 57 -4 43 16 73 52 80 55 11 97 6 116 -13z m-272 -81 c3 -19 -49 -44 -73 -35 -18 7 -20 42 -2 50 25 10 72 1 75 -15z m427 9 c14 -6 25 -17 25 -25 0 -16 -53 -18 -82 -2 -21 11 -21 12 -3 25 23 17 27 17 60 2z m-390 -51 c17 -13 17 -15 -3 -35 -25 -25 -67 -29 -75 -8 -8 21 20 50 54 55 3 1 13 -5 24 -12z m379 -16 c16 -17 16 -20 1 -35 -9 -9 -23 -16 -31 -16 -17 0 -64 44 -64 60 0 18 76 12 94 -9z m-2654 -44 c0 -18 -7 -54 -15 -81 -8 -27 -13 -52 -10 -54 7 -7 7 -7 55 81 23 42 46 77 51 77 13 0 13 0 -26 -112 -54 -154 -100 -357 -76 -333 5 6 26 54 45 108 20 54 49 124 67 155 34 64 54 89 46 57 -11 -38 -18 -241 -9 -225 5 8 22 69 37 135 48 205 46 200 55 185 8 -16 30 -334 31 -455 0 -49 3 -64 9 -49 11 27 30 252 30 350 0 44 4 73 9 69 10 -5 13 -21 52 -220 26 -134 35 -154 45 -100 7 39 -9 276 -22 323 -11 40 15 24 40 -25 l24 -48 -5 84 c-5 69 -4 83 8 80 16 -5 118 -207 144 -284 22 -65 31 -220 16 -282 -13 -54 -81 -203 -93 -203 -4 0 -42 32 -84 70 -91 82 -82 85 -171 -47 -31 -46 -61 -82 -67 -80 -11 4 -46 48 -104 132 l-34 48 -79 -79 -80 -79 -19 25 c-10 14 -33 61 -51 105 -28 68 -33 96 -37 190 -7 169 19 248 142 438 32 48 62 85 67 82 5 -4 9 -21 9 -38z m2341 23 c18 -10 18 -13 4 -40 -12 -23 -22 -30 -45 -30 -37 0 -40 23 -8 57 25 27 23 26 49 13z m229 -15 c27 -29 17 -49 -21 -43 -19 2 -25 10 -27 36 -4 40 15 43 48 7z m-82 -7 c19 -19 14 -56 -8 -63 -24 -8 -50 10 -50 34 0 19 19 41 35 41 6 0 16 -5 23 -12z m-88 -27 c0 -21 -23 -44 -33 -34 -11 10 -8 38 5 51 14 14 28 6 28 -17z m-100 -108 c0 -26 -16 -47 -29 -39 -12 8 -15 39 -4 49 13 13 33 7 33 -10z m210 2 c17 -20 8 -50 -15 -50 -20 0 -31 25 -21 51 7 18 20 18 36 -1z m-99 -22 c6 -16 3 -27 -7 -38 -30 -30 -52 -7 -40 41 8 31 35 29 47 -3z m382 -25 c92 -53 181 -142 215 -215 24 -52 27 -69 27 -168 0 -89 -5 -124 -24 -182 -13 -40 -27 -73 -32 -73 -5 0 -46 11 -92 24 -45 13 -103 27 -127 31 l-45 6 -35 -68 c-39 -77 -146 -243 -156 -243 -4 0 -43 39 -88 87 -90 96 -242 223 -267 223 -9 0 -41 -9 -71 -19 l-56 -19 -37 54 c-49 71 -136 158 -187 186 -45 25 -45 33 -2 128 28 62 153 190 229 234 50 30 63 29 46 -2 -16 -30 -14 -34 10 -22 11 7 23 9 26 7 2 -3 -16 -40 -41 -83 -24 -43 -43 -81 -40 -83 2 -3 37 27 77 67 40 40 75 72 79 72 4 0 -22 -64 -58 -141 -35 -78 -64 -149 -64 -157 0 -25 64 41 127 131 54 76 82 98 69 55 -10 -32 -20 -304 -12 -296 4 3 18 51 31 106 12 55 30 122 40 149 9 26 19 55 22 63 3 8 20 -48 37 -125 59 -255 60 -256 66 -63 3 91 7 169 10 172 13 12 148 -158 187 -236 24 -46 43 -75 43 -66 0 9 -27 98 -60 198 -34 101 -59 185 -56 187 2 3 46 -43 98 -101 51 -58 94 -102 96 -96 5 14 -42 96 -97 170 -60 81 -95 144 -81 148 6 2 40 -22 75 -53 36 -31 65 -52 65 -47 0 5 -13 29 -30 53 -16 24 -30 48 -30 52 0 13 40 -3 113 -45z m-2010 -322 c26 -40 83 -110 127 -154 44 -44 80 -82 80 -86 0 -15 -31 -3 -71 28 -68 51 -173 195 -194 264 -13 43 12 21 58 -52z m617 -56 c200 -24 322 -83 460 -220 l95 -95 -50 -2 c-27 -1 -107 -8 -177 -14 -111 -11 -139 -10 -211 4 -73 15 -260 76 -275 91 -17 18 20 18 111 3 56 -10 116 -20 132 -23 l30 -5 -35 19 c-41 23 -251 78 -333 88 -62 7 -72 24 -21 35 55 12 199 9 293 -6 52 -9 96 -14 98 -12 7 8 -138 49 -200 57 -34 5 -122 11 -194 15 -200 11 -177 34 67 69 52 7 128 6 210 -4z m-640 -191 c0 -13 -109 -197 -121 -205 -17 -10 -9 27 17 79 50 98 104 164 104 126z m-185 -132 c-135 -114 -265 -256 -265 -290 0 -6 21 9 48 35 26 25 76 66 112 92 61 44 90 56 90 37 0 -16 -52 -85 -142 -188 -49 -57 -85 -103 -80 -103 5 0 46 37 91 81 85 86 103 86 54 1 -42 -74 -82 -111 -168 -152 -49 -24 -106 -62 -147 -99 -36 -34 -70 -61 -75 -61 -11 0 -6 109 8 203 29 185 190 361 413 453 45 19 88 33 96 33 8 0 -7 -19 -35 -42z m635 -149 c163 -164 159 -145 -22 99 -56 75 -45 80 50 22 207 -126 305 -248 366 -458 l24 -83 -21 6 c-12 4 -82 22 -156 41 -149 38 -213 71 -292 148 -65 64 -135 164 -164 234 -25 63 -47 163 -35 163 4 0 27 -33 50 -72 57 -96 122 -187 156 -218 29 -27 28 -22 -23 58 -47 74 -113 212 -113 236 0 17 8 12 37 -24 20 -25 85 -93 143 -152z m285 66 c40 -12 76 -14 182 -9 150 7 170 2 219 -62 30 -39 186 -345 179 -351 -14 -14 -361 85 -394 112 -8 6 -30 44 -50 85 -36 77 -120 178 -172 208 -27 16 -38 33 -21 33 4 0 30 -7 57 -16z m-691 -97 c46 -159 59 -243 53 -346 -3 -53 -12 -116 -21 -141 -20 -53 -178 -292 -187 -282 -4 4 -28 81 -54 172 -44 153 -47 171 -41 245 6 92 36 220 51 220 6 0 13 -30 17 -67 3 -37 10 -82 14 -100 7 -32 8 -33 15 -8 4 14 7 84 8 157 1 72 5 134 10 137 20 13 71 -163 71 -246 0 -26 5 -50 10 -53 14 -9 12 171 -4 275 -13 85 -12 103 7 128 15 19 23 5 51 -91z m290 -392 c98 -291 234 -556 350 -679 20 -21 35 -43 33 -50 -9 -26 -39 -15 -86 33 -142 141 -295 466 -359 758 -19 88 -19 107 0 101 5 -2 33 -75 62 -163z m-595 -149 c12 -33 21 -70 21 -83 0 -34 -72 -102 -192 -179 -57 -37 -120 -80 -140 -96 l-38 -30 0 27 c0 78 33 363 45 385 20 38 76 85 143 119 31 16 73 41 92 54 l35 25 6 -82 c4 -44 16 -108 28 -140z"/>
<path d="M6862 6688 c3 -7 13 -15 24 -17 10 -2 23 -10 27 -18 7 -11 12 -11 23 -2 15 12 9 33 -7 24 -5 -4 -19 1 -31 9 -27 19 -41 20 -36 4z"/>
<path d="M6830 6645 c0 -8 -4 -15 -10 -15 -5 0 -10 -4 -10 -10 0 -5 7 -10 15 -10 9 0 15 9 15 25 0 14 -2 25 -5 25 -3 0 -5 -7 -5 -15z"/>
<path d="M6910 6575 c-10 -12 -10 -19 -2 -27 15 -15 48 14 38 31 -10 15 -21 14 -36 -4z"/>
<path d="M4317 5203 c-4 -3 -7 -15 -7 -26 0 -16 3 -17 15 -7 8 7 15 19 15 26 0 15 -12 19 -23 7z"/>
<path d="M4355 5170 c-8 -13 4 -32 16 -25 12 8 12 35 0 35 -6 0 -13 -4 -16 -10z"/>
<path d="M4180 5151 c0 -5 6 -14 14 -20 16 -13 32 2 21 19 -8 12 -35 13 -35 1z"/>
<path d="M4147 5103 c-4 -3 5 -12 20 -20 18 -9 30 -10 37 -3 7 7 3 10 -12 10 -12 0 -22 5 -22 10 0 11 -13 13 -23 3z"/>
<path d="M6410 4741 c0 -5 10 -11 22 -13 24 -3 36 -34 20 -50 -17 -17 -74 -12 -88 7 -8 10 -16 17 -18 14 -11 -11 24 -38 56 -44 29 -5 40 -3 56 13 26 26 18 60 -15 73 -30 11 -33 11 -33 0z"/>
</g>
</svg>
             
