<svg xmlns="http://www.w3.org/2000/svg" version="1.0" width="734.969273pt" height="787.821892pt" viewBox="0 0 734.969273 787.821892" preserveAspectRatio="xMidYMid meet">
<g transform="translate(-143.008608,901.500000) scale(0.100000,-0.100000)" fill="#facc15" stroke="none">
<path d="M4296 8965 c-16 -108 -75 -187 -164 -220 -20 -7 -29 -14 -19 -14 26 -1 89 -35 114 -63 27 -29 59 -100 69 -153 l7 -40 14 60 c7 32 25 78 38 102 26 43 95 92 131 94 11 0 -3 10 -31 23 -27 13 -60 34 -72 47 -30 33 -63 111 -72 168 l-7 46 -8 -50z"/>
<path d="M5850 8957 c0 -82 -72 -182 -153 -211 -35 -12 -38 -15 -16 -15 65 -2 150 -102 168 -195 10 -53 21 -72 21 -34 0 105 91 226 172 229 18 0 14 4 -15 14 -21 8 -51 24 -67 35 -32 22 -90 130 -90 166 0 13 -4 26 -10 29 -6 3 -10 -4 -10 -18z"/>
<path d="M5063 8757 c-44 -183 -101 -295 -197 -391 -82 -82 -148 -119 -273 -151 l-85 -22 69 -17 c110 -28 206 -79 284 -154 93 -87 155 -210 204 -403 18 -74 35 -127 38 -119 2 8 19 69 36 135 18 67 52 162 78 215 37 78 60 109 122 170 85 84 146 118 271 152 l81 21 -73 19 c-109 27 -208 80 -276 147 -104 102 -161 218 -212 434 -13 53 -26 97 -29 97 -4 0 -20 -60 -38 -133z"/>
<path d="M2236 8698 c-22 -100 -66 -187 -118 -233 -43 -39 -133 -85 -171 -86 -21 0 -21 -1 -2 -9 11 -4 41 -16 67 -25 106 -37 190 -151 224 -303 l17 -77 13 64 c21 101 41 152 82 206 48 64 117 110 189 126 l56 13 -56 13 c-139 31 -235 145 -270 318 l-14 70 -17 -77z"/>
<path d="M7901 8694 c-28 -140 -113 -251 -224 -293 -32 -11 -68 -21 -80 -22 -12 0 -3 -6 23 -13 116 -32 185 -87 235 -189 19 -40 42 -101 49 -137 14 -68 16 -68 36 20 37 157 116 252 249 297 39 13 56 23 41 23 -42 0 -142 55 -187 101 -53 56 -89 128 -105 212 -7 37 -15 67 -18 67 -4 0 -12 -30 -19 -66z"/>
<path d="M3287 8169 c-287 -25 -566 -134 -797 -310 -87 -66 -244 -225 -316 -319 -263 -346 -386 -807 -354 -1332 37 -620 240 -1155 703 -1853 362 -546 787 -1019 1442 -1605 551 -493 786 -763 954 -1097 47 -94 117 -295 151 -431 13 -51 27 -89 31 -85 4 4 19 52 33 105 70 259 152 441 300 663 154 230 330 420 681 735 762 682 1167 1127 1543 1691 505 758 722 1364 722 2019 0 544 -167 1003 -487 1340 -375 394 -912 563 -1443 452 -288 -61 -648 -233 -799 -382 -68 -67 -198 -254 -290 -416 -107 -190 -234 -510 -248 -626 -3 -27 -9 -51 -13 -53 -4 -3 -13 22 -19 55 -30 149 -104 349 -202 541 -62 122 -228 380 -295 461 -71 84 -176 154 -399 266 -287 143 -607 208 -898 181z m418 -154 c119 -22 235 -83 235 -122 0 -7 -6 -22 -12 -33 -10 -16 -10 -24 1 -42 42 -66 46 -77 34 -89 -8 -8 -29 -5 -84 14 -41 14 -110 31 -154 37 -100 16 -114 27 -89 68 25 43 10 70 -66 122 -33 23 -58 45 -55 51 9 14 103 11 190 -6z m2975 3 c0 -7 -21 -26 -48 -43 -26 -16 -55 -38 -64 -47 -19 -19 -24 -73 -8 -83 19 -12 11 -44 -12 -49 -13 -3 -61 -12 -108 -21 -47 -9 -110 -25 -140 -36 -47 -17 -56 -17 -69 -4 -12 12 -11 19 14 56 24 38 27 47 17 72 -15 39 -3 60 51 91 84 49 177 73 300 75 47 1 67 -3 67 -11z m-3420 -76 c31 -15 35 -22 35 -56 0 -27 6 -43 19 -50 43 -25 61 -45 51 -54 -5 -5 -48 -17 -95 -27 -47 -9 -111 -25 -143 -36 -32 -11 -63 -17 -69 -13 -6 4 -8 25 -4 55 9 64 -12 84 -105 99 -73 12 -77 20 -26 47 102 53 267 70 337 35z m3938 -7 c43 -14 87 -34 97 -45 10 -11 16 -20 14 -20 -34 -1 -124 -23 -143 -36 -23 -14 -26 -23 -26 -70 0 -29 -3 -55 -8 -57 -4 -3 -59 8 -122 25 -63 16 -132 34 -152 39 -21 6 -38 14 -38 19 0 5 17 21 38 35 32 22 37 31 37 63 0 32 4 39 35 54 53 27 170 24 268 -7z m-1218 -105 c0 -5 -13 -31 -30 -57 -24 -37 -30 -58 -30 -100 l0 -53 -167 -110 c-94 -61 -171 -106 -176 -101 -19 19 104 245 161 298 37 34 223 144 233 137 5 -3 9 -9 9 -14z m-1647 -44 c129 -76 169 -121 251 -281 28 -54 42 -93 37 -98 -6 -6 -54 20 -123 65 -62 41 -139 92 -172 112 -58 37 -58 37 -52 77 7 42 -9 92 -44 136 -48 61 -12 57 103 -11z m-1595 -86 c4 -55 10 -62 64 -69 61 -9 60 -30 -4 -77 -29 -21 -77 -58 -106 -81 -30 -24 -60 -43 -67 -43 -7 0 -21 22 -30 50 -15 44 -20 50 -51 56 -19 3 -54 1 -79 -5 -63 -16 -68 -15 -55 10 20 36 131 139 173 161 60 30 109 47 132 45 16 -2 21 -11 23 -47z m4849 15 c29 -13 75 -45 104 -72 56 -52 114 -121 107 -128 -2 -2 -26 2 -53 10 -59 18 -109 19 -123 3 -6 -7 -14 -28 -19 -47 -12 -47 -34 -59 -64 -38 -146 105 -194 145 -194 162 0 16 8 21 35 23 48 5 70 27 70 72 0 20 3 40 7 44 11 11 71 -2 130 -29z m-3647 -180 c102 -33 241 -99 270 -130 20 -21 20 -24 5 -39 -9 -9 -28 -16 -43 -16 -33 0 -87 -32 -102 -60 -15 -28 -5 -66 26 -103 44 -53 20 -103 -45 -94 -20 3 -101 11 -181 17 -190 16 -224 38 -166 107 34 42 46 68 46 105 0 52 -32 92 -110 138 -83 48 -93 65 -59 93 22 18 35 19 149 14 98 -4 144 -11 210 -32z m2684 19 c29 -28 22 -38 -70 -91 -80 -47 -105 -78 -111 -137 -4 -35 0 -48 30 -86 46 -60 50 -77 28 -99 -14 -14 -41 -20 -112 -25 -52 -4 -136 -12 -188 -18 -92 -11 -95 -10 -113 12 -24 30 -23 38 12 84 52 68 32 124 -53 147 -85 22 -91 27 -75 51 31 46 222 133 353 161 99 22 279 22 299 1z m-3356 -60 c29 -20 28 -39 -9 -118 -26 -56 -31 -76 -27 -118 8 -75 32 -93 161 -122 16 -4 32 -17 39 -32 14 -31 -7 -64 -77 -114 -26 -19 -100 -77 -164 -127 -64 -51 -125 -93 -137 -93 -33 0 -53 31 -60 95 -8 76 -36 127 -84 154 -53 29 -104 27 -170 -9 -60 -32 -89 -37 -108 -18 -20 20 -14 57 20 121 45 83 143 180 266 261 176 116 297 157 350 120z m3816 -15 c69 -26 219 -118 299 -184 116 -96 191 -206 185 -273 -4 -50 -28 -52 -109 -11 -51 25 -71 30 -110 27 -89 -9 -135 -64 -149 -175 -15 -117 -43 -121 -166 -22 -49 39 -123 94 -164 122 -87 58 -109 82 -110 118 0 35 24 53 91 68 121 26 145 113 72 252 -52 101 15 133 161 78z m-4758 -164 c11 -62 55 -78 141 -50 40 13 37 -19 -8 -91 -23 -38 -60 -106 -81 -152 -22 -47 -45 -81 -51 -79 -7 2 -24 25 -38 52 -32 61 -56 73 -109 55 -22 -7 -43 -10 -46 -7 -13 12 20 132 53 199 39 78 97 135 119 117 7 -6 16 -26 20 -44z m5621 13 c18 -18 44 -57 59 -87 33 -66 66 -189 53 -197 -5 -3 -25 0 -45 6 -55 18 -79 7 -111 -53 -15 -28 -34 -52 -40 -52 -7 0 -28 33 -48 73 -19 40 -53 104 -76 143 -43 74 -47 107 -14 100 11 -2 41 -5 67 -8 43 -4 48 -3 61 24 8 15 17 40 21 56 9 37 35 35 73 -5z m-3418 -105 c46 -36 92 -80 102 -97 35 -56 101 -297 86 -312 -3 -4 -35 11 -69 33 -35 22 -101 61 -148 87 -106 60 -159 109 -144 133 6 10 26 21 45 26 69 17 79 56 38 139 -40 79 -17 77 90 -9z m1241 52 c0 -9 -9 -33 -20 -55 -36 -71 -23 -105 53 -130 75 -24 38 -74 -122 -161 -53 -29 -118 -68 -146 -86 -30 -20 -53 -29 -58 -24 -11 11 24 164 55 246 23 61 33 73 132 158 79 67 106 80 106 52z m-850 -392 c42 -50 115 -203 135 -281 20 -81 32 -201 17 -187 -24 24 -124 239 -156 335 -58 178 -57 206 4 133z m410 28 c0 -5 -20 -68 -45 -140 -47 -138 -148 -351 -166 -351 -24 0 34 250 80 342 37 73 100 158 118 158 7 0 13 -4 13 -9z m-3249 -98 c27 -79 46 -103 83 -103 17 1 42 7 56 15 14 8 35 14 47 15 l23 0 -6 -172 c-3 -95 -11 -183 -17 -196 -6 -12 -22 -25 -35 -29 -21 -5 -39 9 -130 100 l-105 107 5 77 c7 98 38 245 51 240 6 -2 18 -26 28 -54z m6085 -15 c9 -40 19 -116 22 -168 l4 -95 -100 -97 c-153 -149 -164 -142 -180 108 -7 117 -8 182 -2 188 7 7 21 6 43 -3 55 -23 96 -25 117 -6 11 10 29 46 40 81 12 35 25 64 30 64 5 0 16 -33 26 -72z m-3971 -78 c169 -25 346 -114 475 -240 156 -151 258 -355 354 -706 19 -71 43 -166 52 -211 10 -46 19 -82 20 -80 2 2 24 86 50 187 124 498 268 755 511 917 102 67 201 107 318 128 522 91 957 -239 1050 -795 26 -150 17 -402 -19 -567 -74 -340 -245 -700 -493 -1040 -121 -166 -252 -318 -538 -628 -56 -60 -142 -155 -191 -210 -49 -55 -129 -145 -179 -200 -217 -241 -339 -412 -437 -612 -33 -68 -63 -123 -67 -123 -4 0 -24 36 -44 81 -48 106 -144 267 -222 371 -98 130 -211 257 -701 793 -419 459 -567 661 -744 1017 -225 455 -292 878 -195 1238 82 304 295 547 565 642 124 44 290 58 435 38z m-1583 -82 c35 -68 50 -86 81 -102 l39 -18 68 27 c55 22 71 25 89 16 36 -20 35 -51 -9 -167 -84 -222 -94 -275 -95 -499 -1 -165 -4 -200 -16 -200 -34 0 -193 326 -239 490 -61 217 -68 466 -14 520 32 32 51 18 96 -67z m5065 60 c31 -35 34 -53 34 -178 -1 -210 -47 -386 -161 -615 -88 -175 -122 -227 -139 -209 -8 7 -8 32 0 90 24 166 -12 387 -95 596 -47 120 -49 149 -12 173 22 15 29 14 90 -9 100 -38 137 -19 192 102 37 79 55 89 91 50z m-5651 -553 c54 -75 96 -105 146 -105 39 0 55 14 87 78 24 48 50 55 73 20 25 -39 98 -238 119 -323 23 -99 25 -180 4 -189 -46 -17 -272 117 -349 207 -71 84 -99 155 -130 340 -4 20 -5 37 -3 37 3 0 26 -29 53 -65z m6174 -72 c-11 -48 -34 -116 -50 -149 -53 -108 -221 -246 -352 -290 -69 -23 -82 -10 -74 71 14 125 106 404 145 440 28 24 54 15 65 -23 25 -89 105 -110 175 -46 22 19 55 58 73 87 31 49 33 50 36 25 2 -14 -6 -66 -18 -115z m-6047 -626 c106 -149 238 -222 321 -177 32 17 66 85 66 132 0 43 20 64 48 49 37 -20 118 -119 155 -188 80 -153 131 -371 93 -402 -21 -18 -61 -11 -173 31 -193 73 -331 176 -427 321 -49 73 -122 217 -141 275 -12 40 13 22 58 -41z m5942 41 c-4 -13 -31 -74 -60 -135 -64 -135 -146 -247 -229 -314 -71 -57 -253 -150 -343 -175 -114 -31 -136 -5 -108 129 33 161 110 321 197 410 72 73 88 72 104 -6 20 -102 54 -140 126 -139 82 1 172 66 253 180 51 73 71 90 60 50z m-5050 -852 c84 -84 198 -270 250 -408 14 -39 15 -51 5 -63 -38 -46 -278 24 -474 137 -37 22 -102 75 -145 117 -82 83 -195 234 -189 252 2 7 35 -16 73 -50 91 -80 190 -131 257 -131 43 0 54 4 84 34 31 31 34 39 34 93 0 33 3 63 7 66 17 18 49 2 98 -47z m4216 -24 c4 -56 10 -78 26 -94 26 -26 106 -35 156 -19 48 16 140 77 205 136 29 26 55 45 58 42 11 -11 -118 -186 -190 -259 -112 -112 -277 -201 -463 -249 -128 -32 -173 -22 -158 38 26 107 177 355 262 433 79 72 96 67 104 -28z m-3724 -653 c92 -64 232 -222 286 -324 44 -83 49 -102 30 -121 -14 -14 -31 -16 -98 -11 -158 12 -395 103 -536 208 -77 57 -259 244 -259 266 0 10 15 3 41 -19 122 -99 225 -151 316 -156 58 -4 64 -2 93 26 32 33 39 76 20 128 -7 18 -7 30 1 40 13 16 43 6 106 -37z m3233 -3 c-34 -91 9 -156 105 -156 87 0 200 55 318 152 27 23 47 34 47 26 0 -20 -175 -204 -247 -258 -134 -102 -339 -188 -505 -211 -144 -21 -173 3 -122 103 74 146 236 322 349 378 33 16 42 17 53 7 10 -10 10 -20 2 -41z m-2641 -634 c30 -19 81 -60 114 -91 105 -100 233 -287 225 -329 -5 -25 -52 -31 -151 -21 -221 22 -436 113 -604 254 -96 81 -181 170 -171 180 2 3 39 -20 82 -49 92 -65 190 -106 268 -113 129 -12 168 31 136 152 -10 38 -10 48 1 55 18 10 33 5 100 -38z m2050 34 c8 -10 7 -24 -4 -56 -21 -59 -19 -84 8 -116 62 -72 257 -25 424 103 106 81 31 -23 -99 -138 -141 -124 -249 -182 -440 -235 -122 -33 -314 -46 -324 -20 -9 24 1 54 43 124 80 131 222 275 328 330 48 25 50 26 64 8z m-1489 -694 c65 -59 113 -134 146 -232 28 -84 30 -108 9 -117 -20 -7 -180 62 -300 129 -131 74 -298 199 -284 213 4 3 39 -11 78 -32 93 -48 186 -58 221 -23 20 20 22 29 16 75 -3 28 -3 55 0 58 10 10 55 -18 114 -71z m934 14 c-6 -46 -4 -56 15 -73 47 -43 125 -35 237 26 31 17 60 28 63 25 9 -9 -83 -88 -174 -148 -84 -57 -219 -127 -325 -170 -73 -30 -86 -31 -94 -11 -8 21 30 138 67 208 45 87 182 218 209 201 4 -3 5 -29 2 -58z m-878 -547 c86 -68 136 -78 153 -29 9 26 41 43 41 23 0 -5 13 -73 29 -152 17 -80 28 -149 25 -153 -12 -19 -35 -4 -96 60 -109 116 -218 254 -218 277 0 14 31 2 66 -26z m774 22 c0 -17 -105 -150 -195 -247 -97 -105 -122 -116 -117 -49 4 42 50 253 58 267 11 18 32 6 38 -22 9 -45 49 -41 128 14 62 44 88 55 88 37z"/>
<path d="M1757 7930 c-3 -8 -8 -26 -11 -40 -10 -43 -46 -92 -76 -103 -38 -14 -37 -18 3 -37 30 -14 63 -64 83 -125 5 -16 8 -13 18 20 19 62 38 86 80 105 l39 18 -36 15 c-42 18 -66 51 -83 115 -7 27 -14 40 -17 32z"/>
<path d="M8436 7902 c-8 -54 -45 -105 -86 -118 -33 -11 -34 -12 -10 -19 47 -14 85 -63 100 -130 6 -26 8 -27 14 -10 22 64 53 111 83 125 40 19 41 23 3 37 -34 13 -68 63 -76 116 -8 48 -20 47 -28 -1z"/>
<path d="M1516 5615 c-10 -54 -36 -95 -63 -101 -25 -7 -32 -24 -10 -24 24 0 60 -48 73 -97 8 -30 13 -39 13 -24 1 14 10 44 22 68 15 32 29 45 52 52 l32 8 -25 11 c-38 15 -62 47 -75 99 l-12 47 -7 -39z"/>
<path d="M8677 5634 c-4 -4 -7 -16 -7 -26 0 -34 -31 -79 -62 -93 l-32 -13 30 -15 c27 -14 51 -52 67 -107 3 -10 8 -5 16 15 22 59 36 79 64 89 29 11 36 26 13 26 -27 0 -58 37 -70 83 -7 26 -15 44 -19 41z"/>
<path d="M1741 5019 c-2 -48 -40 -155 -71 -198 -33 -44 -112 -101 -142 -101 -29 0 -21 -15 16 -28 93 -34 164 -129 190 -255 13 -61 13 -61 20 -27 16 79 48 158 78 194 36 43 112 96 140 96 10 0 18 5 18 10 0 6 -7 10 -15 10 -26 0 -89 37 -124 72 -44 44 -61 78 -87 173 -12 44 -23 68 -23 54z"/>
<path d="M8446 4995 c-20 -127 -95 -237 -182 -265 -45 -14 -66 -30 -41 -30 30 0 90 -36 128 -77 48 -50 75 -104 92 -189 l14 -69 7 50 c21 136 98 244 201 279 l35 12 -67 35 c-78 39 -124 96 -147 183 -8 28 -18 67 -23 86 l-9 35 -8 -50z"/>
<path d="M2144 4329 c-23 -129 -101 -238 -190 -261 -24 -7 -44 -15 -44 -18 0 -4 17 -12 38 -18 49 -15 115 -72 147 -126 14 -24 34 -76 44 -117 17 -66 20 -71 25 -44 32 147 79 224 162 266 29 14 62 29 75 33 21 6 18 9 -23 20 -60 16 -112 57 -149 115 -27 42 -38 71 -66 180 -8 34 -9 33 -19 -30z"/>
<path d="M8060 4355 c0 -43 -40 -147 -75 -196 -33 -44 -115 -99 -149 -99 -31 0 -16 -17 31 -35 91 -35 161 -130 187 -257 12 -57 14 -60 20 -33 28 127 59 189 122 244 26 23 68 48 93 55 37 11 42 15 26 21 -64 22 -120 53 -142 80 -36 42 -81 140 -89 192 -7 48 -24 68 -24 28z"/>
<path d="M2781 3498 c-15 -76 -55 -168 -95 -215 -30 -36 -136 -93 -175 -94 -19 0 -13 -5 24 -18 138 -47 214 -140 246 -302 l12 -63 13 62 c31 152 115 261 230 297 l58 18 -42 12 c-135 40 -210 135 -246 310 l-13 60 -12 -67z"/>
<path d="M7406 3525 c-4 -16 -12 -50 -17 -74 -29 -126 -112 -220 -225 -254 -49 -15 -49 -15 -19 -22 56 -14 121 -53 159 -95 45 -50 68 -99 92 -195 l17 -69 13 61 c32 158 116 261 239 294 l40 11 -42 13 c-129 39 -210 145 -242 316 -8 43 -8 43 -15 14z"/>
<path d="M3293 2869 c-14 -60 -57 -109 -96 -109 -17 0 -12 -5 18 -19 45 -21 63 -46 80 -111 l12 -45 7 35 c14 62 38 100 75 120 29 15 32 19 14 20 -37 0 -82 69 -95 144 -2 10 -9 -6 -15 -35z"/>
<path d="M6948 2863 c-18 -62 -52 -102 -87 -103 -9 -1 0 -9 20 -20 35 -19 59 -59 74 -125 7 -30 7 -29 19 17 16 62 41 97 79 113 25 11 28 14 11 15 -43 0 -81 58 -96 145 -2 12 -10 -6 -20 -42z"/>
<path d="M3837 2598 c-39 -187 -117 -278 -277 -324 -32 -8 -38 -12 -20 -13 43 -2 143 -57 187 -102 56 -59 91 -133 113 -238 10 -47 19 -72 19 -56 1 44 28 142 55 200 42 92 144 172 242 191 l39 7 -46 12 c-154 40 -237 137 -277 324 l-18 82 -17 -83z"/>
<path d="M6378 2600 c-21 -104 -56 -178 -107 -229 -48 -48 -123 -88 -182 -97 l-43 -7 60 -17 c33 -9 76 -26 95 -37 92 -58 159 -170 182 -307 l13 -79 18 84 c23 112 57 184 114 242 54 56 106 86 177 102 l50 12 -44 7 c-154 24 -260 144 -294 331 -5 33 -13 63 -16 67 -4 4 -14 -28 -23 -72z"/>
</g>
</svg>