<svg  xmlns="http://www.w3.org/2000/svg" version="1.0" width="727.180333pt" height="933.809956pt" viewBox="0 0 727.180333 933.809956" preserveAspectRatio="xMidYMid meet" background-color="red" >

<g transform="translate(-163.660471,970.705437) scale(0.100000,-0.100000)" fill="#FFC107" stroke="none">
<path  d="M6817 9650 c-50 -64 -167 -157 -272 -215 -35 -20 -130 -66 -212 -104 -168 -76 -229 -113 -327 -196 -81 -69 -118 -123 -148 -218 -20 -60 -27 -71 -58 -87 -48 -25 -185 -127 -240 -178 -24 -23 -44 -41 -46 -40 -1 2 -26 50 -56 108 -75 146 -104 190 -128 190 -23 0 -61 -54 -147 -209 -32 -57 -63 -106 -69 -108 -17 -6 -24 48 -24 196 0 75 -7 177 -15 228 l-15 92 24 36 c38 56 86 180 86 223 0 23 -6 45 -15 52 -40 33 -76 -32 -84 -150 -3 -48 -10 -84 -16 -83 -5 1 -22 41 -36 90 -46 156 -141 354 -177 368 -35 13 -37 -15 -4 -73 83 -144 140 -291 167 -434 8 -44 14 -83 12 -84 -9 -9 -101 133 -123 188 -28 71 -63 109 -93 101 -56 -14 -14 -123 79 -203 35 -30 79 -83 107 -127 l47 -75 4 -112 c2 -63 1 -107 -4 -103 -5 5 -40 49 -79 99 -79 104 -97 118 -122 102 -19 -11 -59 -121 -88 -239 -10 -38 -19 -72 -22 -74 -2 -3 -18 9 -36 26 -62 58 -208 163 -228 163 -11 0 -23 -10 -29 -24 -17 -47 -33 -232 -28 -343 5 -112 5 -113 -16 -106 -11 3 -51 14 -88 23 l-68 16 75 99 c80 106 91 135 51 135 -23 0 -89 -45 -113 -77 -12 -15 -13 -15 -13 1 0 23 119 306 167 396 69 133 -5 135 -112 3 -25 -30 -45 -49 -45 -43 0 25 22 148 47 261 14 65 23 124 20 133 -4 9 -17 16 -31 16 -26 0 -131 -74 -170 -120 -14 -17 -27 -30 -30 -30 -3 0 -6 74 -6 164 0 173 -6 195 -48 182 -28 -9 -124 -110 -163 -171 -18 -30 -37 -55 -40 -55 -4 0 -9 10 -12 23 -12 58 -61 213 -70 225 -20 26 -47 11 -93 -50 -42 -56 -103 -172 -119 -222 -7 -26 -21 -13 -91 89 -57 82 -82 104 -104 90 -17 -11 -56 -95 -86 -187 -15 -49 -31 -88 -34 -88 -6 0 -111 125 -155 185 -49 67 -77 73 -100 23 -21 -46 -84 -289 -91 -354 l-7 -55 -26 24 c-14 14 -64 52 -110 86 -61 45 -91 61 -110 59 l-26 -3 -3 -179 -2 -178 -38 7 c-36 6 -137 40 -198 65 -41 18 -64 8 -64 -28 0 -26 62 -227 82 -264 8 -16 2 -18 -74 -18 -95 0 -317 -42 -329 -62 -25 -39 45 -118 216 -242 19 -14 19 -15 -10 -21 -85 -19 -163 -47 -169 -60 -3 -9 4 -25 15 -36 22 -22 197 -109 218 -109 29 0 2 -19 -97 -70 -81 -42 -108 -60 -110 -77 -2 -13 4 -26 16 -32 26 -14 147 -41 185 -41 65 0 57 -15 -33 -59 -49 -25 -92 -51 -95 -60 -8 -21 17 -38 72 -46 l45 -7 -32 -33 c-71 -73 -2 -84 118 -19 34 19 77 34 95 34 29 0 26 -3 -43 -44 -152 -89 -158 -131 -13 -98 48 12 113 24 143 28 l55 7 -77 -59 c-133 -102 -99 -120 157 -88 39 4 37 3 -29 -30 -80 -41 -96 -53 -96 -72 0 -24 54 -16 217 35 184 58 243 72 243 60 0 -5 -4 -9 -9 -9 -5 0 -52 -34 -106 -76 -74 -59 -95 -82 -93 -98 2 -12 11 -22 23 -24 17 -2 130 56 284 146 29 17 42 21 38 12 -62 -145 -70 -171 -59 -182 21 -21 61 12 160 132 119 144 162 190 180 190 10 0 8 -7 -7 -26 -22 -28 -29 -84 -11 -84 24 0 68 32 125 90 33 34 72 68 87 76 57 30 130 11 196 -49 l23 -22 -73 -35 c-99 -47 -98 -62 7 -117 44 -24 106 -52 138 -64 32 -12 56 -25 55 -29 -4 -8 -167 -161 -243 -227 -51 -44 -58 -54 -49 -70 16 -28 135 -63 255 -76 l107 -11 -31 -59 c-25 -46 -36 -57 -52 -53 -11 2 -58 14 -104 26 -171 45 -330 11 -488 -105 -10 -8 -23 1 -50 35 -86 105 -174 170 -293 218 -137 54 -266 65 -393 33 -79 -21 -82 -22 -267 -118 -69 -35 -180 -80 -277 -112 -183 -60 -286 -114 -352 -186 -55 -60 -47 -71 47 -56 97 15 173 14 277 -4 116 -21 222 -63 461 -184 169 -87 212 -104 287 -118 75 -15 98 -15 159 -5 40 7 88 22 107 33 18 11 36 18 38 15 10 -10 -127 -242 -178 -301 -29 -33 -38 -69 -19 -80 7 -4 7 -12 0 -25 -14 -25 -13 -40 3 -40 12 0 23 10 146 136 58 60 173 130 192 118 5 -3 9 -19 9 -36 0 -35 -52 -90 -128 -134 -26 -15 -61 -38 -78 -51 -17 -13 -45 -23 -63 -23 -20 0 -34 -6 -38 -16 -8 -23 14 -132 49 -233 15 -47 28 -85 28 -86 0 -1 -60 -5 -132 -9 -95 -4 -153 -2 -204 8 -97 18 -121 4 -91 -54 66 -125 164 -300 180 -323 10 -16 17 -30 15 -32 -2 -2 -73 -9 -158 -15 -210 -16 -219 -22 -152 -107 48 -59 198 -203 212 -203 21 0 0 -18 -27 -24 -16 -4 -72 -28 -126 -53 -67 -32 -97 -52 -97 -64 0 -10 26 -33 62 -57 69 -44 244 -132 264 -132 7 0 15 -4 18 -8 5 -9 -147 -145 -195 -174 -36 -22 -37 -51 -3 -67 55 -25 203 -53 312 -59 l113 -7 -59 -114 -58 -113 -73 -19 c-171 -43 -252 -124 -416 -414 -84 -149 -154 -243 -244 -327 -91 -86 -152 -127 -220 -148 -42 -13 -57 -23 -59 -38 -5 -35 30 -45 142 -40 91 5 121 12 301 71 296 98 329 105 615 137 219 25 335 97 539 339 52 61 98 111 102 111 8 0 15 -26 24 -92 13 -90 46 -88 137 8 34 35 67 64 73 64 21 0 212 -78 306 -125 184 -93 376 -240 476 -367 28 -35 79 -108 114 -163 68 -109 239 -401 239 -409 0 -5 -139 83 -204 131 -23 16 -61 63 -90 111 -66 106 -144 185 -244 245 -153 93 -337 131 -529 109 -263 -30 -406 -119 -618 -385 -111 -138 -212 -233 -315 -295 -81 -48 -191 -93 -221 -90 -15 2 -24 -3 -27 -15 -7 -35 71 -56 270 -72 101 -8 228 -22 283 -30 389 -61 465 -60 830 10 211 41 280 69 424 174 119 86 167 96 296 57 90 -27 89 -24 59 -156 -14 -63 -26 -115 -27 -116 -11 -4 -139 -88 -160 -105 -40 -31 -34 -63 14 -67 31 -3 41 2 70 35 19 21 42 49 52 63 l18 25 -6 -50 c-17 -145 -25 -225 -25 -274 0 -51 -3 -56 -40 -89 -43 -36 -73 -86 -84 -139 -8 -35 7 -73 28 -73 23 0 75 67 86 112 6 24 13 50 16 58 3 9 18 -8 40 -47 19 -34 48 -73 66 -88 27 -23 33 -25 46 -11 13 13 12 20 -8 60 -12 25 -34 55 -48 67 -43 33 -51 58 -51 154 0 101 6 99 40 -11 24 -77 66 -127 101 -122 13 2 24 11 26 20 6 32 -44 122 -101 183 -42 44 -57 67 -57 88 0 70 55 385 69 400 8 9 100 -91 169 -183 83 -112 123 -236 141 -442 25 -268 -22 -577 -115 -760 l-26 -52 33 -28 c19 -15 38 -26 44 -24 15 4 61 87 87 157 20 55 23 60 26 36 3 -25 -19 -226 -34 -318 -6 -35 -4 -38 40 -64 26 -15 49 -26 51 -24 7 8 35 128 35 153 0 14 5 26 10 26 6 0 10 -57 10 -151 l0 -150 53 3 52 3 -2 135 c-2 74 -8 182 -13 239 -6 57 -9 105 -6 108 2 2 11 -22 20 -54 28 -102 48 -167 68 -220 21 -57 23 -57 77 -14 l24 19 -41 138 c-81 273 -121 507 -122 712 0 144 12 204 105 527 36 124 65 232 65 240 0 26 18 25 49 -1 41 -34 45 -68 27 -203 -13 -87 -14 -127 -6 -177 18 -114 50 -168 219 -374 38 -46 103 -141 144 -210 91 -151 141 -210 203 -239 69 -33 79 -24 48 44 -55 120 -67 318 -33 549 38 256 17 366 -91 480 -66 70 -202 140 -314 163 -77 15 -206 66 -206 81 1 14 48 194 53 198 2 3 44 21 93 42 82 34 97 36 189 37 123 0 135 -6 286 -151 160 -154 258 -193 452 -180 51 3 169 9 262 12 156 6 183 4 329 -21 115 -20 180 -26 235 -23 95 6 178 39 187 75 8 30 1 37 -24 24 -29 -15 -113 2 -190 40 -92 45 -195 132 -297 250 -188 218 -260 270 -425 305 -200 43 -484 -39 -709 -202 -57 -42 -82 -54 -110 -54 -20 0 -70 -9 -110 -20 -40 -12 -75 -19 -77 -17 -2 2 20 26 49 53 46 45 60 53 130 68 42 10 77 22 77 27 0 4 -14 12 -31 17 -32 8 -31 8 65 62 100 56 149 100 144 129 -4 22 -41 25 -76 7 -17 -9 -77 -58 -135 -111 -58 -52 -108 -95 -111 -95 -13 0 -4 26 29 97 46 96 52 121 31 129 -37 14 -86 -63 -86 -136 0 -51 -35 -119 -95 -185 -52 -57 -57 -48 -25 55 24 77 124 471 140 552 6 31 17 62 25 68 25 21 156 24 238 6 96 -22 145 -48 282 -151 215 -162 318 -200 540 -199 124 0 156 4 275 33 74 19 171 46 215 61 44 16 132 44 196 64 169 53 274 108 429 227 124 96 174 148 158 164 -3 4 -40 1 -82 -5 -110 -18 -285 -9 -366 20 -87 30 -225 97 -340 166 -253 151 -445 203 -655 175 -168 -23 -271 -69 -445 -199 -69 -52 -141 -102 -160 -112 -50 -25 -189 -65 -197 -56 -9 9 85 196 157 316 59 97 166 243 203 279 23 21 29 22 62 11 58 -19 65 -11 65 77 l0 77 57 58 57 58 102 0 c56 0 109 3 118 6 26 10 19 45 -24 118 -22 37 -40 74 -40 81 0 6 28 39 63 72 44 42 73 62 98 67 43 8 63 28 55 54 -5 16 4 24 55 47 49 22 72 26 114 23 77 -6 116 -36 198 -151 39 -56 101 -132 136 -169 60 -64 92 -81 106 -58 7 12 -49 137 -96 214 -17 26 -28 50 -25 53 3 3 48 -32 100 -78 105 -92 255 -189 292 -189 45 0 28 39 -51 118 -41 42 -74 76 -72 77 1 2 56 -15 121 -37 152 -49 270 -70 387 -66 76 2 94 6 103 21 12 19 2 31 -89 103 l-39 31 111 -5 c166 -7 318 6 346 28 20 17 21 20 5 36 -9 9 -49 36 -89 60 -45 26 -68 45 -59 48 8 3 58 10 110 17 110 13 140 23 140 43 0 18 -105 92 -144 102 -14 3 -26 9 -26 13 0 4 41 27 92 51 140 69 180 96 176 123 -2 17 -13 24 -43 31 -115 25 -226 57 -279 81 l-60 26 94 50 c52 28 117 67 145 87 27 21 67 49 88 62 45 30 57 58 31 77 -10 7 -24 13 -31 13 -19 0 -149 45 -240 83 l-82 34 89 72 c96 77 130 117 130 149 0 26 -49 38 -226 54 l-132 12 41 50 c46 58 107 183 132 270 15 51 15 60 2 73 -13 13 -24 12 -98 -6 -77 -19 -297 -47 -305 -38 -2 2 16 38 39 80 24 42 53 107 65 144 54 174 65 249 36 260 -9 3 -74 -13 -146 -37 -71 -23 -131 -41 -133 -38 -2 2 5 37 16 78 11 41 22 116 26 166 6 88 5 92 -17 104 -21 11 -28 7 -91 -59 l-69 -72 0 35 c0 19 -5 38 -10 41 -13 8 -95 -43 -172 -108 l-58 -48 6 98 c6 88 5 100 -13 122 -12 15 -26 22 -35 18 -9 -3 -42 -50 -74 -104 l-59 -98 -8 94 c-11 127 -25 165 -59 169 -23 3 -29 -3 -51 -50 -13 -29 -37 -86 -52 -126 -16 -39 -30 -70 -32 -68 -3 2 -13 43 -23 90 -11 47 -24 95 -30 106 -12 23 -42 26 -59 6 -15 -17 -67 -245 -87 -378 -8 -56 -16 -104 -18 -105 -2 -2 -31 39 -65 90 -71 108 -106 146 -121 131 -6 -6 -18 -51 -26 -100 -25 -139 -22 -137 -85 -63 -30 35 -79 90 -111 122 -53 55 -55 59 -35 67 164 62 272 125 272 155 0 19 -13 26 -203 122 -2 1 23 28 55 60 67 67 127 140 136 165 10 28 -32 48 -135 65 -51 8 -103 17 -114 19 -21 4 -19 8 27 101 26 54 54 119 60 146 12 41 11 49 -3 63 -15 15 -22 14 -90 -9 -83 -29 -148 -43 -148 -32 0 4 16 47 35 96 40 99 71 228 62 253 -10 25 -32 20 -128 -28 -93 -47 -195 -84 -204 -74 -3 3 -3 46 1 95 l7 90 48 11 c76 18 137 51 201 110 97 91 142 206 188 489 29 183 52 259 120 404 33 69 67 156 75 193 17 74 17 167 -1 173 -6 2 -32 -24 -57 -57z m-86 -289 c-66 -135 -78 -181 -126 -486 -27 -174 -77 -300 -146 -365 -41 -39 -171 -100 -213 -100 -19 0 -25 6 -28 30 -4 25 -1 31 16 35 12 2 50 9 86 16 98 18 150 46 171 94 21 47 13 71 -10 28 -39 -71 -35 -70 -174 -75 -92 -4 -127 -3 -124 5 4 12 63 56 202 151 75 52 169 136 151 136 -4 0 -20 -8 -34 -19 -36 -25 -189 -91 -210 -91 -22 1 68 86 148 140 52 35 150 142 150 164 0 4 -24 -14 -54 -41 -51 -47 -214 -148 -223 -139 -12 12 252 399 349 513 29 34 69 80 87 104 19 23 36 38 38 32 2 -6 -23 -65 -56 -132z m-94 11 c-90 -91 -201 -230 -291 -364 -69 -102 -86 -120 -86 -91 0 73 24 196 50 251 16 34 27 62 25 62 -10 0 -45 -45 -71 -93 -18 -33 -41 -109 -63 -211 -20 -88 -41 -161 -46 -163 -16 -5 -77 146 -77 188 0 19 12 62 27 94 44 100 23 94 -25 -6 -48 -101 -48 -101 -39 -290 3 -65 0 -90 -11 -103 -13 -16 -15 -13 -26 36 -6 29 -19 87 -29 128 -40 179 18 273 246 399 41 22 94 47 117 55 61 22 226 106 302 154 35 23 66 39 69 36 3 -2 -29 -39 -72 -82z m-2927 26 c0 -6 19 -70 42 -142 39 -121 42 -140 43 -241 0 -85 -6 -133 -25 -210 l-25 -100 -5 150 -5 150 -13 -83 c-7 -45 -19 -99 -26 -120 l-14 -37 -6 50 c-4 28 -8 57 -10 65 -3 21 -26 -109 -26 -148 0 -18 -4 -32 -9 -32 -10 0 -21 73 -22 154 0 79 -14 48 -24 -56 -11 -117 -22 -112 -30 16 -12 195 6 347 56 463 42 99 99 168 99 121z m295 -120 c0 -62 2 -171 5 -243 3 -115 1 -135 -17 -175 -21 -48 -93 -154 -99 -147 -2 2 0 28 5 58 15 88 22 210 10 174 -31 -90 -82 -225 -85 -222 -2 2 3 55 11 117 8 63 15 159 15 214 0 99 1 102 41 176 33 60 103 160 112 160 1 0 2 -51 2 -112z m-580 -63 c66 -106 88 -173 88 -275 0 -105 -13 -206 -24 -189 -5 8 -9 32 -10 54 -2 84 -17 92 -18 10 -2 -120 -15 -121 -37 -3 l-19 103 -3 -105 -3 -105 -54 110 c-77 154 -78 159 -65 257 9 74 45 206 66 239 9 14 14 8 79 -96z m-335 -55 c90 -123 161 -252 199 -364 18 -49 30 -91 27 -93 -2 -2 -17 20 -34 49 -17 29 -38 62 -47 73 l-17 20 7 -20 c21 -59 35 -109 31 -113 -9 -8 -28 11 -56 56 -36 58 -37 54 -4 -38 14 -40 24 -84 22 -99 -3 -23 -8 -18 -41 42 -21 37 -40 67 -43 67 -3 0 -4 -19 -2 -42 2 -25 -2 -43 -8 -45 -7 -2 -33 30 -60 71 -26 42 -49 75 -50 73 -5 -5 26 -119 53 -195 14 -40 24 -75 21 -77 -11 -11 -111 157 -130 217 -38 122 -33 239 24 501 10 48 12 50 25 32 8 -11 45 -63 83 -115z m1130 -1 c0 -33 -63 -399 -73 -424 -12 -30 -12 -30 -20 25 -9 67 -30 100 -61 100 -23 0 -23 2 -15 48 12 62 26 98 62 150 57 86 107 132 107 101z m-1443 -255 c99 -100 110 -116 149 -226 15 -40 39 -100 55 -134 50 -105 41 -105 -100 5 -47 37 -113 83 -146 102 -54 31 -61 40 -71 79 -6 25 -13 100 -16 167 -5 122 -5 122 16 111 12 -6 62 -53 113 -104z m2182 -211 c117 -184 113 -167 115 -465 2 -294 6 -292 -75 -35 -22 71 -43 127 -45 124 -3 -2 13 -100 36 -217 22 -118 38 -215 36 -217 -12 -13 -47 80 -122 322 -25 83 -61 188 -81 235 -42 103 -41 123 34 379 6 21 18 6 102 -126z m428 25 c81 -160 88 -191 87 -353 -1 -150 -17 -227 -79 -370 l-25 -60 5 120 5 120 -29 -105 c-42 -148 -42 -150 -53 -150 -6 0 -8 12 -5 29 3 16 8 123 11 237 4 159 3 191 -5 134 -40 -317 -51 -380 -69 -380 -5 0 -7 47 -4 113 3 61 1 130 -4 152 l-10 40 -1 -50 c-2 -66 -27 -205 -39 -217 -13 -13 -28 63 -42 207 -12 118 -6 214 17 285 16 47 174 350 183 350 3 0 29 -46 57 -102z m-1323 55 c11 -47 19 -316 12 -387 -8 -67 -26 -92 -26 -34 0 17 -5 72 -12 122 l-12 91 -13 -144 c-14 -159 -33 -212 -33 -94 0 40 -4 74 -8 77 -5 3 -14 -24 -21 -59 -7 -36 -17 -65 -21 -65 -4 0 -11 30 -16 68 -6 55 -9 62 -14 37 -7 -33 -4 -142 6 -217 3 -27 2 -48 -3 -48 -12 0 -59 152 -67 213 -16 136 45 299 160 426 43 48 59 51 68 14z m1800 -10 c19 -65 39 -213 39 -293 1 -146 -13 -182 -144 -354 -61 -81 -113 -145 -115 -143 -2 2 7 31 21 65 14 34 25 65 25 69 0 4 -27 -36 -59 -88 -84 -133 -129 -170 -81 -67 44 97 163 408 155 408 -2 0 -50 -89 -106 -197 -94 -181 -149 -278 -149 -261 0 4 14 62 30 130 31 125 50 280 50 400 0 62 2 69 39 115 21 26 56 64 77 85 43 40 191 148 204 148 5 0 11 -8 14 -17z m-3354 -73 c137 -51 218 -89 267 -126 31 -23 153 -166 153 -179 0 -3 -29 9 -65 28 -36 19 -65 32 -65 30 0 -3 23 -30 50 -60 57 -62 65 -85 18 -50 -18 13 -55 36 -83 52 l-50 28 73 -77 c41 -43 72 -80 69 -82 -2 -3 -24 7 -48 21 -62 35 -69 31 -24 -15 63 -64 35 -53 -118 47 -129 84 -166 119 -227 214 -49 76 -110 199 -110 221 0 6 7 7 18 3 9 -5 73 -29 142 -55z m2072 -54 c47 -35 102 -84 122 -108 54 -62 121 -207 150 -323 25 -101 56 -264 56 -294 0 -9 -36 52 -78 134 -74 142 -139 255 -147 255 -2 0 8 -26 22 -57 14 -32 40 -98 59 -148 18 -49 48 -128 67 -175 19 -47 38 -96 42 -110 l6 -25 -18 21 c-10 12 -47 59 -83 105 -36 46 -105 125 -153 176 -99 105 -114 132 -133 253 -15 93 -19 360 -6 360 5 0 47 -29 94 -64z m-1098 -101 c-7 -17 -30 -20 -39 -5 -4 6 -4 18 -1 26 4 11 10 12 25 4 12 -6 18 -16 15 -25z m-64 0 c0 -19 -20 -29 -32 -17 -8 8 -7 16 2 26 14 17 30 12 30 -9z m116 -7 c-3 -13 -6 -29 -6 -35 0 -7 -6 -13 -13 -13 -9 0 -14 13 -15 35 -1 29 2 35 19 35 17 0 20 -4 15 -22z m-182 -3 c3 -9 -1 -18 -10 -22 -13 -5 -13 -7 0 -22 9 -10 12 -22 7 -30 -11 -17 -41 -7 -41 14 0 8 -6 24 -12 35 -11 17 -10 22 2 30 23 14 47 12 54 -5z m234 -13 c2 -12 -1 -22 -6 -22 -15 0 -34 28 -27 40 10 17 30 6 33 -18z m60 -15 c2 -12 -3 -17 -17 -17 -12 0 -21 6 -21 13 0 31 32 34 38 4z m-374 -2 c8 -21 -28 -39 -43 -22 -8 10 -7 17 1 25 16 16 35 15 42 -3z m201 -16 c0 -7 -8 -15 -17 -17 -18 -3 -25 18 -11 32 10 10 28 1 28 -15z m-65 -4 c0 -8 -7 -15 -15 -15 -8 0 -15 7 -15 15 0 8 7 15 15 15 8 0 15 -7 15 -15z m-192 -41 c3 -23 -18 -37 -43 -28 -16 6 -20 35 -8 48 14 14 48 1 51 -20z m71 17 c17 -11 7 -41 -14 -41 -9 0 -15 9 -15 25 0 27 6 30 29 16z m-933 -12 c88 -15 92 -17 153 -73 31 -28 81 -68 111 -89 l55 -38 -65 8 c-95 12 -186 10 -267 -6 -69 -13 -72 -13 -110 10 -21 12 -76 52 -122 88 -96 74 -97 72 34 95 100 18 136 19 211 5z m1040 -35 c-3 -8 -10 -14 -16 -14 -17 0 -23 29 -9 46 11 14 13 14 22 -1 5 -9 6 -23 3 -31z m2770 -65 c18 -268 -74 -451 -287 -574 -43 -25 -81 -45 -85 -45 -4 0 12 17 37 37 62 52 135 130 171 183 29 43 28 42 -38 -22 -69 -66 -210 -178 -226 -178 -13 0 24 71 87 165 56 84 85 132 85 141 0 3 -21 -19 -46 -48 -57 -65 -198 -208 -201 -204 -9 9 79 187 132 266 70 105 342 397 357 382 4 -4 11 -51 14 -103z m-3006 52 c0 -28 -26 -47 -45 -31 -11 9 -12 17 -4 31 13 25 49 25 49 0z m175 -7 c0 -10 -8 -20 -17 -22 -18 -3 -26 27 -11 42 12 11 28 0 28 -20z m427 -24 c30 -14 37 -32 63 -153 22 -105 17 -125 -19 -64 -30 51 -43 57 -26 13 5 -15 10 -37 10 -49 0 -21 -1 -21 -25 5 -14 15 -25 35 -26 45 0 10 -3 13 -6 6 -2 -7 3 -47 11 -89 9 -43 14 -79 12 -82 -3 -2 -19 24 -36 58 -17 34 -33 60 -35 58 -2 -2 6 -55 19 -118 13 -63 22 -117 20 -119 -5 -6 -52 102 -80 185 -20 61 -24 92 -24 191 0 65 3 128 6 140 6 21 6 21 57 3 29 -10 64 -23 79 -30z m-497 5 c0 -28 -29 -25 -33 3 -3 19 0 23 15 20 10 -2 18 -12 18 -23z m223 1 c3 -12 -1 -17 -10 -14 -7 3 -15 13 -16 22 -3 12 1 17 10 14 7 -3 15 -13 16 -22z m-290 -39 c4 -31 -14 -36 -34 -10 -9 13 -9 22 -2 31 16 19 33 9 36 -21z m173 -10 c-18 -18 -38 8 -21 28 12 15 14 15 23 0 6 -11 5 -21 -2 -28z m59 28 c0 -8 -7 -15 -15 -15 -8 0 -15 7 -15 15 0 8 7 15 15 15 8 0 15 -7 15 -15z m-326 -4 c3 -4 -1 -17 -9 -27 -10 -15 -16 -16 -26 -7 -6 6 -9 19 -6 27 7 17 32 22 41 7z m41 -41 c10 -16 -16 -43 -28 -31 -11 11 -2 41 12 41 5 0 13 -5 16 -10z m105 -21 c0 -23 -23 -25 -41 -3 -10 13 -10 17 1 24 19 12 40 1 40 -21z m68 -12 c2 -10 -3 -17 -12 -17 -18 0 -29 16 -21 31 9 14 29 6 33 -14z m82 8 c0 -8 -7 -15 -15 -15 -8 0 -15 7 -15 15 0 8 7 15 15 15 8 0 15 -7 15 -15z m905 -11 c123 -30 241 -138 415 -380 34 -47 60 -87 58 -90 -3 -2 -51 40 -108 93 l-104 98 77 -114 c43 -63 75 -116 73 -119 -5 -4 -69 44 -116 87 -14 13 -47 42 -75 65 l-50 41 35 -45 c19 -24 61 -73 94 -107 32 -35 55 -63 52 -63 -16 0 -157 77 -211 115 -68 48 -141 123 -177 181 -33 53 -110 243 -103 254 6 10 53 5 140 -16z m-1221 8 c9 -14 -9 -31 -32 -29 -12 1 -22 2 -22 3 0 27 41 47 54 26z m99 -26 c7 -17 -11 -36 -35 -36 -21 0 -24 20 -6 38 16 16 35 15 41 -2z m65 -29 c2 -12 -3 -17 -17 -17 -15 0 -21 6 -21 21 0 25 33 22 38 -4z m-204 4 c9 -13 -3 -39 -20 -45 -20 -8 -29 20 -14 39 14 17 26 19 34 6z m70 0 c3 -4 -1 -17 -9 -27 -10 -15 -16 -16 -26 -7 -6 6 -9 19 -6 27 7 17 32 22 41 7z m-444 -50 c36 -11 74 -28 85 -36 18 -15 18 -16 2 -11 -10 3 -44 3 -75 -1 l-56 -6 79 -22 c122 -32 135 -44 50 -45 l-70 -1 63 -18 c34 -10 65 -21 68 -24 12 -12 -117 -30 -221 -31 -86 0 -127 4 -190 22 -99 28 -265 91 -265 101 0 7 64 30 210 77 63 20 90 24 165 20 52 -2 117 -13 155 -25z m536 8 c10 -17 -13 -36 -27 -22 -12 12 -4 33 11 33 5 0 12 -5 16 -11z m-116 -24 c10 -12 9 -16 -4 -21 -9 -3 -23 -3 -32 0 -13 5 -14 9 -4 21 7 8 16 15 20 15 4 0 13 -7 20 -15z m-60 -26 c0 -20 -24 -26 -35 -9 -8 13 14 42 26 34 5 -3 9 -14 9 -25z m3440 -40 c-28 -82 -74 -169 -114 -213 -24 -27 -48 -40 -106 -56 -41 -12 -152 -60 -246 -107 -199 -99 -247 -107 -117 -18 142 96 228 186 290 304 28 53 29 54 113 81 47 15 110 38 140 52 30 14 56 24 58 23 2 -2 -7 -31 -18 -66z m-3377 -4 c1 -5 -6 -11 -15 -13 -11 -2 -18 3 -18 13 0 17 30 18 33 0z m67 5 c0 -5 -4 -10 -9 -10 -5 0 -11 -9 -14 -20 -3 -11 -10 -20 -15 -20 -7 0 -6 11 1 30 11 28 37 42 37 20z m365 -1 c22 -6 50 -20 62 -31 21 -20 80 -174 70 -184 -2 -2 -23 20 -46 51 -23 30 -44 55 -46 55 -3 0 5 -21 19 -47 13 -27 27 -59 31 -72 7 -23 5 -22 -36 11 -66 53 -73 54 -43 9 33 -51 24 -65 -16 -26 -17 16 -30 25 -30 21 0 -16 30 -63 59 -90 39 -37 40 -51 2 -32 -54 28 -140 116 -164 169 -21 45 -47 137 -47 167 0 14 136 12 185 -1z m-505 -19 c0 -11 -7 -20 -15 -20 -8 0 -15 9 -15 20 0 11 7 20 15 20 8 0 15 -9 15 -20z m60 -46 c0 -8 -9 -14 -20 -14 -19 0 -27 19 -14 33 10 9 34 -4 34 -19z m-60 2 c0 -18 -17 -29 -30 -21 -8 5 -7 11 1 21 15 18 29 18 29 0z m1138 -18 c54 -9 67 -16 100 -52 72 -79 145 -147 196 -180 28 -18 98 -64 156 -102 60 -39 98 -69 90 -71 -9 -2 -61 16 -116 41 -136 60 -342 125 -439 138 -44 5 -93 18 -110 28 -42 26 -175 187 -175 213 0 11 208 1 298 -15z m-1108 -43 c0 -8 -7 -15 -15 -15 -8 0 -15 7 -15 15 0 8 7 15 15 15 8 0 15 -7 15 -15z m-385 -48 c158 3 169 -4 54 -31 -36 -8 -109 -29 -163 -46 -108 -35 -159 -38 -302 -19 -121 15 -129 22 -58 47 33 11 84 30 114 41 47 18 66 20 130 14 41 -5 143 -7 225 -6z m633 -61 c29 -8 72 -26 96 -40 46 -27 143 -132 133 -143 -4 -3 -32 11 -63 31 l-57 38 7 -26 7 -27 -33 17 -33 16 29 -31 c36 -37 29 -48 -14 -26 -45 23 -46 14 -3 -28 20 -20 32 -37 26 -37 -20 0 -129 78 -165 118 -41 45 -91 136 -81 146 11 11 96 6 151 -8z m3313 -54 c-40 -79 -139 -225 -198 -291 -59 -67 -140 -121 -235 -155 -63 -23 -86 -26 -168 -24 l-95 3 160 60 c163 61 179 79 44 50 -41 -9 -94 -19 -119 -21 l-45 -5 78 42 c43 23 76 43 75 45 -2 1 -37 -6 -78 -17 -40 -10 -87 -19 -104 -19 -25 1 -12 10 70 49 55 26 122 56 148 66 25 10 45 19 44 21 -5 5 -193 -44 -230 -60 -21 -9 -43 -16 -50 -16 -35 0 160 154 257 203 76 38 132 54 277 81 73 13 144 29 158 34 41 17 42 15 11 -46z m-3801 14 c0 -2 -19 -16 -42 -30 -24 -14 -54 -35 -68 -46 -22 -18 -17 -17 35 6 121 52 126 52 73 -4 -32 -33 -32 -34 -8 -27 14 4 40 13 57 21 18 7 35 9 38 4 12 -19 -110 -83 -195 -101 -57 -12 -340 -6 -430 9 l-45 8 90 46 c146 74 293 113 443 117 28 0 52 -1 52 -3z m2464 -61 c3 -9 -3 -24 -13 -34 -18 -18 -18 -19 5 -30 27 -12 31 -33 9 -51 -27 -22 -42 -4 -48 56 -3 32 -4 61 -1 66 9 14 42 9 48 -7z m-87 -10 c8 -23 -26 -58 -44 -44 -14 12 -18 41 -6 52 12 13 44 7 50 -8z m162 2 c15 -19 -10 -53 -33 -44 -23 9 -21 57 3 57 10 0 24 -6 30 -13z m88 -13 c7 -18 -6 -45 -25 -52 -18 -6 -36 37 -21 54 15 19 38 18 46 -2z m-1237 -12 c94 -27 266 -97 330 -134 49 -29 52 -33 31 -36 -35 -5 -251 26 -330 48 -36 10 -67 17 -69 16 -6 -6 159 -66 248 -89 105 -28 155 -45 148 -52 -2 -2 -116 -5 -253 -6 -273 -2 -297 2 -430 69 -76 37 -187 114 -178 123 9 8 157 53 223 67 78 17 210 14 280 -6z m868 -21 c4 -22 -18 -51 -38 -51 -15 0 -28 47 -18 64 14 25 52 17 56 -13z m447 -1 c0 -18 -6 -26 -23 -28 -24 -4 -38 18 -28 44 3 9 15 14 28 12 17 -2 23 -10 23 -28z m-2327 -20 c31 -16 71 -41 87 -55 l30 -26 -30 7 c-16 4 -40 11 -53 15 -40 15 -44 10 -15 -17 l28 -25 -42 5 c-24 4 -43 4 -43 1 0 -3 25 -17 57 -30 31 -14 54 -27 51 -30 -3 -3 -29 -1 -58 5 -29 5 -59 10 -67 10 -27 0 -3 -17 42 -30 55 -15 43 -30 -25 -30 -81 0 -162 51 -220 138 l-31 47 68 22 c97 31 151 30 221 -7z m2376 4 c20 -8 21 -38 1 -54 -32 -26 -63 18 -33 48 14 14 12 14 32 6z m-430 -20 c4 -9 1 -23 -5 -30 -9 -11 -8 -18 1 -29 16 -19 3 -55 -20 -55 -11 0 -24 9 -30 20 -8 16 -7 22 9 32 18 11 19 14 5 29 -8 9 -12 24 -8 33 8 21 40 21 48 0z m66 -9 c0 -18 -5 -25 -20 -25 -15 0 -20 7 -20 25 0 18 5 25 20 25 15 0 20 -7 20 -25z m164 9 c3 -9 6 -25 6 -35 0 -16 -6 -20 -27 -17 -22 2 -29 9 -31 30 -3 25 3 30 39 37 4 0 10 -6 13 -15z m91 -19 c0 -22 -31 -33 -48 -16 -7 7 -6 15 3 26 17 21 45 15 45 -10z m-478 0 c3 -9 -3 -25 -13 -36 -15 -17 -20 -18 -32 -5 -19 19 -6 56 19 56 11 0 22 -7 26 -15z m-2153 -25 c-23 -23 -222 -88 -289 -94 -88 -8 -70 3 60 38 55 14 127 35 160 45 71 23 83 25 69 11z m2674 -24 c4 -19 -13 -36 -35 -36 -14 0 -18 42 -6 54 12 12 38 1 41 -18z m-452 -40 c-8 -33 -50 -36 -66 -6 -13 24 -6 38 24 50 29 11 51 -11 42 -44z m207 42 c7 -20 -12 -48 -33 -48 -24 0 -33 15 -25 40 7 22 50 28 58 8z m352 -12 c0 -10 -7 -24 -17 -29 -22 -15 -48 7 -41 34 7 27 58 23 58 -5z m-707 -20 c-2 -15 -10 -21 -28 -21 -19 0 -24 4 -22 20 7 40 56 41 50 1z m429 8 c3 -8 -1 -23 -10 -31 -19 -20 -47 -10 -47 16 0 30 46 43 57 15z m89 -2 c15 -9 0 -50 -22 -59 -24 -9 -44 17 -33 45 8 22 34 29 55 14z m-468 -40 c4 -28 -31 -48 -48 -27 -10 13 -9 19 5 35 22 24 39 21 43 -8z m737 12 c19 -19 4 -44 -26 -44 -23 0 -36 39 -18 51 19 12 25 11 44 -7z m-2733 -21 c28 -15 30 -18 13 -21 -40 -8 -39 -22 1 -23 33 -1 30 -3 -26 -13 -74 -13 -71 -21 13 -31 94 -12 52 -27 -85 -32 -68 -2 -167 -5 -221 -7 l-98 -3 33 34 c43 44 117 91 171 109 53 17 155 11 199 -13z m3740 15 c40 -6 75 -13 77 -15 8 -6 -51 -73 -105 -119 l-56 -48 -147 -13 c-220 -18 -218 -18 -136 24 49 25 91 57 140 109 79 84 86 85 227 62z m-1177 -28 c0 -20 -6 -26 -28 -28 -18 -2 -29 2 -33 12 -11 28 4 48 33 44 22 -2 28 -8 28 -28z m100 -17 c7 -36 -6 -49 -34 -34 -29 16 -33 39 -10 62 24 24 34 17 44 -28z m-370 16 c4 -5 4 -21 1 -35 -5 -19 -13 -24 -37 -24 -34 0 -46 19 -29 49 11 22 54 29 65 10z m-120 -29 c0 -20 -6 -26 -28 -28 -32 -4 -46 20 -26 44 19 24 54 14 54 -16z m-90 -1 c11 -35 -31 -53 -55 -24 -10 12 -10 18 0 30 18 22 48 18 55 -6z m295 6 c17 -20 5 -45 -20 -45 -11 0 -23 7 -26 15 -6 15 11 45 26 45 4 0 13 -7 20 -15z m-462 -39 c-3 -27 -7 -31 -33 -31 -38 0 -47 35 -14 58 31 22 51 11 47 -27z m562 19 c17 -21 5 -45 -24 -45 -27 0 -42 26 -25 46 15 18 33 18 49 -1z m310 -5 c0 -24 -29 -38 -40 -20 -12 19 -1 40 21 40 12 0 19 -7 19 -20z m-225 -20 c8 -25 -1 -40 -25 -40 -27 0 -32 13 -14 38 19 27 31 28 39 2z m163 -7 c-3 -31 -34 -44 -44 -19 -9 24 3 46 26 46 17 0 21 -5 18 -27z m-734 8 c9 -14 -4 -41 -19 -41 -18 0 -28 17 -21 35 6 17 32 20 40 6z m651 -36 c0 -23 -34 -33 -45 -14 -13 20 1 40 24 37 13 -2 21 -10 21 -23z m-310 -10 c0 -30 -39 -27 -43 3 -3 20 0 23 20 20 15 -2 23 -10 23 -23z m-750 -7 c84 -19 52 -28 -108 -29 -73 0 -152 -4 -177 -8 -41 -7 -37 -8 50 -15 92 -7 196 -20 253 -32 40 -8 33 -24 -10 -24 -78 0 -300 -32 -394 -55 -54 -14 -113 -25 -131 -25 -45 0 -116 23 -203 64 l-70 34 80 37 c159 75 164 75 420 71 146 -3 252 -9 290 -18z m563 10 c17 -17 -4 -48 -33 -48 -20 0 -25 5 -25 23 0 13 3 27 7 30 10 11 38 8 51 -5z m100 0 c18 -23 18 -60 0 -72 -34 -21 -71 26 -54 70 7 17 40 18 54 2z m542 -23 c0 -25 -23 -35 -35 -15 -10 16 2 40 20 40 9 0 15 -9 15 -25z m-354 1 c15 -12 17 -18 8 -33 -17 -27 -58 -24 -62 6 -2 13 2 28 10 32 18 12 21 11 44 -5z m-471 -20 c0 -22 -14 -29 -34 -17 -19 12 -6 43 16 39 10 -2 18 -12 18 -22z m80 14 c9 -14 -13 -50 -31 -50 -17 0 -28 24 -20 45 6 17 42 20 51 5z m502 -17 c8 -20 -20 -45 -40 -37 -16 6 -24 44 -11 56 9 10 45 -4 51 -19z m-673 -6 c8 -13 7 -20 -4 -27 -8 -5 -19 -10 -23 -10 -12 0 -20 28 -13 46 7 19 25 15 40 -9z m763 -30 c-2 -6 -11 -15 -21 -21 -13 -9 -20 -7 -32 8 -18 25 -18 31 3 51 16 16 18 16 35 -5 10 -13 17 -28 15 -33z m71 31 c-5 -34 -38 -37 -38 -4 0 20 5 26 21 26 15 0 20 -5 17 -22z m-363 -8 c8 -13 -13 -40 -31 -40 -17 0 -18 37 -1 43 19 8 25 8 32 -3z m-164 -30 c23 -13 25 -43 3 -61 -31 -26 -70 25 -44 56 15 18 16 18 41 5z m-71 -25 c0 -31 -31 -49 -53 -32 -23 18 -5 57 28 57 20 0 25 -5 25 -25z m398 -18 c-2 -16 -10 -22 -28 -22 -28 0 -39 27 -20 50 18 21 52 1 48 -28z m270 20 c2 -10 -3 -17 -12 -17 -10 0 -16 9 -16 21 0 24 23 21 28 -4z m-843 3 c10 -16 -16 -43 -28 -31 -11 11 -2 41 12 41 5 0 13 -5 16 -10z m745 -15 c0 -16 -27 -32 -37 -22 -3 4 -3 13 0 22 8 20 37 20 37 0z m955 1 c62 -16 188 -71 193 -84 3 -9 -99 -58 -181 -86 -66 -22 -112 -20 -196 9 -115 41 -203 55 -334 55 -112 0 -161 9 -145 25 11 12 251 67 348 80 126 17 253 18 315 1z m-1328 -11 c2 -6 -2 -19 -9 -28 -12 -16 -16 -16 -33 -3 -17 12 -17 16 -6 30 15 18 42 18 48 1z m113 -5 c23 -42 -16 -80 -48 -48 -13 13 -16 50 -5 61 13 14 43 6 53 -13z m-550 -25 c0 -18 -5 -25 -19 -25 -11 0 -23 5 -26 10 -11 18 3 40 25 40 15 0 20 -7 20 -25z m721 -9 c10 -35 4 -46 -21 -46 -22 0 -32 23 -24 56 9 33 35 27 45 -10z m159 -16 c0 -27 -37 -26 -45 0 -3 11 -3 24 0 30 10 16 45 -8 45 -30z m90 15 c0 -18 -5 -25 -19 -25 -11 0 -23 5 -26 10 -11 18 3 40 25 40 15 0 20 -7 20 -25z m-820 -5 c0 -24 -26 -38 -42 -22 -16 16 -2 42 22 42 13 0 20 -7 20 -20z m208 1 c21 -13 10 -46 -16 -49 -24 -4 -38 18 -28 43 6 17 24 19 44 6z m-579 -26 c8 -9 -3 -12 -179 -49 l-175 -36 135 6 c74 3 132 3 129 -1 -4 -3 -67 -28 -140 -55 -74 -27 -130 -49 -126 -50 5 0 62 14 127 30 65 17 134 30 152 29 32 0 32 0 -16 -20 -27 -11 -110 -55 -185 -99 -80 -46 -162 -86 -196 -95 -98 -25 -367 -15 -399 16 -6 6 -6 9 1 9 6 0 69 52 139 115 142 127 193 157 304 181 123 26 409 39 429 19z m1024 1 c8 -20 -20 -43 -35 -28 -14 14 -3 42 16 42 7 0 16 -6 19 -14z m-528 -16 c4 -12 1 -27 -5 -35 -21 -26 -57 6 -44 40 9 22 42 18 49 -5z m204 1 c12 -21 1 -35 -36 -43 -23 -6 -37 20 -26 48 8 20 51 17 62 -5z m156 -12 c0 -15 -7 -25 -18 -27 -22 -4 -33 24 -17 43 18 21 35 13 35 -16z m1960 -76 c4 -58 5 -145 3 -192 -5 -85 -43 -235 -57 -226 -4 2 -13 22 -20 43 -13 38 -14 39 -49 31 l-35 -8 7 60 c3 36 28 119 62 207 31 81 59 157 61 170 11 48 21 17 28 -85z m-2531 62 c6 -18 -29 -41 -39 -25 -10 16 2 40 19 40 7 0 16 -7 20 -15z m83 -19 c-4 -9 -11 -16 -17 -16 -17 0 -24 31 -9 41 18 11 34 -5 26 -25z m2256 -181 c1 -38 -2 -106 -7 -150 -7 -72 -11 -83 -39 -107 -17 -16 -34 -25 -37 -20 -14 16 25 401 47 462 9 24 34 -108 36 -185z m-1848 165 c6 -20 -9 -50 -24 -50 -4 0 -15 6 -25 13 -15 11 -17 17 -7 35 15 28 48 28 56 2z m315 0 c0 -11 -7 -20 -15 -20 -15 0 -21 21 -8 33 12 13 23 7 23 -13z m-181 1 c19 -12 6 -41 -18 -41 -26 0 -36 17 -21 35 14 17 20 18 39 6z m-460 -14 c8 -10 7 -19 -4 -33 -13 -18 -15 -18 -31 -2 -14 14 -15 20 -4 32 15 19 24 20 39 3z m109 -10 c4 -20 -25 -34 -40 -19 -15 15 -1 44 19 40 10 -2 19 -11 21 -21z m89 7 c1 -5 -2 -16 -7 -24 -12 -20 -35 2 -26 25 6 17 27 16 33 -1z m1104 -22 c127 -44 209 -106 331 -249 l77 -90 -46 -7 c-70 -9 -214 -7 -255 4 -20 6 -58 26 -85 45 -183 131 -328 215 -415 240 -32 9 -58 19 -58 22 0 19 261 -45 415 -102 11 -4 5 3 -14 16 -18 12 -90 46 -159 75 l-124 52 53 11 c74 14 213 5 280 -17z m1624 -124 c-20 -78 -39 -146 -43 -149 -4 -3 -32 -25 -62 -49 -30 -24 -72 -59 -92 -79 -21 -19 -38 -30 -38 -24 0 30 66 177 103 231 93 134 159 223 164 219 2 -3 -12 -70 -32 -149z m-2357 119 c2 -12 -3 -17 -17 -17 -12 0 -21 6 -21 13 0 31 32 34 38 4z m1960 -51 c-3 -52 -11 -82 -25 -102 -34 -48 -75 -135 -99 -209 -13 -38 -23 -61 -23 -50 -1 33 46 258 61 291 15 36 80 144 86 144 3 0 3 -33 0 -74z m-1828 40 c0 -18 -16 -29 -30 -21 -13 8 -1 35 16 35 8 0 14 -6 14 -14z m-314 -7 c3 -6 2 -15 -3 -20 -13 -13 -43 -1 -43 17 0 16 36 19 46 3z m2364 -89 c-45 -161 -169 -398 -244 -469 -14 -14 -26 -22 -26 -19 0 3 11 39 24 79 13 41 27 92 31 114 l6 40 -26 -50 c-56 -106 -97 -176 -101 -173 -2 2 3 49 11 104 18 116 60 214 124 286 40 45 209 187 222 188 4 0 -6 -45 -21 -100z m-2493 74 c3 -8 1 -20 -4 -25 -14 -14 -43 0 -43 22 0 24 38 26 47 3z m-337 -14 c0 -13 -7 -20 -20 -20 -13 0 -20 7 -20 20 0 13 7 20 20 20 13 0 20 -7 20 -20z m578 3 c-5 -26 -38 -29 -38 -4 0 15 6 21 21 21 14 0 19 -5 17 -17z m-345 -39 c-3 -8 -9 -14 -13 -14 -14 0 -22 20 -16 37 5 12 9 13 21 3 7 -6 11 -18 8 -26z m-320 12 c7 -18 -1 -26 -25 -26 -18 0 -25 20 -11 33 11 12 31 8 36 -7z m245 -15 c-2 -9 -11 -17 -21 -19 -21 -4 -35 27 -17 38 19 12 42 0 38 -19z m342 15 c0 -20 -26 -40 -35 -26 -10 16 2 40 20 40 8 0 15 -6 15 -14z m-102 -23 c-2 -10 -10 -18 -18 -18 -8 0 -16 8 -18 18 -2 12 3 17 18 17 15 0 20 -5 18 -17z m-748 0 c0 -9 -167 -117 -272 -178 -37 -21 -66 -40 -64 -42 5 -6 170 64 270 114 48 24 90 42 92 40 3 -2 -69 -72 -158 -156 -197 -184 -227 -201 -347 -201 -80 0 -155 11 -168 24 -10 9 27 57 106 136 69 69 90 83 241 158 91 45 192 89 225 96 74 18 75 18 75 9z m1048 -10 c-2 -10 -10 -18 -18 -18 -8 0 -16 8 -18 18 -2 12 3 17 18 17 15 0 20 -5 18 -17z m293 -12 c75 -25 264 -122 324 -165 63 -45 179 -195 163 -211 -2 -3 -31 7 -64 21 -40 17 -65 35 -77 56 -14 25 -22 29 -43 24 -21 -6 -39 5 -112 68 -48 41 -127 103 -176 138 -122 87 -126 108 -15 69z m-921 -22 c0 -20 -24 -26 -35 -9 -8 13 14 42 26 34 5 -3 9 -14 9 -25z m518 8 c2 -10 -3 -17 -12 -17 -10 0 -16 9 -16 21 0 24 23 21 28 -4z m-131 -12 c7 -20 -2 -29 -21 -22 -9 4 -13 13 -10 22 8 19 23 19 31 0z m-137 -20 c0 -8 -7 -15 -15 -15 -8 0 -15 7 -15 15 0 8 7 15 15 15 8 0 15 -7 15 -15z m-332 -12 c5 -17 -26 -29 -40 -15 -6 6 -7 15 -3 22 9 14 37 9 43 -7z m250 -20 c-5 -26 -38 -29 -38 -4 0 15 6 21 21 21 14 0 19 -5 17 -17z m286 9 c2 -4 1 -14 -4 -21 -11 -19 -41 -6 -34 14 6 16 29 20 38 7z m1546 -257 c10 -30 22 -74 25 -97 7 -46 -11 -207 -24 -221 -5 -5 -12 27 -16 70 -10 108 -23 136 -25 53 -1 -36 -5 -83 -9 -105 -7 -37 -8 -34 -19 50 -6 50 -16 144 -22 210 -6 66 -20 160 -31 210 -10 49 -19 92 -19 95 0 16 124 -219 140 -265z m-1675 245 c3 -6 -1 -13 -10 -16 -19 -8 -30 0 -20 15 8 14 22 14 30 1z m223 -8 c2 -7 -6 -12 -17 -12 -21 0 -27 11 -14 24 9 9 26 2 31 -12z m345 -8 c21 -14 36 -28 33 -31 -5 -6 -96 44 -96 52 0 12 29 3 63 -21z m2317 9 c-1 -34 -69 -227 -110 -309 -40 -82 -61 -112 -113 -160 -53 -50 -206 -144 -232 -144 -5 0 16 26 46 58 74 78 123 140 143 182 l17 35 -25 -31 c-34 -41 -172 -147 -186 -142 -6 2 10 28 37 59 26 30 64 75 83 99 l35 45 -112 -78 c-170 -117 -174 -104 -17 56 l99 100 -97 -67 c-54 -37 -98 -63 -98 -58 0 4 27 40 60 80 97 115 208 191 359 248 91 34 111 39 111 27z m-3586 -91 c-27 -37 -89 -112 -138 -167 -49 -55 -108 -129 -132 -165 -23 -36 -53 -75 -66 -87 -25 -24 -117 -68 -125 -60 -9 10 39 162 61 194 12 17 40 47 63 65 22 18 76 63 119 100 143 122 259 209 262 198 2 -5 -18 -40 -44 -78z m456 73 c0 -8 -7 -15 -15 -15 -8 0 -15 7 -15 15 0 8 7 15 15 15 8 0 15 -7 15 -15z m305 -35 c0 -7 -6 -15 -12 -17 -8 -3 -13 4 -13 17 0 13 5 20 13 18 6 -3 12 -11 12 -18z m450 -20 c27 -38 29 -60 6 -45 -16 9 -53 85 -43 85 5 0 22 -18 37 -40z m-795 5 c0 -8 -7 -15 -15 -15 -8 0 -15 7 -15 15 0 8 7 15 15 15 8 0 15 -7 15 -15z m1034 -81 c47 -38 85 -72 86 -75 0 -11 -82 -61 -93 -56 -23 9 -117 190 -117 225 0 5 36 -22 124 -94z m-3234 51 c120 -43 191 -85 255 -150 57 -58 95 -118 82 -132 -4 -3 -33 17 -65 46 -35 30 -107 74 -179 110 -78 39 -130 71 -151 95 -38 43 -48 46 -28 9 21 -41 63 -76 133 -113 35 -18 78 -48 97 -66 42 -41 100 -123 92 -131 -8 -8 -57 14 -174 79 -139 78 -157 90 -230 166 -35 35 -65 62 -69 59 -9 -10 112 -151 179 -208 93 -80 103 -89 92 -89 -37 1 -102 26 -150 56 -77 49 -180 96 -201 92 -13 -2 -5 -11 27 -30 25 -15 66 -45 92 -66 37 -31 44 -41 32 -46 -16 -6 -78 18 -210 80 -82 39 -171 61 -186 46 -6 -6 6 -13 34 -20 24 -6 66 -26 93 -43 28 -18 74 -42 103 -54 29 -13 53 -26 53 -31 -1 -21 -131 -15 -223 10 -171 47 -352 69 -453 57 -47 -6 -45 -7 40 -14 119 -9 311 -42 399 -69 39 -11 98 -26 131 -33 l60 -12 -30 -12 c-18 -8 -48 -10 -75 -6 -32 4 -41 3 -30 -4 22 -15 96 -13 128 3 51 26 161 39 270 33 58 -3 110 -11 116 -17 7 -7 -2 -10 -29 -10 -43 0 -226 -50 -272 -73 -27 -14 -72 -57 -60 -57 3 0 26 9 51 20 74 31 406 83 406 63 0 -12 -148 -63 -182 -63 -13 0 -30 -5 -38 -10 -20 -13 109 -13 170 1 83 18 120 22 120 13 0 -25 -36 -54 -97 -80 -61 -25 -80 -28 -183 -29 -133 0 -135 0 -349 122 -220 125 -363 174 -571 197 l-115 12 80 31 c44 17 111 39 147 47 145 34 292 93 408 165 116 72 186 93 295 88 65 -4 111 -12 165 -32z m2879 -62 c40 -71 50 -103 32 -103 -11 0 -76 126 -85 165 -10 41 4 25 53 -62z m1151 -128 c6 -99 10 -218 8 -265 l-3 -85 -13 54 c-26 110 -35 199 -34 343 0 145 7 192 23 152 4 -11 12 -101 19 -199z m-2153 163 c-2 -7 -39 -64 -81 -127 l-77 -114 71 63 c39 35 87 83 107 106 31 38 68 63 78 52 2 -2 -9 -24 -24 -48 -43 -71 -105 -186 -95 -177 5 4 46 44 92 90 45 45 82 75 82 67 0 -15 -94 -166 -166 -268 -21 -29 -62 -69 -92 -88 -76 -51 -298 -152 -309 -141 -4 5 38 127 65 189 26 60 51 94 132 188 147 169 235 252 217 208z m959 -173 c81 -169 93 -281 53 -503 -13 -73 -27 -132 -30 -132 -16 0 -59 188 -59 258 0 26 -3 33 -11 25 -8 -8 -10 -58 -8 -156 3 -106 1 -140 -7 -128 -23 34 -56 132 -73 217 -26 122 -35 89 -28 -98 4 -120 3 -147 -7 -139 -22 18 -75 143 -96 226 -39 152 -23 241 86 465 l75 155 31 -50 c17 -28 51 -90 74 -140z m144 128 c0 -22 -16 -15 -28 12 -17 36 -15 41 8 20 11 -10 20 -24 20 -32z m135 -70 c13 -39 29 -92 35 -118 12 -52 13 -49 -132 -405 l-63 -155 1 275 c0 259 2 278 22 323 35 78 94 169 103 160 5 -5 20 -41 34 -80z m1326 -33 c19 -74 20 -91 10 -154 -7 -39 -21 -90 -33 -114 -23 -49 -130 -170 -136 -154 -2 6 9 34 23 62 29 57 46 100 41 100 -2 0 -23 -29 -46 -65 -24 -36 -45 -64 -47 -61 -4 3 13 105 33 206 4 19 4 33 2 30 -8 -7 -56 -130 -64 -163 -3 -15 -11 -30 -16 -33 -6 -4 -8 1 -5 12 3 11 8 46 12 79 9 82 34 182 56 228 21 40 129 131 141 119 4 -4 17 -46 29 -92z m-522 -51 c6 -74 19 -179 31 -233 11 -55 18 -101 16 -103 -2 -2 -13 11 -25 30 -11 18 -30 42 -41 52 -20 18 -22 18 -49 2 -16 -9 -31 -14 -34 -11 -3 3 -3 50 0 104 8 136 14 134 -197 50 -140 -56 -144 -57 -164 -29 -16 24 -24 139 -8 139 4 0 41 -13 82 -30 103 -40 170 -40 170 2 0 10 -16 44 -35 74 -19 30 -35 57 -35 59 0 3 33 5 73 6 39 1 101 6 137 13 36 6 66 11 67 11 2 -1 7 -62 12 -136z m-1759 74 c0 -15 -49 -189 -69 -243 -14 -39 -25 -55 -38 -55 -14 0 -18 7 -16 29 2 28 61 192 90 249 12 25 33 37 33 20z m-1298 -31 c89 -35 218 -107 173 -97 -185 41 -395 59 -410 35 -4 -6 24 -10 76 -10 67 0 101 -6 188 -36 58 -19 111 -40 116 -46 12 -13 -131 -4 -185 12 -54 15 -202 12 -244 -5 -45 -19 -47 -27 -4 -14 48 13 116 11 178 -6 146 -42 147 -42 120 -48 -14 -3 -82 -11 -152 -17 -70 -6 -166 -18 -213 -26 -47 -8 -90 -12 -95 -9 -6 3 -10 1 -10 -6 0 -8 56 -9 227 -4 259 9 252 12 132 -71 l-72 -49 -105 3 c-63 1 -119 -2 -141 -10 -35 -12 -35 -12 57 -23 137 -18 140 -30 11 -45 -111 -13 -184 -41 -247 -96 -61 -53 -70 -80 -13 -35 70 56 142 82 213 79 l63 -3 -67 -33 c-55 -28 -70 -31 -88 -22 -24 13 -38 6 -49 -22 -4 -12 -46 -37 -111 -67 -58 -27 -107 -47 -109 -45 -2 2 7 18 21 36 55 75 107 169 147 268 67 165 100 219 181 301 75 76 117 102 200 125 75 20 132 17 212 -14z m2510 -121 c-16 -158 -35 -205 -113 -281 -77 -76 -152 -171 -198 -252 -38 -68 -63 -77 -54 -20 15 105 143 424 201 501 58 77 167 184 170 166 2 -8 -1 -60 -6 -114z m-1008 12 c48 -54 95 -116 106 -138 10 -22 26 -83 34 -136 9 -52 31 -148 49 -212 18 -64 31 -117 27 -117 -7 0 -52 71 -109 173 -18 31 -35 57 -37 57 -3 0 0 -10 7 -22 6 -11 24 -60 39 -107 16 -47 31 -94 35 -103 16 -41 -18 -12 -86 72 -40 50 -74 90 -76 90 -1 0 9 -26 23 -57 58 -127 67 -153 60 -160 -14 -14 -122 112 -155 179 -35 70 -60 189 -61 282 0 53 24 253 35 284 2 6 8 12 13 12 5 0 48 -44 96 -97z m120 18 c7 -58 6 -63 -8 -52 -11 10 -16 31 -16 74 0 78 15 63 24 -22z m-469 -43 c-15 -51 -29 -95 -31 -97 -6 -6 -64 21 -64 30 0 5 3 9 8 9 4 0 29 36 56 80 27 44 51 78 53 76 3 -3 -7 -47 -22 -98z m3580 -75 c-50 -111 -98 -178 -173 -239 -39 -32 -63 -44 -86 -44 -18 0 -66 -9 -106 -19 -41 -11 -76 -18 -78 -16 -2 1 25 24 60 51 92 69 92 70 -9 20 -51 -25 -104 -46 -118 -46 -45 0 -37 9 85 92 80 55 135 98 125 98 -3 0 -28 -11 -55 -25 -76 -39 -140 -62 -193 -69 -60 -9 -59 -5 44 91 69 64 83 73 160 96 46 14 135 33 198 42 63 8 117 18 120 20 2 3 15 5 28 5 l23 0 -25 -57z m-4325 35 c-1 -23 -28 -169 -33 -174 -2 -2 -27 17 -56 44 l-51 48 22 21 c26 23 99 72 111 72 4 1 7 -5 7 -11z m2496 -15 c-3 -10 -17 -60 -31 -112 -67 -240 -150 -340 -423 -505 -136 -82 -143 -76 -50 41 34 43 91 109 127 147 l66 69 -60 -43 c-94 -69 -137 -102 -172 -134 -18 -17 -33 -26 -33 -20 0 17 81 159 108 189 15 17 5 10 -21 -15 -26 -25 -66 -72 -87 -105 -22 -33 -54 -69 -71 -79 l-32 -19 6 22 c3 12 27 61 54 108 95 170 283 330 501 429 108 48 126 53 118 27z m-1621 -141 c-15 -15 -21 23 -11 61 l11 42 3 -49 c2 -26 0 -51 -3 -54z m-1114 -46 c-11 -58 -24 -114 -30 -123 -17 -31 -29 22 -19 81 10 55 55 163 64 154 3 -3 -4 -54 -15 -112z m1019 17 c108 -74 115 -80 125 -123 18 -69 48 -131 114 -233 34 -52 61 -100 61 -108 0 -7 -30 16 -66 51 l-66 65 22 -45 c13 -25 34 -62 47 -83 53 -85 2 -46 -110 83 l-48 55 42 -68 c23 -37 39 -71 36 -74 -9 -8 -98 60 -151 117 -66 70 -101 154 -120 282 -18 118 -20 158 -8 158 4 0 59 -35 122 -77z m2526 17 c-8 -71 -27 -128 -62 -188 -27 -46 -56 -54 -62 -17 -2 11 -13 41 -24 68 -18 40 -24 47 -49 47 -16 0 -29 3 -29 6 0 12 83 105 104 116 25 14 72 26 105 27 23 1 23 0 17 -59z m-3638 -2 c-17 -25 -38 -35 -38 -17 0 12 29 38 44 39 5 0 2 -10 -6 -22z m461 -35 c-5 -21 -9 -55 -9 -76 0 -26 -4 -37 -12 -35 -12 4 -67 94 -68 111 0 10 59 36 81 37 14 0 16 -6 8 -37z m470 -63 c5 -41 9 -76 7 -77 -2 -2 -24 6 -51 17 l-47 20 25 43 c13 23 30 53 37 67 16 29 16 28 29 -70z m2021 57 c0 -7 18 -52 40 -102 22 -49 40 -90 40 -92 0 -2 -23 -3 -50 -3 -36 0 -52 4 -56 15 -9 23 7 206 17 199 5 -3 9 -11 9 -17z m-2721 -51 l34 -35 -37 -43 c-20 -24 -53 -67 -73 -95 -20 -29 -40 -53 -44 -53 -21 0 -18 49 5 101 13 31 30 83 36 117 14 70 19 70 79 8z m2596 -18 c-13 -115 -14 -118 -41 -118 l-24 0 19 39 c11 21 25 59 32 85 6 25 13 46 16 46 2 0 1 -24 -2 -52z m933 29 c4 -21 -27 -35 -38 -17 -12 19 0 42 19 38 9 -2 17 -11 19 -21z m80 -41 c5 -24 -10 -38 -31 -30 -17 6 -23 35 -10 48 12 12 38 1 41 -18z m-140 -9 c2 -12 -3 -17 -17 -17 -15 0 -21 6 -21 21 0 25 33 22 38 -4z m-3730 -50 c41 -68 98 -204 116 -275 25 -97 39 -250 33 -354 -5 -99 -21 -146 -31 -97 -16 76 -69 285 -73 289 -3 3 -2 -75 2 -172 4 -98 5 -178 1 -178 -10 0 -48 82 -73 155 l-23 70 6 -55 c4 -30 10 -81 13 -112 4 -32 4 -58 0 -58 -15 0 -90 138 -115 209 -36 104 -43 250 -16 361 12 47 33 112 47 145 14 33 33 77 42 97 8 20 21 34 27 32 7 -3 26 -28 44 -57z m685 -4 c27 -104 29 -115 15 -111 -7 2 -26 30 -41 62 l-28 58 -40 -6 c-31 -5 -40 -3 -37 6 4 12 77 44 104 47 6 1 18 -25 27 -56z m3107 38 c0 -11 -4 -22 -9 -25 -12 -8 -34 21 -26 34 11 17 35 11 35 -9z m-311 -19 c12 -23 41 -163 41 -201 0 -81 -108 -250 -244 -381 -61 -59 -60 -32 2 52 49 66 94 158 106 213 5 24 0 20 -25 -22 -28 -49 -71 -93 -89 -93 -5 0 9 42 29 93 59 144 58 149 -14 47 -78 -110 -74 -105 -79 -99 -6 6 32 145 48 178 7 14 17 37 21 51 8 24 7 24 -17 -5 -13 -16 -34 -46 -46 -65 -27 -44 -28 -22 -1 57 33 99 97 161 186 182 58 14 71 13 82 -7z m456 -2 c0 -9 -11 -16 -27 -18 -23 -3 -28 1 -28 18 0 17 5 21 28 18 16 -2 27 -9 27 -18z m-4138 -65 c-3 -49 -12 -76 -32 -107 -23 -34 -25 -44 -16 -65 12 -25 15 -63 5 -63 -3 0 -19 13 -35 28 l-30 28 40 75 c22 41 43 95 46 122 11 73 29 58 22 -18z m4063 40 c0 -27 -21 -33 -39 -12 -8 10 -7 17 1 25 20 20 38 14 38 -13z m-2987 -21 c135 -57 144 -63 186 -127 43 -67 104 -130 189 -196 75 -57 42 -54 -111 10 -189 79 -201 86 -235 133 -25 35 -102 187 -102 202 0 7 11 4 73 -22z m2905 3 c4 -21 -25 -34 -40 -19 -8 8 -8 16 2 27 16 19 34 15 38 -8z m-3414 -58 c53 -142 70 -328 42 -460 -16 -75 -63 -182 -95 -219 l-22 -25 6 50 c3 28 7 113 10 190 3 112 2 128 -5 80 -11 -66 -55 -229 -70 -254 -6 -11 -9 7 -10 58 0 41 -12 144 -26 229 -24 148 -25 157 -9 205 23 70 121 217 145 217 4 0 19 -32 34 -71z m3624 48 c4 -20 -25 -34 -40 -19 -15 15 -1 44 19 40 10 -2 19 -11 21 -21z m856 6 c17 -9 10 -17 -54 -71 -141 -116 -218 -148 -381 -159 -90 -6 -168 2 -153 17 5 4 43 20 84 34 l75 27 -92 -6 c-50 -3 -94 -2 -97 3 -3 5 36 23 87 41 88 30 134 51 112 51 -5 -1 -57 -7 -115 -15 -58 -7 -109 -10 -113 -6 -17 17 118 76 213 95 46 9 416 -1 434 -11z m-5183 -21 c-13 -46 -41 -92 -54 -92 -6 1 -25 11 -40 24 l-29 23 59 36 c32 20 61 37 65 37 4 0 3 -13 -1 -28z m4249 -2 c0 -11 -6 -20 -13 -20 -19 0 -27 10 -20 26 8 21 33 17 33 -6z m-4209 -75 c-31 -66 -40 -75 -59 -52 -8 9 1 28 36 74 26 34 49 57 50 52 2 -5 -10 -38 -27 -74z m4144 60 c0 -13 -8 -21 -22 -23 -17 -3 -23 2 -23 16 0 10 3 22 7 26 13 13 38 1 38 -19z m81 -43 c-4 -3 -12 0 -19 7 -9 9 -9 14 3 21 11 7 16 5 18 -6 2 -9 1 -18 -2 -22z m94 -6 c-7 -9 -16 -16 -20 -16 -15 0 -20 32 -9 47 11 12 14 12 27 -1 13 -12 13 -18 2 -30z m-3360 -125 c15 -55 20 -108 20 -198 0 -153 -18 -240 -68 -322 -35 -58 -91 -126 -98 -119 -2 2 8 26 21 53 13 28 31 75 39 105 14 50 14 53 0 35 -9 -11 -31 -50 -50 -87 -18 -36 -39 -70 -45 -73 -15 -10 -3 91 21 175 21 74 42 181 36 187 -2 2 -9 -20 -16 -49 -11 -50 -90 -232 -97 -225 -2 2 6 46 16 98 11 52 23 158 27 234 8 157 19 192 97 294 l41 53 18 -43 c10 -23 27 -76 38 -118z m3216 128 c10 -17 -13 -36 -27 -22 -12 12 -4 33 11 33 5 0 12 -5 16 -11z m99 -23 c0 -22 -14 -29 -34 -17 -19 12 -6 43 16 39 10 -2 18 -12 18 -22z m-880 -13 c-116 -179 -195 -243 -372 -302 -83 -28 -244 -57 -277 -49 -8 1 28 25 82 53 116 60 230 125 219 125 -4 0 -71 -27 -147 -60 -77 -33 -152 -62 -167 -66 l-28 -6 25 17 c44 32 135 99 145 108 10 9 1 5 -138 -53 -42 -18 -81 -30 -85 -26 -9 9 26 38 143 118 50 34 116 81 147 105 31 24 67 47 80 52 13 6 106 10 207 10 l183 1 -17 -27z m722 11 c5 -15 -28 -27 -40 -15 -5 5 -6 14 -2 21 8 13 37 9 42 -6z m101 -16 c-4 -29 -38 -38 -38 -10 0 22 8 32 27 32 9 0 13 -8 11 -22z m-4304 -108 c53 -56 87 -102 106 -144 38 -84 96 -244 105 -286 6 -34 5 -33 -35 23 -23 31 -43 57 -45 57 -2 0 5 -18 16 -39 19 -40 43 -131 36 -138 -6 -6 -104 98 -150 159 -21 29 -41 55 -44 58 -13 12 64 -133 113 -212 32 -52 48 -88 40 -88 -37 0 -188 146 -224 216 -48 94 -67 223 -57 390 l7 124 27 -19 c15 -11 62 -56 105 -101z m4426 90 c0 -11 -6 -20 -14 -20 -18 0 -29 16 -21 30 11 18 35 11 35 -10z m-179 -21 c-2 -8 -4 -23 -5 -34 -1 -23 -36 -34 -36 -11 0 8 5 18 11 21 6 4 8 13 5 20 -2 7 -2 16 2 19 10 11 27 -1 23 -15z m-76 0 c10 -15 -1 -23 -20 -15 -9 3 -13 10 -10 16 8 13 22 13 30 -1z m265 -35 c0 -8 -7 -14 -15 -14 -15 0 -21 21 -9 33 10 9 24 -2 24 -19z m-124 4 c7 -10 -20 -38 -38 -38 -10 0 -11 34 -1 43 10 11 31 8 39 -5z m87 -10 c6 -19 -3 -38 -18 -38 -17 0 -38 27 -30 40 9 14 42 13 48 -2z m-2089 -44 c19 -7 21 -41 4 -47 -23 -7 -48 5 -48 22 0 29 14 37 44 25z m2006 -19 c0 -26 -14 -33 -25 -15 -9 14 1 40 15 40 5 0 10 -11 10 -25z m120 0 c0 -30 -15 -33 -30 -6 -14 27 -13 31 10 31 15 0 20 -7 20 -25z m615 5 c33 -5 107 -27 165 -49 58 -22 118 -42 133 -46 15 -3 25 -9 23 -14 -12 -19 -215 -131 -276 -152 -53 -19 -86 -23 -180 -23 -111 -1 -271 24 -295 46 -5 5 4 6 22 2 33 -7 208 10 259 25 20 6 -7 9 -91 10 -122 1 -183 10 -177 27 2 5 41 18 87 29 100 25 122 40 43 31 -63 -8 -148 1 -148 16 0 16 65 37 203 68 176 38 172 38 172 39 0 0 27 -3 60 -9z m-5268 -146 c-4 -4 -134 39 -142 48 -4 4 15 18 42 31 26 14 59 34 73 45 l25 20 3 -70 c2 -39 1 -72 -1 -74z m2651 123 c2 -12 -3 -17 -17 -17 -12 0 -21 6 -21 13 0 31 32 34 38 4z m1949 7 c3 -8 1 -20 -4 -25 -12 -12 -48 14 -39 29 10 17 36 15 43 -4z m-2864 -81 c89 -45 171 -88 182 -97 19 -15 18 -15 -20 -16 -22 0 -75 7 -118 15 -43 8 -82 15 -85 15 -12 0 182 -89 196 -90 6 0 12 -5 12 -11 0 -24 -207 10 -314 51 -25 9 -26 13 -26 85 l0 75 -27 0 c-16 0 -61 -12 -101 -26 -40 -15 -74 -25 -76 -23 -2 2 -6 24 -8 49 -3 42 -2 45 27 52 17 4 67 6 113 4 82 -2 85 -4 245 -83z m715 51 c2 -11 -5 -27 -14 -35 -14 -12 -19 -10 -35 10 -29 36 -25 53 14 49 24 -2 33 -8 35 -24z m-107 -2 c25 -21 21 -52 -8 -52 -24 0 -56 38 -49 56 7 19 29 18 57 -4z m2317 -15 c4 -21 -25 -34 -40 -19 -8 8 -8 16 2 27 16 19 34 15 38 -8z m-2133 -1 c16 -12 17 -16 6 -30 -21 -25 -51 -20 -51 7 0 39 14 46 45 23z m81 -12 c8 -31 -11 -47 -38 -33 -18 10 -24 39 -11 52 16 16 43 6 49 -19z m95 16 c27 -15 24 -39 -6 -50 -27 -10 -55 -4 -55 12 0 16 20 48 31 48 6 0 19 -5 30 -10z m-463 -32 c-4 -30 -48 -39 -48 -10 0 10 3 22 7 25 3 4 15 7 25 7 14 0 19 -6 16 -22z m2352 -8 c0 -19 -11 -26 -23 -14 -8 8 3 34 14 34 5 0 9 -9 9 -20z m-215 -17 c-4 -10 -20 -53 -36 -95 -37 -101 -43 -113 -82 -142 -34 -26 -174 -96 -192 -96 -6 0 17 29 52 64 35 36 63 70 63 75 0 6 -21 -4 -47 -23 -57 -40 -86 -55 -124 -66 -42 -12 -35 1 20 38 27 19 62 47 77 64 l29 31 -41 -26 c-43 -27 -110 -57 -125 -57 -5 0 9 16 31 37 23 20 51 50 63 67 l22 31 -51 -37 c-50 -36 -74 -46 -74 -30 0 20 63 113 89 131 45 32 126 50 235 50 90 1 98 0 91 -16z m-2065 -8 c16 -19 6 -45 -19 -45 -21 0 -33 22 -25 45 8 19 28 19 44 0z m129 -10 c4 -22 -25 -46 -45 -38 -20 7 -17 40 4 52 22 13 36 9 41 -14z m-281 2 c17 -20 -14 -62 -34 -46 -17 14 -18 31 -2 47 15 15 23 15 36 -1z m382 -16 c0 -27 -20 -42 -42 -30 -23 12 -23 35 -1 47 22 13 43 4 43 -17z m238 1 c4 -28 -24 -40 -45 -19 -21 21 -9 49 19 45 15 -2 24 -11 26 -26z m-1281 -39 c-15 -141 -66 -267 -119 -297 -18 -10 -75 -62 -127 -115 -105 -109 -111 -100 -26 44 51 87 105 231 105 280 0 15 12 33 33 49 39 29 130 94 136 95 2 1 1 -25 -2 -56z m3141 45 c-3 -7 -11 -13 -18 -13 -7 0 -15 6 -17 13 -3 7 4 12 17 12 13 0 20 -5 18 -12z m-2410 -21 c2 -11 -3 -17 -16 -17 -24 0 -32 8 -25 26 7 20 37 13 41 -9z m462 3 c0 -15 -7 -20 -25 -20 -18 0 -25 5 -25 20 0 15 7 20 25 20 18 0 25 -5 25 -20z m-2793 -37 c106 -44 126 -56 141 -86 6 -12 26 -56 46 -98 23 -50 57 -99 101 -146 36 -39 65 -74 65 -77 0 -14 -29 -3 -90 34 -35 22 -94 51 -130 66 -36 14 -82 33 -102 41 -20 9 -48 32 -62 52 -27 38 -68 148 -80 214 -9 47 -3 47 111 0z m2706 25 c9 -25 -12 -58 -37 -58 -28 0 -40 24 -26 51 12 21 55 26 63 7z m1099 -7 c32 -4 60 -10 64 -14 18 -18 -136 -144 -232 -190 -62 -29 -80 -32 -178 -35 -96 -3 -241 13 -320 35 -43 12 10 22 164 31 181 11 270 30 144 31 -124 1 -285 14 -277 22 4 4 67 23 138 43 72 20 166 47 210 61 84 25 175 30 287 16z m-1323 -21 c21 -11 17 -58 -5 -67 -20 -7 -44 15 -44 42 0 35 16 43 49 25z m371 -21 c0 -16 -29 -22 -45 -9 -22 19 0 43 26 29 10 -5 19 -14 19 -20z m85 11 c0 -22 -39 -19 -43 3 -3 15 1 18 20 15 12 -2 23 -10 23 -18z m-556 -37 c-16 -18 -38 -16 -46 3 -4 11 1 22 13 31 16 12 20 11 31 -3 9 -13 10 -21 2 -31z m-91 13 c2 -10 -1 -23 -7 -29 -15 -15 -46 16 -37 38 8 21 40 15 44 -9z m302 9 c10 -12 10 -18 0 -30 -18 -22 -39 -18 -49 8 -13 34 24 52 49 22z m190 -5 c0 -4 -7 -13 -15 -20 -11 -9 -12 -16 -5 -25 13 -16 -13 -40 -35 -31 -19 7 -20 35 -1 42 8 3 12 12 9 21 -3 8 0 19 7 23 14 9 40 2 40 -10z m-587 -12 c6 -19 -3 -38 -18 -38 -18 0 -28 17 -21 35 7 18 33 20 39 3z m665 -45 c-3 -31 -34 -44 -44 -19 -9 24 3 46 26 46 17 0 21 -5 18 -27z m70 -1 c3 -16 -2 -22 -16 -22 -21 0 -36 25 -26 41 10 17 39 5 42 -19z m-253 -4 c7 -6 5 -13 -5 -21 -9 -7 -14 -20 -12 -29 6 -29 -31 -21 -45 8 -24 51 21 81 62 42z m-258 -4 c3 -9 -3 -25 -16 -37 -22 -22 -22 -22 -36 -3 -13 17 -13 22 2 38 20 22 42 23 50 2z m-653 -30 c43 -13 87 -24 97 -24 11 0 19 -4 19 -8 0 -10 -139 -41 -218 -49 l-54 -6 15 29 c8 16 18 44 22 62 5 26 11 32 23 26 10 -4 52 -18 96 -30z m470 3 c-7 -20 -29 -22 -40 -5 -9 14 27 41 38 30 5 -5 6 -16 2 -25z m84 14 c18 -11 12 -41 -10 -55 -24 -15 -42 5 -34 38 7 27 21 32 44 17z m180 -18 c-2 -20 -9 -28 -23 -28 -14 0 -21 8 -23 28 -3 23 0 27 23 27 23 0 26 -4 23 -27z m76 -1 c8 -13 -5 -52 -18 -52 -24 0 -38 18 -31 39 6 21 39 29 49 13z m406 -7 c13 -16 6 -35 -15 -35 -18 0 -28 17 -21 35 7 19 20 19 36 0z m-170 -10 c20 -24 4 -48 -27 -42 -18 3 -31 0 -40 -11 -9 -13 -16 -15 -30 -6 -26 16 -27 41 -2 54 17 10 23 9 30 -1 7 -11 12 -11 26 4 21 21 27 21 43 2z m-655 -15 c0 -22 -29 -18 -33 3 -3 14 1 18 15 15 10 -2 18 -10 18 -18z m755 -5 c0 -18 -5 -25 -19 -25 -24 0 -33 13 -25 34 10 27 44 20 44 -9z m2527 -56 c84 -33 168 -62 188 -67 20 -4 37 -11 38 -17 3 -13 -117 -62 -211 -86 -43 -11 -112 -20 -156 -20 -76 -1 -83 1 -200 58 -209 100 -231 118 -118 98 81 -15 248 -25 230 -13 -7 4 -20 8 -29 8 -28 0 -181 47 -234 71 l-50 23 65 7 c36 4 124 5 195 2 l130 -5 152 -59z m-2989 42 c8 -4 12 -19 10 -32 -4 -30 -46 -39 -65 -14 -25 35 18 70 55 46z m2307 -5 c45 -10 50 -14 47 -36 -5 -44 -80 -185 -120 -226 -47 -49 -110 -70 -204 -67 -97 3 -114 16 -41 33 32 7 80 23 108 36 50 24 50 24 13 19 -63 -10 -243 -24 -246 -20 -2 2 16 9 39 15 60 15 170 51 139 45 -14 -3 -81 -10 -150 -15 -69 -6 -135 -12 -147 -15 -49 -11 -20 13 40 34 95 33 274 110 258 111 -8 0 -53 -12 -99 -26 -71 -21 -231 -54 -267 -54 -26 0 268 146 325 162 76 20 230 22 305 4z m-2140 -36 c0 -20 -6 -26 -26 -28 -32 -4 -45 21 -22 43 22 23 48 15 48 -15z m1145 -10 c0 -44 -7 -47 -52 -24 l-30 16 33 23 c19 13 37 24 42 25 4 0 7 -18 7 -40z m-1530 -6 c0 -16 -36 -19 -45 -4 -4 6 -1 17 5 26 14 16 40 2 40 -22z m117 15 c16 -16 5 -39 -17 -39 -23 0 -34 16 -26 35 6 18 28 19 43 4z m341 -8 c21 -13 10 -46 -16 -49 -24 -4 -38 18 -28 43 6 17 24 19 44 6z m292 -12 c0 -25 -33 -22 -38 4 -2 12 3 17 17 17 15 0 21 -6 21 -21z m-450 -18 c0 -17 -4 -32 -9 -35 -17 -11 -41 6 -41 28 0 27 8 36 32 36 13 0 18 -8 18 -29z m320 -1 c0 -23 -5 -30 -19 -30 -21 0 -33 22 -25 45 4 8 15 15 25 15 14 0 19 -7 19 -30z m-970 10 c0 -5 -24 -44 -53 -87 -36 -53 -68 -88 -100 -108 -27 -16 -121 -78 -210 -137 -89 -60 -169 -108 -177 -108 -8 1 28 41 80 91 96 91 93 98 -13 27 -32 -22 -60 -38 -62 -36 -2 2 14 27 36 56 22 28 37 52 33 52 -4 0 -35 -24 -68 -52 -64 -56 -67 -49 -13 34 97 151 178 203 376 242 68 14 126 27 129 30 9 10 42 7 42 -4z m140 2 c0 -14 -33 -39 -57 -45 -26 -6 -26 -7 -13 27 7 20 16 26 40 26 16 0 30 -4 30 -8z m758 -15 c2 -12 -3 -17 -17 -17 -15 0 -21 6 -21 21 0 25 33 22 38 -4z m831 -24 c57 -15 245 -105 255 -122 8 -12 -164 -86 -232 -100 -77 -16 -177 -13 -252 8 -91 26 -200 73 -194 83 3 5 56 7 117 4 l112 -6 -110 24 c-60 14 -128 28 -150 32 -36 7 -30 9 52 16 139 12 156 24 48 33 -112 8 -131 13 -116 28 13 13 269 27 361 20 30 -3 79 -11 109 -20z m-1168 1 c17 -21 0 -49 -32 -49 -18 0 -25 6 -27 24 -6 38 34 55 59 25z m497 -23 c-5 -24 -38 -27 -38 -3 0 10 3 21 6 25 11 11 35 -5 32 -22z m-661 3 c3 -8 1 -20 -5 -26 -15 -15 -43 8 -35 28 7 19 32 18 40 -2z m320 0 c7 -20 -9 -36 -29 -29 -10 4 -14 14 -11 26 6 23 31 25 40 3z m-2591 -19 c41 -14 101 -38 132 -54 63 -32 202 -136 202 -152 0 -13 -57 -2 -130 23 -86 30 -170 56 -170 53 0 -5 211 -122 245 -136 l30 -13 -26 -3 c-15 -2 -55 3 -89 12 -34 9 -64 14 -66 12 -6 -5 113 -57 131 -57 8 0 17 -5 21 -11 9 -14 -99 -4 -177 16 -29 8 -54 13 -56 12 -1 -2 35 -20 80 -40 45 -20 98 -43 117 -52 l35 -15 -67 5 c-37 3 -97 15 -134 26 -36 11 -68 19 -70 16 -6 -6 169 -87 189 -87 9 0 17 -4 17 -10 0 -15 -118 -12 -185 5 -158 40 -300 147 -375 283 -19 35 -52 90 -72 123 -21 33 -38 61 -38 62 0 1 86 3 190 5 181 2 194 1 266 -23z m2762 -12 c4 -25 -22 -37 -38 -17 -10 11 -10 17 0 29 17 20 34 14 38 -12z m-558 -14 c0 -5 -9 -9 -20 -9 -19 0 -27 20 -13 33 7 8 33 -11 33 -24z m466 16 c9 -22 -13 -44 -36 -38 -19 5 -27 33 -13 46 12 13 44 7 49 -8z m184 -10 c13 -16 6 -35 -15 -35 -18 0 -26 15 -19 34 8 20 18 20 34 1z m-844 -4 c-6 -8 -91 -31 -117 -31 -6 0 -6 7 1 20 9 16 21 20 66 20 31 0 53 -4 50 -9z m2950 -17 c107 -30 269 -119 328 -178 22 -23 64 -67 91 -97 28 -30 61 -62 75 -72 24 -17 21 -17 -110 -14 -178 5 -298 36 -420 107 -36 21 -98 54 -137 74 -72 36 -93 54 -52 43 12 -3 30 0 40 6 16 10 26 8 52 -7 17 -10 52 -27 77 -38 l45 -19 -40 32 c-60 49 -115 108 -115 123 0 9 46 -10 128 -51 87 -44 116 -56 92 -36 -19 15 -53 44 -75 64 -22 20 -50 44 -62 55 -24 19 -30 34 -14 34 5 0 49 -11 97 -26z m-2618 -7 c2 -12 -3 -17 -17 -17 -15 0 -21 6 -21 21 0 25 33 22 38 -4z m176 -4 c10 -26 -35 -46 -49 -23 -11 17 3 40 24 40 10 0 22 -8 25 -17z m191 -38 c0 -22 -31 -33 -47 -17 -17 17 -1 44 24 40 15 -2 23 -10 23 -23z m81 4 c10 -17 -13 -36 -27 -22 -12 12 -4 33 11 33 5 0 12 -5 16 -11z m-1978 -27 c3 -17 -2 -25 -17 -29 -19 -5 -20 -7 -6 -17 29 -21 -14 -70 -45 -51 -16 10 -12 43 6 53 9 5 14 15 12 23 -8 21 11 51 30 47 9 -2 18 -14 20 -26z m1604 -4 c-9 -9 -15 -9 -24 0 -10 10 -10 15 2 22 9 6 19 5 24 0 7 -7 6 -14 -2 -22z m176 9 c4 -20 -25 -34 -40 -19 -15 15 -1 44 19 40 10 -2 19 -11 21 -21z m-1693 -17 c0 -33 -40 -41 -50 -11 -9 28 2 43 28 39 16 -2 22 -10 22 -28z m1350 10 c0 -8 -8 -16 -17 -18 -13 -2 -18 3 -18 18 0 15 5 20 18 18 9 -2 17 -10 17 -18z m-1525 -5 c0 -9 -7 -18 -16 -22 -18 -7 -39 11 -30 26 11 17 46 13 46 -4z m1280 -2 c0 -5 -26 -19 -58 -32 -75 -32 -89 -45 -37 -37 22 3 69 9 105 12 l65 5 -35 -31 c-90 -80 -267 -137 -391 -127 -88 7 -96 13 -68 43 30 31 204 140 255 158 41 15 164 21 164 9z m-1014 -25 c8 -27 -22 -54 -43 -37 -14 12 -18 41 -6 52 14 15 42 6 49 -15z m1342 -5 c-4 -22 -22 -20 -26 1 -2 10 3 16 13 16 10 0 15 -7 13 -17z m-1700 -20 c-4 -22 -48 -31 -48 -10 0 19 10 27 32 27 13 0 18 -6 16 -17z m79 1 c7 -20 -22 -45 -43 -37 -17 6 -18 25 -2 41 17 17 38 15 45 -4z m2039 5 c10 -17 -13 -36 -27 -22 -12 12 -4 33 11 33 5 0 12 -5 16 -11z m94 2 c0 -5 -6 -14 -14 -20 -16 -13 -32 2 -21 19 8 12 35 13 35 1z m1114 -32 l58 -41 -54 -27 c-29 -15 -67 -36 -85 -46 l-32 -20 -25 24 c-14 14 -26 32 -26 40 1 26 68 111 88 111 11 0 45 -19 76 -41z m1511 11 l90 -29 -92 -1 c-89 0 -94 1 -125 30 l-33 29 35 1 c19 0 76 -14 125 -30z m-2957 -7 c5 -17 -26 -29 -40 -15 -6 6 -7 15 -3 22 9 14 37 9 43 -7z m142 2 c0 -8 -7 -15 -15 -15 -8 0 -15 7 -15 15 0 8 7 15 15 15 8 0 15 -7 15 -15z m638 -15 c74 -24 121 -32 211 -37 64 -3 127 -12 141 -19 46 -23 172 -126 163 -134 -13 -11 -121 -30 -174 -30 -62 0 -80 8 -162 68 -37 28 -105 72 -150 98 -170 98 -171 99 -29 54z m-2735 -14 c7 -18 -20 -49 -38 -43 -18 7 -20 38 -4 54 13 13 35 7 42 -11z m505 -7 c3 -26 -19 -46 -39 -33 -11 6 -12 48 -2 58 15 14 38 0 41 -25z m1237 20 c10 -15 -1 -23 -20 -15 -9 3 -13 10 -10 16 8 13 22 13 30 -1z m925 -54 c205 -103 279 -171 382 -344 28 -47 59 -98 70 -113 l19 -28 -43 0 c-70 0 -211 30 -253 53 -32 18 -51 43 -100 132 -58 106 -148 213 -229 274 -16 12 -27 23 -25 25 6 5 166 -92 220 -133 l44 -35 -45 48 c-25 26 -78 75 -117 109 -114 96 -97 99 77 12z m-2347 33 c15 -23 1 -48 -28 -48 -21 0 -25 5 -25 29 0 41 32 52 53 19z m77 -2 c18 -23 8 -61 -17 -64 -26 -4 -50 35 -40 62 8 20 41 21 57 2z m1450 -1 c0 -8 -7 -15 -15 -15 -8 0 -15 7 -15 15 0 8 7 15 15 15 8 0 15 -7 15 -15z m-1775 -26 c0 -17 -6 -25 -22 -27 -19 -3 -23 1 -23 21 0 25 14 38 35 33 6 -2 10 -14 10 -27z m163 -11 c3 -28 -28 -44 -47 -25 -15 15 -14 23 5 42 22 21 38 14 42 -17z m1932 22 c11 -7 12 -12 3 -21 -13 -13 -33 -4 -33 17 0 16 9 18 30 4z m1822 -5 c230 -21 262 -31 341 -104 34 -33 60 -61 57 -63 -8 -7 -262 12 -295 22 l-30 8 30 2 c19 1 -7 11 -70 27 -55 14 -103 28 -107 32 -4 3 32 5 80 4 l87 -3 -100 25 c-118 28 -220 63 -188 64 12 1 100 -6 195 -14z m-3425 -11 c8 -21 -13 -42 -28 -27 -13 13 -5 43 11 43 6 0 13 -7 17 -16z m1507 1 c3 -9 -1 -18 -10 -22 -19 -7 -28 2 -21 22 8 19 23 19 31 0z m-1917 -11 c7 -18 -6 -45 -25 -52 -14 -4 -35 35 -28 54 7 19 45 18 53 -2z m1813 -8 c0 -8 -5 -18 -11 -22 -14 -8 -33 11 -25 25 10 16 36 13 36 -3z m-2025 -16 c11 -18 -6 -50 -26 -50 -13 0 -19 7 -19 23 0 13 3 27 7 30 10 10 31 8 38 -3z m1605 3 c0 -5 -44 -37 -98 -73 -53 -35 -101 -68 -107 -73 -11 -10 62 19 149 57 71 32 71 32 51 4 -54 -79 -168 -166 -237 -182 -18 -4 -62 5 -133 29 -149 50 -240 61 -347 41 -98 -18 -108 -19 -108 -7 0 5 30 21 66 37 37 15 87 41 112 57 45 28 47 29 104 17 76 -17 242 -7 328 19 76 22 168 57 190 71 18 12 30 13 30 3z m-1542 -12 c21 -13 10 -46 -16 -49 -27 -4 -40 22 -22 43 14 17 20 18 38 6z m492 -16 c15 -18 5 -65 -13 -65 -18 0 -37 21 -37 40 0 16 18 40 31 40 4 0 12 -7 19 -15z m-171 -4 c19 -12 6 -58 -20 -66 -38 -12 -65 35 -37 63 14 14 37 15 57 3z m82 -1 c15 0 10 -36 -6 -50 -21 -17 -45 -5 -45 23 0 29 9 39 28 32 7 -3 18 -5 23 -5z m2107 -50 c139 -116 228 -262 261 -430 27 -137 33 -190 20 -190 -32 0 -257 129 -301 172 -53 52 -107 156 -126 243 -16 71 -25 145 -19 145 4 0 27 -40 52 -89 25 -49 54 -96 65 -106 16 -14 14 -6 -9 52 -44 108 -73 194 -68 200 6 5 8 3 121 -107 l78 -75 -81 116 c-108 155 -107 163 7 69z m-2423 20 c0 -29 -32 -41 -41 -16 -9 24 4 48 23 44 12 -2 18 -12 18 -28z m133 -2 c4 -37 -28 -55 -51 -27 -20 23 -21 31 -5 47 21 21 53 10 56 -20z m379 16 c7 -20 -17 -37 -34 -23 -15 13 -6 39 13 39 8 0 17 -7 21 -16z m1043 -40 c0 -3 -15 -33 -34 -67 -19 -34 -37 -73 -41 -87 -7 -24 -6 -23 15 5 33 43 93 105 101 105 4 0 -4 -39 -17 -87 -13 -48 -20 -91 -16 -95 5 -5 21 21 36 56 26 61 56 103 56 78 0 -19 -29 -146 -49 -215 -27 -92 -59 -143 -129 -208 -48 -45 -183 -129 -206 -129 -11 0 -6 80 10 158 19 93 70 227 114 302 57 98 160 216 160 184z m-1755 -28 c0 -10 -8 -24 -17 -30 -23 -14 -42 5 -33 34 9 27 50 24 50 -4z m-605 -31 c90 -53 157 -78 295 -110 l100 -23 -40 -18 c-36 -17 -68 -19 -300 -19 l-260 0 -50 34 c-55 38 -185 159 -185 173 0 4 82 8 182 8 l181 0 77 -45z m665 9 c0 -10 -8 -20 -17 -22 -18 -3 -26 27 -11 42 12 11 28 0 28 -20z m88 14 c6 -19 -3 -38 -18 -38 -18 0 -28 17 -21 35 7 18 33 20 39 3z m101 -10 c8 -14 7 -21 -6 -34 -30 -30 -75 9 -48 42 16 18 39 15 54 -8z m419 16 c9 -10 -4 -34 -18 -34 -17 0 -28 17 -20 30 7 11 28 13 38 4z m-159 -31 c8 -20 -1 -33 -25 -33 -13 0 -19 7 -19 23 0 13 3 26 6 30 9 9 32 -3 38 -20z m75 18 c17 -11 7 -41 -13 -41 -19 0 -29 17 -22 35 6 17 15 18 35 6z m1801 -73 c22 -46 51 -130 66 -187 23 -90 26 -118 21 -205 -5 -97 -35 -238 -55 -258 -13 -13 -107 102 -160 195 -23 40 -46 97 -52 126 -12 65 -13 331 -1 350 14 21 18 3 32 -121 13 -122 28 -147 30 -50 0 31 4 78 7 105 l7 47 45 -131 c25 -72 46 -123 48 -112 2 11 -6 73 -18 138 -20 116 -25 185 -15 185 3 0 24 -37 45 -82z m-1962 44 c2 -14 -2 -22 -11 -22 -19 0 -40 26 -32 40 11 18 40 6 43 -18z m-80 -20 c3 -18 -1 -22 -22 -22 -31 0 -42 16 -25 36 17 21 43 13 47 -14z m1774 -202 c3 -195 -44 -318 -181 -470 -35 -40 -67 -68 -71 -63 -8 9 -27 150 -36 273 -5 63 -2 109 10 170 18 90 85 248 119 277 19 17 19 17 13 -3 -12 -39 -36 -159 -35 -179 0 -11 10 7 23 40 13 33 34 83 47 110 l24 50 5 -115 5 -115 18 92 c9 51 22 105 29 120 11 28 11 27 20 -22 5 -27 9 -102 10 -165z m2478 159 l95 -49 -55 6 c-92 10 -350 76 -350 90 0 2 48 4 108 3 l107 0 95 -50z m-4489 25 c11 -14 10 -18 -6 -30 -16 -12 -21 -12 -34 0 -12 12 -12 18 -1 30 16 20 24 20 41 0z m83 -20 c12 -12 13 -20 6 -35 -15 -27 -48 -24 -56 5 -11 44 19 62 50 30z m396 -9 c0 -19 -20 -29 -32 -17 -15 15 -2 43 17 36 8 -3 15 -12 15 -19z m-592 -8 c4 -20 -25 -34 -40 -19 -15 15 -1 44 19 40 10 -2 19 -11 21 -21z m499 0 c13 -29 0 -57 -27 -57 -24 0 -38 44 -20 65 18 22 35 18 47 -8z m177 17 c9 -3 16 -12 16 -18 0 -18 -21 -35 -36 -29 -15 5 -19 35 -7 46 8 8 8 8 27 1z m-369 -34 c16 -50 -32 -84 -55 -39 -9 16 -8 25 6 40 22 25 41 24 49 -1z m90 -25 c0 -38 -31 -47 -44 -13 -12 31 -3 50 23 46 16 -2 21 -10 21 -33z m913 -45 c72 -29 132 -56 132 -60 0 -4 -35 -31 -77 -59 -99 -66 -164 -86 -252 -77 -74 8 -207 40 -261 63 -31 14 -33 16 -15 23 11 5 67 9 125 10 l105 1 -65 19 c-36 11 -78 20 -95 21 -19 1 -7 6 35 14 36 7 53 13 38 14 -82 4 -64 30 22 32 l55 1 -40 9 c-22 4 -60 8 -84 8 -34 1 -42 4 -34 12 20 20 83 28 183 25 88 -3 105 -7 228 -56z m-1260 27 c2 -12 -3 -17 -17 -17 -12 0 -21 6 -21 13 0 31 32 34 38 4z m1476 -11 c-6 -16 -44 -23 -44 -8 0 9 42 32 48 27 1 -1 0 -10 -4 -19z m-1404 -6 c0 -5 -5 -12 -11 -16 -12 -7 -31 15 -23 28 6 9 34 -1 34 -12z m75 -26 c0 -22 -5 -29 -20 -29 -23 0 -32 30 -14 51 18 22 34 11 34 -22z m378 22 c5 -13 -10 -36 -24 -36 -10 0 -20 30 -13 41 8 14 31 11 37 -5z m-120 -12 c9 -10 -4 -34 -18 -34 -17 0 -28 17 -20 30 7 11 28 13 38 4z m225 -11 c-2 -10 -12 -18 -23 -18 -11 0 -21 8 -23 18 -3 13 3 17 23 17 20 0 26 -4 23 -17z m-320 -10 c-2 -10 -13 -19 -26 -21 -17 -3 -22 2 -22 17 0 16 6 21 26 21 19 0 25 -5 22 -17z m-89 -22 c8 -14 7 -22 -4 -31 -17 -14 -35 -5 -35 19 0 34 24 42 39 12z m-700 2 c66 -3 119 -8 116 -11 -2 -3 -48 -17 -102 -33 -109 -31 -94 -36 47 -14 52 8 96 12 99 10 5 -6 -86 -46 -157 -70 -29 -9 -52 -19 -50 -21 4 -3 154 35 238 61 l25 7 -20 -20 c-40 -40 -172 -113 -250 -138 -99 -32 -222 -36 -305 -11 -63 20 -222 99 -227 114 -2 5 41 27 94 50 196 82 247 90 492 76z m446 -3 c3 -5 4 -14 0 -20 -8 -13 -35 -1 -35 16 0 16 26 19 35 4z m84 -24 c9 -10 8 -16 -4 -26 -19 -16 -41 1 -32 24 8 20 21 20 36 2z m436 -6 c0 -22 -29 -18 -33 3 -3 14 1 18 15 15 10 -2 18 -10 18 -18z m83 -13 c2 -12 -3 -17 -17 -17 -12 0 -21 6 -21 13 0 31 32 34 38 4z m-170 -20 c2 -12 -3 -17 -17 -17 -12 0 -21 6 -21 13 0 31 32 34 38 4z m-90 -20 c2 -10 -3 -17 -12 -17 -18 0 -29 16 -21 31 9 14 29 6 33 -14z m-168 -1 c0 -18 -16 -29 -30 -21 -13 8 -1 35 16 35 8 0 14 -6 14 -14z m93 -17 c-17 -17 -37 -1 -22 17 8 10 15 12 23 4 7 -7 7 -13 -1 -21z m267 -4 c0 -8 -7 -15 -15 -15 -8 0 -15 7 -15 15 0 8 7 15 15 15 8 0 15 -7 15 -15z m-436 -46 c-8 -14 -34 -11 -34 4 0 8 3 17 7 20 9 9 34 -13 27 -24z m-293 -20 c-42 -34 -169 -113 -266 -164 -129 -68 60 -3 241 82 44 21 84 39 89 42 35 15 -48 -54 -148 -122 -64 -44 -142 -102 -173 -128 -75 -66 -136 -84 -264 -76 -98 6 -210 25 -209 36 1 10 197 152 237 173 21 10 85 27 143 38 88 16 125 30 239 88 74 37 137 66 140 64 3 -2 -10 -17 -29 -33z m589 16 c0 -8 -9 -15 -20 -15 -11 0 -20 7 -20 15 0 8 9 15 20 15 11 0 20 -7 20 -15z m90 -15 c0 -5 -5 -12 -11 -16 -14 -8 -33 11 -25 25 7 11 36 4 36 -9z m-266 2 c8 -13 -11 -35 -23 -28 -16 10 -14 36 3 36 8 0 17 -4 20 -8z m90 -17 c3 -9 -1 -18 -10 -22 -19 -7 -28 2 -21 22 8 19 23 19 31 0z m682 -5 c83 0 120 -20 166 -85 25 -36 77 -155 93 -214 l7 -24 -113 5 c-159 6 -174 15 -284 158 -22 28 -64 69 -94 91 -31 22 -47 39 -37 39 17 0 68 -23 97 -44 8 -6 -1 4 -20 21 -20 18 -31 33 -26 33 24 0 119 -30 157 -50 30 -16 38 -17 29 -6 -11 13 -11 16 0 16 8 0 -14 13 -48 29 -78 34 -89 46 -38 38 22 -4 72 -7 111 -7z m350 -15 c26 -27 54 -83 54 -111 0 -14 -2 -14 -16 -3 -17 14 -94 124 -94 133 0 15 34 3 56 -19z m1267 -64 c23 -15 61 -38 84 -49 23 -12 44 -26 47 -30 3 -5 -15 -36 -40 -68 -66 -84 -134 -186 -193 -289 -28 -49 -51 -85 -51 -80 1 66 37 290 65 397 19 76 35 140 35 143 0 10 12 5 53 -24z m-426 -49 c13 -26 47 -80 77 -120 49 -65 55 -80 63 -140 12 -104 6 -266 -16 -396 -11 -65 -21 -119 -23 -121 -2 -2 -31 -24 -65 -49 -75 -54 -114 -107 -240 -317 -53 -89 -98 -158 -100 -152 -2 6 16 59 41 119 63 155 151 400 166 462 7 31 34 87 67 137 62 95 74 148 37 153 -29 4 -57 -37 -79 -113 -23 -80 -31 -86 -45 -34 -25 101 -49 134 -77 107 -23 -24 -9 -78 33 -133 l35 -46 -20 -77 c-35 -130 -59 -198 -65 -182 -3 8 -7 44 -8 80 -2 52 -6 65 -20 68 -11 2 -22 -6 -29 -22 -12 -26 -6 -73 22 -171 11 -37 9 -47 -25 -130 -21 -50 -61 -147 -89 -217 -29 -71 -55 -128 -58 -128 -4 0 -9 78 -13 173 -22 689 -26 847 -26 1042 0 214 11 304 24 199 13 -99 38 -250 47 -281 6 -17 17 -34 25 -37 57 -22 257 191 310 330 9 24 19 44 23 44 3 -1 16 -22 28 -48z m-1448 13 c47 -24 111 -105 155 -195 l41 -85 3 -152 c2 -87 0 -153 -5 -153 -5 0 -56 38 -114 84 -88 71 -112 97 -159 172 -48 77 -116 241 -105 252 2 3 27 -20 55 -49 52 -56 56 -48 15 31 -8 16 -15 32 -15 36 0 11 94 -96 117 -135 37 -58 26 -17 -17 69 -22 44 -40 82 -40 85 0 12 38 -15 80 -57 l43 -43 -18 35 c-10 19 -28 49 -40 65 -44 60 -43 65 4 40z m606 -80 c32 -47 56 -87 54 -89 -2 -3 -28 17 -58 44 -42 38 -55 58 -61 89 -4 23 -4 41 0 41 4 0 33 -38 65 -85z m-1440 -2 c-20 -37 -59 -96 -86 -130 -27 -35 -47 -63 -43 -63 14 0 109 88 169 157 68 77 79 80 44 10 -68 -132 -192 -279 -280 -330 -70 -41 -319 -95 -319 -70 0 12 62 126 103 191 39 60 92 117 157 167 65 50 200 128 200 115 0 -4 -30 -36 -67 -70 -38 -34 -61 -58 -53 -54 34 17 105 69 152 111 28 24 52 42 55 39 3 -3 -11 -36 -32 -73z m124 -129 c-28 -65 -69 -154 -91 -198 -22 -43 -37 -80 -35 -82 6 -6 97 128 141 206 20 36 36 60 36 54 0 -6 -16 -75 -36 -154 -37 -150 -56 -198 -95 -240 -51 -54 -231 -180 -258 -180 -6 0 -11 14 -11 31 0 51 40 232 57 259 9 14 48 54 86 90 72 67 161 189 218 300 53 104 45 45 -12 -86z m1584 -238 c2 -244 0 -352 -6 -335 -38 91 -135 285 -200 396 -42 72 -77 138 -77 147 0 26 17 26 54 1 20 -14 49 -25 63 -25 25 0 25 1 19 48 -13 88 -15 83 39 101 28 9 62 25 75 34 18 13 26 14 27 5 1 -7 4 -175 6 -372z m-1114 295 c41 -63 97 -203 106 -263 10 -67 -9 -138 -67 -248 -60 -114 -88 -154 -98 -143 -4 4 -21 43 -39 85 -36 88 -38 121 -16 293 8 66 15 141 15 168 0 26 4 47 9 47 8 0 41 -145 42 -190 l0 -25 11 25 c6 16 8 77 5 163 -3 75 -4 137 -2 137 1 0 17 -22 34 -49z m-208 -119 c1 -116 11 -102 25 33 10 97 22 58 23 -73 1 -133 -20 -237 -70 -337 -46 -95 -188 -280 -203 -265 -6 6 -10 90 -10 202 -1 190 0 195 32 301 17 59 48 138 67 175 35 65 36 66 31 27 -3 -22 -8 -56 -12 -75 -9 -47 2 -34 32 37 l25 58 -5 -75 c-3 -41 -8 -86 -11 -100 -2 -14 8 13 25 60 16 47 29 100 30 118 0 20 4 31 10 27 6 -3 10 -54 11 -113z m845 -27 c6 -2 14 -23 18 -47 3 -23 9 -59 12 -78 l7 -35 -24 30 c-13 17 -29 36 -35 42 -25 26 -55 83 -49 93 5 9 31 7 71 -5z m274 -320 c106 -220 179 -454 215 -685 19 -124 30 -520 18 -665 l-8 -100 -67 330 c-37 182 -110 544 -164 805 -53 261 -98 486 -101 500 -7 37 38 -41 107 -185z m2235 171 c83 -27 168 -70 340 -171 196 -115 318 -155 478 -155 48 0 87 -3 87 -8 0 -4 -22 -22 -48 -39 -48 -31 -50 -32 -218 -38 -158 -7 -338 4 -366 21 -6 4 1 12 18 20 27 13 24 13 -32 8 -61 -6 -177 15 -198 36 -5 5 10 13 35 20 24 6 82 22 128 36 63 19 101 25 153 22 52 -2 65 0 53 8 -33 25 -122 25 -208 2 -71 -20 -105 -23 -257 -23 -96 1 -202 5 -235 9 l-60 9 70 21 c39 12 92 35 120 51 27 16 78 37 113 45 35 8 64 20 65 25 3 16 -84 17 -138 1 -27 -8 -111 -33 -185 -56 -115 -35 -153 -42 -257 -47 -68 -3 -123 -4 -123 -1 0 9 143 74 225 103 46 16 110 28 161 32 59 4 84 10 84 19 0 21 -12 23 -90 14 -41 -5 -122 -14 -180 -21 -58 -6 -132 -20 -165 -30 -70 -22 -65 -21 -65 -11 0 14 95 70 155 92 93 33 148 39 310 36 131 -3 160 -7 230 -30z m-2602 -72 c12 -38 27 -68 32 -67 6 2 11 28 13 58 l3 56 35 -30 c19 -17 40 -28 49 -25 24 10 36 -37 105 -426 17 -96 65 -337 106 -534 40 -198 72 -361 70 -363 -8 -9 -202 299 -256 406 -46 93 -146 341 -174 431 -21 71 -76 291 -76 306 0 3 11 9 24 14 23 8 24 14 31 130 4 66 9 119 11 117 3 -2 14 -35 27 -73z m-322 -5 c19 -19 20 -28 14 -107 -12 -141 -19 -150 -38 -47 -19 101 -22 175 -7 175 6 0 19 -9 31 -21z m-1241 -110 c27 -6 52 -14 54 -18 3 -4 -43 -13 -102 -19 -241 -27 -283 -37 -268 -61 4 -6 16 -4 34 6 25 14 39 14 155 0 71 -8 131 -18 134 -21 15 -15 -17 -20 -155 -27 -115 -5 -157 -11 -193 -27 -26 -11 -50 -25 -53 -31 -9 -13 -12 -14 54 4 59 16 185 20 176 6 -3 -4 -67 -23 -143 -40 -160 -38 -219 -61 -228 -91 -7 -23 5 -44 13 -21 12 35 41 49 113 55 41 4 100 9 132 12 31 3 57 2 57 -3 0 -19 -102 -75 -200 -108 -93 -33 -181 -74 -156 -75 16 0 -36 -50 -89 -86 -27 -18 -86 -69 -129 -114 -44 -44 -84 -80 -89 -80 -6 0 19 30 54 68 98 102 132 147 194 262 152 279 249 386 382 420 44 11 179 5 253 -11z m1355 -104 c19 -108 74 -318 105 -402 11 -29 17 -53 14 -53 -4 0 -32 22 -63 48 -89 76 -180 137 -297 198 -60 32 -110 58 -112 60 -2 1 13 24 34 51 20 26 50 72 67 102 l31 55 12 -45 c31 -117 64 -179 93 -179 30 0 39 20 57 130 23 149 24 154 33 144 5 -5 16 -54 26 -109z m-479 -48 c12 -28 19 -53 15 -55 -5 -1 -29 6 -55 18 l-47 20 27 35 c14 19 29 35 33 35 3 0 16 -24 27 -53z m2331 -31 c17 -18 17 -18 -17 -12 -19 4 -72 10 -118 13 -110 8 -86 25 30 21 70 -2 91 -7 105 -22z m638 9 c67 -18 299 -140 360 -190 22 -19 57 -48 78 -65 20 -17 37 -27 37 -23 0 19 -148 162 -195 188 -27 16 -69 42 -93 59 -56 39 -38 49 53 30 39 -7 116 -23 172 -33 103 -20 172 -49 268 -110 27 -17 67 -34 87 -38 21 -3 38 -9 38 -13 0 -4 -28 -15 -62 -25 -35 -10 -137 -41 -228 -70 -230 -74 -310 -88 -445 -82 -125 5 -198 26 -294 85 -66 40 -234 168 -285 217 -27 25 -28 30 -13 33 10 2 38 -13 63 -35 74 -62 82 -66 208 -109 67 -23 174 -60 238 -82 64 -23 131 -48 148 -57 18 -9 35 -14 38 -10 13 13 -29 36 -148 80 -69 26 -166 70 -217 98 -91 49 -163 110 -149 124 12 12 235 -67 346 -122 58 -29 148 -66 200 -83 52 -16 113 -37 135 -46 l40 -16 -30 25 c-16 14 -68 41 -114 60 -46 19 -116 60 -156 89 -39 30 -101 69 -138 87 -37 18 -67 37 -67 41 0 13 61 9 125 -7z m-3454 -63 c-18 -33 -158 -188 -212 -234 -65 -56 -155 -102 -235 -122 -32 -9 -126 -23 -209 -31 -171 -19 -328 -57 -483 -116 -113 -43 -240 -89 -249 -89 -3 0 17 20 44 45 50 46 80 61 47 23 -43 -49 74 43 136 107 36 37 94 86 130 110 36 23 73 52 84 63 20 24 106 55 133 50 13 -2 5 -13 -32 -37 -27 -19 -71 -52 -96 -72 -58 -48 -165 -169 -149 -169 6 0 48 35 93 78 45 43 120 104 167 135 47 31 95 64 108 73 12 9 25 14 28 11 10 -9 -41 -88 -80 -126 -34 -33 -47 -61 -28 -61 5 0 51 48 102 106 67 75 109 113 144 131 28 14 68 37 89 50 22 13 40 23 42 21 6 -6 -150 -196 -218 -267 -34 -35 -55 -60 -47 -56 44 24 177 131 265 212 93 87 171 138 243 158 21 6 23 5 13 -13 -19 -35 -102 -110 -190 -171 -88 -60 -118 -93 -59 -64 82 41 311 188 355 228 50 46 82 60 64 27z m4528 -19 c-18 -21 -170 -93 -213 -100 -54 -9 -200 48 -236 92 -15 18 -17 18 140 5 85 -6 140 -5 210 4 52 8 99 14 104 15 5 0 2 -7 -5 -16z m-2155 -110 c-32 -143 -190 -727 -204 -753 -4 -8 -40 -49 -80 -90 -40 -41 -100 -113 -134 -159 -71 -99 -74 -96 -57 62 15 135 46 242 101 351 55 109 237 436 287 515 60 95 100 128 87 74z m1026 -419 c118 -26 216 -98 323 -234 107 -137 204 -224 327 -295 73 -41 79 -41 -128 -1 -176 34 -266 40 -392 26 -279 -30 -389 -23 -485 35 -43 25 -219 185 -212 192 8 8 73 -24 136 -67 67 -46 204 -110 236 -110 28 0 9 13 -68 45 -41 17 -85 45 -112 71 -50 48 -58 69 -22 55 66 -27 186 -86 223 -110 73 -50 174 -103 186 -99 7 3 -28 33 -76 69 -159 115 -193 143 -173 147 28 6 107 -25 176 -68 69 -42 96 -44 46 -4 -20 16 -25 24 -14 24 20 0 139 -41 209 -72 31 -14 92 -33 135 -43 44 -9 110 -30 147 -46 37 -16 82 -32 100 -35 48 -7 -119 72 -207 98 -38 11 -74 23 -78 26 -16 8 9 22 54 31 44 9 44 9 8 10 -19 1 -44 -6 -55 -14 -10 -8 -26 -15 -34 -15 -20 0 -180 83 -180 94 0 5 50 7 118 3 114 -5 116 -5 82 11 -27 12 -69 17 -176 18 -103 1 -156 6 -193 19 -28 9 -51 20 -51 24 0 21 183 70 265 72 70 1 21 17 -58 18 -53 1 -58 3 -52 20 11 35 -27 44 -175 43 -121 -1 -196 -8 -285 -27 l-30 -6 35 20 c61 36 143 63 225 76 109 18 145 18 225 -1z m-2711 -9 c137 -29 250 -106 317 -216 20 -33 34 -62 32 -64 -2 -3 -38 16 -78 41 -91 57 -144 81 -235 106 -74 20 -284 36 -329 24 -43 -11 -30 -26 17 -20 50 7 254 -29 301 -53 46 -23 95 -63 107 -86 10 -18 8 -19 -23 -14 -75 11 -236 47 -277 62 -118 41 -223 27 -445 -61 -77 -31 -152 -62 -166 -70 -24 -12 -24 -13 -3 -14 11 0 73 20 136 45 155 59 231 78 287 71 52 -7 280 -77 280 -86 0 -3 -33 -17 -72 -30 -63 -21 -99 -25 -258 -30 -155 -5 -240 -17 -240 -32 0 -2 46 -3 103 -4 56 0 111 -5 122 -12 18 -9 13 -14 -46 -40 -64 -29 -72 -30 -250 -34 -153 -4 -195 -9 -249 -26 -36 -12 -66 -22 -68 -22 -5 0 179 190 304 315 72 71 157 145 188 164 67 40 168 78 240 90 83 14 229 12 305 -4z m2692 -91 c20 -12 -6 -23 -103 -44 -63 -13 -123 -20 -170 -18 l-73 3 33 18 c74 41 272 67 313 41z m-2711 -338 c0 -3 -28 -18 -62 -35 -63 -30 -128 -74 -272 -184 -123 -94 -106 -96 54 -3 219 126 263 146 390 172 67 14 125 23 128 19 10 -9 -101 -103 -153 -129 -27 -14 -70 -31 -95 -38 -37 -11 -45 -17 -45 -37 0 -33 23 -39 34 -9 7 18 25 28 87 46 49 14 126 50 202 93 125 72 176 89 208 71 16 -9 13 -12 -21 -26 -22 -9 -72 -44 -112 -77 -122 -101 -187 -122 -559 -184 -212 -35 -473 -33 -339 3 26 7 49 20 55 33 l12 21 -29 -22 c-44 -32 -122 -36 -223 -12 -47 12 -107 24 -135 28 l-50 7 53 23 c29 13 101 35 160 48 59 14 172 47 252 75 80 27 154 52 165 56 18 6 18 5 -2 -13 -13 -11 -23 -23 -23 -26 0 -9 34 6 55 25 25 23 85 49 150 65 50 12 115 18 115 10z m1470 -33 c0 -29 -16 -47 -35 -39 -16 6 -16 9 5 31 28 30 30 30 30 8z m-2130 -83 c56 -1 63 -2 48 -14 -10 -7 -57 -23 -105 -36 -49 -13 -129 -40 -180 -62 -97 -40 -140 -47 -149 -24 -3 8 -12 12 -20 9 -8 -3 -11 -9 -8 -14 3 -5 -20 -9 -50 -9 -30 0 -57 4 -61 10 -3 5 14 19 37 31 24 12 55 30 70 41 46 32 279 82 333 72 11 -2 49 -4 85 -4z m2087 -53 c-5 -14 -106 -339 -138 -447 -21 -72 -22 -74 -31 -45 -5 17 -11 71 -15 120 -5 87 -4 93 32 180 48 117 81 172 114 190 33 18 45 19 38 2z m-2207 -134 c63 -15 124 -40 70 -29 -14 3 -68 12 -120 22 -52 9 -99 21 -105 25 -12 12 70 2 155 -18z m2691 -7 c134 -41 209 -125 230 -258 8 -51 6 -80 -13 -172 -17 -86 -22 -146 -22 -268 l-1 -157 -32 83 c-18 46 -42 138 -53 205 -12 67 -28 141 -36 163 -8 23 -12 44 -9 46 3 3 20 0 38 -6 19 -7 44 -12 58 -12 l24 0 -26 18 c-41 27 -95 77 -113 104 -17 26 -48 120 -41 126 2 2 16 -5 32 -16 35 -24 100 -57 133 -67 34 -10 -117 144 -182 186 -67 44 -64 48 13 25z m-201 -97 c0 -50 46 -337 55 -347 2 -2 1 69 -2 157 -4 93 -2 161 3 161 5 0 29 -31 52 -68 l44 -67 1 -120 c2 -112 4 -123 30 -167 27 -47 44 -64 53 -55 3 2 -7 18 -21 35 -16 19 -27 47 -30 72 -4 47 5 140 14 140 12 0 51 -118 71 -218 11 -56 29 -125 40 -152 26 -65 79 -171 95 -190 7 -8 16 -33 20 -55 l6 -40 -25 29 c-13 16 -49 75 -79 130 -78 143 -147 244 -202 296 -97 92 -165 232 -165 342 0 67 21 189 31 182 5 -3 9 -32 9 -65z"/>

<path d="M2750 6199 c0 -24 23 -21 28 4 2 10 -3 17 -12 17 -10 0 -16 -9 -16 -21z"/>
<path  d="M4116 2806 c28 -13 61 -38 74 -56 23 -32 49 -29 37 4 -7 18 -118 76 -144 76 -10 0 5 -11 33 -24z"/>
<path d="M3876 2813 c-12 -12 -6 -33 9 -33 8 0 15 6 15 14 0 17 -14 28 -24 19z"/>
<path d="M3635 2720 c-8 -14 3 -30 21 -30 8 0 14 9 14 20 0 21 -24 28 -35 10z"/>
<path d="M3450 2179 c0 -24 23 -21 28 4 2 10 -3 17 -12 17 -10 0 -16 -9 -16 -21z"/>
<path d="M5563 9435 c-41 -17 -73 -69 -73 -116 0 -84 90 -147 168 -117 103 39 108 192 7 234 -42 17 -61 17 -102 -1z"/>
<path d="M6903 8371 c-57 -35 -57 -117 0 -151 38 -24 59 -25 96 -5 60 31 60 129 1 160 -38 20 -59 19 -97 -4z"/>
<path d="M7453 8165 c-13 -9 -39 -45 -59 -80 -19 -36 -39 -65 -44 -65 -4 0 -10 19 -14 42 -11 66 -35 110 -60 106 -26 -4 -25 -22 4 -103 16 -43 21 -73 17 -105 -7 -62 -47 -164 -58 -153 -6 6 -18 50 -28 99 -23 114 -34 136 -69 132 -26 -3 -27 -6 -27 -58 0 -48 6 -66 43 -125 23 -39 48 -77 54 -86 9 -13 8 -27 -6 -62 -13 -36 -86 -167 -103 -187 -10 -11 -22 30 -33 118 -14 111 -25 140 -56 148 -34 9 -44 -3 -44 -51 0 -32 11 -65 39 -119 22 -41 42 -94 46 -118 6 -39 3 -49 -29 -95 -38 -56 -42 -68 -26 -78 16 -10 37 11 114 115 38 52 75 98 80 102 6 4 56 22 110 39 105 34 176 82 176 120 0 47 -69 34 -122 -22 -36 -37 -125 -86 -136 -74 -3 3 14 45 37 93 23 49 56 130 74 180 32 90 35 93 90 128 57 36 97 86 97 122 0 52 -26 66 -67 37z"/>
<path d="M1994 5996 c-48 -21 -74 -61 -74 -115 0 -136 155 -191 239 -85 30 38 29 121 -1 159 -39 50 -105 66 -164 41z"/>
<path d="M2691 5755 c-49 -35 -117 -55 -186 -52 -81 3 -125 -16 -125 -54 0 -52 72 -66 133 -25 41 28 77 41 77 29 0 -5 -14 -22 -31 -39 -28 -26 -139 -150 -305 -341 l-54 -61 -62 20 c-78 24 -161 20 -192 -11 -19 -20 -20 -22 -3 -38 15 -15 34 -18 123 -15 103 2 105 2 94 -18 -25 -48 -148 -164 -211 -201 -97 -56 -137 -117 -109 -168 26 -49 84 -6 164 118 57 89 65 89 64 -1 -1 -79 14 -118 44 -118 29 0 40 37 36 115 -2 53 -8 79 -22 94 -18 20 -17 22 60 118 135 170 305 367 478 556 45 48 81 93 81 99 0 21 -21 18 -54 -7z"/>
<path d="M7512 4435 c-16 -14 -51 -56 -77 -93 -45 -66 -49 -70 -118 -92 -76 -25 -170 -31 -259 -17 -79 13 -64 28 57 53 85 18 117 37 113 67 -7 52 -151 12 -246 -68 -29 -24 -34 -25 -74 -15 -24 7 -81 29 -127 51 -79 37 -111 46 -111 33 0 -3 11 -24 24 -47 20 -33 26 -63 32 -137 7 -94 20 -130 50 -130 17 0 34 32 34 65 0 14 -11 58 -25 97 -25 72 -26 89 -3 70 40 -32 309 -102 393 -102 12 0 49 -18 83 -40 88 -56 119 -71 137 -64 35 14 12 48 -52 79 -34 17 -63 32 -63 35 0 14 183 65 253 70 85 7 126 31 113 66 -7 17 -44 16 -129 -2 l-29 -7 36 50 c54 76 46 127 -12 78z"/>
<path d="M8015 4325 c-53 -52 -18 -135 56 -135 65 0 99 49 77 112 -19 53 -91 66 -133 23z"/>
<path d="M7593 4098 c-62 -69 -9 -168 81 -151 62 12 88 102 41 148 -32 33 -93 34 -122 3z"/>
<path d="M4220 1867 c-14 -7 -33 -29 -44 -51 -55 -113 92 -211 177 -116 81 90 -23 222 -133 167z"/>
</g>
</svg>