<svg xmlns="http://www.w3.org/2000/svg" version="1.0" width="641.038825pt" height="824.500000pt" viewBox="0 0 641.038825 824.500000" preserveAspectRatio="xMidYMid meet">
<g transform="translate(-186.988038,933.500000) scale(0.100000,-0.100000)" fill="#ff1a8c" stroke="none">
<path d="M5070 9255 c0 -109 -25 -264 -56 -360 -38 -116 -96 -222 -191 -348 -103 -136 -168 -264 -189 -373 -29 -152 11 -331 106 -469 37 -54 121 -141 171 -175 l34 -25 -18 25 c-114 160 -130 198 -135 338 -5 128 11 178 21 65 3 -37 15 -94 26 -126 29 -83 144 -268 207 -335 l55 -57 -35 65 c-50 96 -76 191 -83 306 -10 165 10 219 152 429 99 146 131 213 147 307 17 96 32 86 25 -14 -8 -110 -36 -204 -103 -352 -103 -227 -128 -375 -87 -534 l17 -67 8 70 c17 143 48 227 147 390 129 215 173 344 174 520 2 232 -61 383 -262 635 -42 53 -88 111 -103 130 l-27 35 -1 -80z m-17 -882 c-11 -15 -46 -81 -77 -146 -32 -65 -60 -116 -63 -113 -12 12 21 119 53 172 35 59 94 127 102 119 2 -2 -5 -16 -15 -32z"/>
<path d="M5774 9134 c-23 -74 -93 -149 -148 -159 -43 -8 -46 -20 -9 -29 51 -13 110 -64 137 -118 14 -28 26 -60 26 -69 0 -10 5 -21 10 -24 6 -3 10 2 10 12 0 32 46 117 81 151 18 18 50 38 71 44 38 11 51 28 23 28 -30 0 -94 40 -120 75 -15 19 -35 60 -45 91 l-17 57 -19 -59z"/>
<path d="M4460 9103 c0 -32 -46 -117 -81 -151 -18 -18 -55 -40 -80 -49 l-47 -17 57 -23 c71 -28 117 -79 139 -155 9 -32 19 -58 22 -58 3 0 11 20 18 45 25 93 78 151 160 176 l43 12 -45 17 c-24 10 -58 27 -74 39 -31 22 -92 130 -92 163 0 10 -4 18 -10 18 -5 0 -10 -8 -10 -17z"/>
<path d="M3910 8774 c-7 -21 -42 -95 -77 -164 l-65 -125 4 -85 c3 -72 9 -94 36 -145 18 -33 57 -87 87 -120 l54 -60 -6 68 c-6 67 -5 69 47 173 34 68 55 122 57 152 9 87 -40 235 -106 321 l-18 24 -13 -39z m9 -376 c1 -67 -12 -97 -23 -55 -8 31 -7 142 1 151 13 12 22 -27 22 -96z"/>
<path d="M6230 8739 c-49 -76 -70 -141 -77 -237 -6 -72 -5 -75 42 -169 54 -108 64 -161 42 -216 -9 -20 -12 -39 -7 -42 15 -9 130 127 163 194 27 56 32 76 32 141 0 73 -2 79 -68 210 -37 74 -67 143 -67 152 0 38 -22 26 -60 -33z m77 -324 c-6 -81 -14 -106 -28 -84 -12 19 -11 116 1 140 23 41 33 20 27 -56z"/>
<path d="M3430 8685 c-17 -20 -5 -62 21 -70 24 -8 59 19 59 45 0 37 -55 55 -80 25z"/>
<path d="M3093 8574 c-30 -46 -29 -68 3 -83 22 -10 31 -9 50 4 29 19 31 46 4 70 -11 10 -20 24 -20 32 0 22 -14 14 -37 -23z"/>
<path d="M6887 8540 c-21 -33 -25 -46 -17 -61 6 -10 15 -19 20 -19 4 0 15 -3 23 -6 9 -3 25 4 37 16 19 19 20 24 7 38 -8 9 -21 30 -29 45 l-14 28 -27 -41z"/>
<path d="M6640 8515 c-28 -34 24 -80 55 -48 17 16 18 24 9 47 -8 20 -48 21 -64 1z"/>
<path d="M5707 8482 c-20 -22 -22 -63 -5 -80 7 -7 26 -12 43 -12 40 0 55 16 55 57 0 50 -59 72 -93 35z"/>
<path d="M4382 8434 c-24 -17 -30 -62 -10 -82 7 -7 24 -12 38 -12 33 0 50 17 50 51 0 24 -30 59 -50 59 -3 0 -16 -7 -28 -16z"/>
<path d="M2892 8264 c-76 -20 -104 -37 -155 -94 -90 -100 -130 -222 -130 -395 0 -77 7 -137 22 -198 11 -49 21 -90 21 -93 0 -2 -19 -4 -43 -4 -157 0 -343 -113 -409 -248 -33 -66 -33 -67 -32 -212 1 -128 4 -155 28 -235 30 -99 84 -218 139 -309 80 -131 258 -310 414 -414 34 -23 64 -46 68 -52 3 -5 -11 -18 -32 -29 -83 -42 -113 -98 -113 -209 0 -236 218 -446 617 -592 l91 -34 -5 -72 c-11 -144 33 -196 427 -502 146 -113 317 -249 380 -301 536 -449 797 -799 885 -1188 13 -58 26 -107 28 -110 3 -2 12 38 22 89 54 279 196 524 478 826 181 193 333 324 737 638 162 125 318 250 347 277 102 96 146 196 124 283 -7 26 -10 49 -7 51 2 3 52 22 109 43 307 113 489 260 562 455 31 81 33 180 6 240 -19 43 -68 91 -109 106 -13 5 -22 14 -20 21 2 6 38 30 80 54 81 44 191 127 272 203 130 123 248 320 302 506 74 257 49 453 -74 573 -85 83 -225 141 -339 142 -24 0 -43 2 -43 5 0 3 9 37 20 77 42 154 42 319 -1 432 -93 250 -358 326 -749 215 -363 -104 -636 -318 -846 -665 -11 -18 -13 -18 -40 2 -83 60 -171 76 -274 50 -87 -22 -144 -61 -243 -166 -128 -134 -227 -321 -277 -524 -29 -113 -29 -115 -40 -96 -4 8 -13 42 -20 75 -43 210 -158 422 -308 567 -89 87 -144 121 -227 142 -108 29 -185 19 -267 -33 l-46 -29 -33 51 c-267 419 -732 699 -1153 696 -50 0 -115 -7 -144 -15z m503 -178 c223 -47 459 -179 618 -346 84 -87 94 -114 24 -62 -258 193 -546 282 -772 239 -213 -41 -336 -133 -382 -287 -33 -108 -14 -265 42 -368 26 -47 19 -60 -28 -48 -34 8 -152 -20 -207 -50 -99 -54 -183 -167 -215 -291 -53 -201 42 -476 244 -711 34 -40 58 -72 53 -72 -22 0 -132 92 -196 163 -174 194 -257 389 -259 612 -2 123 11 190 54 281 52 110 151 182 305 221 38 10 70 18 72 19 2 1 -9 30 -23 64 -32 77 -43 201 -26 292 7 35 30 100 51 144 63 130 140 187 288 214 64 12 272 4 357 -14z m3804 -13 c30 -7 77 -26 104 -41 164 -89 245 -346 173 -553 -14 -41 -27 -78 -28 -83 -2 -5 28 -17 66 -27 107 -27 207 -81 260 -140 52 -57 82 -129 102 -244 33 -181 -24 -420 -142 -595 -65 -97 -254 -280 -289 -280 -3 0 15 27 42 61 178 225 246 385 247 579 2 257 -163 442 -406 458 -43 2 -78 6 -78 9 0 2 11 26 25 53 63 124 71 285 20 399 -64 142 -229 236 -450 256 -216 20 -513 -83 -722 -251 -62 -50 -33 -2 50 83 138 142 309 240 519 297 166 46 376 54 507 19z m-3169 -913 c244 -28 448 -126 628 -301 74 -73 182 -208 182 -228 0 -24 -25 -8 -99 63 -169 161 -351 244 -585 267 -270 26 -473 -43 -633 -215 -111 -120 -173 -261 -193 -443 -26 -227 38 -519 170 -783 21 -41 81 -138 134 -214 52 -77 92 -144 89 -150 -11 -17 -174 164 -265 294 -194 279 -288 527 -304 805 -22 391 138 694 441 835 101 48 195 70 325 78 14 1 63 -3 110 -8z m2383 -31 c378 -96 594 -416 574 -854 -6 -140 -25 -240 -73 -385 -57 -171 -189 -398 -342 -590 -81 -100 -275 -300 -292 -300 -18 0 -10 23 23 64 234 288 338 463 428 724 100 290 98 561 -5 777 -90 189 -244 318 -446 372 -98 26 -319 24 -425 -5 -191 -53 -365 -168 -482 -319 -22 -29 -53 -44 -53 -27 0 12 43 78 100 154 248 328 636 480 993 389z m-349 -435 c209 -51 367 -216 422 -439 25 -98 24 -293 0 -405 -29 -134 -72 -254 -140 -396 -113 -233 -203 -348 -636 -809 -299 -318 -439 -480 -551 -640 -41 -57 -77 -105 -81 -105 -4 0 -20 19 -35 43 -149 235 -238 340 -510 607 -475 466 -632 639 -746 825 -48 78 -120 250 -146 348 -63 241 -49 486 36 667 71 149 228 269 398 305 258 54 495 -30 704 -251 125 -132 223 -309 270 -486 10 -40 22 -66 25 -58 116 319 171 416 325 571 213 212 422 283 665 223z"/>
<path d="M5715 6484 c-73 -18 -129 -42 -187 -81 -75 -49 -191 -169 -228 -235 -22 -40 -18 -37 69 45 62 57 116 98 160 120 58 28 75 32 151 32 192 0 316 -98 374 -294 22 -77 21 -235 -3 -336 -11 -44 -18 -81 -17 -83 5 -4 63 139 86 213 30 98 38 250 16 335 -30 117 -99 199 -211 251 -59 28 -164 44 -210 33z"/>
<path d="M4148 6351 c-76 -25 -148 -72 -205 -135 -89 -98 -129 -232 -120 -401 15 -273 155 -533 483 -899 134 -149 566 -585 483 -487 -30 35 -132 154 -227 265 -324 376 -469 590 -571 849 -79 199 -82 431 -6 591 47 100 149 190 248 221 l42 14 -35 0 c-19 0 -61 -8 -92 -18z"/>
<path d="M2217 8216 c-22 -53 -63 -94 -111 -110 l-37 -13 40 -12 c47 -14 96 -68 113 -124 l12 -38 26 58 c29 64 40 75 96 102 l38 19 -32 7 c-41 9 -87 55 -102 102 -18 56 -23 57 -43 9z"/>
<path d="M7925 8209 c-9 -39 -80 -119 -106 -119 -29 0 -23 -14 17 -35 41 -22 69 -58 87 -111 l13 -37 18 46 c16 42 62 93 112 124 19 12 19 12 0 12 -33 1 -87 52 -111 103 l-23 50 -7 -33z"/>
<path d="M4255 8116 c-26 -52 -37 -65 -79 -85 l-50 -25 29 -8 c40 -10 92 -64 112 -116 l17 -45 13 37 c19 57 52 97 96 116 l40 18 -34 15 c-46 20 -88 66 -102 114 l-12 40 -30 -61z"/>
<path d="M5738 8133 c-20 -57 -61 -100 -114 -118 l-37 -13 46 -20 c48 -21 107 -89 107 -123 0 -33 18 -29 30 7 16 47 66 103 110 122 l35 15 -32 9 c-47 12 -99 69 -115 123 l-13 47 -17 -49z"/>
<path d="M2372 7718 c-30 -30 -3 -83 39 -76 32 5 45 31 31 62 -13 28 -49 35 -70 14z"/>
<path d="M7776 7694 c-9 -8 -16 -24 -16 -34 0 -20 25 -50 41 -50 26 0 49 23 49 48 0 49 -42 69 -74 36z"/>
<path d="M2082 6415 c-12 -39 -35 -87 -53 -108 -30 -37 -113 -87 -144 -87 -30 0 -14 -16 33 -32 81 -29 144 -106 172 -208 l12 -45 17 55 c10 30 25 69 33 85 30 56 120 125 163 125 28 0 15 17 -22 28 -91 28 -143 87 -173 194 l-17 62 -21 -69z"/>
<path d="M8074 6405 c-19 -81 -88 -162 -158 -185 l-38 -12 49 -23 c59 -27 119 -94 135 -150 13 -45 28 -68 28 -42 0 29 48 114 84 151 19 19 51 39 70 46 l36 12 -52 26 c-62 32 -104 82 -129 154 -17 52 -18 52 -25 23z"/>
<path d="M2351 6014 c-27 -45 -26 -50 4 -70 32 -21 75 -6 75 26 0 21 -38 80 -51 80 -4 0 -16 -16 -28 -36z"/>
<path d="M7751 6016 c-28 -44 -26 -64 4 -78 30 -13 75 2 75 26 0 19 -39 86 -50 86 -5 0 -18 -15 -29 -34z"/>
<path d="M1905 5678 c14 -94 59 -230 98 -298 51 -89 140 -154 267 -195 83 -27 108 -42 190 -113 78 -67 97 -91 64 -78 -11 4 -52 15 -91 23 -57 12 -83 12 -124 4 -53 -12 -116 -37 -124 -51 -7 -12 71 -55 143 -79 74 -25 161 -27 246 -5 33 9 74 14 91 11 44 -7 306 -130 297 -139 -5 -5 -46 -1 -93 8 -115 22 -201 14 -287 -26 -66 -31 -102 -56 -102 -71 0 -5 37 -20 83 -35 62 -20 103 -27 167 -27 80 -1 93 3 215 52 153 62 150 62 393 6 85 -19 158 -33 163 -29 11 7 12 51 0 58 -4 3 -82 24 -172 46 -246 62 -222 48 -247 136 -19 63 -31 84 -71 123 -26 27 -57 54 -69 60 -21 11 -22 10 -22 -38 0 -37 9 -66 35 -117 19 -37 34 -68 33 -70 -2 -1 -48 21 -103 49 l-100 52 0 120 c0 116 -1 123 -32 185 -18 36 -50 85 -72 109 l-38 45 -18 -53 c-27 -82 -17 -176 29 -271 20 -41 32 -76 26 -78 -15 -5 -120 79 -183 148 -63 68 -64 70 -47 199 13 98 -6 192 -57 280 -21 35 -43 66 -50 68 -13 5 -40 -71 -49 -137 -5 -40 11 -140 31 -192 4 -10 3 -18 -3 -18 -5 0 -29 32 -52 70 -62 106 -93 136 -233 227 -70 46 -130 83 -133 83 -3 0 -3 -19 1 -42z m250 -282 c67 -76 89 -106 77 -106 -25 0 -152 135 -152 162 0 20 23 4 75 -56z m724 -685 c19 -12 -90 -47 -115 -37 -24 9 -8 23 41 35 53 12 58 12 74 2z"/>
<path d="M8113 5646 c-140 -89 -182 -130 -225 -217 -18 -37 -37 -68 -42 -68 -4 -1 -4 20 0 47 15 82 9 203 -12 246 -10 21 -23 39 -29 39 -18 0 -83 -142 -95 -208 -10 -55 -10 -81 4 -165 12 -70 14 -105 7 -118 -20 -38 -223 -217 -234 -206 -7 7 4 41 37 119 31 72 35 183 10 243 l-15 37 -35 -40 c-90 -104 -121 -200 -105 -328 9 -73 8 -83 -7 -95 -17 -14 -168 -92 -176 -92 -3 0 9 30 26 66 31 67 49 164 31 164 -21 0 -106 -76 -128 -114 -12 -23 -28 -64 -35 -93 -6 -29 -17 -56 -23 -62 -7 -5 -93 -30 -191 -55 -99 -26 -183 -49 -188 -52 -12 -8 -10 -64 3 -64 5 0 67 14 137 31 70 17 159 36 197 44 l70 14 100 -39 c156 -60 175 -64 260 -63 91 0 240 40 240 64 0 8 -35 32 -79 54 -76 39 -82 40 -175 40 -53 0 -129 -4 -168 -9 -80 -10 -97 1 -35 23 20 8 90 38 155 68 l118 55 57 -16 c89 -24 164 -30 223 -16 59 14 189 77 189 92 0 17 -93 51 -155 55 -38 4 -83 -1 -123 -11 -35 -9 -68 -16 -73 -16 -13 0 104 104 156 139 22 15 74 40 115 55 146 53 210 108 265 230 53 118 97 297 72 295 -7 0 -62 -33 -124 -73z m-77 -256 c-23 -35 -84 -90 -99 -90 -17 0 -2 22 55 85 64 70 89 73 44 5z m-650 -695 c18 -14 16 -15 -21 -9 -58 10 -78 23 -34 24 19 0 44 -7 55 -15z"/>
<path d="M2995 4510 c-24 -27 -22 -70 5 -92 44 -36 100 -10 100 47 0 57 -67 87 -105 45z"/>
<path d="M7067 4462 c-35 -38 -10 -92 42 -92 35 0 51 17 51 55 0 17 -5 36 -12 43 -18 18 -63 14 -81 -6z"/>
<path d="M3455 4431 c-56 -14 -122 -49 -163 -86 -60 -53 -85 -127 -80 -230 6 -109 37 -176 123 -262 36 -36 64 -67 63 -68 -2 -1 -29 -7 -60 -13 -176 -34 -308 -168 -341 -344 -31 -168 70 -362 226 -434 57 -27 71 -29 172 -28 179 1 271 48 483 245 125 117 205 167 308 194 170 44 363 -21 477 -161 61 -76 51 -82 -38 -24 -194 126 -424 117 -568 -23 -185 -180 -133 -487 101 -595 133 -60 294 -16 352 98 44 85 33 169 -29 231 -63 64 -151 71 -207 18 -55 -51 -29 -157 39 -159 16 0 15 2 -2 19 -38 38 6 90 65 75 82 -21 66 -143 -22 -180 -115 -48 -264 57 -264 186 0 77 71 172 160 214 65 30 195 29 267 -3 66 -29 145 -112 181 -188 35 -76 43 -220 17 -309 -42 -148 -185 -279 -341 -314 -65 -15 -99 -5 -148 43 -48 47 -124 84 -189 93 -54 8 -57 2 -28 -54 42 -82 103 -110 259 -119 61 -4 98 -9 90 -14 -26 -15 -209 -59 -243 -59 -27 0 -45 12 -106 73 -60 59 -85 76 -129 90 -69 21 -150 33 -150 21 0 -5 21 -35 46 -68 37 -46 59 -64 112 -88 79 -36 79 -35 65 -49 -17 -17 -112 7 -201 49 -74 36 -82 37 -215 42 -93 3 -137 2 -137 -6 0 -5 24 -40 54 -76 38 -46 71 -74 108 -92 85 -41 128 -43 269 -8 108 27 229 46 229 36 0 -2 -19 -13 -42 -25 -51 -25 -104 -73 -125 -113 -14 -28 -43 -113 -43 -130 0 -16 90 3 143 30 75 37 105 69 144 154 19 41 42 83 50 92 8 9 61 31 117 49 111 34 276 109 345 157 71 49 170 152 212 222 152 256 122 567 -88 884 -66 99 -286 371 -291 358 -2 -6 28 -61 65 -124 38 -62 85 -152 106 -200 36 -84 68 -189 61 -197 -17 -19 -118 133 -212 319 -193 382 -426 651 -682 789 -115 62 -263 87 -365 62z m370 -228 c107 -26 229 -96 336 -191 43 -37 147 -164 198 -241 60 -88 183 -330 175 -342 -9 -15 -113 89 -290 288 -185 207 -249 265 -350 314 -128 62 -194 50 -194 -36 0 -74 79 -169 195 -233 27 -16 94 -45 147 -66 54 -21 146 -67 205 -102 104 -63 204 -145 184 -152 -5 -2 -40 12 -78 31 -37 19 -131 57 -208 85 -166 59 -330 128 -438 184 -220 115 -309 299 -201 417 31 36 53 46 139 65 28 6 110 -3 180 -21z m184 -337 c48 -35 273 -247 267 -253 -3 -3 -18 4 -34 15 -15 11 -79 48 -142 82 -63 34 -131 75 -152 92 -38 30 -56 67 -43 88 10 17 63 4 104 -24z m-175 -236 c172 -34 301 -74 274 -85 -9 -4 -65 -2 -124 4 -298 30 -455 -4 -519 -113 -30 -52 -32 -89 -5 -116 68 -68 183 -49 335 54 84 57 193 110 258 126 69 18 162 9 227 -22 l55 -26 -46 -1 c-139 -3 -256 -54 -378 -165 -147 -134 -302 -206 -414 -192 -103 13 -207 80 -250 160 -31 58 -30 174 0 232 48 90 110 140 213 169 73 20 180 13 374 -25z m116 -130 c0 -5 -6 -10 -14 -10 -8 0 -53 -19 -100 -41 -105 -51 -169 -61 -185 -31 -17 31 22 70 79 81 64 13 220 13 220 1z m-241 -1359 c14 -4 26 -12 29 -19 6 -18 -37 -14 -83 7 l-40 19 35 0 c19 0 46 -3 59 -7z m372 -109 c-12 -23 -78 -82 -91 -82 -31 0 8 52 69 93 29 20 36 16 22 -11z"/>
<path d="M6475 4422 c-280 -85 -583 -407 -792 -841 -74 -154 -183 -330 -205 -331 -14 0 -8 38 17 117 27 87 78 189 155 316 29 47 50 91 48 97 -4 13 -71 -68 -210 -253 -199 -267 -279 -482 -265 -710 13 -214 124 -391 323 -520 80 -52 149 -82 289 -126 146 -47 145 -46 192 -141 61 -122 136 -181 249 -196 l52 -6 -24 75 c-28 86 -67 131 -144 167 -27 13 -50 26 -50 30 0 13 118 -3 230 -32 138 -35 188 -33 275 16 43 23 74 51 108 95 26 34 47 65 47 69 0 4 -57 5 -127 4 -106 -3 -137 -8 -192 -29 -190 -73 -241 -86 -241 -63 0 6 21 21 48 33 74 35 101 57 143 113 21 29 39 56 39 60 0 11 -99 -6 -158 -28 -42 -15 -76 -40 -128 -90 -50 -49 -78 -68 -97 -68 -55 0 -247 47 -247 60 0 4 48 10 108 12 86 3 116 8 155 27 47 23 84 70 102 130 7 23 6 23 -31 17 -90 -16 -138 -39 -188 -90 -49 -48 -54 -50 -114 -54 -52 -4 -71 0 -120 23 -76 38 -199 161 -238 240 -27 57 -29 67 -29 185 0 117 2 129 28 182 60 121 169 201 294 214 198 21 363 -154 294 -312 -39 -86 -89 -124 -165 -124 -80 0 -146 51 -146 114 0 30 23 65 51 77 24 9 33 9 54 -5 27 -18 33 -54 13 -74 -9 -9 -9 -12 3 -12 28 0 59 44 59 84 0 30 -7 45 -34 72 -29 29 -41 34 -80 34 -56 0 -94 -18 -130 -60 -94 -112 -26 -290 128 -335 76 -22 141 -15 223 25 74 37 124 90 167 180 27 58 31 75 30 150 -1 149 -67 262 -191 327 -165 87 -357 65 -506 -59 -87 -72 -67 -17 27 78 91 90 235 143 359 130 69 -7 174 -47 236 -89 25 -17 92 -75 150 -129 206 -193 312 -243 494 -236 87 3 111 8 159 31 108 53 188 171 210 309 34 225 -118 428 -351 469 l-63 11 60 62 c72 75 97 115 117 191 19 74 19 128 0 191 -24 80 -66 129 -150 170 -66 33 -84 37 -167 40 -69 3 -108 -1 -153 -14z m106 -214 c82 -27 121 -79 123 -163 2 -156 -120 -266 -449 -403 -66 -28 -167 -67 -224 -87 -99 -34 -215 -86 -235 -106 -12 -11 -46 -12 -46 -1 0 11 89 85 152 125 72 46 172 96 260 131 108 43 159 75 229 145 51 52 68 77 79 115 12 42 11 53 -1 75 -22 39 -102 36 -187 -7 -101 -50 -165 -108 -296 -262 -68 -80 -167 -191 -220 -247 -141 -148 -148 -140 -52 55 70 140 95 184 165 277 177 235 383 363 587 365 45 0 96 -5 115 -12z m-313 -339 c4 -36 -63 -94 -176 -153 -48 -25 -107 -59 -132 -76 -25 -16 -49 -30 -54 -30 -5 0 49 56 119 125 162 157 236 198 243 134z m418 -210 c128 -23 227 -104 259 -212 29 -98 10 -177 -61 -256 -107 -120 -282 -129 -459 -25 -23 13 -85 61 -136 105 -157 136 -213 163 -364 177 l-80 7 68 28 c136 55 249 30 455 -99 131 -83 181 -104 242 -104 62 0 95 13 116 45 26 40 11 89 -44 144 -72 70 -126 86 -297 86 -77 0 -182 -4 -232 -9 -57 -5 -93 -5 -93 1 0 14 121 49 265 78 248 48 272 50 361 34z m-293 -154 c81 -7 125 -27 133 -60 15 -62 -51 -60 -189 7 -109 53 -122 71 -42 63 22 -2 66 -7 98 -10z m157 -1352 c0 -16 -90 -45 -117 -38 -26 6 -27 7 -8 17 37 22 125 36 125 21z m-427 -124 c51 -26 98 -89 67 -89 -13 0 -79 59 -91 81 -11 22 -6 23 24 8z"/>
<path d="M7422 4291 c-38 -117 -103 -182 -215 -216 l-42 -13 41 -11 c53 -14 125 -63 159 -106 27 -36 59 -108 70 -158 6 -30 25 -28 25 3 0 46 44 135 89 180 41 41 72 58 161 87 9 3 -2 10 -27 18 -113 34 -179 101 -214 217 -12 37 -22 68 -23 68 -1 0 -12 -31 -24 -69z"/>
<path d="M2746 4238 c-32 -109 -93 -176 -191 -210 -40 -13 -46 -18 -30 -23 129 -42 196 -109 226 -229 6 -25 15 -46 19 -46 4 0 10 19 14 42 16 98 96 193 189 224 l49 16 -50 17 c-97 33 -157 98 -187 204 -9 31 -18 57 -20 57 -2 0 -10 -24 -19 -52z"/>
<path d="M3544 2695 c-33 -51 13 -107 70 -86 40 16 48 59 16 91 -28 28 -66 26 -86 -5z"/>
<path d="M6580 2702 c-25 -20 -30 -63 -10 -87 17 -21 63 -19 83 3 48 53 -18 129 -73 84z"/>
<path d="M5088 2374 c-3 -5 -9 -45 -13 -89 -11 -131 -30 -203 -88 -340 -30 -71 -62 -154 -71 -184 -22 -75 -20 -181 5 -271 19 -69 167 -400 179 -400 8 0 118 255 147 340 17 50 27 105 31 166 5 110 -14 190 -90 369 -56 131 -77 215 -78 315 -1 66 -12 111 -22 94z m28 -501 c8 -92 -1 -292 -14 -305 -18 -18 -35 119 -29 231 6 110 14 151 27 151 5 0 12 -35 16 -77z"/>
<path d="M4936 2307 c-30 -79 -76 -120 -209 -188 -67 -34 -141 -77 -164 -96 -81 -66 -119 -151 -148 -328 -18 -107 -19 -159 -5 -133 14 23 92 77 185 127 157 84 212 150 275 328 21 59 54 149 74 198 19 50 35 100 36 113 0 37 -26 25 -44 -21z m-136 -254 c0 -3 -14 -28 -31 -55 -34 -52 -82 -98 -105 -98 -30 0 -11 35 53 96 63 60 83 74 83 57z"/>
<path d="M5200 2330 c0 -10 16 -63 36 -117 20 -54 51 -138 69 -188 39 -112 66 -164 107 -211 41 -47 132 -108 221 -149 40 -18 92 -49 116 -69 24 -20 45 -35 47 -33 2 2 -8 59 -22 126 -54 263 -95 318 -313 423 -118 57 -186 117 -217 192 -19 47 -44 62 -44 26z m288 -354 c42 -46 49 -60 34 -70 -14 -8 -50 21 -92 76 -78 97 -33 93 58 -6z"/>
<path d="M4514 1382 c-43 -29 -30 -94 20 -100 32 -4 66 22 66 50 0 38 -55 71 -86 50z"/>
<path d="M5612 1374 c-24 -17 -30 -62 -10 -82 7 -7 27 -12 45 -12 34 0 53 21 53 59 0 19 -34 51 -55 51 -6 0 -21 -7 -33 -16z"/>
</g>
</svg>