<svg xmlns="http://www.w3.org/2000/svg" enable-background="new 0 0 5000 2318.6438" version="1.1" viewBox="0 0 5e3 2318.6" fill="#00bfff">
    <path d="m1205.3 443.33c565.55-273.4 733.62-355.38 1179.2-410.49 16.591-1.7952 36.681-5.6591 53.236-4.7811-11.082 4.5695-28.181 4.8359-40.294 6.8908-159.95 26.432-80.61 11.361-359.05 69.131 36.228 0.0221 77.986 3.4972 113.68-1.2967 12.753-1.7143 25.931-6.9009 38.357-10.343 67.516-15.952 19.835-6.3745 238.77-46.098 169.55-27.082 331.62-34.542 494.56-39.252 6.5381-0.0404 17.115-1.4115 23.022 1.224-13.983 7.2367-279.67 7.6874-603.64 68.214l-142.1 29.154c299.5 15.673 221.99 11.7 344.32 17.766 16.492 0.8956 35.025 3.5358 51.379 2.283 15.835-1.2142 34.354-9.7857 49.739-14.442 158.5-41.543 313.19-73.362 485.52-85.93 21.758-1.5867 57.637-6.0755 78.818-0.4953l-538.16 100.14c140.84 7.8807 314.13 17.708 484.78 25.744 9.8076 0.4998 21.236 3.2004 30.824 2.4118 10.714-0.8788 22.335-8.1975 31.978-12.566l59.396-25.272c77.637-28.656 278.19-83.677 357.91-68.274-129.65 23.004-256.74 48.564-380.27 98.493-5.8516 2.371-30.467 10.343-33.214 14.439l36.95 3.824c-110.78 60.333-201.52 163.64-324.75 290.03-156.03 172.94-116.04 127.99-183.96 206.31 12.225-2.5988 59.67-6.8104 66.263-11.396 8.187-5.6976 19.341-26.346 26.374-34.953 113.3-132.8 41.263-54.277 303.82-326.53 149.12-143.76 160.97-141.77 305.11-174.89 54.418-12.504 191.75-36.661 246.76-34.835 31.373 1.0442 64.808 6.6675 95.796 11.648 84.231 13.536 165.16 35.664 246.98 59.076 464.04 144.82 363.43 111.68 505.14 162.84l-290.71-6.4695c29.066 16.794 65.275 26.587 96.896 38.59 59.915 22.748-1.7148 8.5811 180 45.087l153.27-40.601c-35.432-14.805-118.77-26.128-128.68-31.848-0.769-0.4532-2.7197-4.2775-3.3511-5.2525l0.9331-6.0825c18.874-3.4203 42.336 1.2086 61.237 3.7939 153.45 20.976 175.24 46.67 236.26 93.29 5.5493 4.4642 14.148 13.134 20.879 15.195-5.6592-11.363-15.522-21.143-24.011-30.48-20.165-22.154-46.209-50.381-75.138-60.046-66.181-22.11-144.51-35.89-214.53-27.59-32.4 3.8436-301.07-123.71-736.95-226.43-146.64-34.562-150.27-36.416-337.61-47.379-588.33-26.971-1027.9-54.855-1439.9 48.954-252.37 63.586-500.06 189.19-876.99 372.84-76.472 37.619-71.514 33.956-77.83 39.288 10.865-1.511 24.456-2.0192 34.758-5.4449 26.319-8.7554 53.135-24.901 78.217-37.2z"/>
    <path d="m3798.7 117.97c-26.923-3.1976-54.643-8.0411-81.621-9.7388-14.972-0.9422-30.769 0.9367-45.714 1.9669-77.747 4.5715-153.13 18.516-228.79 36.428-159.97 37.883-147.89 40.506-491.15 394.93l-94.368 114.42 40.275 8.3241c139.3-153.61 295.12-336.71 424.29-430.95 13.736-10.025 27.83-21.967 42.747-30.101 14.368-7.8406 34.753-11.637 50.605-15.95 90.302-24.593 184.53-38.12 277.58-46.955 108.67-10.334-7.1406-16.801 415.8 45.428-14.368-9.5822-34.808-13.016-51.292-17.816-85.522-24.912-170.03-39.483-258.35-49.977z"/>
    <path d="m1276.4 420.56c-96.754 46.598-95.155 45.226-101.5 51.233 12.415 5.813 24.233 11.59 35.646 19.285l40.821-23.849c265.67-133.86 139.17-74.852 570.07-263.58l153.03-54.01c21.552-7.3515 46.088-13.398 66.484-23.156l-93.67-3.0137c-228.93 87.279-450.95 189.37-670.88 297.09z"/>
    <path fill="rgba(0,0,0,0.651)" d="m1777.3 288.5c-512.69 230.34-494.06 222.02-496.59 225.27 74.407 14.618 149.51 36.197 224.4 46.928 52.489 7.5191 108.74 7.8652 161.76 11.832l220.93 21.972c78.494-69.669 162.57-130.97 247.76-192.1 124.19-89.12 250.88-176.33 389.65-241.5l-369.89-17.547-378.02 145.14z"/>
    <path fill="rgba(0,0,0,0.651)" d="m3157 194.55c-566.12-31.276-524.75-30.723-550.03-29.497-231.67 126.73-294.68 179.6-638.23 426.83 658.26-1.6287 489.05 0.3835 777.96-8.0714 231.29-228.95 327.1-327.43 410.29-389.26z"/>
    <path fill="rgba(0,0,0,0.651)" d="m3385.5 241.62c-18.434 8.5522-36.044 23.626-53.296 34.596l59.588 330.93c6.5107-19.093 4.176-40.423 10-59.342 2.7595-8.9674 3.2769-7.4089 81.841-87.474 24.945-21.275 59.78-20.483 91.044-18.027 55.248 4.3431 114.67 22.747 161.4 52.845 7.8025 5.0219 51.566 42.689 52.885 42.942 5.7778 1.1041 10.523-2.1013 149.2-71.444-36.45-80.391-114.34-222.81-169.7-291.53-197.96 7.906-354.64 53.378-382.97 66.504z"/>
    <path d="m4094.8 395.13c0.6045-65.741-2.033-138.87 11.621-203.22l-149.48-12.665 73.352 255.43c57.216-34.445 43.448-25.921 64.506-39.541zm-126.32-202.52c15.934 7.5383 31.044 18.821 45.687 28.651 25.632 17.17 50.934 34.379 73.736 55.241-30.08 136.28-26.191 124.67-34.78 140.74l-4.3684 1.1538c-14.478-25.354-17.665-63.293-27.225-91.534-15.385-45.485-39.615-88.485-53.049-134.25z"/>
    <polygon points="3825.3 180.45 3984.6 452.2 3920.8 196.67" fill="rgba(0,0,0,0.651)"/>
    <path d="m4111.3 386.06c83.472-57.355 56.477-38.281 120.03-84.499l-112.86-107.82-7.1704 192.32z"/>
    <polygon points="4436.5 287.45 4138.8 194.74 4242 292.63"/>
    <path d="m4072.9 281.44-84.451-64.636c14.67 31.697 31.236 62.76 42.912 95.724 8.6812 24.516 13.571 49.579 20.192 74.636 3.5163-4.0517 1.1084 5.2881 21.346-105.72z" fill="rgba(0,0,0,0.651)"/>
    <path d="m3297 311.95-3.3516-1.3295-148.52 145.12c33.634 83.295 59.063 228.09 64.863 281.59l142.66-40.008c-18.089-151.83-30.596-290.09-55.659-385.37z" fill="rgba(0,0,0,0.651)"/>
    <path d="m4363.8 366.16-117.72-44.988-157.99 104.8c128.82-28.259 67.603-14.964 275.71-59.815z"/>
    <path d="m4619.1 494.21 104.23-52.236 17.802-77.628-2.7749-2.7144c-31.589 1.8289-181.84 36.667-186.32 42.299 50.384 68.252 35.468 48.193 67.06 90.279z"/>
    <path d="m4978 571.41c-2.6646-10.244-4.1479-23.637-8.0762-33.195-15.668-37.983-129.21-155.52-210.03-177.28-1.9775 15.299-15.137 73.741-11.346 83.886 23.077 7.7774 44.863 17.761 66.814 28.285 94.059 45.104 96.226 73.254 113.3 120.79 21.264 59.131 30.797 115.79 36.154 178.3 8.2817 97.136 5.085 118.1-12.912 202.82 20.082-15.002 35.11-31.714 48.132-53.183v-267.21l-22.033-83.216z"/>
    <path d="m4354.7 580.56c80.744-85.229 44.724-46.319 161.07-174.47l-134.59-28.914-26.483 203.38z"/>
    <path d="m4330.5 597.23 16.456-134.84c3.2964-24.362 9.6152-51.626 8.9282-76.067-7.144-2.2665 14.584-6.2412-239.45 54.136-32.692 8.3763-65.989 14.533-97.527 26.733 10.714 10.102 30.247 17.483 43.489 25.011 48.36 29.842 114.57 67.608 181.7 134.36l86.401-29.338z"/>
    <path d="m4536.6 414.97c-27.335 33.95-57.857 65.587-87.39 97.639-24.258 26.359-48.022 54.535-75.357 77.787 69.841-26.355 20.322-7.7842 231.62-86.826-64.163-84.883-61.9-82.29-68.874-88.6z"/>
    <path d="m3780.4 553.99c-55.577-55.782-141.59-95.504-221.29-95.523l-26.236 0.6016c-8.3518 1.3546-19.066 2.1923-26.676 5.9586-13.627 6.7253-36.879 39.898-74.231 71.507 300.5 15.047 226 11.314 348.43 17.456z"/>
    <path d="m4752.2 542.18c4.7524 0.0659 17.857-7.8763 22.857-10.222 20.303-9.4888 41.566-17.151 61.456-27.442l-89.286-39.486-107.14 37.469c100.12 36.348 107.99 39.624 112.12 39.681z"/>
    <path d="m3274 949.52 952.22-315c-55.71-48.02-158.67-128.74-226.54-154.67-163.62 85.244-163.21 85.757-174.01 87.955-1.1541 0.239-5.3845-1.1456-6.0989-0.7087-11.627 6.9689-28.149 63.412-35.137 68.142-5.0554 3.4176-16.209 5.662-22.225 7.64-59.502 19.542-125.57 25.047-179.31 31.088-6.3188 0.4615-27.555-0.2088-31.346 2.0495-0.2056 0.1239 1.4951-2.6425-70.495 129.1-3.1868 5.7994-11.264 25.252-15.522 28.15-6.0991 4.1758-65.879 5.4478-75.22 2.9122-6.5659-1.7802-9.6702-7.2004-12.308-12.953-4.2305-9.1454 0-21.489 3.489-30.222l40.165-77.103-209.2 61.205c45.53 120.61 33.878 88.042 53.599 148.56 2.1702 7.0794 3.9834 17.73 7.9395 23.857z"/>
    <path d="m1128.9 574.27c6.2355-4.3712-3.4203 2.8982 59.247-45.057-13.709-14.816-27.577-32.678-43.382-45.104l-4.2062-0.1099-48.335 10.08 33.387 79.054 3.2886 1.1374z"/>
    <path d="m821.53 560.36c13.052-3.2953-17.457 5.4423 246.58-71.499l1.0083-2.6484c-15.285 0.1608 9.1045-1.2863-154.62 10.272-6.7172 0.5907-25.261 0.1979-30.22 2.7198-4.7032 2.39-12.069 11.5-16.181 15.406l-46.574 42.829v2.9202z"/>
    <path d="m3107.9 493.77c-18.461 20.162-148.1 160.53-149.86 173.55 110.05 30.304 64.036 17.569 204.15 56.546-10.824-77.164-24.835-153.33-48.544-227.65-2.3625-1.5467-2.8298-2.228-5.7417-2.4423z" fill="rgba(0,0,0,0.651)"/>
    <path d="m830.45 677.01 7.4999-1.368 271.73-88.546-35.58-87.109-4.632-1.3351-268.02 80.845c23.228 90.839 22.685 92.773 29 97.512z"/>
    <path d="m726.97 583.8c17.272-5.2691 45.352-9.1042 60.384-18.332 9.1979-5.6454 16.945-15.101 24.918-22.343l47.008-41.939c-23.3 6.4641-45.385 16.439-67.698 25.631-149.71 69.826-180.03 82.647-200.6 99.946 14.525-0.8351 34.756-10.637 48.739-15.335l87.244-27.629z"/>
    <path d="m4735.9 555.99-115.06-40.008-24.505 218.15 40.467 8.8928c17.17-43.295 42.291-112.38 99.093-187.03z"/>
    <path d="m4904.5 583.63c-13.791-23.423-32.582-44.455-49.863-65.375-13.077 5.5384-89.423 34.879-94.945 40.846-5.1099 5.5219-9.396 17.079-13.517 23.799-12.321 20.07-27.968 38.679-36.51 60.746 25.549-28.159 54.368-58.823 95.164-61.029 12.585-0.6801 29.469-1.4631 37.748 6.9175-60.18-2.8055-92.096 19.901-129.75 67.37-1.8682 2.3434-9.7524 14.384-11.84 15.228-0.9341 0.3765-2.0054-0.0658-3.0215-0.0988l1.5376-10.874c-17.506 17.214-28.658 56.548-37.225 80.252-17.637 48.722-35.577 96.334-47.5 146.94-31.401 133.37-38.489 269.91-83.572 400.33-1.8677 5.3682-6.1812 22.123-10.082 25.458-6.1558 5.2936-7.9678 4.8623-142.86 43.878-266.94 82.749-87.458 22.023-834.56 284.14l-341.76 125.48-3.1868-0.6155c0.1924-5.9449 1.4285-9.5192 4.2581-14.717l885.66-529.73c1.7034-11.351 4.3406-25.063 3.1047-36.472-2.583 6.6893-5.2749 18.134-9.2034 23.75-2.1184 3.0098-3.6907 3.5925-79.863 49.952-698.63 379.19-537.26 293.44-790 423.29 133.71-602.78-312.54-972.79-667.57-515.7-152.91 196.87-221.25 465.18-247.44 715.11-8.8684 84.628-14.209 166.63-8.5222 251.63-327.19 90.189-309.78 86.324-338.66 91.523-78.526 14.137-730.4 57.158-730.62 57.172-175.42 9.4458-217.26 12.567-858.82-162.21-76.604-20.948-74.334-19.423-81.027-23.5-6.1487-3.7427-0.8817 0.564-95.017-93.372-146.37-150.68-154.5-157.47-158.43-175.45-0.7941-3.6265-3.9826-11.788-3.5029-15.148 1.4365-10.057 14.961-30.252 19.642-40.692 13.822-30.837 22.759-67.428 40.344-96.02 10.455-17 26.75-30.428 36.565-48.029-23.483-60.004-74.012-194.41-74.513-259.25l45.94-76.359c-6.4478-7.6566-16.631-13.494-24.847-19.318-18.429-13.063-36.776-26.118-56.622-36.983-1.2398 76.77-5.3118 107.01 47.016 279.21l27.732 79.496c1.9019 5.2332 9.0162 20.288 8.0219 25.123-0.4825 2.3469-23.547 23.07-31.011 37.615-10.86 21.164-30.686 94.408-61.327 147.58v12.233l8.5645 40.384c25.175 22.135 250.84 257.7 265.24 265.95 7.0794 4.0581-19.939-3.9548 308.34 86.614 204.44 50.496 360.83 93.61 498.52 106.03 56.95 5.1372 109.14 0.0354 360.99-16.794 380.6-27.135 273.46-18.918 486.07-36.889 89.82-12.112 232.17-60.586 233.8-60.738 4.9507-0.4614 15.676 3.1484 21.022 4.228 358.59 76.253 310.9 61.077 355.06 72.941 15.409 4.1401 30.497 14.579 46.008 20.019 83.964 29.453 175.71 15.17 254.5-22.637 178.19-85.502 280.03-273.84 342.77-452.55 391.1-153.56 181.83-75.071 954.12-356.23l148.05-50.741c10.961-3.6812 23.049-11.368 34.615-12.184 11.181-0.7885 23.242 3.3186 34.148 5.379 77.257 11.819 10.899 2.0474 347.97 50.892 26.318 3.1812 57.555-15.137 76.813-30.892 40.687-33.266 67.527-82.853 87.747-130.37 51.951-122.12 70.028-253.17 82.473-384.32 10.385-109.42 15.22-234.4-42.362-332.22zm-1779.4 1264.8c-5.8311 15.333-30.536 85.626-43.928 94.729-1.7468 12.836-11.86 28.618-19.651 40.524-8.0669-10.708-22.375-31.216-33.261-34.502-53.215 77.601-56.124 77.98-105.69 126.06-6.1814 5.6152-15.412 12.038-20.33 18.662-3.8738 5.2251-2.3081 9.3049-1.3735 15.22 6.3184-0.0686 19.34-14.698 24.643-19.505 39.918-38.978 73.434-76.081 104.48-122.61 10.14 6.48 19.98 12.615 30.871 17.678-3.9202 5.9691-7.8445 11.776-11.283 17.252-191.76 305.32-481.81 316.43-607.6 14.591-80.156-192.34-61.785-405.96 16.448-595.78 39.662-96.243 99.025-181.01 173.59-253.22 30.906 42.651 39.384 75.685 96.629 250.33 7.0906 22.81 12.668 51.719 24.069 72.499 5.7419-1.6951 8.9561-4.8076 13.324-8.8047 0.7495-19.458-6.488-37.116-56.116-186.67-9.8682-26.211-19.701-53.694-33.217-78.271 39.738-32.713 76.717-63.239 140.21-81.158 11.154-3.1427 28.764-3.3599 38.324-7.7086 0.4941-0.2308 2.7747-4.4038 3.2415-5.162l-0.7966-7.3873c-67.143 3.7527-139.44 44.488-186.69 90.79-10.725-17.324-20.706-28.192-34.168-42.939 78.058-66.774 163.55-117.2 270.17-109.14 66.099 4.9971 128.08 42.17 170.69 91.927 59.121 69.029 89.588 161.13 103.65 249.53l-214.92 119.05c-14.698 8.3102-55.413 26.052-63.05 40.398l3.1318 16.024 3.489 2.2911 58.324-34.508c177.08-109.45 184.67-112.43 214.34-137.01 17.115 154.94-2.2255 301.37-57.555 446.83zm1792.7-846.09c-9.6978 96.858-29.259 199.26-74.726 286.34-22.775 43.631-57.006 91.809-105.77 107.25-12.555 2.1703-26.456 2.2417-38.186-3.2198-99.002-46.078-132.39-385.6-14.808-630.79 25.193-52.48 54.121-102.25 111.54-122.49 18.818-0.4452 31.346-1.3079 48.681 7.813 29.231 15.387 47.857 57.766 57.418 88.273 26.593 84.991 24.615 179.2 15.851 266.83z"/>
    <path d="m4605.7 522.97-7.2524 0.1017-228.6 91.205c4.5708 4.9693-11.873-4.1422 210.99 111.73l24.863-203.03z"/>
    <path d="m1342.5 659.2c28.138-18.127 7.4526-6.3538 105.2-58.205l-227.68-59.884-78.879 45.205 201.37 72.884z"/>
    <path d="m3792.3 571.91 0.4397-4.8818c-35.247-2.978-71.126-1.2061-106.54-2.978l-147.5-7.9532c-26.951-1.6785-63.022-8.063-89.148-3.7224 70.142 20.35 140.71 19.016 338.16 23.019l4.5878-3.4835z"/>
    <path d="m3428.7 559.7c-5.8245 13.371-5.522 30.678-6.9231 45.153-2.4177 24.766-6.0994 49.829-6.9229 74.691l29.918-5.3845c14.675-25.773 4.2888-6.9324 51.703-94.438-19.258-4.9091-51.758-9.0822-67.774-20.022z"/>
    <polygon points="3452.6 814.71 3576.3 585.12 3518.9 582.26 3392.5 815.44" fill="rgba(0,0,0,0.651)"/>
    <path d="m3770.8 620.28 12.445-28.563-184.86-5.7912-38.105 71.029c114.29-5.4748 158.96-21.361 210.52-36.675z"/>
    <path d="m368.8 982.16 1.1814 2.4422c29.439-21.156 47.986-32.527 64.319-47.991 21.462-20.324 40.118-46.552 60.734-68.304 287.06-297.54 264.55-272.44 265.46-279.08l-7.0715 1.0632c-237.38 79.663-223.65 74.607-224.41 75.252-20.775 17.652-38.499 61.734-160.21 316.62z"/>
    <path d="m809.85 681.95-18.972-66.859c-1.6265-7.842-2.9181-16.361-8.4066-19.72-259.11 267.55-248.94 255.63-266.98 280.68 7.7752-1.8746 12.622-5.9888 80.967-53.942 139.7-91.216 89.774-58.447 213.4-140.16z"/>
    <path d="m840.7 691.08 132.65 182.62c60.361-36.128-2.2313 0.9367 347.32-205.22l-200.77-71.238-279.2 93.836z"/>
    <path d="m1481.9 602.4-114.86 58.546c442.25 19.499 358.82 15.967 446.09 19.23l40.039-42.807c-366.07-37.527-355.97-36.912-371.27-34.969z"/>
    <path d="m1904.7 639.97c-5.6318-0.033-28.234-2.1649-32.159-0.2006-1.329 0.6646 0.7175-1.4136-37.651 42.609 88.076-0.0538 484.54-12.42 722.65-24.024 60.902-2.9691 91.773 1.4698 155.73-26.522-53.854 0.7853-606.17 8.7362-808.57 8.1373z"/>
    <path d="m4570.1 744.75-218.24-114.45-121.68 444.05 124.09-0.4561c49.334-75.325 1.8174-2.8473 215.82-329.14z"/>
    <path d="m4142.7 1054.2c-4.2578 14.45-14.423 36.164-13.626 50.45l5.4121-1.0632c23.16-9.7306 53.901-18.008 74.478-31.873 62.752-221.15 119.48-417.11 119.15-434.81l-7.6094 0.9918-61.923 21.714c-77.056 269.68-50.802 180.64-115.88 394.59z"/>
    <path d="m4826.8 670.24c4.0391 0.2115 8.9834 3.5191 12.06 0.8984 0.6313-0.5549 0.7969-1.4946 1.209-2.2418-12.171-7.3021-22.967-7.4092-36.703-5.0081-17.648 5.9979-39.944 14.53-47.5 31.304l31.154-18.936c13.594-6.0669 24.762-6.7965 39.78-6.0164z"/>
    <path d="m2811.7 666.89c-67.795 9.3692-120.36 26.335-457.53 124.04l-105.41 31.739c-21.072 6.1483-44.099 10.909-64.256 19.607 137.19 21.748 97.658 14.851 177.82 30.612 7.7168 1.4506 18.989 5.1373 26.662 4.9257 8.3655-0.2306 29.19-12.714 38.118-16.527 146.78-58.112 260.95-107.93 350.83-124.45 135.46-24.902 280.85-5.8635 283.38-8.272l-166.76-42.565c-25.714-6.574-55.934-18.42-81.923-19.81l-0.9342 0.7032z"/>
    <path d="m2690.7 675.85c4.085-1.0081 3.843-0.6483 5.835-4.2471-18.486-13.308-108.38 10.093-819.32 166.39 46.667 1.7465 12.453 1.3869 173.75 0.8406 28.508-0.0137 69.269 4.9232 95.352-4.8268 52.255-19.528 32.477-12.553 544.38-158.15z"/>
    <path d="m4132.5 1015.8c102.83-346.74 97.453-322.32 100.3-344.89l-3.1865-1.3351-948.02 322.29c10.954 84.527 6.6206 225.66 5.9067 331.01l-9.5051 136.25 823.98-341.82c6.5664-34.456 20.522-67.867 30.522-101.5z"/>
    <path d="m97.435 1274.4c1.1419-63.35-1.2584-54.5 24.332-117.43 35.107-86.335 32.768-70.247 65.656-115.77 161.91-224.11 240.52-261.56 260.85-281.2 7.2968-7.0494 13.151-20.027 18.484-28.717 10.887-17.742 27.492-38.021 33.681-57.752-7.5494 4.1483-15.19 13.607-21.484 19.728-246.42 240.02-291.31 294.1-460.77 540.11 38.236 16.893 20.584 7.8905 79.249 41.03z"/>
    <path d="m2540.5 674.95-4.8022-0.4725c-621.71 23.483-491.65 19.491-664.65 22.34-83.966 0.8307-17.216-23.346-337.26 138.55-35.813 18.338-76.209 34.815-110.02 56.392l5.7227 1.3077 1111.6-216.15-0.6265-1.9697z"/>
    <path d="m989.95 877.87c411.6 17.501 394.14 18.32 395.99 17.816 9.5302-2.5879 21.47-11.992 30.948-16.362l366.62-183.34-443.7-20.796-349.86 202.68z"/>
    <path d="m4890.5 730.64c-6.5112-20.266-20.687-40.832-37.802-53.697l-3.709-0.0248c6.4834 6.6237 13.462 13.398 18.983 20.86 5.6592 7.6344 15.467 30.821 22.528 32.862z"/>
    <path d="m4795.4 875.8c-3.3521 15.692-9.2036 33.656-7.6104 49.735l4.5054 0.4561c36.859-171.78 46.777-198.34 43.819-242.97-5.2471-3.8325-8.2417-3.9203-14.726-3.6621 3.5991 3.1097 8.4619 5.6702 8.874 10.557 2.4171 29.179-28.996 158.56-34.862 185.89z"/>
    <path d="m4808.4 687.96c-4.5332 0.3351-9.4229 0.3379-13.874 1.1648-7.2524 11.046-5.9067 30.972-6.7031 43.909-2.5278 40.409-7.1978 84.312-3.5166 124.59l2.5 2.4423c6.5972-19.279 41.767-147.21 32.198-163.6-2.8844-4.901-5.4396-6.3873-10.605-8.5026z" fill="rgba(0,0,0,0.651)"/>
    <path d="m4876.6 728.9c-6.2637-10.049-19.01-33.192-29.752-37.334l-36.127 203.48c16.858-36.913 4.1749-5.6607 65.879-166.14z" fill="rgba(0,0,0,0.651)"/>
    <path d="m4761.3 911.35c1.4565 1.0851 2.4458 2.1868 4.2588 2.4423 5.7417-12.794 4.2305-31.022 5.4116-44.969 4.8076-57.15 9.2031-117.06 8.7368-174.35l-4.7529-0.4586c-3.1597 3.5136-5 6.8377-5.6045 11.596-3.6265 28.552-0.8516 59.631-1.5938 88.523l-6.456 117.22z"/>
    <path d="m815.9 698.9-484.02 482.97c186.49 86.385 152.33 70.618 185.13 85.59l441.22-382.91-136.88-186.42-5.4478 0.7747z"/>
    <path d="m4721.5 746.46c8.4341-14.11 19.808-25.939 29.644-39.019-0.7422-2.1401-1.1816-4.4891-2.8027-6.1044-20.495 18.744-43.352 54.09-51.621 80.584l4.2031 5.2418c7.7197-13.162 12.747-27.571 20.577-40.703z"/>
    <path d="m4752.4 897.87c7.6909-165.31 8.9277-170.17 4.6152-181.88-17.252 15.046-38.131 49.584-44.34 71.57 35.275 93.706 26.718 69.735 39.725 110.31z" fill="rgba(0,0,0,0.651)"/>
    <path d="m4834.8 886.02 32.802-86.35c5.3848-13.997 10.357-34.387 21.758-44.615 0.7969-8.519 1.0439-9.5657-3.1597-16.917l-4.9443-0.1757-86.456 222.22 2.4722 1.3076 4.3413-3.7499c16.785-19.945 24.203-47.505 33.186-71.719z"/>
    <path d="m3175.1 772.64c2.5825-0.6868 6.0439-3.1592 8.489-4.4476l1.2637-3.4011c-56.501-20.194-193.49-30.357-277.77-24.516-158.99 7.2311-179.8 21.505-497.37 149.38l-1.1646 1.5548c16.964 13.025 175.62 129.52 180.4 129.04 28.505-27.975 58.95-53.988 92.634-75.587 77.42-50.59 175.28-82.691 268.27-62.798l55.659 16.742-20.11-151.17c205.1 25.259 185.34 26.363 189.7 25.208z"/>
    <path d="m4630.3 764.3-46.566-12.401c-203.53 313.44-202.84 312.1-205.16 320.24 46.217-14.388 9.6968-3.4818 188.6-55.862 27.306-161.02 38.047-183.43 63.132-251.97z"/>
    <path d="m321.38 1168.2c340.84-347.14 265.56-271.26 365.06-369.41 12.547-12.327 28.846-25.343 38.563-39.958-12.929 3.5768-27.978 16.184-39.25 23.653-189.25 129.39-278.32 190.22-352.11 251.43-9.0769 42.076-10.151 91.194-12.264 134.28z"/>
    <path d="m4897.2 762.39c14.396 101.78 19.918 198.89 2.0327 301.03-4.9717 1.5522-5.2197 1.228-9.8623-1.2169-30.577-16.116-60.644-72.492-102.31-49.939l-5.3848-1.1099-2.0879-15.453-7.2798 27.98 2.2246 0.4039 2.6104-2.8461 4.313-6.7115c12.61 7.3569 23.379 1.8763 36.071 10.022 18.077 11.612 35.193 26.915 51.099 41.351 8.8462 8.0192 18.379 21.055 30.165 24.082 4.7803-12.198 5.0273-30.066 7.0601-43.409 13.517-88.422 21.621-196.77-6.6211-282.96l-2.0327-1.2197z"/>
    <path d="m3160.9 785.16-154.31-19.541 14.918 113.15c105.74-69.806 70.646-46.213 139.4-93.614z"/>
    <path d="m4890.5 766.17-46.044 121.75c-4.835 12.673-15.934 32.178-16.209 45.398 4.2305 0.2747 5.7969-0.1044 9.4233-2.3104 15.137-11.937 37.143-34.332 56.099-38.093 5.9351-1.464 3.9834-0.9918 8.6538-2.099 3.2422-8.0767 0.7969-20.28 0.2471-29.09-2.0054-31.969-5.0269-64.282-12.17-95.556z" fill="rgba(0,0,0,0.651)"/>
    <path d="m3125.1 984.71c7.7197 10.036 16.593 25.299 26.511 32.835l68.352-42.093c10.248-6.2087 24.203-12.291 32.528-20.582-11.648-43.211-26.154-85.268-41.484-127.29-3.6538-10.038-8.4062-30.332-16.676-36.574l-3.1045 0.684-166.76 113.57c39.56 21.321 69.753 46.793 100.63 79.45z"/>
    <path d="m218.51 1059.8c-7.2638 16.67-17.168 34.961-20.686 52.744 14.856-8.651 24.928-28.7 39.043-39.236 24.925-18.602 61.832-28.766 83.607-50.843 11.948-12.12 6.11-17.437 116.52-236.05-13.047 10.568-29.764 22.824-40.102 35.898-28.992 36.659-37.42 95.378-52.544 138.9-10.322 29.708-50.313 52.013-75.792 68.474-17.578 11.359-31.467 21.468-50.049 30.118z"/>
    <path d="m4694.5 813.03c26.417 47.092 45.679 122.03 53.544 135.58 4.0386-34.697-13.462-71.595-25.303-103.71-4.6978-12.747-8.6265-27.953-16.319-39.115l-9.2031-0.5797-6.0713-13.03-3.4341 5.6126c-1.978 6.607-3.4614 8.541-0.6592 15.12 3.3242 0.7253 4.2583 1.1018 7.4453 0.1183z"/>
    <path d="m4706.3 974c7.9395 3.5715 18.626 9.739 27.198 10.61l3.187-9.769c-5.8789-8.3488-70-32.766-84.148-38.686l17.774-67.381c3.8467-13.027 10.028-25.675 12.144-39.115l-3.9565-1.3351c-11.978 28.184-20.467 57.164-27.445 86.949-2.1704 9.291-6.0439 20.445-5.1099 29.98 19.395 10.887 40.11 19.634 60.357 28.747z"/>
    <path d="m4730.2 951.03 3.4346-4.2719c-7.2529-33.291-24.039-75.004-39.973-105.38l-2.5552-0.8463c-13.269 26.217-18.874 57.79-25.604 86.262 61.868 24.392 49.28 19.848 64.698 24.236z" fill="rgba(0,0,0,0.651)"/>
    <path d="m1392 913.68c-72.374 54.19-50.687 50.885-350.18 299.28-16.549 13.555-36.928 27.189-50.302 43.766 12.151-1.8351 34.665-16.88 255.58-131.48 554.83-279.29 529.29-265.74 530.27-268.36-48.942 5.2576-7.1654 2.3199-278.9 42.7-34.033 5.1894-72.403 15.198-106.47 14.093z"/>
    <path d="m988.23 1324.5c264.85-0.7942 246.67-0.2126 247.24-0.4259 7.478-2.8406 20.879-17.884 27.86-23.368 67.389-52.934 99.919-70.894 832.44-444.54-283.34 1.8728-266.86 0.5392-276.65 4.3379-26.534 10.291 6.7179-4.6839-364.04 180.99-411.84 211.51-290.42 148.39-545.76 283.22 25.038 2.9725 53.47 0.077 78.904-0.2114z"/>
    <path d="m2209.5 1027.4 155.45-134.56-223.22-37.362c-79.345 39.729-661.2 332.6-733.31 382.48 818.98-191.55 752.6-168.9 758.68-172.59 14.159-8.5906 29.437-26.777 42.404-37.972z"/>
    <path d="m541.4 1270.5c346.93 59.138 327.24 54.909 332.11 54.035 49.687-38.21-28.062 26.632 487.87-411.6l-289.86-14.362c-31.03-1.61-66.846 0.739-97.082-4.511l-433.03 376.43z"/>
    <path d="m309.61 969.89c7.9585-13.979 3.4403-22.308 24.701-80.216l-72.215 86.946c-12.383 14.975-31.946 32.986-39.699 50.587 8.8502-1.592 83.798-51.318 87.214-57.318z"/>
    <path d="m2266.4 1993.1c11.009-147.29 26.441-282.39 71.335-446.72 68.115-220.89 174.92-455.42 389.5-568.44 72.322-38.09 160.48-52.417 239.52-27.64 95.989 30.096 162.97 109.21 207.86 195.98 11.95 23.068 20.055 49.812 33.242 71.678-25.879-109.04-70-213.74-169.37-274.76-45.302-27.807-105.47-46.733-158.93-41.873-142.64 11.681-245.03 95.68-334.43 201.11-59.149 69.759-110.44 148.1-114.36 155.26-12.882 23.557-22.582 50.672-33.461 75.362-86.544 196.37-132.03 409.02-145.21 622.92-5.3081 93.684-6.9907 94.322-3.5632 101.84 6.217 0.3821 9.6758-0.8267 15.165-3.6782 3.5551-19.393 2.0167-41.264 2.7006-61.049z"/>
    <path d="m2437.7 1206.9c44.129-61.414 82.057-120.4 138.88-169.3-23.871-18.23-176.36-131.89-189.85-134.21l-3.4341 0.6758-120.72 106.17c-21.91 18.895-47.149 37.582-66.912 58.584-19.209 20.409-34.981 46.205-51.517 68.881-62.176 85.254-117.87 173.77-172.78 263.78-18.772 30.769-41.118 61.76-57.379 93.787 48.773-24.65 362.97-183.29 472.13-239.8 8.2666-3.9973 20.308-7.4834 27.574-12.698 6.7641-4.8517 18.508-27.761 24.006-35.87z"/>
    <path d="m4905.7 904.96-5.604-0.9368c-21.622 12.338-99.451 81.493-116.65 79.977l-0.3296 3.7555 8.1865-0.1622c42.033-12.722 69.616-52.851 111.07-62.985 5.4399-6.6896 3.5991-11.214 3.3242-19.648z"/>
    <path d="m4780.3 965.58c3.8462-2.7938 3.7642-9.2746 4.6152-13.939-1.4556-7.6702-2.8018-11.184-8.269-16.906-7.6646-2.739-8.1045-2.3461-15.879 0.3407-5.6323 4.8433-6.1812 9.4009-7.3628 16.31 8.1318-3.0961 10.962-4.8708 19.726-3.4094 4.5815 5.6429 6.98 9.9034 7.1699 17.604z"/>
    <path d="m4897.4 938.21-75.742 49.84c46.485 36.884 29.643 22.609 73.818 62.09l8.8735-111.93c-2.857-0.9122-4.0659-0.8434-6.9502 0z" fill="rgba(0,0,0,0.651)"/>
    <path d="m4631.2 1084.7 15.77-119.65c-2.2529-1.467-3.0771-2.1042-5.7964-2.4423-8.3521 26.181-10.192 58.285-12.582 85.592-0.9893 11.28-3.5991 25.629-0.9341 36.689l3.5435-0.1841z"/>
    <path d="m4769.4 972.56c-0.271-0.1524-0.5513-0.2916-0.8398-0.4163-1.854-0.8007-3.9551-0.9578-5.9414-0.5956-12.484 2.2762-10.351 16.755-6.6724 25.269 2.0806 4.8163 3.8511 10.179 6.6108 14.664 5.1948 8.4518-4.0098 23.218-13.485 22.619-11.426-0.7228-12.541-15.827-13.989-24.645 0 0-3.1313 3.2361-3.1313 3.2372-0.688 13.668 2.3281 25.322 6.3936 38.171 0.6606 2.089 1.3765 4.2694 2.9507 5.7933 2.5283 2.4476 6.6758 2.4863 9.8838 1.0389 15.609-7.0435 18.62-26.144 20.144-41.308 1.1191-11.132 5.4951-23.344 3.8315-34.557-0.5527-3.7253-2.5122-7.4473-5.7558-9.271zm-2.5855 25.25-2.2524 1.687-2.6372-3.6456-0.3853-16.126 6.5112 2.9065c2.7471 6.0467 0.5777 9.1262-1.2363 15.178z"/>
    <path d="m4721.8 999.26-64.669-29.706c-6.5664 30.434-10.248 61.128-14.066 91.996-0.3574 2.9093-2.0337 9.6016-0.6602 11.777 57.125-51.149 65.791-55.648 79.396-74.068z" fill="rgba(0,0,0,0.651)"/>
    <path d="m3261.9 1407.1 1.0715-408.72c-4.011-2.6071-3.9009-2.3323-8.6812-1.5301-31.401 11.698-60.165 29.354-89.148 46.021 52.83 86.88 69.231 191.51 83.214 290.77l13.544 73.458z"/>
    <path d="m4633.9 1094.5c-0.8232 1.2883-1.3735 5.4423-1.7026 6.9752-0.8242 4.0521-0.083 8.074 0.6313 12.09l4.6436 3.3488c28.049-31.879 58.352-58.875 90.934-85.905l-0.6045-8.4834-2.4727-1.2856c-26.758 17.527-48.27 38.67-72.638 59.092-4.1479 3.4916-16.264 10.305-18.792 14.167z"/>
    <path d="m4564.9 1038.3c-6.9048-2.6869 3.5322-4.3486-130.14 35.233-15.989 4.5907-37.693 7.4368-52.033 15.019 15.191 31.381 24.703 44.675 127.01 201.31 25.11-83.897 43.901-164.58 55.164-251.57z"/>
    <path d="m4809.6 1081.9c-2.7471-6.9341-6.813-23.373-11.071-28.508-1.1543-1.4204-8.6821-2.8792-10.632-2.8187 0.2744 13.648 9.3403 29.467 14.505 41.991 49.782 126.42 43.88 125.77 52.28 135.04l3.0771 0.4615 1.813-2.3022 3.187-9.1399c-4.9146-3.9798 2.8598 7.9001-53.16-134.73z"/>
    <path d="m4816.5 1050.5-4.2031 6.1044c4.0386 19.431 16.484 39.826 24.148 58.367l25.302 70.568 3.4888-0.7307c5.3369-15.419 0.542 0.2488 25.302-84.241-43.758-26.694-57.156-50.484-74.038-50.068z" fill="rgba(0,0,0,0.651)"/>
    <path d="m139.37 1214.9c43.467 87.052 30.981 63.018 56.424 109.26l78.922-101.36c6.7039-8.7225 22.014-24.242 25.426-33.997 4.1374-11.824 0.3379-38.219 0.956-51.81 1.3407-29.461 7.2775-57.906 10.272-87.081-124.3 116.3-152.86 142.22-172 164.99z"/>
    <path d="m4666 1187.4c55.206-124.65 53.464-118.08 55.357-129.2l-2.6646-2.7472c-30.303 22.357-55.66 51.123-81.566 78.34l11.044 85.273 3.104 8.2443c6.9235-9.0987 10.055-28.697 14.726-39.911z" fill="rgba(0,0,0,0.651)"/>
    <path d="m4729.1 1084.7c-2.9941-9.9365 0.2476-14.873-1.5933-24.42-2.7476 4.1949-3.4067 6.6895-2.9395 11.722 1.4565 15.178-10.274 32.332-16.264 45.964-15.384 34.931-30.851 69.68-42.912 105.93-2.1978 6.6317-7.5547 18.118-7.4175 24.879 0.082 3.4614 2.1978 4.5851 4.4507 6.8652 13.9-23.228 22.225-54.447 32.225-79.779 11.209-28.406 29.423-61.422 34.45-91.158z"/>
    <path d="m4771.6 1075.4-2.8848-0.4093c17.89 37.248 19.764 80.52 34.753 232.24 21.436-30.456 12.214-16.51 41.208-62.785-15.247-46.991-33.571-91.534-54.835-136.07-4.7523-9.9698-9.8348-25.895-18.242-32.969z" fill="rgba(0,0,0,0.651)"/>
    <path d="m1657.9 1540.8c191.56-12.655 191.31-11.83 209.66-16.522 246.03-391.24 184.88-300.47 287.29-437.36-360.79 82.172-800 182.73-808.85 182.8-36.382 0.272-257.73 221.9-293.94 261.78-24.431 26.914-45.585 57.587-68.332 85.985-19.712 24.607-43.162 49.076-60.25 75.474 193.4-45.642 338.45-58.837 880.11-128.95 7.7638-1 37.838-2.6538 43.3-6.684 1.7197-1.2693 5.2115-6.7307 6.2361-8.618 0.9755-1.7939 1.2281-3.7444 1.5605-5.7224-10.95-5.349-43.489 1.1099-56.624 2.1428l-120.58 8.4203c-10.475 0.8021-28.401 4.9449-38.11 3.052-0.9999-0.1951-4.4752-3.522-5.4999-4.3269-3.1569-23.67 6.769-30.358 248.02-266.2-32.574-22.159-69.148-47.461-108.25-55.801l-3.7748 3.4258c1.8636 8.5121 2.7651 7.9059 77.261 70.881-5.8051 5.9891-15.113 18.497-22.574 21.511-10.703-10.624-31.409-36.804-44.739-42.15 5.3625 18.178 21.104 37.444 31.44 53.497l-124.76 122.93c-71.262 74-87.988 96.046-111.83 101.84-33.027 8.0341-3.2747 2.0803-433.75 60.507-13.223 1.7947-27.052 6.6274-38.402-2.0519-15.686-11.996-16.383-12.278-17.769-14.564-3.905-6.4412 4.7728-16.305 8.0642-21.227 33.688-50.374 230.36-264.31 271.28-289.24 38.049-23.192 505.22-112.64 745.33-192.91-18.803 27.887-13.497 11.643-290.32 274.5-54.986 52.343-111.56 106.21-161.2 163.6z"/>
    <path d="m136.86 1180.8c14.503-25.747 27.996-57.642 36.228-86.023l-3.0484-2.7472c-16.286 19.492-32.52 63.428-33.18 88.771z"/>
    <path d="m4313.2 1095.5-89.176-1.6978-78.132 84.609c20.082-4.2169 45.055-21.453 64.039-31.098 34.093-17.324 70.302-32.673 103.27-51.812z"/>
    <path d="m4755.2 1095.7-2.2529-1.2197-27.06 264.95c5.8667 2.7764 4.0557 2.4578 44.643-7.3324l-10.33-181.21c-1.2911-23.351 1.0443-52.79-4.9996-75.194z" fill="rgba(0,0,0,0.651)"/>
    <path d="m4359.1 1096.9-2.5005 0.0659-219.45 111.76c219.17 52.269 138.62 32.869 350.96 84.65-16.731-26.247-116.37-190.78-129.01-196.47z"/>
    <path d="m2815.5 1464.4 3.1316 2.9451 8.6814-1.7224c2.4727-1.2227 7.033-2.5001 7.9124-5.099 13.575-41.296 39.921-204.09 53.077-356.31-4.8076-4.1785-5.2744-4.3542-11.648-4.8844-4.8127 7.9596-1.49-7.5763-30.522 195.6l-30.632 169.48z"/>
    <path d="m4888.1 1130.1c-2.8848 11.503-7.1704 22.027-7.7476 34l1.0991-1.1511c9.0664-14.516 16.099-45.131 15.604-62.329-5.1371 8.0904-6.621 20.233-8.956 29.48z"/>
    <path d="m4109.7 1183.6c25.247-24.217 55.329-48.568 77.307-75.562l-4.3408-1.3352-73.626 30.458 0.6602 46.439z"/>
    <path d="m4663.1 1293.1c22.621 36.737 15.927 25.639 30.082 49.724l40.687-242.78-70.769 193.06z" fill="rgba(0,0,0,0.651)"/>
    <path d="m2973 1150c44.846 24.05 55.038 45.832 71.208 48.592-1.6929 10.425 2.1233 3.1321-109.15 172.15-58.759 88.309-64.448 95.9-69.615 109.56 4.3955 4.3762 7.0876 9.2362 13.434 9.412 32.17-32.535 57.005-79.158 81.318-117.87 33.379-53.161 66.758-105.51 95.138-161.57 9.0107-17.802 19.203-34.805 25.934-53.667-15.247 10.354-22.638 25.024-34.286 38.78-1.6758-12.629-22.472-27.45-32.362-34.983-32.06-24.406-72.775-43.008-112.99-47.376l-5.0547 5.8708 0.907 4.8817c25.796 7.9779 51.483 13.305 75.522 26.228z"/>
    <path d="m4626.7 1138.4c1.7305 27.109 4.3677 52.922 10.714 79.364l2.4453 1.2196-9.5605-80.556-3.5987-0.0275z"/>
    <path d="m4739.6 1140.9c-5.1069 10.089-4.6475 13.49-17.5 95.952-6.4282 39.939-16.071 80.98-19.725 121.12l3.4893 3.4424 7.6372-0.7391c28.59-205.37 30.363-208.95 26.099-219.78z"/>
    <path d="m4781.2 1193.1c-1.9502-16.409-3.6538-35.791-10.522-50.952l-1.8135-1.2828c-2.9941 25.571 3.3242 54.661 5.3843 80.455 3.0498 38.269 3.709 77.806 9.231 115.73 4.0669-0.0632 3.874-0.4066 6.8682-3.272 3.5469-12.29 2.4497-10.42-9.148-140.68z"/>
    <path d="m1923 1186.6c-22.217 6.6537-47.797 12.305-68.225 23.464 37.114 27.437 23.774 17.83 58.497 42.26l104.74-94.38c-3.6164-2.1725 3.2724-3.3867-95.011 28.656z"/>
    <path d="m3013.9 1215.4c-35.797-32.42-67.857-47.356-114.4-59.801l-24.78 262.56c10.412-5.5934 41.511-57.189 50.522-70.664 88.619-128.81 85.279-121.9 88.654-132.09z" fill="rgba(0,0,0,0.651)"/>
    <path d="m4004.8 1234.5c19.505-11.044 42.912-21.198 60.934-34.225 3.7361-2.7061 5.467-10.854 6.9502-15.063 2.5276-7.1869 8.1868-18.467 6.5107-25.989l-2.1973-1.2197-827.45 364.32-12.61 116.08c707.27-366.58 554.92-285.64 767.86-403.9z"/>
    <path d="m2793.2 1435.8 54.478-275.33c-4.8076-2.5961-8.7087-1.5576-13.929-0.8159-40.632 9.2115-76.566 21.258-111.66 44.14-6.502 4.2395-16.782 9.172-20.44 15.044l70.233 165.86c5.4398 14.368 11.648 39.909 21.319 51.104z" fill="rgba(0,0,0,0.651)"/>
    <path d="m301.51 1432.1c-10.423-0.2472-23.017-13.56-31.294-19.978-23.906-18.538-50.74-43.436-77.389-57.202l-96.664 125.25 137.81 104.98c13.668 10.453 31.807 28.741 46.784 35.403 3.3862 1.5066-36.279-5.9845 357.46 60.845 50.018-83.143 29.817-49.962 86.541-142.32-35.146-7.3157-234.85-37.749-246.97-48.958 1.2556-7.6042 1.3598-8.3048 6.8214-13.676 24.777-3.0632 57.203 7.4614 81.931 12.167 171.12 31.189 159.1 30.453 170.91 29.741l117.2-174.69-325.5-53.738c-9.8489-1.4835-15.514 7.6949-25.005 4.4917-2.3325-3.6265-3.7144-5.8654-3.9396-10.335l-184.51-86.735-106.89 139.8c18.85 15.428 94.399 66.625 102.19 82.153-2.2309 7.9944-2.6126 8.0578-9.4835 12.805zm18.038 14.684c14.247-13.292 12.498-11.445 133.35-86.095l5.2856-0.0686c5.4918 8.368-2.0247 88.045-3.1372 104.49-2.0512 30.436 8.4755 16.74-114.67 131.01-11.008 2.574-28.173-2.2748-39.547-3.9203-6.2335-1.6897-6.3764-1.3297-9.6043-6.8517 2.4835-18.783 19.195-129.29 28.316-138.56z"/>
    <path d="m2450 1700c12.753-35.386-1.759-76.743 47.929-215.35 5.0686-14.134 10.214-32.096 18.989-44.205 21.308-61.282 64.52-127.11 107.15-175.17l27.692-29.662c9.0806-9.1362 7.3325-3.8896 5.7556-15.014l-3.6621-2.7059c-20.398 11.761-185.64 170.07-214.81 482.23l2.5713 2.6345 8.3845-2.7667z"/>
    <path d="m65.308 1360.1c-0.7042 6.3325 1.8791 16.516 2.7038 23.024 3.4101 26.903 10.021 54.282 19.24 79.79 28.754-35.194 10.044-10.971 92.572-121.45l-59.748-114.04-2.4345-1.0083-5.3094 4.8818c-0.4981 16.069 1.5305 39.302-2.732 54.439-5.7188 20.307-42.805 60.997-44.292 74.372z"/>
    <path d="m3071.4 1226.4-4.6978 6.1042c2.6724 16.699 38.652 42.033 67.802 162.39 1.8684 1.0358 3.3794 2.0494 5.4946 2.4423l4.3682-4.8844c-13.709-57.046-30.687-118.21-67.83-165.05l-5.1374-1.0028z"/>
    <path d="m4408.5 1294.4c-11.093-6.0367 15.543 0.9894-280.27-65.191l1.5107 79.252c298.22-13.906 264-11.853 278.76-14.06z"/>
    <path d="m3593.9 1554.7c12.967-1.5468 29.148-13.159 41.264-19.003 137.13-65.223 40.698-19.971 474.31-221.91 2.5684-4.5604 1.7959-1.5349 1.4014-82.493-510.66 326.35-494.49 302.05-516.98 323.41z"/>
    <path d="m1670.9 1259.6c-16.882 64.491-19.945 136.04-21.417 202.62 49.088-43.011 18.791-16.485 134.25-117.53l-38.904-63.123c-7.7748-13.132-14.931-28.266-24.857-39.777l-7.9119 1.7141-41.16 16.099z"/>
    <path d="m2654.6 1258.1c-39.294 42.167-71.094 88.227-98.022 139.1-3.0769 5.8075-10.871 17.236-11.332 23.541l0.0662 1.2389c115.3 59.508 75.989 39.776 173.6 87.444-58.571-246.47-54.909-234.68-62.17-250.33l-2.1402-1z" fill="rgba(0,0,0,0.651)"/>
    <path d="m1613.8 1260.6-3.4342-0.0768-222.26 51.854c0.2107 0.087 99.466 41.072 111.56 42.249l114.96-92.216-0.8322-1.8104z"/>
    <path d="m2965.8 1408c-18.269 30.612-40.714 62.856-54.149 95.927l47.583-19.882c147.15-69.855 148-69.638 156.13-76.678-13.517-52.323-32.06-104.57-65.522-147.74l-84.038 148.37z" fill="rgba(0,0,0,0.651)"/>
    <path d="m2395.8 1277.6c-272.24 139.93-325.03 166.14-447.48 227.93-44.354 22.715-56.779 20.889-67.681 44.03l2.9092 2.4589 427.7-57.642c55.547-171.65 83.882-198.26 84.547-216.78z"/>
    <path d="m1523.5 1375c61.006 54.937 39.335 34.666 94.978 88.444l16.744-184.88-111.72 96.433z"/>
    <path d="m3365.8 1685.4c6.6633 1.079-24.631 11.734 350.33-129.5l666.87-221c10.852-3.2582 73.379-16.788 77.418-23.39-40.676 0.2292-141.06 7.752-313.27 15.695-8.0215 0.3544-17.665-0.533-25.384 1.4313-16.401 4.173-36.099 17.181-51.566 24.868-114.9 54.264-15.969 7.8884-503.41 235.68-65.989 30.813-140.36 55.711-200.99 96.216z"/>
    <polygon points="1143.7 1565.1 1234.1 1537 1470.8 1379.8 1358.8 1333.8"/>
    <path d="m784.91 1486.4c-4.4615 6.6482-21.665 27.67-21.418 33.774 37.904 0.1442 255.95 1.4337 270.98-0.772l179.62-176.58c-160.32 0.9365-86.101 0.3831-333.23 2.5438l-95.964 141.03z"/>
    <path d="m1589.9 1479.8c-29.525-27.351-59.852-60.458-92.316-83.773l-184.92 123.56c103.3-17.118 42.888-8.3411 277.24-39.782z"/>
    <path d="m3144.7 1573.2c-0.7695 14.522-11.044 73.719-7.3354 82.93l4.7253 1.2911c5.7964-4.3627 5.4946-11.654 6.8955-18.64 15.704-129 0.2639-189.1 6.731-206.74l-3.2693-0.5741c-9.0171 5.2075-11.2 8.5476-17.418 15.95l6.1812 1.2611c5.1618 21.114 3.5854 67.852 3.4892 124.52z"/>
    <path d="m2528.1 1464.9 163.57 112.12c4.4697-2.9258 4.8491-4.3076 7.1538-8.9641 3.2449-7.1813 7.2334-11.865 5.0522-19.654-45.294-32.478-91.986-60.799-140.24-88.611-11.629-6.7032-28.357-19.431-41.505-21.742l-5.2449 2.4176c0.5249 12.802 1.0852 15.557 11.209 24.434z"/>
    <path d="m3117.4 1646.2c7.5278-63.892 11.319-125.81 4.176-190.02-161.18 121.82-161.52 120.31-185.55 143.65 54.236 14.975 17.868 5.5367 181.37 46.365z" fill="rgba(0,0,0,0.651)"/>
    <path d="m2842.1 1493.3c-14.56-7.2911-30.302-8.9531-46.483-9.3021-12.995 7.3654-26.594 14.714-37.884 24.596-60.147 52.626-86.671 175.13-43.511 248.51 18.785 31.935 42.536 43.779 78.456 39.48 34.973-11.47 59.423-38.576 75.824-70.875 56.526-111.34 19.96-209.26-26.402-232.41zm10.577 220.53c-15.247 28.717-33.297 48.628-65.027 58.37-11.237 0.7197-22.417 0.7389-32.527-4.8297-42.95-23.628-60.945-117.49-16.03-199.61 14.711-26.909 33.832-47.576 63.915-56.403 9.3127-0.0248 22.005 0.2281 30.384 4.4751 19.862 10.066 31.978 33.238 38.214 53.593 14.121 46.255 3.4063 102.35-18.929 144.4z"/>
    <path d="m2470.2 1693.7c134.18-49.432 88.591-31.539 201.39-78.422l-156.89-131.25c-20.797 67.581-41.855 138.49-44.495 209.68z" fill="rgba(0,0,0,0.651)"/>
    <path d="m111.74 1559.8c2.6013 3.2856 9.6391 7.1758 13.136 9.802 42.943 32.909 11.78 8.526 157.88 124.06-11.668-56.129-9.9889-52.001-11.259-54.073-4.0964-6.6921-28.755-20.755-36.465-26.571-149.78-114.12-128.9-100.36-146.49-111.13l16.884 41.53c1.6075 4.1259 3.7407 13.118 6.3201 16.379z"/>
    <path d="m1594.4 1538.6c7.6512-3.2252 23.577-23.708 29.157-30.233l-2.5027-2.6016c-23.73 1.4937 14.474-3.5746-230.88 32.706-45.42 7.3679-101.89 13.063-143.87 32.395l18.907 0.6456c343.81-34.861 322.12-29.934 329.19-32.911z"/>
    <path d="m2303.2 1520.6-3.3872-3.011c-24.21 2.1431 27.625-4.5665-418.11 56.104 252.48 374.57 188.48 278.63 294.94 441.4 38.039 62.008 31.176 53.063 37.725 55.362l7.6758-2.4177c6.6541-15.535 3.4836-47.571 4.4617-65.12 8.3634-112.98 13.134-249.04 76.701-482.31z"/>
    <path d="m1014.7 1540.5-265.55 0.4315c-9.9726 16.134-86.615 133.74-87.217 143.2l230.15 12.788c21.637-31.044-1.0183-1.7012 122.62-156.42z"/>
    <path d="m2801.5 1575.5 8.269-4.8048-0.9338-5.8848c-6.1541-3.7224-8.6814-2.4229-15.549-1.4421l-4.8352 6.1072 0.8513 7.14c5.1374 2.4997 6.9233 0.6645 12.198-1.1155z"/>
    <path d="m2824 1565.7-4.0112 0.1097-1.9231 10.544c14.161 14.812 16.864 8.6616 20.082 51.389l6.2913 1.5577c2.8296-11.003-5.8516-44.887-11.566-54.829-2.0879-3.5988-5.6045-6.3541-8.8736-8.7717z"/>
    <path d="m2757.6 1644.1c2.2527-10.928 3.2415-28.95 8.022-38.37 4.1758-8.2168 16.786-16.673 13.791-25.228l-5.6045-0.0685c-12.088 12.752-23.901 41.386-24.643 58.804l0.4121 4.6868c2.665 0.1018 5.3845 0.3766 8.0219 0.176z"/>
    <path d="m2027.1 2111.4 160.85-32.975-82.758-128.58c-245.93-367.44-239.17-357.93-248.42-365.92l-5.3682 1.3818-192.15 88.438c392.79 467.61 349.16 415.79 367.85 437.66z"/>
    <path d="m1338.1 1648.5c-256.12 34.531-301.82 39.484-332.22 48.933 31.211 1.1406 635.71-41.839 639.02-42.411 12.734-2.2032 27.615-11.195 39.366-16.618l74.39-33.255c10.437-4.4751 29.656-10.024 37.654-17.915-16.455-0.4582 34.314-6.4701-458.21 61.266z"/>
    <path d="m2767.7 1673.6c4.0657 12.538 15.656 21.77 28.874 18.772 31.515-10.658 42.111-54.201 30.659-85.512-2.6646-7.3572-7.9944-12.195-13.571-17.442-4.6978-1.3572-8.269-2.5742-13.159-1.6622-11.731 3.8214-19.121 11.816-24.588 22.728-8.5166 17.027-14.148 44.661-8.2141 63.117zm30.989-73.633c3.1047-0.239 5.8242 0.261 8.8738 0.7169 4.5054 3.3242 8.8186 6.5083 11.291 11.717 5.4944 11.621 6.0164 31.741 1.0989 43.42-4.231 10.011-10.714 19.321-20.934 23.598l-10.989-0.0989c-2.8022-1.6538-5.522-3.4835-7.5-6.1455-6.4561-8.6948-6.7583-23.472-5.2473-33.747 2.3903-16.324 10.11-29.807 23.406-39.461z"/>
    <path d="m143.05 1642.7c2.7056 3.481 10.112 7.717 13.803 10.582 40.769 32.354 12.166 9.3613 143.42 115.61-11.214-49.981-10.644-48.658-11.86-50.293-5.8352-7.8324-21.59-16.852-29.524-23.327-45.59-37.2-91.116-76.194-139.74-109.36l17.202 40.65c1.8633 4.4093 3.994 12.648 6.7 16.132z"/>
    <path d="m3010.9 1648.6c-27.378-4.4697-82.24-17.307-100.99-12-1.3184 7.6152-1.5933 13.459-0.5217 21.206 9.593 7.0253 226.52 34.414 253.46 29.272l3.1321-5.3516c-6.1265-6.3901-12.83-7.7501-21.429-9.9258-42.885-10.851-89.862-16.057-133.65-23.2z"/>
    <path d="m95.655 1674c-10.079 31.316-29.268 61.186-37.123 92.746 12.019-11.673 21.64-28.181 31.028-42.145 14.311-21.288 29.237-42.615 42.117-64.801l-5.4344-14.401c-1.7293-2.4342-1.0436-2.1538-4.278-3.1705-8.3442 8.6784-22.618 20.308-26.308 31.772z"/>
    <path d="m637.29 1705.4c-0.2054-0.1182 17.885 3.5575-347.9-58.763l12.385 53.587 387.97 71.686-40.591-51.491c-2.5438-3.2226-8.662-13.181-11.863-15.019z"/>
    <path d="m2833.3 1655.2-11.126 36.096c8.8101-4.1859 20.578-24.873 16.291-37.79l-5.1645 1.6949z"/>
    <path d="m2514.2 2015.2 46.665-51.686c40.959-50.06 80.624-99.515 116.82-153.19 7.0825-10.503 25.379-33.024 24.217-45.345l-7.3408-11.64c-1.5078 0.4945-3.2168 0.5768-4.5217 1.4808-3.2747 2.2662-8.1868 11.2-10.728 14.664-113.65 153.18-150.28 189.53-172.17 230.97-32.022-64.463-47.709-133.31-54.498-204.68-1.4587-15.351-4.5686-35.516-2.0027-50.705l226.05-60.194 0.4727-24.379c-3.8708-2.6317-3.6016-2.6017-8.22-1.8846l-155.71 47.005c-59.139 15.876-80.996 13.542-123.03 41.9 16.088 0.0659 32.634 0.9589 48.563-1.5383 0.4783 128.71 31.404 266.37 125.5 359.9 24.56 24.412 53.717 46.428 85.835 59.763l3.7063-2.7607 1.8101-14.654c-9.6921-9.1729-27.552-12.975-39.203-20.75-42.291-28.228-76.31-68.875-102.22-112.27z"/>
    <path d="m2775.9 1706.4-3.2146-1.4231c-8.8733-13.486-12.033-24.653-16.868-39.62l-4.0659 1.7694-0.522 12.211c1.4233 15.919 9.3318 32.282 22.857 43.128 12.582 2.7993 22.06-0.2006 32.912-6.7856 9.5879-5.813 10-11.294 12.5-21.445-7.4175 3.3928-15.797 11.434-24.066 12.395-8.9288 1.0384-9.8351-4.9862-19.533-0.2309z"/>
    <path d="m203.36 1743.4c36.925 31.719 72.622 68.038 111.83 96.707l-6.7912-36.98c-0.3296-2.0522-0.7444-9.7607-1.7555-11.239-2.3489-3.4255-10.844-8.3268-14.352-11.035-93.698-73.151-99.078-85.816-139.23-112.2 4.15 13.236 9.1137 37.26 17.299 48.186 6.0366 8.0577 24.671 19.412 32.994 26.56z"/>
    <path d="m51.153 1793.4c14.818-10.006-2.9789 2.1588 102.7-70.37l-19.063-53.683c-25.128 44.029-50.867 84.878-85.465 122.31l1.8275 1.739z"/>
    <path d="m1171.5 2049.3-242.2-311.55 220.06-12.387c492.75-32.398 345.21-14.837 389.46-21.662 12.7-1.9615 27.563-11.956 39.835-16.7 4.9396-1.9093 15.214-4.3214 18.442-8.011l0.7885-1.2279c-31.074 0.9402-125.55 10.716-654.06 45.516l-176.41-5.382c372.94 304.49 292.06 237.96 404.08 331.4z"/>
    <path d="m1298.3 2016c8.9149 11.036 54.423 72.304 63.659 75.326 6.1621 2.0139 20.077 0.5605 26.972 0.761 306.82 11.81 518.73 23.8 604.83 24.711l-356.62-429.08-6.2034 0.1979c-26.975 12.533-54.613 26.824-83.06 35.56l300.05 372.19c-10.747 2.6621-22.541 6.7305-33.61 6.8735-83.15-103.09-290.05-358.09-300.79-377.19l-459.26 27.332c14.453 11.997 21.827 16.313 40.736 16.651 25.554 26.775 21.586 23.497 203.29 246.67zm60.387-275.4c25.497-1.9192 18.593-1.3993 29.297-2.2059 10.051 0.7512 11.788 8.1919 22.404 21.03 84.382 105.76 28.543 36.195 262.43 326.53l-0.4148 3.3376-21.484 3.4753c-3.5275 1.8599-5.0879 2.0054-9.0328 1.5273l-284.52-351.44 1.3186-2.2581zm-126.02 10.646 7.879 0.7142 265.23 331.55-3.0441 3.6951c-27.959 0.2031-21.987 0.0349-29.3 0.5903l-267.36-333.1c4.4753-3.5962 20.247-2.9836 26.599-3.4506z"/>
    <polygon points="3106.7 1707.4 2911.2 1701.1 3046.3 1870 3067.7 1824" fill="rgba(0,0,0,0.651)"/>
    <path d="m3126.8 1702.5c-17.474 73.275-25.241 87.54-53.462 157.54-4.1758 9.6456-13.269 24.89-12.308 35.376l3.9836 3.4369 4.1208-3.4369c22.72-47.136 43.242-96.696 57.143-147.17 3.9836-14.412 9.4783-30.81 9.3682-45.744-3.2966-0.4919-5.6044-1.0083-8.8459 0z"/>
    <path d="m1247.7 2150.4c-226.32-196.31-335.09-277.4-505.95-422.76-3.5082-3.0439-11.448-11.772-15.212-13.231-2.5302-0.9822 1.4336 0.156-53.354-5.1373l418.33 555.26c113.9-82.384 77.364-55.657 156.18-114.13z"/>
    <path d="m703.13 1792.8c-1.1213-0.7891 7.6908 1.78-398.5-75.372l11.876 57.944 438.05 83.875-39.907-50.444c-2.9998-3.8544-8.019-13.53-11.525-16.003z"/>
    <path d="m2467.9 1765.7c5.6565 56.947 13.983 112.2 31.788 166.79l9.9807 23.502 154.04-220.52-1.4863-3.2719-2.3159-0.3903-192.01 33.89z" fill="rgba(0,0,0,0.651)"/>
    <path d="m2884.5 1731.3-5.165 5.0548c-1.7859 5.1976-6.4558 13.689-3.9558 18.777 5.604 11.382 21.868 24.744 31.016 34.598 154.73 160.6 135.26 146.84 174.73 153.4-5.2942-15.056-0.6021-6.3744-196.62-211.83z"/>
    <path d="m156.06 1741.6c-33.474 22.851-67.173 47.337-104.67 63.211 5.855 2.6172 1.7015 2.4482 121.75-24.118l-12.84-37.249-4.2415-1.8435z"/>
    <path d="m235.32 1826.7 100.09 95.411-10.327-39.601c-1.1182-4.8873-1.849-14.426-4.099-18.599-1.9286-3.5686-127.61-112.62-135.89-116.91l-4.4229-1.6647c2.185 13.39 9.0042 24.722 13.253 37.4 4.8264 14.401 29.861 32.906 41.398 43.967z"/>
    <path d="m768.11 1880c-2.9804-1.882 30.192 5.676-446.85-85.169l11.64 54.826 484.57 94.562c-48.174-64.047-46.702-62.542-49.36-64.219z"/>
    <path d="m284.41 2074.6 47.404-126.19c-122.69-116.01-94.673-89.174-138.15-131.66-3.8675-3.8048-9.75-11.475-14.263-14.071-1.0838-0.6208-5.2921-0.6263-6.7453-0.7968l-128.68 26.37c235.96 242.81 190.48 196.36 240.44 246.35z"/>
    <path d="m2873.8 2030.8c-5.8516-37.2-27.939-212.52-47.39-228.26l-4.2578 0.1017c-3.489 5.1289-5.0552 9.4696-5.2749 15.7-1.1812 37.194 11.978 83.441 18.928 120.27l31.374 178.18c-52.83 24.351-99.835 45.227-159.66 42.378-3.0466 4.7087-3.7991 7.5413-3.6814 13.143 22.727 8.5569 101.84-5.9797 165.35-46.711 3.4614 10.618 6.2637 22.72 12.884 31.813l3.6538 0.4204c9.6935-13.311-8.5665-105.71-11.923-127.03z"/>
    <path d="m2898.5 2062.4 61.978-58.911c18.544-22.283 37.253-45.156 52.198-70.084l-146.57-132.95 32.39 261.94z" fill="rgba(0,0,0,0.651)"/>
    <path d="m2757.9 1818.6c-0.9062-3.3763-1.9231-3.6208-4.8901-5.3433-1.6755-0.9727-1.0439-0.6869-3.1318-0.7941-18.434 24.782-35.906 139.18-50.275 203.34-37.347 166.32-38.614 164.08-40.398 189.82l2.8406 0.9778 3.2964-3.4202c6.5991-11.725 12.547-23.181 16.723-36.04 28.173-86.749 47.052-180.44 65.033-269.83 3.9884-19.86 15.967-59.505 10.802-78.71z"/>
    <path d="m2707.9 1830.5-163.91 190.23c29.918 39.605 67.646 78.13 113.84 96.342l31.332-180.43c6.1043-34.431 16.33-71.416 18.731-106.15z" fill="rgba(0,0,0,0.651)"/>
    <path d="m2770.3 2126.6 77.857-30.219-60.302-248.07-74.514 284.19c19.154-0.514 38.277-1.3053 56.959-5.9041z" fill="rgba(0,0,0,0.651)"/>
    <path d="m335.72 1868.1 14.047 59.224 534.3 103.22c-49.501-63.992-48.568-63.277-50.992-64.458-7.9146-3.8541 37.575 8.0881-497.35-97.985z"/>
    <path d="m523.66 1983.5-178.58-33.697-49.019 131.2 104.35 27.03c50.03-49.334 22.99-22.072 123.26-124.53z"/>
    <path d="m1060.1 2259.3c-156.56-204.38-153.04-200.24-155.62-201.47-5.5408-2.634 43.479 11.022-356.24-68.276l-122.8 125.59c610.73 149.55 489.04 123.53 634.66 144.15z"/>
    <path d="m2259.3 2081c-96.086 31.416-231.24 51.821-233.85 53.398-2.2239 1.3394 1.6851-2.7346-51.577 60.746l4.8844 1.5356 284.35-79.081c-0.3022-10.085 1.8487-28.722-3.8105-36.598z"/>
    <path d="m1934.1 2205.2 54.327-65.645-2.2089-2.3103c-386.59 55.855-712.33 25.191-714.68 25.601-4.7528 0.8296-19.157 13.821-24.209 17.508-36.734 26.791-75.162 53.315-110.07 82.375 59.363-3.8675 739.61-46.398 796.84-57.529z"/>
</svg>