<svg xmlns="http://www.w3.org/2000/svg" version="1.0" width="340.013810pt" height="664.946559pt" viewBox="0 0 340.013810 664.946559" preserveAspectRatio="xMidYMid meet">
<g transform="translate(-338.967662,805.000000) scale(0.100000,-0.100000)" fill="#f7c948" stroke="none">
<path d="M5087 7968 c-100 -185 -157 -364 -157 -497 0 -103 27 -261 62 -361 16 -47 34 -99 40 -117 11 -31 12 -32 86 -35 84 -3 72 -15 117 112 32 89 65 294 65 399 0 47 -7 123 -15 168 -22 128 -122 413 -144 413 -5 0 -30 -37 -54 -82z"/>
<path fill="#f4a300" d="M4792 8003 c-16 -30 -33 -124 -39 -219 l-6 -91 59 -104 c53 -93 59 -101 62 -74 6 64 35 193 59 258 l24 67 -29 43 c-45 63 -92 121 -107 130 -9 5 -17 1 -23 -10z"/>
<path fill="#f4a300" d="M5508 7892 c-69 -73 -129 -164 -152 -230 -12 -32 -13 -55 -5 -109 6 -37 8 -113 4 -168 l-6 -100 51 90 c54 94 94 149 179 250 33 39 51 69 51 87 0 39 -38 230 -48 240 -5 5 -37 -22 -74 -60z"/>
<path d="M4447 7933 c-15 -26 -29 -238 -24 -359 l6 -136 94 -91 c98 -95 139 -157 181 -268 26 -68 74 -180 81 -187 9 -10 125 44 125 58 0 8 -7 77 -15 154 -31 291 -98 437 -320 696 -59 69 -111 129 -115 133 -4 5 -10 5 -13 0z"/>
<path d="M5743 7718 c-247 -249 -390 -505 -418 -744 l-7 -60 40 -18 c22 -10 59 -31 83 -47 l44 -29 68 68 c129 127 195 256 236 462 27 141 57 450 43 450 -4 0 -45 -37 -89 -82z"/>
<path fill="#f4a300" d="M6055 7662 c-196 -113 -181 -99 -189 -189 -9 -101 -42 -251 -72 -332 -31 -83 -81 -165 -171 -280 -40 -51 -70 -98 -67 -102 9 -15 18 -5 119 121 95 119 174 196 277 271 119 88 126 96 148 167 47 152 86 402 62 402 -4 0 -52 -26 -107 -58z"/>
<path d="M4060 7610 c0 -44 33 -250 51 -324 28 -108 40 -128 101 -167 71 -44 191 -161 295 -286 47 -57 89 -103 94 -103 14 0 114 112 111 124 -2 6 -20 63 -39 126 -59 193 -107 266 -250 376 -48 37 -148 114 -221 171 -73 57 -135 103 -137 103 -3 0 -5 -9 -5 -20z"/>
<path d="M3860 7467 c0 -6 78 -219 82 -222 2 -2 34 -18 72 -34 57 -26 67 -28 61 -14 -4 10 -16 56 -26 103 -11 47 -23 98 -27 115 -7 27 -13 30 -72 41 -68 13 -90 16 -90 11z"/>
<path d="M3616 7278 c13 -45 96 -233 141 -322 57 -114 107 -186 173 -254 83 -84 129 -110 220 -128 44 -8 123 -28 174 -44 52 -16 111 -32 130 -35 33 -7 36 -5 42 21 4 16 17 53 30 82 l23 53 -56 82 c-186 269 -294 351 -596 457 -66 23 -153 57 -194 76 -89 40 -97 41 -87 12z"/>
<path d="M6445 7284 c-172 -31 -348 -101 -471 -189 -81 -58 -212 -195 -285 -299 -39 -54 -68 -100 -65 -103 3 -3 63 33 133 80 141 93 249 151 361 191 83 30 221 56 293 56 36 0 53 5 67 21 22 23 132 230 132 248 0 15 -65 13 -165 -5z"/>
<path d="M6374 6960 c-169 -23 -342 -86 -481 -176 -55 -35 -233 -174 -233 -180 0 -2 10 -33 22 -70 18 -57 24 -65 42 -61 12 3 64 16 116 30 52 14 169 37 258 51 l164 25 80 58 c45 32 113 94 151 138 39 44 91 98 116 120 25 22 49 44 53 50 16 22 -163 31 -288 15z"/>
<path d="M3438 6924 c-5 -4 -8 -11 -8 -15 0 -17 143 -190 211 -254 l74 -70 115 9 115 8 -57 59 c-32 32 -80 93 -107 136 -88 138 -71 127 -213 131 -67 2 -126 0 -130 -4z"/>
<path fill="#5a3e1b" d="M4985 6893 c-279 -67 -460 -306 -442 -583 19 -284 233 -498 517 -517 166 -10 297 42 420 166 114 115 160 228 160 391 0 99 -17 168 -61 259 -61 124 -207 237 -355 275 -58 15 -193 20 -239 9z"/>
<path d="M3700 6520 c-164 -28 -289 -53 -301 -61 -17 -10 -20 -8 126 -114 210 -153 315 -192 485 -181 99 6 288 42 401 76 l65 19 -4 63 c-2 35 -7 66 -11 70 -13 14 -185 80 -273 104 -80 22 -117 26 -263 29 -93 2 -195 0 -225 -5z"/>
<path d="M6055 6489 c-130 -23 -232 -50 -297 -79 l-48 -21 0 -58 c0 -52 3 -59 23 -65 12 -4 119 -11 237 -16 229 -9 265 -15 398 -72 l73 -31 52 24 c49 23 223 134 277 178 14 11 22 22 19 25 -3 3 -49 17 -103 31 -54 14 -110 32 -126 40 -15 8 -67 26 -115 40 -107 31 -227 32 -390 4z"/>
<path d="M5675 6141 c-18 -54 -21 -51 110 -146 128 -94 206 -137 299 -169 183 -61 313 -55 553 26 74 25 91 34 82 44 -18 22 -298 190 -370 222 -141 63 -162 67 -421 67 l-238 0 -15 -44z"/>
<path d="M4360 6154 c-245 -62 -454 -69 -585 -21 l-70 26 -162 -86 c-124 -66 -160 -89 -152 -99 21 -26 300 -124 353 -124 10 0 39 16 65 35 168 123 300 167 555 185 82 5 152 13 155 15 3 3 -2 25 -10 48 -19 51 -26 52 -149 21z"/>
<path d="M4505 6019 c-16 -5 -97 -13 -180 -18 -163 -10 -223 -25 -345 -86 -93 -47 -149 -91 -272 -215 -58 -60 -130 -124 -158 -143 -28 -19 -47 -37 -42 -41 26 -16 168 -28 267 -23 229 12 424 72 540 164 28 22 103 99 168 171 l118 131 -23 35 c-25 38 -27 39 -73 25z"/>
<path d="M5566 5938 c-15 -21 -14 -24 27 -66 23 -24 74 -69 112 -100 185 -148 256 -250 313 -449 l28 -98 70 -34 c38 -18 91 -42 118 -52 l48 -20 -6 28 c-8 33 -107 265 -144 338 -88 175 -261 343 -454 441 -79 40 -92 41 -112 12z"/>
<path fill="#f4a300" d="M4533 5791 c-147 -172 -251 -246 -430 -305 l-82 -27 -36 -94 c-42 -108 -66 -193 -56 -199 9 -6 162 54 248 97 62 32 72 41 87 79 43 108 144 255 303 442 82 96 100 126 74 126 -4 0 -53 -54 -108 -119z"/>
<path d="M5439 5834 c-19 -14 -40 -29 -47 -33 -11 -6 1 -45 53 -176 37 -92 78 -216 91 -276 l24 -108 61 -58 c33 -32 89 -78 122 -101 65 -45 304 -168 312 -160 9 9 -97 414 -127 488 -37 90 -90 170 -150 226 -46 45 -284 224 -297 224 -4 0 -23 -12 -42 -26z"/>
<path d="M4712 5827 c-218 -194 -368 -410 -442 -635 -22 -67 -43 -147 -46 -178 l-7 -56 71 36 c110 55 221 123 274 167 48 41 68 82 68 141 0 58 50 183 119 297 39 64 73 130 77 148 6 29 3 34 -36 58 -54 34 -62 36 -78 22z"/>
<path d="M6007 5753 c72 -69 139 -164 189 -265 30 -63 43 -71 138 -88 65 -11 199 -14 209 -4 6 6 -233 297 -254 310 -6 3 -56 16 -113 29 -56 13 -133 37 -171 54 l-68 31 70 -67z"/>
<path d="M4893 5682 c-77 -87 -118 -147 -158 -235 -36 -78 -65 -199 -65 -271 0 -107 56 -396 77 -403 17 -6 133 174 188 289 82 174 115 331 115 550 l0 118 -24 0 c-14 0 -36 4 -49 9 -23 9 -31 4 -84 -57z"/>
<path d="M5198 5738 c-46 -10 -47 -11 -53 -51 -3 -23 -14 -105 -25 -182 -11 -77 -20 -160 -20 -185 0 -99 57 -242 142 -359 68 -93 191 -236 202 -236 19 0 57 194 63 318 13 274 -59 502 -216 685 -21 24 -24 24 -93 10z"/>
<path fill="#2e7d32" d="M5053 5134 c-5 -11 -8 -258 -8 -550 l0 -532 -32 61 c-32 58 -88 127 -105 127 -18 0 -6 -44 31 -119 22 -43 56 -125 76 -182 40 -116 40 -117 65 -799 5 -162 13 -344 16 -405 7 -121 -2 -130 -31 -30 -23 84 -94 263 -107 271 -5 4 -17 0 -25 -9 -14 -13 -12 -23 15 -94 40 -103 118 -421 136 -553 22 -161 37 -378 44 -637 l7 -235 28 -24 c48 -41 129 -26 155 28 10 22 8 51 -13 179 -70 429 -100 874 -92 1361 3 198 11 352 20 418 15 105 57 304 81 390 10 35 10 53 2 79 -9 26 -14 30 -23 20 -16 -20 -50 -123 -78 -241 -13 -55 -26 -102 -28 -105 -4 -3 -9 73 -27 447 -5 107 -10 377 -10 598 0 381 -1 405 -19 431 -11 14 -31 48 -45 75 -22 41 -27 45 -33 30z"/>
<path fill="#388e3c" d="M3695 5005 c9 -56 43 -109 125 -200 80 -88 154 -196 229 -335 106 -195 205 -295 338 -342 118 -41 273 -34 378 19 64 32 97 62 93 87 -3 17 -16 22 -85 33 -45 7 -104 21 -133 32 -39 15 -58 17 -83 10 -43 -12 -167 -12 -167 1 0 6 26 10 58 10 33 0 66 6 77 14 17 12 16 15 -26 42 -106 69 -300 247 -284 262 2 2 26 -14 52 -37 26 -23 73 -59 103 -81 l55 -41 3 45 c3 47 -14 94 -51 134 -30 32 -6 27 26 -5 34 -36 53 -84 62 -155 7 -54 10 -59 52 -87 83 -55 241 -111 314 -111 18 0 17 4 -6 67 -14 36 -39 88 -55 115 -34 54 -37 67 -14 47 32 -26 74 -98 95 -163 34 -103 63 -82 62 44 0 112 -56 207 -164 279 -111 74 -215 102 -550 146 -329 43 -417 74 -484 170 l-27 40 7 -40z m500 -353 c-7 -7 -45 29 -45 41 0 6 11 0 25 -13 14 -13 23 -26 20 -28z"/>
<path fill="#1b5e20" d="M5665 4433 c-104 -37 -183 -99 -248 -192 -30 -44 -30 -44 -6 -37 13 4 56 10 94 13 39 3 84 13 100 21 51 26 345 29 345 4 0 -4 -53 -7 -118 -7 -103 -1 -134 -5 -212 -32 -10 -3 3 -14 35 -30 119 -61 318 -243 460 -421 66 -83 70 -109 4 -31 -24 29 -93 97 -154 152 l-110 99 -9 -31 c-6 -21 -3 -57 8 -113 8 -46 18 -96 21 -113 l6 -30 -20 35 c-30 56 -53 156 -50 229 l2 65 -44 33 c-58 43 -172 98 -233 112 -39 10 -58 9 -100 -3 -80 -23 -91 -41 -91 -145 0 -144 54 -249 165 -322 79 -52 158 -80 396 -143 203 -52 243 -67 400 -149 85 -44 159 -61 222 -52 l47 7 -43 20 c-82 39 -178 176 -231 331 -11 32 -34 121 -51 198 -39 180 -65 257 -109 330 -88 144 -193 211 -341 216 -63 3 -98 -1 -135 -14z"/>
<path fill="#388e3c" d="M4470 3586 c-116 -26 -199 -84 -262 -180 -51 -79 -82 -181 -108 -357 -12 -79 -31 -178 -41 -219 -28 -109 -92 -232 -145 -279 -24 -21 -44 -42 -44 -46 0 -4 23 -5 51 -2 59 7 136 43 262 121 71 44 126 67 270 114 100 33 213 74 251 93 127 62 216 183 234 317 12 86 6 108 -33 126 -68 33 -189 10 -304 -56 -36 -20 -41 -27 -41 -60 0 -59 -20 -138 -52 -208 -39 -84 -46 -63 -14 40 14 45 26 101 26 125 l0 45 -92 -63 c-51 -34 -130 -99 -175 -145 -46 -45 -83 -79 -83 -76 0 18 116 148 195 216 105 93 282 213 337 230 21 6 38 15 38 20 0 34 -237 81 -305 61 -43 -14 -46 0 -5 17 21 8 65 11 138 8 91 -4 116 -9 167 -32 95 -45 178 -76 184 -70 11 10 -53 117 -97 160 -55 55 -105 81 -191 100 -78 16 -89 16 -161 0z"/>
</g>
</svg>