<svg xmlns="http://www.w3.org/2000/svg" xml:space="preserve" id="friday" width="512" height="512" x="0" y="0" enable-background="new 0 0 512 512" version="1.1" viewBox="0 0 512 512">
  <linearGradient id="SVGID_1_" x1="48.296" x2="463.544" y1="479.493" y2="64.246" gradientUnits="userSpaceOnUse">
    <stop offset="0" style="stop-color:#6bcbd8"></stop>
    <stop offset="1" style="stop-color:#ae6cac"></stop>
  </linearGradient>
  <path fill="url(#SVGID_1_)" d="M477.217,174.501c0-0.705-0.066-1.393-0.16-2.072v-67.165c0-36.674-29.836-66.51-66.51-66.51h-17.202
	V22.015c0-8.284-6.716-15-15-15s-15,6.716-15,15v16.739H271V22.015c0-8.284-6.716-15-15-15c-8.284,0-15,6.716-15,15v16.739h-92.345
	V22.015c0-8.284-6.716-15-15-15s-15,6.716-15,15v16.739h-17.362c-36.673,0-66.51,29.836-66.51,66.51v333.211
	c0,36.674,29.836,66.51,66.51,66.51h309.254c36.674,0,66.51-29.836,66.51-66.51V176.573
	C477.152,175.894,477.217,175.206,477.217,174.501z M101.293,68.754h17.362v16.738c0,8.284,6.716,15,15,15s15-6.716,15-15V68.754
	H241v16.738c0,8.284,6.716,15,15,15c8.284,0,15-6.716,15-15V68.754h92.345v16.738c0,8.284,6.716,15,15,15s15-6.716,15-15V68.754
	h17.202c20.132,0,36.51,16.378,36.51,36.51v54.237H64.783v-54.237C64.783,85.133,81.161,68.754,101.293,68.754z M410.547,474.985
	H101.293c-20.131,0-36.51-16.378-36.51-36.51V189.501h382.274v248.974C447.057,458.606,430.679,474.985,410.547,474.985z
	 M228.422,283.517v19.04h-40.6v21.7h31.359v18.2h-31.359v40.04h-23.94v-98.98H228.422z M288.761,382.497l-21.42-37.38h-5.46v37.38
	h-23.94v-98.98h40.88c7.84,0,14.466,1.354,19.88,4.06c5.412,2.708,9.472,6.418,12.181,11.13c2.705,4.714,4.06,10.104,4.06,16.17
	c0,7.188-1.984,13.3-5.95,18.34c-3.968,5.04-9.729,8.494-17.29,10.36l23.521,38.92H288.761z M261.882,328.737h14.84
	c4.76,0,8.26-1.05,10.5-3.15c2.239-2.1,3.359-5.202,3.359-9.31c0-3.92-1.144-7-3.43-9.24c-2.288-2.24-5.764-3.36-10.43-3.36h-14.84
	V328.737z M348.119,283.517v98.98h-23.94v-98.98H348.119z"></path>
</svg>
